<svg width="93" height="92" viewBox="0 0 93 92" fill="none" xmlns="http://www.w3.org/2000/svg">
<g opacity="0.99">
<g clip-path="url(#clip0_142_228)">
<path d="M81.5475 0H11.4523C5.40343 0 0.499878 4.90355 0.499878 10.9524V81.0476C0.499878 87.0965 5.40343 92 11.4523 92H81.5475C87.5963 92 92.4999 87.0965 92.4999 81.0476V10.9524C92.4999 4.90355 87.5963 0 81.5475 0Z" fill="white" fill-opacity="0.28"/>
<g clip-path="url(#clip1_142_228)">
<path fill-rule="evenodd" clip-rule="evenodd" d="M60.3332 56.6666H33.6665C32.9593 56.6666 32.281 56.3857 31.7809 55.8856C31.2808 55.3855 30.9999 54.7072 30.9999 54V34C30.9999 33.2927 31.2808 32.6145 31.7809 32.1144C32.281 31.6143 32.9593 31.3333 33.6665 31.3333H60.3332C61.0405 31.3333 61.7187 31.6143 62.2188 32.1144C62.7189 32.6145 62.9999 33.2927 62.9999 34V54C62.9999 54.7072 62.7189 55.3855 62.2188 55.8856C61.7187 56.3857 61.0405 56.6666 60.3332 56.6666ZM34.9999 54H37.6665V47.3333C37.6665 46.9797 37.5261 46.6406 37.276 46.3905C37.026 46.1405 36.6868 46 36.3332 46C35.9796 46 35.6405 46.1405 35.3904 46.3905C35.1404 46.6406 34.9999 46.9797 34.9999 47.3333V54ZM38.9999 54H54.9999V46H38.9999V54ZM56.3332 54H58.9999V47.3333C58.9999 46.9797 58.8594 46.6406 58.6094 46.3905C58.3593 46.1405 58.0202 46 57.6665 46C57.3129 46 56.9738 46.1405 56.7237 46.3905C56.4737 46.6406 56.3332 46.9797 56.3332 47.3333V54ZM51.3745 37.9733L52.8879 35.7026C52.9395 35.6299 52.9759 35.5475 52.9951 35.4604C53.0143 35.3733 53.0158 35.2832 52.9995 35.1955C52.9833 35.1078 52.9496 35.0243 52.9005 34.9498C52.8513 34.8754 52.7878 34.8116 52.7135 34.7621C52.6393 34.7127 52.5559 34.6787 52.4683 34.662C52.3806 34.6454 52.2906 34.6466 52.2034 34.6654C52.1162 34.6842 52.0337 34.7203 51.9607 34.7716C51.8877 34.8229 51.8258 34.8883 51.7785 34.964L50.1972 37.3373C49.1891 36.8956 48.1005 36.6676 46.9999 36.6676C45.8993 36.6676 44.8106 36.8956 43.8025 37.3373L42.2212 34.964C42.174 34.8883 42.112 34.8229 42.0391 34.7716C41.9661 34.7203 41.8836 34.6842 41.7964 34.6654C41.7092 34.6466 41.6191 34.6454 41.5315 34.662C41.4439 34.6787 41.3605 34.7127 41.2862 34.7621C41.212 34.8116 41.1484 34.8754 41.0993 34.9498C41.0502 35.0243 41.0165 35.1078 41.0002 35.1955C40.984 35.2832 40.9855 35.3733 41.0046 35.4604C41.0238 35.5475 41.0603 35.6299 41.1119 35.7026L42.6252 37.9733C41.5118 38.6994 40.5972 39.6917 39.9642 40.8605C39.3311 42.0292 38.9997 43.3375 38.9999 44.6666H54.9999C55.0001 43.3375 54.6686 42.0292 54.0356 40.8605C53.4026 39.6917 52.4879 38.6994 51.3745 37.9733ZM44.3332 42C43.9796 42 43.6405 41.8595 43.3904 41.6095C43.1404 41.3594 42.9999 41.0203 42.9999 40.6666C42.9999 40.313 43.1404 39.9739 43.3904 39.7238C43.6405 39.4738 43.9796 39.3333 44.3332 39.3333C44.6868 39.3333 45.026 39.4738 45.276 39.7238C45.5261 39.9739 45.6665 40.313 45.6665 40.6666C45.6665 41.0203 45.5261 41.3594 45.276 41.6095C45.026 41.8595 44.6868 42 44.3332 42ZM49.6665 42C49.3129 42 48.9738 41.8595 48.7237 41.6095C48.4737 41.3594 48.3332 41.0203 48.3332 40.6666C48.3332 40.313 48.4737 39.9739 48.7237 39.7238C48.9738 39.4738 49.3129 39.3333 49.6665 39.3333C50.0202 39.3333 50.3593 39.4738 50.6094 39.7238C50.8594 39.9739 50.9999 40.313 50.9999 40.6666C50.9999 41.0203 50.8594 41.3594 50.6094 41.6095C50.3593 41.8595 50.0202 42 49.6665 42ZM38.9999 58H54.9999C55.3535 58 55.6926 58.1405 55.9427 58.3905C56.1927 58.6406 56.3332 58.9797 56.3332 59.3333C56.3332 59.6869 56.1927 60.0261 55.9427 60.2761C55.6926 60.5262 55.3535 60.6666 54.9999 60.6666H38.9999C38.6463 60.6666 38.3071 60.5262 38.0571 60.2761C37.807 60.0261 37.6665 59.6869 37.6665 59.3333C37.6665 58.9797 37.807 58.6406 38.0571 58.3905C38.3071 58.1405 38.6463 58 38.9999 58Z" fill="white"/>
</g>
</g>
</g>
<defs>
<clipPath id="clip0_142_228">
<rect x="0.5" width="92" height="92" rx="46" fill="white"/>
</clipPath>
<clipPath id="clip1_142_228">
<rect width="32" height="32" fill="white" transform="translate(30.9999 30)"/>
</clipPath>
</defs>
</svg>
