<svg width="92" height="92" viewBox="0 0 92 92" fill="none" xmlns="http://www.w3.org/2000/svg">
<g opacity="0.99">
<g clip-path="url(#clip0_142_194)">
<path d="M81.0476 0H10.9524C4.90355 0 0 4.90355 0 10.9524V81.0476C0 87.0965 4.90355 92 10.9524 92H81.0476C87.0965 92 92 87.0965 92 81.0476V10.9524C92 4.90355 87.0965 0 81.0476 0Z" fill="white" fill-opacity="0.28"/>
<g clip-path="url(#clip1_142_194)">
<path d="M53.2845 56.6614C52.5792 56.6614 52.0045 56.0662 52.0045 55.3353C52.0045 54.6057 52.5792 54.0118 53.2845 54.0118C53.9898 54.0118 54.5645 54.6057 54.5645 55.3353C54.5645 56.0662 53.9898 56.6614 53.2845 56.6614ZM39.1456 56.6614C38.4403 56.6614 37.8656 56.0662 37.8656 55.3353C37.8656 54.6057 38.4403 54.0118 39.1456 54.0118C39.8509 54.0118 40.4256 54.6057 40.4256 55.3353C40.4256 56.0662 39.8509 56.6614 39.1456 56.6614ZM53.7427 48.6831L56.3002 44.0982C56.3707 43.9718 56.3898 43.8231 56.3536 43.6829C56.3173 43.5428 56.2285 43.422 56.1056 43.3455C56.0449 43.3097 55.9776 43.2865 55.9078 43.2773C55.8379 43.2681 55.7669 43.273 55.699 43.2919C55.6311 43.3108 55.5678 43.3432 55.5127 43.3872C55.4576 43.4311 55.412 43.4858 55.3786 43.5478L52.7904 48.1903C50.7337 47.2233 48.4877 46.7257 46.215 46.7337C43.8432 46.7337 41.6198 47.2547 39.6397 48.1903L37.0528 43.5478C37.0195 43.4856 36.9739 43.4309 36.9189 43.3868C36.8638 43.3427 36.8004 43.3103 36.7325 43.2914C36.6645 43.2725 36.5935 43.2675 36.5236 43.2768C36.4537 43.2862 36.3864 43.3095 36.3258 43.3455C36.2026 43.4217 36.1136 43.5426 36.0773 43.6828C36.0411 43.823 36.0604 43.9718 36.1312 44.0982L38.6886 48.6831C34.297 51.1548 31.2928 55.7564 30.855 61.1926H61.575C61.136 55.7564 58.1318 51.1548 53.7427 48.6831Z" fill="white"/>
</g>
</g>
</g>
<defs>
<clipPath id="clip0_142_194">
<rect width="92" height="92" rx="46" fill="white"/>
</clipPath>
<clipPath id="clip1_142_194">
<rect width="32" height="32" fill="white" transform="translate(30 29.8326)"/>
</clipPath>
</defs>
</svg>
