<svg width="92" height="92" viewBox="0 0 92 92" fill="none" xmlns="http://www.w3.org/2000/svg">
<g opacity="0.99">
<g clip-path="url(#clip0_3_76)">
<path d="M81.0475 0H10.9522C4.9034 0 -0.000152588 4.90355 -0.000152588 10.9524V81.0476C-0.000152588 87.0965 4.9034 92 10.9522 92H81.0475C87.0963 92 91.9998 87.0965 91.9998 81.0476V10.9524C91.9998 4.90355 87.0963 0 81.0475 0Z" fill="white"/>
<g clip-path="url(#clip1_3_76)">
<path fill-rule="evenodd" clip-rule="evenodd" d="M59.8332 56.6667H33.1665C32.4593 56.6667 31.781 56.3857 31.2809 55.8856C30.7808 55.3855 30.4998 54.7072 30.4998 54V34C30.4998 33.2928 30.7808 32.6145 31.2809 32.1144C31.781 31.6143 32.4593 31.3333 33.1665 31.3333H59.8332C60.5404 31.3333 61.2187 31.6143 61.7188 32.1144C62.2189 32.6145 62.4998 33.2928 62.4998 34V54C62.4998 54.7072 62.2189 55.3855 61.7188 55.8856C61.2187 56.3857 60.5404 56.6667 59.8332 56.6667ZM34.4998 54H37.1665V47.3333C37.1665 46.9797 37.026 46.6406 36.776 46.3905C36.5259 46.1405 36.1868 46 35.8332 46C35.4796 46 35.1404 46.1405 34.8904 46.3905C34.6403 46.6406 34.4998 46.9797 34.4998 47.3333V54ZM38.4998 54H54.4998V46H38.4998V54ZM55.8332 54H58.4998V47.3333C58.4998 46.9797 58.3594 46.6406 58.1093 46.3905C57.8593 46.1405 57.5201 46 57.1665 46C56.8129 46 56.4738 46.1405 56.2237 46.3905C55.9737 46.6406 55.8332 46.9797 55.8332 47.3333V54ZM50.8745 37.9733L52.3878 35.7027C52.4394 35.6299 52.4759 35.5475 52.4951 35.4604C52.5143 35.3733 52.5158 35.2832 52.4995 35.1955C52.4833 35.1078 52.4496 35.0243 52.4004 34.9499C52.3513 34.8754 52.2878 34.8116 52.2135 34.7621C52.1393 34.7127 52.0559 34.6787 51.9682 34.6621C51.8806 34.6454 51.7905 34.6466 51.7033 34.6654C51.6162 34.6842 51.5336 34.7203 51.4607 34.7716C51.3877 34.8229 51.3258 34.8883 51.2785 34.964L49.6972 37.3373C48.6891 36.8956 47.6004 36.6676 46.4998 36.6676C45.3992 36.6676 44.3106 36.8956 43.3025 37.3373L41.7212 34.964C41.6739 34.8883 41.612 34.8229 41.539 34.7716C41.4661 34.7203 41.3835 34.6842 41.2964 34.6654C41.2092 34.6466 41.1191 34.6454 41.0315 34.6621C40.9438 34.6787 40.8604 34.7127 40.7862 34.7621C40.7119 34.8116 40.6484 34.8754 40.5993 34.9499C40.5501 35.0243 40.5164 35.1078 40.5002 35.1955C40.4839 35.2832 40.4854 35.3733 40.5046 35.4604C40.5238 35.5475 40.5603 35.6299 40.6118 35.7027L42.1252 37.9733C41.0118 38.6994 40.0972 39.6917 39.4641 40.8605C38.8311 42.0292 38.4997 43.3375 38.4998 44.6667H54.4998C54.5 43.3375 54.1686 42.0292 53.5356 40.8605C52.9025 39.6917 51.9879 38.6994 50.8745 37.9733ZM43.8332 42C43.4796 42 43.1404 41.8595 42.8904 41.6095C42.6403 41.3594 42.4998 41.0203 42.4998 40.6667C42.4998 40.313 42.6403 39.9739 42.8904 39.7239C43.1404 39.4738 43.4796 39.3333 43.8332 39.3333C44.1868 39.3333 44.5259 39.4738 44.776 39.7239C45.026 39.9739 45.1665 40.313 45.1665 40.6667C45.1665 41.0203 45.026 41.3594 44.776 41.6095C44.5259 41.8595 44.1868 42 43.8332 42ZM49.1665 42C48.8129 42 48.4738 41.8595 48.2237 41.6095C47.9737 41.3594 47.8332 41.0203 47.8332 40.6667C47.8332 40.313 47.9737 39.9739 48.2237 39.7239C48.4738 39.4738 48.8129 39.3333 49.1665 39.3333C49.5201 39.3333 49.8593 39.4738 50.1093 39.7239C50.3594 39.9739 50.4998 40.313 50.4998 40.6667C50.4998 41.0203 50.3594 41.3594 50.1093 41.6095C49.8593 41.8595 49.5201 42 49.1665 42ZM38.4998 58H54.4998C54.8535 58 55.1926 58.1405 55.4427 58.3905C55.6927 58.6406 55.8332 58.9797 55.8332 59.3333C55.8332 59.687 55.6927 60.0261 55.4427 60.2761C55.1926 60.5262 54.8535 60.6667 54.4998 60.6667H38.4998C38.1462 60.6667 37.8071 60.5262 37.557 60.2761C37.307 60.0261 37.1665 59.687 37.1665 59.3333C37.1665 58.9797 37.307 58.6406 37.557 58.3905C37.8071 58.1405 38.1462 58 38.4998 58Z" fill="#FF5B4A"/>
</g>
</g>
</g>
<defs>
<clipPath id="clip0_3_76">
<rect width="92" height="92" rx="46" fill="white"/>
</clipPath>
<clipPath id="clip1_3_76">
<rect width="32" height="32" fill="white" transform="translate(30.4998 30)"/>
</clipPath>
</defs>
</svg>
