<svg width="52" height="52" viewBox="0 0 52 52" fill="none" xmlns="http://www.w3.org/2000/svg">
<rect width="52" height="52" rx="26" fill="white"/>
<path fill-rule="evenodd" clip-rule="evenodd" d="M22.2204 25.3324H33.7812C34.3707 25.3323 34.9361 25.098 35.3529 24.6809C35.7696 24.2639 36.0037 23.6984 36.0034 23.1088V16.8849C36.0034 16.2951 35.7694 15.7295 35.3523 15.3124C34.9353 14.8954 34.3696 14.6612 33.7798 14.6613H22.219C21.6295 14.6614 21.0641 14.8958 20.6473 15.3128C20.2305 15.7298 19.9965 16.2953 19.9968 16.8849V23.1102C19.9968 23.6997 20.2312 24.2651 20.6483 24.6819C21.0653 25.0986 21.6308 25.3327 22.2204 25.3324Z" fill="#E6EEF2"/>
<path fill-rule="evenodd" clip-rule="evenodd" d="M20.2203 23.3322H31.7811C32.3707 23.3321 32.936 23.0978 33.3528 22.6808C33.7696 22.2637 34.0036 21.6982 34.0033 21.1087V14.8847C34.0033 14.2949 33.7693 13.7293 33.3522 13.3122C32.9352 12.8952 32.3695 12.661 31.7797 12.6611H20.2189C19.6294 12.6613 19.064 12.8956 18.6472 13.3126C18.2305 13.7296 17.9964 14.2952 17.9967 14.8847V21.11C17.9967 21.6996 18.2312 22.2649 18.6482 22.6817C19.0652 23.0985 19.6307 23.3325 20.2203 23.3322Z" fill="white" stroke="#171717" stroke-width="1.5" stroke-linecap="round" stroke-linejoin="round"/>
<path d="M32.609 36.5521H31.3406C30.9958 36.5518 30.6549 36.6258 30.3412 36.7691L25.2695 39.0789" stroke="#171717" stroke-width="1.5" stroke-linecap="round" stroke-linejoin="round"/>
<path d="M38.005 28.7859H34.6703C33.5653 28.7859 32.6695 29.6818 32.6695 30.7868V36.1223C32.6695 37.2274 33.5653 38.1232 34.6703 38.1232H38.005" stroke="#171717" stroke-width="1.5" stroke-linecap="round" stroke-linejoin="round"/>
<path d="M13.995 38.1232H17.3297C18.4348 38.1232 19.3306 37.2274 19.3306 36.1223V30.7868C19.3306 29.6818 18.4348 28.7859 17.3297 28.7859H13.995" stroke="#171717" stroke-width="1.5" stroke-linecap="round" stroke-linejoin="round"/>
<path d="M33.2102 29.3567L29.079 27.5382C28.336 27.2112 27.4783 27.2801 26.7969 27.7214L23.6505 29.76C23.1776 30.0665 22.8739 30.5751 22.8283 31.1367C22.7827 31.6984 23.0005 32.2493 23.4178 32.628V32.628C23.9594 33.1185 24.7422 33.2367 25.4045 32.9281L27.2803 32.0518L28.5989 33.2485C28.9843 33.5983 29.2149 34.0868 29.2401 34.6066C29.2653 35.1264 29.0829 35.6349 28.7332 36.0202C28.6924 36.0651 28.6497 36.108 28.6049 36.149L25.8107 38.7064C24.8924 39.5469 23.4851 39.5501 22.563 38.7137L20.8833 37.1902C20.4698 36.8232 19.95 36.5977 19.3994 36.5465" stroke="#171717" stroke-width="1.5" stroke-linecap="round" stroke-linejoin="round"/>
<path d="M19.3575 30.1914L22.2702 29.1416C22.9401 28.9068 23.6796 28.9809 24.2895 29.3441" stroke="#171717" stroke-width="1.5" stroke-linecap="round" stroke-linejoin="round"/>
<path d="M27.4153 16.5814C28.1969 17.363 28.1969 18.6303 27.4153 19.4119C26.6336 20.1936 25.3664 20.1936 24.5848 19.4119C23.8031 18.6303 23.8031 17.363 24.5848 16.5814C24.9601 16.2061 25.4692 15.9952 26 15.9952C26.5308 15.9952 27.0399 16.2061 27.4153 16.5814" stroke="#FF5B4A" stroke-width="1.5" stroke-linecap="round" stroke-linejoin="round"/>
</svg>
