<svg width="143" height="139" viewBox="0 0 143 139" fill="none" xmlns="http://www.w3.org/2000/svg">
<path fill-rule="evenodd" clip-rule="evenodd" d="M84.9113 68.4611C85.8819 66.9218 86.6827 65.2534 87.2909 63.4448C89.4265 57.0988 85.4562 49.5531 79.3492 44.4164C73.2448 39.2814 65.1281 36.6625 59.3937 39.6629C56.1145 41.378 54.3898 43.5722 53.7345 45.9413C53.0833 48.2981 53.4993 50.8733 54.6726 53.4319C57.9463 60.5623 67.216 67.6087 72.6136 69.0253C75.1107 69.6792 77.6511 70.163 80.216 70.4944C75.1028 75.9153 67.1539 79.0329 58.1862 80.6689C38.6964 84.2253 14.3292 80.7015 2.05448 77.2509C1.395 77.0655 0.711091 77.4516 0.524307 78.1122C0.33752 78.7728 0.719905 79.4592 1.37937 79.6446C13.8971 83.1634 38.7488 86.7401 58.6244 83.1127C68.8916 81.2399 77.8209 77.4237 83.2161 70.8166C102.607 72.4602 123.503 66.159 141.248 60.9592C141.905 60.769 142.284 60.0763 142.093 59.4171C141.9 58.7605 141.214 58.3815 140.555 58.5743C123.535 63.5605 103.57 69.6741 84.9113 68.4611ZM82.0937 68.22C83.2871 66.5561 84.251 64.7055 84.9391 62.6534C86.7883 57.1614 83.0376 50.7649 77.7508 46.3185C74.5094 43.5943 70.6536 41.5971 66.9847 41.0235C64.6783 40.6619 62.4524 40.8652 60.5398 41.8671C58.0294 43.1801 56.6269 44.7867 56.1281 46.5991C55.6226 48.4219 56.0187 50.408 56.9298 52.3883C59.9119 58.8877 68.3343 65.3311 73.2476 66.6199C76.1454 67.3809 79.0989 67.9011 82.0937 68.22Z" fill="#FF5B4A"/>
</svg>
