<svg width="700" height="472" viewBox="0 0 700 472" fill="none" xmlns="http://www.w3.org/2000/svg">
<rect x="72.7031" width="565" height="362" rx="33" transform="rotate(1.32555 72.7031 0)" fill="#CBB8B0"/>
<rect x="39.3789" y="38.0898" width="619" height="396" rx="33" transform="rotate(-0.471117 39.3789 38.0898)" fill="#E9D9D3"/>
<rect x="1" y="64" width="699" height="408" rx="33" fill="white"/>
<path d="M495.5 211.362L425.5 352.362M495.5 211.362H548M495.5 211.362H431.25M548 211.362L579 162.362M548 211.362H699.5M431.25 211.362H398.5C387.454 211.362 378.5 220.316 378.5 231.362V255.362C378.5 266.408 369.546 275.362 358.5 275.362H242C230.954 275.362 222 266.408 222 255.362V211.362C222 200.316 213.046 191.362 202 191.362H0M431.25 211.362L357.929 155.864C352.935 152.083 350 146.181 350 139.917V65.8618" stroke="url(#paint0_radial_1_66)" stroke-width="1.5" stroke-dasharray="6 6"/>
<line x1="426" y1="210.862" x2="538" y2="210.862" stroke="url(#paint1_linear_1_66)" stroke-opacity="0.91" stroke-width="2"/>
<path d="M187.338 166.384C187.338 167.203 186.675 167.866 185.857 167.866C185.038 167.866 184.375 167.203 184.375 166.384C184.375 165.566 185.038 164.903 185.857 164.903C186.675 164.903 187.338 165.566 187.338 166.384Z" fill="#E1E9ED"/>
<path d="M195.608 217.247C195.397 217.338 195.152 217.241 195.06 217.03L193.608 213.673L190.25 215.125C190.039 215.217 189.794 215.119 189.703 214.908L188.25 211.552L184.894 213.004C184.681 213.096 184.436 212.999 184.345 212.787L182.892 209.43L179.536 210.882C179.324 210.974 179.079 210.877 178.987 210.665C178.896 210.454 178.993 210.209 179.204 210.117L182.944 208.499C183.155 208.407 183.401 208.505 183.492 208.716L184.945 212.073L188.302 210.621C188.513 210.529 188.759 210.627 188.85 210.838L190.302 214.194L193.659 212.742C193.87 212.65 194.115 212.748 194.207 212.959L195.825 216.699C195.917 216.91 195.82 217.155 195.608 217.247" fill="#87D8EA"/>
<path d="M199.786 210.539L203.123 212.069L202.78 208.415L199.786 210.539ZM203.984 212.924C203.954 212.989 203.907 213.047 203.847 213.09C203.725 213.176 203.567 213.191 203.432 213.128L198.782 210.995C198.646 210.933 198.555 210.804 198.541 210.656C198.527 210.507 198.593 210.362 198.715 210.276L202.887 207.317C203.008 207.231 203.167 207.216 203.302 207.278C203.438 207.34 203.529 207.47 203.543 207.618L204.021 212.711C204.027 212.784 204.014 212.858 203.984 212.924" fill="#FF5B4A"/>
<path d="M261.742 297.931L260.181 297.115L260.999 295.553C261.104 295.35 261.028 295.098 260.825 294.991C260.616 294.884 260.367 294.963 260.262 295.167L259.444 296.728L257.883 295.912C257.68 295.804 257.425 295.884 257.32 296.087C257.216 296.292 257.291 296.543 257.494 296.65L259.055 297.467L258.243 299.028C258.133 299.231 258.214 299.483 258.417 299.59C258.62 299.697 258.875 299.618 258.98 299.414L259.798 297.853L261.359 298.67C261.562 298.777 261.812 298.698 261.922 298.494C262.027 298.29 261.945 298.038 261.742 297.931Z" fill="#87D8EA"/>
<path d="M293.798 161.862H62.1389C58.494 161.862 55.5391 164.817 55.5391 168.462V316.962H300.402V168.462C300.402 164.817 297.442 161.862 293.798 161.862Z" fill="#D4E4EC"/>
<path d="M65 307.722V171.102H291.378V307.722H65Z" fill="white"/>
<path fill-rule="evenodd" clip-rule="evenodd" d="M136.143 208.148C150.63 204.805 163.805 198.67 173.314 190.862C173.34 190.885 173.369 190.908 173.397 190.928V284.499C173.322 284.533 173.247 284.568 173.173 284.602C173.06 284.655 172.949 284.707 172.844 284.753C168.805 282.874 160.843 278.69 153.27 271.946C141.745 261.681 135.935 249.84 136.001 236.752L136.143 208.148ZM173.398 284.499V190.928C182.823 198.779 195.899 204.997 210.311 208.446L210.168 237.05C210.103 250.137 204.174 261.93 192.548 272.103C185.235 278.501 177.6 282.542 173.398 284.499Z" fill="#FF5B4A"/>
<path fill-rule="evenodd" clip-rule="evenodd" d="M136.143 208.148C150.63 204.805 163.805 198.67 173.314 190.862C173.34 190.885 173.369 190.908 173.397 190.928V284.499C173.322 284.533 173.247 284.568 173.173 284.602C173.06 284.655 172.949 284.707 172.844 284.753C168.805 282.874 160.843 278.69 153.27 271.946C141.745 261.681 135.935 249.84 136.001 236.752L136.143 208.148ZM173.398 284.499V190.928C182.823 198.779 195.899 204.997 210.311 208.446L210.168 237.05C210.103 250.137 204.174 261.93 192.548 272.103C185.235 278.501 177.6 282.542 173.398 284.499Z" fill="#FF5B4A"/>
<path d="M173.398 190.928V284.499C177.6 282.542 185.235 278.501 192.548 272.103C204.174 261.93 210.103 250.137 210.168 237.05L210.311 208.446C195.899 204.996 182.823 198.779 173.398 190.928Z" fill="#FF5B4A"/>
<path d="M175.098 243.925V250.206C175.098 251.041 174.338 251.736 173.403 251.736C172.453 251.736 171.692 251.041 171.692 250.206V243.911C170.25 243.327 169.237 242.023 169.237 240.522C169.237 238.465 171.106 236.806 173.403 236.806C175.7 236.806 177.554 238.465 177.554 240.522C177.554 242.037 176.555 243.342 175.098 243.925ZM156.562 232.156V254.316C156.562 256.784 190.228 256.784 190.228 254.316V232.156H156.562Z" fill="white"/>
<path d="M185.125 231.753H182.18V230.144C182.18 224.573 178.117 220.039 173.125 220.039C168.132 220.039 164.07 224.573 164.07 230.144V231.753H161.125V230.144C161.125 222.761 166.508 216.753 173.125 216.753C179.742 216.753 185.125 222.761 185.125 230.144V231.753Z" fill="white"/>
<path d="M306.339 316.762H49.5998C45.9549 316.762 43 313.807 43 310.162V306.862H312.937V310.162C312.937 313.807 309.983 316.762 306.339 316.762" fill="#171717"/>
<path d="M117.021 235.862H23.2071C20.8836 235.862 19 237.137 19 238.709V263.503C19 265.076 20.8836 266.351 23.2071 266.351H117.021C119.345 266.351 121.228 265.076 121.228 263.503V238.709C121.228 237.137 119.345 235.862 117.021 235.862Z" fill="#B4CFDB"/>
<path d="M338.021 197.862H244.207C241.884 197.862 240 199.137 240 200.709V225.503C240 227.076 241.884 228.351 244.207 228.351H338.021C340.345 228.351 342.228 227.076 342.228 225.503V200.709C342.228 199.137 340.345 197.862 338.021 197.862Z" fill="#E8F3F8"/>
<g filter="url(#filter0_b_1_66)">
<rect x="553" y="103.862" width="73.5015" height="73.5015" rx="27" fill="#E8F3F8"/>
</g>
<g filter="url(#filter1_d_1_66)">
<rect x="560.352" y="111.212" width="58.8012" height="58.8012" rx="20" fill="white" shape-rendering="crispEdges"/>
<rect x="560.853" y="111.713" width="57.7989" height="57.7989" rx="19.4989" stroke="url(#paint2_diamond_1_66)" stroke-opacity="0.34" stroke-width="1.00229" shape-rendering="crispEdges"/>
<g clip-path="url(#clip0_1_66)">
<path d="M574.752 132.535H604.752V134.843H574.752V132.535ZM603.186 127.92H576.319C575.75 128.588 575.312 129.37 575.046 130.228H604.458C604.192 129.37 603.754 128.588 603.186 127.92ZM574.752 137.151H604.752V139.458H574.752V137.151ZM574.752 141.766H604.752V144.074H574.752V141.766ZM574.752 146.382H604.752V148.689H574.752V146.382ZM604.458 150.997H575.046C575.312 151.855 575.75 152.638 576.319 153.305H603.186C603.754 152.638 604.192 151.855 604.458 150.997Z" fill="#F5F5F5"/>
<path d="M598.19 125.613H581.315C579.314 125.613 577.522 126.508 576.319 127.92H603.186C601.982 126.508 600.191 125.613 598.19 125.613ZM574.752 134.843H604.752V137.151H574.752V134.843ZM604.752 132.175C604.752 131.497 604.649 130.843 604.458 130.228H575.046C574.855 130.843 574.752 131.497 574.752 132.175V132.536H604.752V132.175ZM574.752 139.459H604.752V141.766H574.752V139.459ZM604.752 149.05V148.689H574.752V149.05C574.752 149.728 574.855 150.382 575.046 150.997H604.458C604.649 150.382 604.752 149.728 604.752 149.05ZM603.186 153.305H576.319C577.522 154.717 579.314 155.613 581.315 155.613H598.19C600.191 155.613 601.982 154.717 603.186 153.305ZM574.752 144.074H604.752V146.382H574.752V144.074Z" fill="#FF5B4A"/>
<path d="M590.906 125.613H581.315C577.69 125.613 574.752 128.551 574.752 132.175V141.766H590.906V125.613Z" fill="#41479B"/>
<path d="M576.495 128.136C576.48 128.184 576.535 128.225 576.577 128.195L576.897 127.966L577.217 128.195C577.258 128.225 577.313 128.184 577.298 128.136L577.179 127.761L577.496 127.527C577.537 127.497 577.516 127.432 577.465 127.431L577.071 127.428L577.004 127.227C576.836 127.374 576.675 127.529 576.522 127.693L576.614 127.761L576.495 128.136ZM576.947 130.168L577.071 130.542L577.465 130.545C577.516 130.545 577.537 130.61 577.496 130.64L577.179 130.874L577.298 131.249C577.313 131.298 577.258 131.338 577.217 131.308L576.896 131.08L576.576 131.308C576.535 131.338 576.48 131.298 576.495 131.249L576.614 130.874L576.297 130.64C576.256 130.61 576.277 130.545 576.328 130.545L576.722 130.542L576.846 130.168C576.862 130.12 576.931 130.12 576.947 130.168ZM576.947 133.622L577.071 133.995L577.465 133.998C577.516 133.998 577.537 134.063 577.496 134.094L577.179 134.327L577.298 134.702C577.313 134.751 577.258 134.791 577.217 134.762L576.896 134.533L576.576 134.762C576.535 134.791 576.48 134.751 576.495 134.702L576.614 134.327L576.297 134.094C576.256 134.063 576.277 133.998 576.328 133.998L576.722 133.995L576.846 133.622C576.862 133.573 576.931 133.573 576.947 133.622ZM576.947 136.794L577.071 137.167L577.465 137.171C577.516 137.171 577.537 137.236 577.496 137.266L577.179 137.5L577.298 137.875C577.313 137.924 577.258 137.964 577.217 137.934L576.896 137.705L576.576 137.934C576.535 137.964 576.48 137.924 576.495 137.875L576.614 137.5L576.297 137.266C576.256 137.236 576.277 137.171 576.328 137.171L576.722 137.167L576.846 136.794C576.862 136.746 576.931 136.746 576.947 136.794ZM576.947 139.681L577.071 140.054L577.465 140.058C577.516 140.058 577.537 140.123 577.496 140.153L577.179 140.387L577.298 140.762C577.313 140.811 577.258 140.851 577.217 140.821L576.896 140.592L576.576 140.821C576.535 140.851 576.48 140.811 576.495 140.762L576.614 140.387L576.297 140.153C576.256 140.123 576.277 140.058 576.328 140.058L576.722 140.054L576.846 139.681C576.862 139.633 576.931 139.633 576.947 139.681ZM578.462 128.529L578.587 128.903L578.98 128.906C579.031 128.906 579.052 128.971 579.011 129.001L578.695 129.235L578.813 129.61C578.829 129.659 578.773 129.699 578.732 129.669L578.412 129.44L578.092 129.669C578.05 129.699 577.995 129.659 578.011 129.61L578.129 129.235L577.813 129.001C577.772 128.971 577.793 128.906 577.844 128.906L578.237 128.903L578.362 128.529C578.378 128.481 578.446 128.481 578.462 128.529ZM578.462 131.982L578.587 132.356L578.98 132.359C579.031 132.359 579.052 132.424 579.011 132.454L578.695 132.688L578.813 133.063C578.829 133.112 578.773 133.152 578.732 133.122L578.412 132.894L578.092 133.122C578.05 133.152 577.995 133.112 578.01 133.063L578.129 132.688L577.813 132.454C577.772 132.424 577.793 132.359 577.844 132.359L578.237 132.356L578.362 131.982C578.378 131.934 578.446 131.934 578.462 131.982ZM578.462 135.263L578.587 135.636L578.98 135.64C579.031 135.64 579.052 135.705 579.011 135.735L578.695 135.969L578.813 136.344C578.829 136.393 578.773 136.433 578.732 136.403L578.412 136.174L578.092 136.403C578.05 136.433 577.995 136.393 578.01 136.344L578.129 135.969L577.813 135.735C577.772 135.705 577.793 135.64 577.844 135.64L578.237 135.636L578.362 135.263C578.378 135.215 578.446 135.215 578.462 135.263ZM578.462 138.209L578.587 138.583L578.98 138.586C579.031 138.586 579.052 138.651 579.011 138.681L578.695 138.915L578.813 139.29C578.829 139.339 578.773 139.379 578.732 139.349L578.412 139.121L578.092 139.349C578.05 139.379 577.995 139.339 578.01 139.29L578.129 138.915L577.813 138.681C577.772 138.651 577.793 138.586 577.844 138.586L578.237 138.583L578.362 138.209C578.378 138.161 578.446 138.161 578.462 138.209ZM579.978 127.055L580.102 127.428L580.496 127.431C580.546 127.432 580.568 127.497 580.527 127.527L580.21 127.761L580.329 128.136C580.344 128.184 580.289 128.224 580.247 128.195L579.927 127.966L579.607 128.195C579.566 128.225 579.51 128.184 579.526 128.136L579.644 127.761L579.328 127.527C579.287 127.497 579.308 127.432 579.359 127.431L579.752 127.428L579.877 127.055C579.893 127.007 579.962 127.007 579.978 127.055ZM579.978 130.168L580.102 130.542L580.496 130.545C580.546 130.545 580.568 130.61 580.527 130.64L580.21 130.874L580.329 131.249C580.344 131.298 580.289 131.338 580.247 131.308L579.927 131.08L579.607 131.308C579.566 131.338 579.51 131.298 579.526 131.249L579.644 130.874L579.328 130.64C579.287 130.61 579.308 130.545 579.359 130.545L579.752 130.542L579.877 130.168C579.893 130.12 579.962 130.12 579.978 130.168ZM579.978 133.622L580.102 133.995L580.496 133.998C580.546 133.998 580.568 134.063 580.527 134.094L580.21 134.327L580.329 134.702C580.344 134.751 580.289 134.791 580.247 134.762L579.927 134.533L579.607 134.762C579.566 134.791 579.51 134.751 579.526 134.702L579.644 134.327L579.328 134.094C579.287 134.063 579.308 133.998 579.359 133.998L579.752 133.995L579.877 133.622C579.893 133.573 579.962 133.573 579.978 133.622ZM579.978 136.794L580.102 137.167L580.496 137.171C580.546 137.171 580.568 137.236 580.527 137.266L580.21 137.5L580.329 137.875C580.344 137.924 580.289 137.964 580.247 137.934L579.927 137.705L579.607 137.934C579.566 137.964 579.51 137.924 579.526 137.875L579.644 137.5L579.328 137.266C579.287 137.236 579.308 137.171 579.359 137.171L579.752 137.167L579.877 136.794C579.893 136.746 579.962 136.746 579.978 136.794ZM579.978 139.681L580.102 140.054L580.496 140.058C580.546 140.058 580.568 140.123 580.527 140.153L580.21 140.387L580.329 140.762C580.344 140.811 580.289 140.851 580.247 140.821L579.927 140.592L579.607 140.821C579.566 140.851 579.51 140.811 579.526 140.762L579.644 140.387L579.328 140.153C579.287 140.123 579.308 140.058 579.359 140.058L579.752 140.054L579.877 139.681C579.893 139.633 579.962 139.633 579.978 139.681ZM581.493 128.529L581.618 128.903L582.011 128.906C582.062 128.906 582.083 128.971 582.042 129.001L581.726 129.235L581.844 129.61C581.86 129.659 581.804 129.699 581.763 129.669L581.443 129.44L581.123 129.669C581.081 129.699 581.026 129.659 581.041 129.61L581.16 129.235L580.843 129.001C580.802 128.971 580.823 128.906 580.874 128.906L581.268 128.903L581.392 128.529C581.409 128.481 581.477 128.481 581.493 128.529ZM581.493 131.982L581.618 132.356L582.011 132.359C582.062 132.359 582.083 132.424 582.042 132.454L581.726 132.688L581.844 133.063C581.86 133.112 581.804 133.152 581.763 133.122L581.443 132.894L581.123 133.122C581.081 133.152 581.026 133.112 581.041 133.063L581.16 132.688L580.843 132.454C580.802 132.424 580.823 132.359 580.874 132.359L581.268 132.356L581.392 131.982C581.409 131.934 581.477 131.934 581.493 131.982ZM581.493 135.263L581.618 135.636L582.011 135.64C582.062 135.64 582.083 135.705 582.042 135.735L581.726 135.969L581.844 136.344C581.86 136.393 581.804 136.433 581.763 136.403L581.443 136.174L581.123 136.403C581.081 136.433 581.026 136.393 581.041 136.344L581.16 135.969L580.843 135.735C580.802 135.705 580.823 135.64 580.874 135.64L581.268 135.636L581.392 135.263C581.409 135.215 581.477 135.215 581.493 135.263ZM581.493 138.209L581.618 138.583L582.011 138.586C582.062 138.586 582.083 138.651 582.042 138.681L581.726 138.915L581.844 139.29C581.86 139.339 581.804 139.379 581.763 139.349L581.443 139.121L581.123 139.349C581.081 139.379 581.026 139.339 581.041 139.29L581.16 138.915L580.843 138.681C580.802 138.651 580.823 138.586 580.874 138.586L581.268 138.583L581.392 138.209C581.409 138.161 581.477 138.161 581.493 138.209ZM583.009 127.055L583.133 127.428L583.526 127.431C583.577 127.432 583.598 127.497 583.557 127.527L583.241 127.761L583.36 128.136C583.375 128.184 583.32 128.224 583.278 128.195L582.958 127.966L582.638 128.195C582.597 128.225 582.541 128.184 582.557 128.136L582.675 127.761L582.359 127.527C582.318 127.497 582.339 127.432 582.39 127.431L582.783 127.428L582.908 127.055C582.924 127.007 582.992 127.007 583.009 127.055ZM583.009 130.168L583.133 130.542L583.526 130.545C583.577 130.545 583.598 130.61 583.557 130.64L583.241 130.874L583.36 131.249C583.375 131.298 583.32 131.338 583.278 131.308L582.958 131.08L582.638 131.308C582.597 131.338 582.541 131.298 582.557 131.249L582.675 130.874L582.359 130.64C582.318 130.61 582.339 130.545 582.39 130.545L582.783 130.542L582.908 130.168C582.924 130.12 582.992 130.12 583.009 130.168ZM583.009 133.622L583.133 133.995L583.526 133.998C583.577 133.998 583.598 134.063 583.557 134.094L583.241 134.327L583.36 134.702C583.375 134.751 583.32 134.791 583.278 134.762L582.958 134.533L582.638 134.762C582.597 134.791 582.541 134.751 582.557 134.702L582.675 134.327L582.359 134.094C582.318 134.063 582.339 133.998 582.39 133.998L582.783 133.995L582.908 133.622C582.924 133.573 582.992 133.573 583.009 133.622ZM583.009 136.794L583.133 137.167L583.526 137.171C583.577 137.171 583.598 137.236 583.557 137.266L583.241 137.5L583.36 137.875C583.375 137.924 583.32 137.964 583.278 137.934L582.958 137.705L582.638 137.934C582.597 137.964 582.541 137.924 582.557 137.875L582.675 137.5L582.359 137.266C582.318 137.236 582.339 137.171 582.39 137.171L582.783 137.167L582.908 136.794C582.924 136.746 582.992 136.746 583.009 136.794ZM583.009 139.681L583.133 140.054L583.526 140.058C583.577 140.058 583.598 140.123 583.557 140.153L583.241 140.387L583.36 140.762C583.375 140.811 583.32 140.851 583.278 140.821L582.958 140.592L582.638 140.821C582.597 140.851 582.541 140.811 582.557 140.762L582.675 140.387L582.359 140.153C582.318 140.123 582.339 140.058 582.39 140.058L582.783 140.054L582.908 139.681C582.924 139.633 582.992 139.633 583.009 139.681ZM584.524 128.529L584.648 128.903L585.042 128.906C585.093 128.906 585.114 128.971 585.073 129.001L584.756 129.235L584.875 129.61C584.89 129.659 584.835 129.699 584.794 129.669L584.473 129.44L584.153 129.669C584.112 129.699 584.057 129.659 584.072 129.61L584.191 129.235L583.874 129.001C583.833 128.971 583.854 128.906 583.905 128.906L584.299 128.903L584.423 128.529C584.439 128.481 584.508 128.481 584.524 128.529ZM584.524 131.982L584.648 132.356L585.042 132.359C585.093 132.359 585.114 132.424 585.073 132.454L584.756 132.688L584.875 133.063C584.89 133.112 584.835 133.152 584.794 133.122L584.473 132.894L584.153 133.122C584.112 133.152 584.057 133.112 584.072 133.063L584.191 132.688L583.874 132.454C583.833 132.424 583.854 132.359 583.905 132.359L584.299 132.356L584.423 131.982C584.439 131.934 584.508 131.934 584.524 131.982ZM584.524 135.263L584.648 135.636L585.042 135.64C585.093 135.64 585.114 135.705 585.073 135.735L584.756 135.969L584.875 136.344C584.89 136.393 584.835 136.433 584.794 136.403L584.473 136.174L584.153 136.403C584.112 136.433 584.057 136.393 584.072 136.344L584.191 135.969L583.874 135.735C583.833 135.705 583.854 135.64 583.905 135.64L584.299 135.636L584.423 135.263C584.439 135.215 584.508 135.215 584.524 135.263ZM584.524 138.209L584.648 138.583L585.042 138.586C585.093 138.586 585.114 138.651 585.073 138.681L584.756 138.915L584.875 139.29C584.89 139.339 584.835 139.379 584.794 139.349L584.473 139.121L584.153 139.349C584.112 139.379 584.057 139.339 584.072 139.29L584.191 138.915L583.874 138.681C583.833 138.651 583.854 138.586 583.905 138.586L584.299 138.583L584.423 138.209C584.439 138.161 584.508 138.161 584.524 138.209ZM586.039 127.055L586.164 127.428L586.557 127.431C586.608 127.432 586.629 127.497 586.588 127.527L586.272 127.761L586.39 128.136C586.406 128.184 586.35 128.224 586.309 128.195L585.989 127.966L585.669 128.195C585.627 128.225 585.572 128.184 585.587 128.136L585.706 127.761L585.39 127.527C585.349 127.497 585.37 127.432 585.421 127.431L585.814 127.428L585.938 127.055C585.955 127.007 586.023 127.007 586.039 127.055ZM586.039 130.168L586.164 130.542L586.557 130.545C586.608 130.545 586.629 130.61 586.588 130.64L586.272 130.874L586.39 131.249C586.406 131.298 586.35 131.338 586.309 131.308L585.989 131.08L585.669 131.308C585.627 131.338 585.572 131.298 585.587 131.249L585.706 130.874L585.39 130.64C585.349 130.61 585.37 130.545 585.421 130.545L585.814 130.542L585.938 130.168C585.955 130.12 586.023 130.12 586.039 130.168ZM586.039 133.622L586.164 133.995L586.557 133.998C586.608 133.998 586.629 134.063 586.588 134.094L586.272 134.327L586.39 134.702C586.406 134.751 586.35 134.791 586.309 134.762L585.989 134.533L585.669 134.762C585.627 134.791 585.572 134.751 585.587 134.702L585.706 134.327L585.39 134.094C585.349 134.063 585.37 133.998 585.421 133.998L585.814 133.995L585.938 133.622C585.955 133.573 586.023 133.573 586.039 133.622ZM586.039 136.794L586.164 137.167L586.557 137.171C586.608 137.171 586.629 137.236 586.588 137.266L586.272 137.5L586.39 137.875C586.406 137.924 586.35 137.964 586.309 137.934L585.989 137.705L585.669 137.934C585.627 137.964 585.572 137.924 585.587 137.875L585.706 137.5L585.39 137.266C585.349 137.236 585.37 137.171 585.421 137.171L585.814 137.167L585.938 136.794C585.955 136.746 586.023 136.746 586.039 136.794ZM586.039 139.681L586.164 140.054L586.557 140.058C586.608 140.058 586.629 140.123 586.588 140.153L586.272 140.387L586.39 140.762C586.406 140.811 586.35 140.851 586.309 140.821L585.989 140.592L585.669 140.821C585.627 140.851 585.572 140.811 585.587 140.762L585.706 140.387L585.39 140.153C585.349 140.123 585.37 140.058 585.421 140.058L585.814 140.054L585.938 139.681C585.955 139.633 586.023 139.633 586.039 139.681ZM587.555 128.529L587.679 128.903L588.073 128.906C588.124 128.906 588.145 128.971 588.104 129.001L587.787 129.235L587.906 129.61C587.921 129.659 587.866 129.699 587.824 129.669L587.504 129.44L587.184 129.669C587.143 129.699 587.088 129.659 587.103 129.61L587.222 129.235L586.905 129.001C586.864 128.971 586.885 128.906 586.936 128.906L587.33 128.903L587.454 128.529C587.47 128.481 587.539 128.481 587.555 128.529ZM587.555 131.982L587.679 132.356L588.073 132.359C588.124 132.359 588.145 132.424 588.104 132.454L587.787 132.688L587.906 133.063C587.921 133.112 587.866 133.152 587.824 133.122L587.504 132.894L587.184 133.122C587.143 133.152 587.088 133.112 587.103 133.063L587.222 132.688L586.905 132.454C586.864 132.424 586.885 132.359 586.936 132.359L587.33 132.356L587.454 131.982C587.47 131.934 587.539 131.934 587.555 131.982ZM587.555 135.263L587.679 135.636L588.073 135.64C588.124 135.64 588.145 135.705 588.104 135.735L587.787 135.969L587.906 136.344C587.921 136.393 587.866 136.433 587.824 136.403L587.504 136.174L587.184 136.403C587.143 136.433 587.088 136.393 587.103 136.344L587.222 135.969L586.905 135.735C586.864 135.705 586.885 135.64 586.936 135.64L587.33 135.636L587.454 135.263C587.47 135.215 587.539 135.215 587.555 135.263ZM587.555 138.209L587.679 138.583L588.073 138.586C588.124 138.586 588.145 138.651 588.104 138.681L587.787 138.915L587.906 139.29C587.921 139.339 587.866 139.379 587.824 139.349L587.504 139.121L587.184 139.349C587.143 139.379 587.088 139.339 587.103 139.29L587.222 138.915L586.905 138.681C586.864 138.651 586.885 138.586 586.936 138.586L587.33 138.583L587.454 138.209C587.47 138.161 587.539 138.161 587.555 138.209ZM589.07 127.055L589.195 127.428L589.588 127.431C589.639 127.432 589.66 127.497 589.619 127.527L589.303 127.761L589.421 128.136C589.437 128.184 589.381 128.224 589.34 128.195L589.02 127.966L588.7 128.195C588.658 128.225 588.603 128.184 588.618 128.136L588.737 127.761L588.42 127.527C588.379 127.497 588.401 127.432 588.451 127.431L588.845 127.428L588.969 127.055C588.986 127.007 589.054 127.007 589.07 127.055ZM589.07 130.168L589.195 130.542L589.588 130.545C589.639 130.545 589.66 130.61 589.619 130.64L589.303 130.874L589.421 131.249C589.437 131.298 589.381 131.338 589.34 131.308L589.02 131.08L588.7 131.308C588.658 131.338 588.603 131.298 588.618 131.249L588.737 130.874L588.42 130.64C588.379 130.61 588.401 130.545 588.451 130.545L588.845 130.542L588.969 130.168C588.986 130.12 589.054 130.12 589.07 130.168ZM589.07 133.622L589.195 133.995L589.588 133.998C589.639 133.998 589.66 134.063 589.619 134.094L589.303 134.327L589.421 134.702C589.437 134.751 589.381 134.791 589.34 134.762L589.02 134.533L588.7 134.762C588.658 134.791 588.603 134.751 588.618 134.702L588.737 134.327L588.42 134.094C588.379 134.063 588.401 133.998 588.451 133.998L588.845 133.995L588.969 133.622C588.986 133.573 589.054 133.573 589.07 133.622ZM589.07 136.794L589.195 137.167L589.588 137.171C589.639 137.171 589.66 137.236 589.619 137.266L589.303 137.5L589.421 137.875C589.437 137.924 589.381 137.964 589.34 137.934L589.02 137.705L588.7 137.934C588.658 137.964 588.603 137.924 588.618 137.875L588.737 137.5L588.42 137.266C588.379 137.236 588.401 137.171 588.451 137.171L588.845 137.167L588.969 136.794C588.986 136.746 589.054 136.746 589.07 136.794ZM589.07 139.681L589.195 140.054L589.588 140.058C589.639 140.058 589.66 140.123 589.619 140.153L589.303 140.387L589.421 140.762C589.437 140.811 589.381 140.851 589.34 140.821L589.02 140.592L588.7 140.821C588.658 140.851 588.603 140.811 588.618 140.762L588.737 140.387L588.42 140.153C588.379 140.123 588.401 140.058 588.451 140.058L588.845 140.054L588.969 139.681C588.986 139.633 589.054 139.633 589.07 139.681Z" fill="#F5F5F5"/>
</g>
</g>
<path d="M69.8 397H66.38L60.66 388.34V397H57.24V382.96H60.66L66.38 391.66V382.96H69.8V397ZM77.3591 397.16C76.2657 397.16 75.2791 396.927 74.3991 396.46C73.5324 395.993 72.8457 395.327 72.3391 394.46C71.8457 393.593 71.5991 392.58 71.5991 391.42C71.5991 390.273 71.8524 389.267 72.3591 388.4C72.8657 387.52 73.5591 386.847 74.4391 386.38C75.3191 385.913 76.3057 385.68 77.3991 385.68C78.4924 385.68 79.4791 385.913 80.3591 386.38C81.2391 386.847 81.9324 387.52 82.4391 388.4C82.9457 389.267 83.1991 390.273 83.1991 391.42C83.1991 392.567 82.9391 393.58 82.4191 394.46C81.9124 395.327 81.2124 395.993 80.3191 396.46C79.4391 396.927 78.4524 397.16 77.3591 397.16ZM77.3591 394.2C78.0124 394.2 78.5657 393.96 79.0191 393.48C79.4857 393 79.7191 392.313 79.7191 391.42C79.7191 390.527 79.4924 389.84 79.0391 389.36C78.5991 388.88 78.0524 388.64 77.3991 388.64C76.7324 388.64 76.1791 388.88 75.7391 389.36C75.2991 389.827 75.0791 390.513 75.0791 391.42C75.0791 392.313 75.2924 393 75.7191 393.48C76.1591 393.96 76.7057 394.2 77.3591 394.2ZM93.6134 388.56V391.4H84.8134V388.56H93.6134ZM100.035 382.2V397H96.615V382.2H100.035ZM107.593 397.16C106.5 397.16 105.513 396.927 104.633 396.46C103.767 395.993 103.08 395.327 102.573 394.46C102.08 393.593 101.833 392.58 101.833 391.42C101.833 390.273 102.087 389.267 102.593 388.4C103.1 387.52 103.793 386.847 104.673 386.38C105.553 385.913 106.54 385.68 107.633 385.68C108.727 385.68 109.713 385.913 110.593 386.38C111.473 386.847 112.167 387.52 112.673 388.4C113.18 389.267 113.433 390.273 113.433 391.42C113.433 392.567 113.173 393.58 112.653 394.46C112.147 395.327 111.447 395.993 110.553 396.46C109.673 396.927 108.687 397.16 107.593 397.16ZM107.593 394.2C108.247 394.2 108.8 393.96 109.253 393.48C109.72 393 109.953 392.313 109.953 391.42C109.953 390.527 109.727 389.84 109.273 389.36C108.833 388.88 108.287 388.64 107.633 388.64C106.967 388.64 106.413 388.88 105.973 389.36C105.533 389.827 105.313 390.513 105.313 391.42C105.313 392.313 105.527 393 105.953 393.48C106.393 393.96 106.94 394.2 107.593 394.2ZM119.488 385.68C120.274 385.68 120.961 385.84 121.548 386.16C122.148 386.48 122.608 386.9 122.928 387.42V385.84H126.348V396.98C126.348 398.007 126.141 398.933 125.728 399.76C125.328 400.6 124.708 401.267 123.868 401.76C123.041 402.253 122.008 402.5 120.768 402.5C119.114 402.5 117.774 402.107 116.748 401.32C115.721 400.547 115.134 399.493 114.988 398.16H118.368C118.474 398.587 118.728 398.92 119.128 399.16C119.528 399.413 120.021 399.54 120.608 399.54C121.314 399.54 121.874 399.333 122.288 398.92C122.714 398.52 122.928 397.873 122.928 396.98V395.4C122.594 395.92 122.134 396.347 121.548 396.68C120.961 397 120.274 397.16 119.488 397.16C118.568 397.16 117.734 396.927 116.988 396.46C116.241 395.98 115.648 395.307 115.208 394.44C114.781 393.56 114.568 392.547 114.568 391.4C114.568 390.253 114.781 389.247 115.208 388.38C115.648 387.513 116.241 386.847 116.988 386.38C117.734 385.913 118.568 385.68 119.488 385.68ZM122.928 391.42C122.928 390.567 122.688 389.893 122.208 389.4C121.741 388.907 121.168 388.66 120.488 388.66C119.808 388.66 119.228 388.907 118.748 389.4C118.281 389.88 118.048 390.547 118.048 391.4C118.048 392.253 118.281 392.933 118.748 393.44C119.228 393.933 119.808 394.18 120.488 394.18C121.168 394.18 121.741 393.933 122.208 393.44C122.688 392.947 122.928 392.273 122.928 391.42ZM133.362 397.16C132.389 397.16 131.522 396.993 130.762 396.66C130.002 396.327 129.402 395.873 128.962 395.3C128.522 394.713 128.275 394.06 128.222 393.34H131.602C131.642 393.727 131.822 394.04 132.142 394.28C132.462 394.52 132.855 394.64 133.322 394.64C133.749 394.64 134.075 394.56 134.302 394.4C134.542 394.227 134.662 394.007 134.662 393.74C134.662 393.42 134.495 393.187 134.162 393.04C133.829 392.88 133.289 392.707 132.542 392.52C131.742 392.333 131.075 392.14 130.542 391.94C130.009 391.727 129.549 391.4 129.162 390.96C128.775 390.507 128.582 389.9 128.582 389.14C128.582 388.5 128.755 387.92 129.102 387.4C129.462 386.867 129.982 386.447 130.662 386.14C131.355 385.833 132.175 385.68 133.122 385.68C134.522 385.68 135.622 386.027 136.422 386.72C137.235 387.413 137.702 388.333 137.822 389.48H134.662C134.609 389.093 134.435 388.787 134.142 388.56C133.862 388.333 133.489 388.22 133.022 388.22C132.622 388.22 132.315 388.3 132.102 388.46C131.889 388.607 131.782 388.813 131.782 389.08C131.782 389.4 131.949 389.64 132.282 389.8C132.629 389.96 133.162 390.12 133.882 390.28C134.709 390.493 135.382 390.707 135.902 390.92C136.422 391.12 136.875 391.453 137.262 391.92C137.662 392.373 137.869 392.987 137.882 393.76C137.882 394.413 137.695 395 137.322 395.52C136.962 396.027 136.435 396.427 135.742 396.72C135.062 397.013 134.269 397.16 133.362 397.16ZM147.633 387.42C147.966 386.9 148.426 386.48 149.013 386.16C149.599 385.84 150.286 385.68 151.073 385.68C151.993 385.68 152.826 385.913 153.573 386.38C154.319 386.847 154.906 387.513 155.333 388.38C155.773 389.247 155.993 390.253 155.993 391.4C155.993 392.547 155.773 393.56 155.333 394.44C154.906 395.307 154.319 395.98 153.573 396.46C152.826 396.927 151.993 397.16 151.073 397.16C150.299 397.16 149.613 397 149.013 396.68C148.426 396.36 147.966 395.947 147.633 395.44V402.32H144.213V385.84H147.633V387.42ZM152.513 391.4C152.513 390.547 152.273 389.88 151.793 389.4C151.326 388.907 150.746 388.66 150.053 388.66C149.373 388.66 148.793 388.907 148.313 389.4C147.846 389.893 147.613 390.567 147.613 391.42C147.613 392.273 147.846 392.947 148.313 393.44C148.793 393.933 149.373 394.18 150.053 394.18C150.733 394.18 151.313 393.933 151.793 393.44C152.273 392.933 152.513 392.253 152.513 391.4ZM162.867 397.16C161.774 397.16 160.787 396.927 159.907 396.46C159.04 395.993 158.354 395.327 157.847 394.46C157.354 393.593 157.107 392.58 157.107 391.42C157.107 390.273 157.36 389.267 157.867 388.4C158.374 387.52 159.067 386.847 159.947 386.38C160.827 385.913 161.814 385.68 162.907 385.68C164 385.68 164.987 385.913 165.867 386.38C166.747 386.847 167.44 387.52 167.947 388.4C168.454 389.267 168.707 390.273 168.707 391.42C168.707 392.567 168.447 393.58 167.927 394.46C167.42 395.327 166.72 395.993 165.827 396.46C164.947 396.927 163.96 397.16 162.867 397.16ZM162.867 394.2C163.52 394.2 164.074 393.96 164.527 393.48C164.994 393 165.227 392.313 165.227 391.42C165.227 390.527 165 389.84 164.547 389.36C164.107 388.88 163.56 388.64 162.907 388.64C162.24 388.64 161.687 388.88 161.247 389.36C160.807 389.827 160.587 390.513 160.587 391.42C160.587 392.313 160.8 393 161.227 393.48C161.667 393.96 162.214 394.2 162.867 394.2ZM173.941 382.2V397H170.521V382.2H173.941ZM178.14 384.68C177.54 384.68 177.046 384.507 176.66 384.16C176.286 383.8 176.1 383.36 176.1 382.84C176.1 382.307 176.286 381.867 176.66 381.52C177.046 381.16 177.54 380.98 178.14 380.98C178.726 380.98 179.206 381.16 179.58 381.52C179.966 381.867 180.16 382.307 180.16 382.84C180.16 383.36 179.966 383.8 179.58 384.16C179.206 384.507 178.726 384.68 178.14 384.68ZM179.84 385.84V397H176.42V385.84H179.84ZM181.638 391.42C181.638 390.26 181.871 389.247 182.338 388.38C182.818 387.513 183.478 386.847 184.318 386.38C185.171 385.913 186.145 385.68 187.238 385.68C188.638 385.68 189.805 386.047 190.738 386.78C191.685 387.513 192.305 388.547 192.598 389.88H188.958C188.651 389.027 188.058 388.6 187.178 388.6C186.551 388.6 186.051 388.847 185.678 389.34C185.305 389.82 185.118 390.513 185.118 391.42C185.118 392.327 185.305 393.027 185.678 393.52C186.051 394 186.551 394.24 187.178 394.24C188.058 394.24 188.651 393.813 188.958 392.96H192.598C192.305 394.267 191.685 395.293 190.738 396.04C189.791 396.787 188.625 397.16 187.238 397.16C186.145 397.16 185.171 396.927 184.318 396.46C183.478 395.993 182.818 395.327 182.338 394.46C181.871 393.593 181.638 392.58 181.638 391.42ZM205.828 385.84L198.828 402.3H195.148L197.708 396.62L193.167 385.84H196.988L199.568 392.82L202.128 385.84H205.828ZM58.4 418.728V422.904H62.64V423.832H58.4V428.072H63.12V429H57.28V417.8H63.12V418.728H58.4ZM69.9029 429L67.6469 425.48L65.4709 429H64.2869L67.1029 424.632L64.3189 420.264H65.5829L67.8069 423.736L69.9669 420.264H71.1349L68.3509 424.584L71.1669 429H69.9029ZM73.7903 422.184C74.0676 421.597 74.5049 421.112 75.1023 420.728C75.7103 420.333 76.4303 420.136 77.2623 420.136C78.0516 420.136 78.7609 420.323 79.3903 420.696C80.0303 421.059 80.5263 421.581 80.8783 422.264C81.2409 422.936 81.4223 423.72 81.4223 424.616C81.4223 425.512 81.2409 426.301 80.8783 426.984C80.5263 427.667 80.0303 428.195 79.3903 428.568C78.7609 428.941 78.0516 429.128 77.2623 429.128C76.4409 429.128 75.7263 428.936 75.1183 428.552C74.5103 428.157 74.0676 427.667 73.7903 427.08V433.128H72.6863V420.264H73.7903V422.184ZM80.2863 424.616C80.2863 423.891 80.1423 423.267 79.8542 422.744C79.5769 422.211 79.1929 421.805 78.7023 421.528C78.2116 421.251 77.6569 421.112 77.0383 421.112C76.4409 421.112 75.8916 421.256 75.3903 421.544C74.8996 421.832 74.5103 422.243 74.2223 422.776C73.9343 423.309 73.7903 423.928 73.7903 424.632C73.7903 425.336 73.9343 425.955 74.2223 426.488C74.5103 427.021 74.8996 427.432 75.3903 427.72C75.8916 428.008 76.4409 428.152 77.0383 428.152C77.6569 428.152 78.2116 428.013 78.7023 427.736C79.1929 427.448 79.5769 427.037 79.8542 426.504C80.1423 425.96 80.2863 425.331 80.2863 424.616ZM84.6031 417.16V429H83.4831V417.16H84.6031ZM90.9634 429.128C90.142 429.128 89.4007 428.947 88.7394 428.584C88.0887 428.211 87.5714 427.688 87.1874 427.016C86.814 426.333 86.6274 425.539 86.6274 424.632C86.6274 423.725 86.8194 422.936 87.2034 422.264C87.5874 421.581 88.11 421.059 88.7714 420.696C89.4327 420.323 90.174 420.136 90.9954 420.136C91.8167 420.136 92.558 420.323 93.2194 420.696C93.8914 421.059 94.414 421.581 94.7874 422.264C95.1714 422.936 95.3634 423.725 95.3634 424.632C95.3634 425.528 95.1714 426.317 94.7874 427C94.4034 427.683 93.8754 428.211 93.2034 428.584C92.5314 428.947 91.7847 429.128 90.9634 429.128ZM90.9634 428.152C91.5394 428.152 92.0727 428.024 92.5634 427.768C93.054 427.501 93.4487 427.107 93.7474 426.584C94.0567 426.051 94.2114 425.4 94.2114 424.632C94.2114 423.864 94.062 423.219 93.7634 422.696C93.4647 422.163 93.07 421.768 92.5794 421.512C92.0887 421.245 91.5554 421.112 90.9794 421.112C90.4034 421.112 89.87 421.245 89.3794 421.512C88.8887 421.768 88.494 422.163 88.1954 422.696C87.9074 423.219 87.7634 423.864 87.7634 424.632C87.7634 425.4 87.9074 426.051 88.1954 426.584C88.494 427.107 88.8834 427.501 89.3634 427.768C89.854 428.024 90.3874 428.152 90.9634 428.152ZM98.525 421.816C98.7703 421.272 99.1437 420.851 99.645 420.552C100.157 420.253 100.781 420.104 101.517 420.104V421.272H101.213C100.402 421.272 99.7517 421.491 99.261 421.928C98.7703 422.365 98.525 423.096 98.525 424.12V429H97.405V420.264H98.525V421.816ZM111.106 424.184C111.106 424.568 111.095 424.861 111.074 425.064H103.826C103.858 425.725 104.018 426.291 104.306 426.76C104.594 427.229 104.973 427.587 105.442 427.832C105.911 428.067 106.423 428.184 106.978 428.184C107.703 428.184 108.311 428.008 108.802 427.656C109.303 427.304 109.634 426.829 109.794 426.232H110.978C110.765 427.085 110.306 427.784 109.602 428.328C108.909 428.861 108.034 429.128 106.978 429.128C106.157 429.128 105.421 428.947 104.77 428.584C104.119 428.211 103.607 427.688 103.234 427.016C102.871 426.333 102.69 425.539 102.69 424.632C102.69 423.725 102.871 422.931 103.234 422.248C103.597 421.565 104.103 421.043 104.754 420.68C105.405 420.317 106.146 420.136 106.978 420.136C107.81 420.136 108.535 420.317 109.154 420.68C109.783 421.043 110.263 421.533 110.594 422.152C110.935 422.76 111.106 423.437 111.106 424.184ZM109.97 424.152C109.981 423.501 109.847 422.947 109.57 422.488C109.303 422.029 108.935 421.683 108.466 421.448C107.997 421.213 107.485 421.096 106.93 421.096C106.098 421.096 105.389 421.363 104.802 421.896C104.215 422.429 103.89 423.181 103.826 424.152H109.97ZM114.275 421.816C114.52 421.272 114.894 420.851 115.395 420.552C115.907 420.253 116.531 420.104 117.267 420.104V421.272H116.963C116.152 421.272 115.502 421.491 115.011 421.928C114.52 422.365 114.275 423.096 114.275 424.12V429H113.155V420.264H114.275V421.816ZM127.816 417.816L123.576 429H122.296L118.056 417.816H119.272L122.936 427.784L126.632 417.816H127.816ZM136.651 421.032C136.651 421.992 136.336 422.765 135.707 423.352C135.077 423.939 134.133 424.232 132.875 424.232H130.619V429H129.499V417.816H132.875C134.123 417.816 135.061 418.109 135.691 418.696C136.331 419.283 136.651 420.061 136.651 421.032ZM132.875 423.272C134.624 423.272 135.499 422.525 135.499 421.032C135.499 420.285 135.291 419.72 134.875 419.336C134.459 418.952 133.792 418.76 132.875 418.76H130.619V423.272H132.875ZM146.962 429H145.842L139.65 419.592V429H138.53V417.816H139.65L145.842 427.208V417.816H146.962V429ZM157.985 420.104C159.031 420.104 159.884 420.429 160.545 421.08C161.207 421.72 161.537 422.653 161.537 423.88V429H160.433V424.008C160.433 423.059 160.193 422.333 159.713 421.832C159.244 421.331 158.599 421.08 157.777 421.08C156.935 421.08 156.263 421.347 155.761 421.88C155.26 422.413 155.009 423.197 155.009 424.232V429H153.889V420.264H155.009V421.752C155.287 421.219 155.687 420.813 156.209 420.536C156.732 420.248 157.324 420.104 157.985 420.104ZM171.918 424.184C171.918 424.568 171.908 424.861 171.886 425.064H164.638C164.67 425.725 164.83 426.291 165.118 426.76C165.406 427.229 165.785 427.587 166.254 427.832C166.724 428.067 167.236 428.184 167.79 428.184C168.516 428.184 169.124 428.008 169.614 427.656C170.116 427.304 170.446 426.829 170.606 426.232H171.79C171.577 427.085 171.118 427.784 170.414 428.328C169.721 428.861 168.846 429.128 167.79 429.128C166.969 429.128 166.233 428.947 165.582 428.584C164.932 428.211 164.42 427.688 164.046 427.016C163.684 426.333 163.502 425.539 163.502 424.632C163.502 423.725 163.684 422.931 164.046 422.248C164.409 421.565 164.916 421.043 165.566 420.68C166.217 420.317 166.958 420.136 167.79 420.136C168.622 420.136 169.348 420.317 169.966 420.68C170.596 421.043 171.076 421.533 171.406 422.152C171.748 422.76 171.918 423.437 171.918 424.184ZM170.782 424.152C170.793 423.501 170.66 422.947 170.382 422.488C170.116 422.029 169.748 421.683 169.278 421.448C168.809 421.213 168.297 421.096 167.742 421.096C166.91 421.096 166.201 421.363 165.614 421.896C165.028 422.429 164.702 423.181 164.638 424.152H170.782ZM177.072 427.912L180.016 420.264H181.2L177.696 429H176.432L172.928 420.264H174.128L177.072 427.912ZM190.622 424.184C190.622 424.568 190.611 424.861 190.59 425.064H183.342C183.374 425.725 183.534 426.291 183.822 426.76C184.11 427.229 184.488 427.587 184.958 427.832C185.427 428.067 185.939 428.184 186.494 428.184C187.219 428.184 187.827 428.008 188.318 427.656C188.819 427.304 189.15 426.829 189.31 426.232H190.494C190.28 427.085 189.822 427.784 189.118 428.328C188.424 428.861 187.55 429.128 186.494 429.128C185.672 429.128 184.936 428.947 184.286 428.584C183.635 428.211 183.123 427.688 182.75 427.016C182.387 426.333 182.206 425.539 182.206 424.632C182.206 423.725 182.387 422.931 182.75 422.248C183.112 421.565 183.619 421.043 184.27 420.68C184.92 420.317 185.662 420.136 186.494 420.136C187.326 420.136 188.051 420.317 188.67 420.68C189.299 421.043 189.779 421.533 190.11 422.152C190.451 422.76 190.622 423.437 190.622 424.184ZM189.486 424.152C189.496 423.501 189.363 422.947 189.086 422.488C188.819 422.029 188.451 421.683 187.982 421.448C187.512 421.213 187 421.096 186.446 421.096C185.614 421.096 184.904 421.363 184.318 421.896C183.731 422.429 183.406 423.181 183.342 424.152H189.486ZM193.791 421.816C194.036 421.272 194.409 420.851 194.911 420.552C195.423 420.253 196.047 420.104 196.783 420.104V421.272H196.479C195.668 421.272 195.017 421.491 194.527 421.928C194.036 422.365 193.791 423.096 193.791 424.12V429H192.671V420.264H193.791V421.816ZM207.578 429L203.978 425.08V429H202.858V417.16H203.978V424.168L207.498 420.264H209.066L204.922 424.616L209.098 429H207.578ZM218.45 424.184C218.45 424.568 218.439 424.861 218.418 425.064H211.17C211.202 425.725 211.362 426.291 211.65 426.76C211.938 427.229 212.316 427.587 212.786 427.832C213.255 428.067 213.767 428.184 214.322 428.184C215.047 428.184 215.655 428.008 216.146 427.656C216.647 427.304 216.978 426.829 217.138 426.232H218.322C218.108 427.085 217.65 427.784 216.946 428.328C216.252 428.861 215.378 429.128 214.322 429.128C213.5 429.128 212.764 428.947 212.114 428.584C211.463 428.211 210.951 427.688 210.578 427.016C210.215 426.333 210.034 425.539 210.034 424.632C210.034 423.725 210.215 422.931 210.578 422.248C210.94 421.565 211.447 421.043 212.098 420.68C212.748 420.317 213.49 420.136 214.322 420.136C215.154 420.136 215.879 420.317 216.498 420.68C217.127 421.043 217.607 421.533 217.938 422.152C218.279 422.76 218.45 423.437 218.45 424.184ZM217.314 424.152C217.324 423.501 217.191 422.947 216.914 422.488C216.647 422.029 216.279 421.683 215.81 421.448C215.34 421.213 214.828 421.096 214.274 421.096C213.442 421.096 212.732 421.363 212.146 421.896C211.559 422.429 211.234 423.181 211.17 424.152H217.314ZM228.403 424.184C228.403 424.568 228.392 424.861 228.371 425.064H221.123C221.155 425.725 221.315 426.291 221.603 426.76C221.891 427.229 222.269 427.587 222.739 427.832C223.208 428.067 223.72 428.184 224.275 428.184C225 428.184 225.608 428.008 226.099 427.656C226.6 427.304 226.931 426.829 227.091 426.232H228.275C228.061 427.085 227.603 427.784 226.899 428.328C226.205 428.861 225.331 429.128 224.275 429.128C223.453 429.128 222.717 428.947 222.067 428.584C221.416 428.211 220.904 427.688 220.531 427.016C220.168 426.333 219.987 425.539 219.987 424.632C219.987 423.725 220.168 422.931 220.531 422.248C220.893 421.565 221.4 421.043 222.051 420.68C222.701 420.317 223.443 420.136 224.275 420.136C225.107 420.136 225.832 420.317 226.451 420.68C227.08 421.043 227.56 421.533 227.891 422.152C228.232 422.76 228.403 423.437 228.403 424.184ZM227.267 424.152C227.277 423.501 227.144 422.947 226.867 422.488C226.6 422.029 226.232 421.683 225.763 421.448C225.293 421.213 224.781 421.096 224.227 421.096C223.395 421.096 222.685 421.363 222.099 421.896C221.512 422.429 221.187 423.181 221.123 424.152H227.267ZM231.556 422.184C231.833 421.597 232.271 421.112 232.868 420.728C233.476 420.333 234.196 420.136 235.028 420.136C235.817 420.136 236.527 420.323 237.156 420.696C237.796 421.059 238.292 421.581 238.644 422.264C239.007 422.936 239.188 423.72 239.188 424.616C239.188 425.512 239.007 426.301 238.644 426.984C238.292 427.667 237.796 428.195 237.156 428.568C236.527 428.941 235.817 429.128 235.028 429.128C234.207 429.128 233.492 428.936 232.884 428.552C232.276 428.157 231.833 427.667 231.556 427.08V433.128H230.452V420.264H231.556V422.184ZM238.052 424.616C238.052 423.891 237.908 423.267 237.62 422.744C237.343 422.211 236.959 421.805 236.468 421.528C235.977 421.251 235.423 421.112 234.804 421.112C234.207 421.112 233.657 421.256 233.156 421.544C232.665 421.832 232.276 422.243 231.988 422.776C231.7 423.309 231.556 423.928 231.556 424.632C231.556 425.336 231.7 425.955 231.988 426.488C232.276 427.021 232.665 427.432 233.156 427.72C233.657 428.008 234.207 428.152 234.804 428.152C235.423 428.152 235.977 428.013 236.468 427.736C236.959 427.448 237.343 427.037 237.62 426.504C237.908 425.96 238.052 425.331 238.052 424.616ZM244.257 429.128C243.254 429.128 242.433 428.899 241.793 428.44C241.163 427.971 240.811 427.336 240.737 426.536H241.889C241.942 427.027 242.171 427.427 242.577 427.736C242.993 428.035 243.547 428.184 244.241 428.184C244.849 428.184 245.323 428.04 245.665 427.752C246.017 427.464 246.193 427.107 246.193 426.68C246.193 426.381 246.097 426.136 245.905 425.944C245.713 425.752 245.467 425.603 245.169 425.496C244.881 425.379 244.486 425.256 243.985 425.128C243.334 424.957 242.806 424.787 242.401 424.616C241.995 424.445 241.649 424.195 241.361 423.864C241.083 423.523 240.945 423.069 240.945 422.504C240.945 422.077 241.073 421.683 241.329 421.32C241.585 420.957 241.947 420.669 242.417 420.456C242.886 420.243 243.419 420.136 244.017 420.136C244.955 420.136 245.713 420.376 246.289 420.856C246.865 421.325 247.174 421.976 247.217 422.808H246.097C246.065 422.296 245.862 421.885 245.489 421.576C245.126 421.256 244.625 421.096 243.985 421.096C243.419 421.096 242.961 421.229 242.609 421.496C242.257 421.763 242.081 422.093 242.081 422.488C242.081 422.829 242.182 423.112 242.385 423.336C242.598 423.549 242.859 423.72 243.169 423.848C243.478 423.965 243.894 424.099 244.417 424.248C245.046 424.419 245.547 424.584 245.921 424.744C246.294 424.904 246.614 425.139 246.881 425.448C247.147 425.757 247.286 426.168 247.297 426.68C247.297 427.149 247.169 427.571 246.913 427.944C246.657 428.307 246.299 428.595 245.841 428.808C245.382 429.021 244.854 429.128 244.257 429.128ZM253.284 424.616C253.284 423.72 253.465 422.936 253.828 422.264C254.19 421.581 254.686 421.059 255.316 420.696C255.956 420.323 256.676 420.136 257.476 420.136C258.244 420.136 258.937 420.323 259.556 420.696C260.174 421.069 260.628 421.555 260.916 422.152V417.16H262.036V429H260.916V427.048C260.649 427.656 260.212 428.157 259.604 428.552C258.996 428.936 258.281 429.128 257.46 429.128C256.66 429.128 255.94 428.941 255.3 428.568C254.67 428.195 254.174 427.667 253.812 426.984C253.46 426.301 253.284 425.512 253.284 424.616ZM260.916 424.632C260.916 423.928 260.772 423.309 260.484 422.776C260.196 422.243 259.801 421.832 259.3 421.544C258.809 421.256 258.265 421.112 257.668 421.112C257.049 421.112 256.494 421.251 256.004 421.528C255.513 421.805 255.124 422.211 254.836 422.744C254.558 423.267 254.42 423.891 254.42 424.616C254.42 425.331 254.558 425.96 254.836 426.504C255.124 427.037 255.513 427.448 256.004 427.736C256.494 428.013 257.049 428.152 257.668 428.152C258.265 428.152 258.809 428.008 259.3 427.72C259.801 427.432 260.196 427.021 260.484 426.488C260.772 425.955 260.916 425.336 260.916 424.632ZM264.081 424.616C264.081 423.72 264.257 422.936 264.609 422.264C264.971 421.581 265.467 421.059 266.097 420.696C266.737 420.323 267.457 420.136 268.257 420.136C269.089 420.136 269.803 420.328 270.401 420.712C271.009 421.096 271.446 421.587 271.713 422.184V420.264H272.833V429H271.713V427.064C271.435 427.661 270.993 428.157 270.385 428.552C269.787 428.936 269.073 429.128 268.241 429.128C267.451 429.128 266.737 428.941 266.097 428.568C265.467 428.195 264.971 427.667 264.609 426.984C264.257 426.301 264.081 425.512 264.081 424.616ZM271.713 424.632C271.713 423.928 271.569 423.309 271.281 422.776C270.993 422.243 270.598 421.832 270.097 421.544C269.606 421.256 269.062 421.112 268.465 421.112C267.846 421.112 267.291 421.251 266.801 421.528C266.31 421.805 265.921 422.211 265.633 422.744C265.355 423.267 265.217 423.891 265.217 424.616C265.217 425.331 265.355 425.96 265.633 426.504C265.921 427.037 266.31 427.448 266.801 427.736C267.291 428.013 267.846 428.152 268.465 428.152C269.062 428.152 269.606 428.008 270.097 427.72C270.598 427.432 270.993 427.021 271.281 426.488C271.569 425.955 271.713 425.336 271.713 424.632ZM276.845 421.208V426.632C276.845 427.165 276.947 427.533 277.149 427.736C277.352 427.939 277.709 428.04 278.221 428.04H279.245V429H278.045C277.256 429 276.669 428.819 276.285 428.456C275.901 428.083 275.709 427.475 275.709 426.632V421.208H274.493V420.264H275.709V418.072H276.845V420.264H279.245V421.208H276.845ZM280.581 424.616C280.581 423.72 280.757 422.936 281.109 422.264C281.471 421.581 281.967 421.059 282.597 420.696C283.237 420.323 283.957 420.136 284.757 420.136C285.589 420.136 286.303 420.328 286.901 420.712C287.509 421.096 287.946 421.587 288.213 422.184V420.264H289.333V429H288.213V427.064C287.935 427.661 287.493 428.157 286.885 428.552C286.287 428.936 285.573 429.128 284.741 429.128C283.951 429.128 283.237 428.941 282.597 428.568C281.967 428.195 281.471 427.667 281.109 426.984C280.757 426.301 280.581 425.512 280.581 424.616ZM288.213 424.632C288.213 423.928 288.069 423.309 287.781 422.776C287.493 422.243 287.098 421.832 286.597 421.544C286.106 421.256 285.562 421.112 284.965 421.112C284.346 421.112 283.791 421.251 283.301 421.528C282.81 421.805 282.421 422.211 282.133 422.744C281.855 423.267 281.717 423.891 281.717 424.616C281.717 425.331 281.855 425.96 282.133 426.504C282.421 427.037 282.81 427.448 283.301 427.736C283.791 428.013 284.346 428.152 284.965 428.152C285.562 428.152 286.106 428.008 286.597 427.72C287.098 427.432 287.493 427.021 287.781 426.488C288.069 425.955 288.213 425.336 288.213 424.632ZM297.736 421.208V426.632C297.736 427.165 297.837 427.533 298.04 427.736C298.243 427.939 298.6 428.04 299.112 428.04H300.136V429H298.936C298.147 429 297.56 428.819 297.176 428.456C296.792 428.083 296.6 427.475 296.6 426.632V421.208H295.384V420.264H296.6V418.072H297.736V420.264H300.136V421.208H297.736ZM306.143 420.104C306.804 420.104 307.396 420.243 307.919 420.52C308.452 420.797 308.868 421.224 309.167 421.8C309.476 422.365 309.631 423.059 309.631 423.88V429H308.527V424.008C308.527 423.059 308.287 422.333 307.807 421.832C307.338 421.331 306.692 421.08 305.871 421.08C305.028 421.08 304.356 421.347 303.855 421.88C303.354 422.413 303.103 423.197 303.103 424.232V429H301.983V417.16H303.103V421.752C303.38 421.229 303.786 420.824 304.319 420.536C304.863 420.248 305.471 420.104 306.143 420.104ZM311.596 424.616C311.596 423.72 311.772 422.936 312.124 422.264C312.487 421.581 312.983 421.059 313.612 420.696C314.252 420.323 314.972 420.136 315.772 420.136C316.604 420.136 317.319 420.328 317.916 420.712C318.524 421.096 318.961 421.587 319.228 422.184V420.264H320.348V429H319.228V427.064C318.951 427.661 318.508 428.157 317.9 428.552C317.303 428.936 316.588 429.128 315.756 429.128C314.967 429.128 314.252 428.941 313.612 428.568C312.983 428.195 312.487 427.667 312.124 426.984C311.772 426.301 311.596 425.512 311.596 424.616ZM319.228 424.632C319.228 423.928 319.084 423.309 318.796 422.776C318.508 422.243 318.113 421.832 317.612 421.544C317.121 421.256 316.577 421.112 315.98 421.112C315.361 421.112 314.807 421.251 314.316 421.528C313.825 421.805 313.436 422.211 313.148 422.744C312.871 423.267 312.732 423.891 312.732 424.616C312.732 425.331 312.871 425.96 313.148 426.504C313.436 427.037 313.825 427.448 314.316 427.736C314.807 428.013 315.361 428.152 315.98 428.152C316.577 428.152 317.121 428.008 317.612 427.72C318.113 427.432 318.508 427.021 318.796 426.488C319.084 425.955 319.228 425.336 319.228 424.632ZM324.361 421.208V426.632C324.361 427.165 324.462 427.533 324.665 427.736C324.868 427.939 325.225 428.04 325.737 428.04H326.761V429H325.561C324.772 429 324.185 428.819 323.801 428.456C323.417 428.083 323.225 427.475 323.225 426.632V421.208H322.009V420.264H323.225V418.072H324.361V420.264H326.761V421.208H324.361ZM332.487 424.632C332.487 423.725 332.668 422.936 333.031 422.264C333.393 421.581 333.895 421.059 334.535 420.696C335.175 420.323 335.905 420.136 336.727 420.136C337.804 420.136 338.689 420.403 339.383 420.936C340.087 421.469 340.54 422.195 340.743 423.112H339.543C339.393 422.483 339.068 421.992 338.567 421.64C338.076 421.277 337.463 421.096 336.727 421.096C336.14 421.096 335.612 421.229 335.143 421.496C334.673 421.763 334.3 422.163 334.023 422.696C333.756 423.219 333.623 423.864 333.623 424.632C333.623 425.4 333.756 426.051 334.023 426.584C334.3 427.117 334.673 427.517 335.143 427.784C335.612 428.051 336.14 428.184 336.727 428.184C337.463 428.184 338.076 428.008 338.567 427.656C339.068 427.293 339.393 426.792 339.543 426.152H340.743C340.54 427.048 340.087 427.768 339.383 428.312C338.679 428.856 337.793 429.128 336.727 429.128C335.905 429.128 335.175 428.947 334.535 428.584C333.895 428.211 333.393 427.688 333.031 427.016C332.668 426.333 332.487 425.539 332.487 424.632ZM346.635 429.128C345.814 429.128 345.073 428.947 344.411 428.584C343.761 428.211 343.243 427.688 342.859 427.016C342.486 426.333 342.299 425.539 342.299 424.632C342.299 423.725 342.491 422.936 342.875 422.264C343.259 421.581 343.782 421.059 344.443 420.696C345.105 420.323 345.846 420.136 346.667 420.136C347.489 420.136 348.23 420.323 348.891 420.696C349.563 421.059 350.086 421.581 350.459 422.264C350.843 422.936 351.035 423.725 351.035 424.632C351.035 425.528 350.843 426.317 350.459 427C350.075 427.683 349.547 428.211 348.875 428.584C348.203 428.947 347.457 429.128 346.635 429.128ZM346.635 428.152C347.211 428.152 347.745 428.024 348.235 427.768C348.726 427.501 349.121 427.107 349.419 426.584C349.729 426.051 349.883 425.4 349.883 424.632C349.883 423.864 349.734 423.219 349.435 422.696C349.137 422.163 348.742 421.768 348.251 421.512C347.761 421.245 347.227 421.112 346.651 421.112C346.075 421.112 345.542 421.245 345.051 421.512C344.561 421.768 344.166 422.163 343.867 422.696C343.579 423.219 343.435 423.864 343.435 424.632C343.435 425.4 343.579 426.051 343.867 426.584C344.166 427.107 344.555 427.501 345.035 427.768C345.526 428.024 346.059 428.152 346.635 428.152ZM360.645 420.264V429H359.525V427.464C359.269 428.008 358.874 428.424 358.341 428.712C357.808 429 357.21 429.144 356.549 429.144C355.504 429.144 354.65 428.824 353.989 428.184C353.328 427.533 352.997 426.595 352.997 425.368V420.264H354.101V425.24C354.101 426.189 354.336 426.915 354.805 427.416C355.285 427.917 355.936 428.168 356.757 428.168C357.6 428.168 358.272 427.901 358.773 427.368C359.274 426.835 359.525 426.051 359.525 425.016V420.264H360.645ZM364.322 417.16V429H363.202V417.16H364.322ZM366.346 424.616C366.346 423.72 366.527 422.936 366.89 422.264C367.253 421.581 367.749 421.059 368.378 420.696C369.018 420.323 369.738 420.136 370.538 420.136C371.306 420.136 371.999 420.323 372.618 420.696C373.237 421.069 373.69 421.555 373.978 422.152V417.16H375.098V429H373.978V427.048C373.711 427.656 373.274 428.157 372.666 428.552C372.058 428.936 371.343 429.128 370.522 429.128C369.722 429.128 369.002 428.941 368.362 428.568C367.733 428.195 367.237 427.667 366.874 426.984C366.522 426.301 366.346 425.512 366.346 424.616ZM373.978 424.632C373.978 423.928 373.834 423.309 373.546 422.776C373.258 422.243 372.863 421.832 372.362 421.544C371.871 421.256 371.327 421.112 370.73 421.112C370.111 421.112 369.557 421.251 369.066 421.528C368.575 421.805 368.186 422.211 367.898 422.744C367.621 423.267 367.482 423.891 367.482 424.616C367.482 425.331 367.621 425.96 367.898 426.504C368.186 427.037 368.575 427.448 369.066 427.736C369.557 428.013 370.111 428.152 370.73 428.152C371.327 428.152 371.871 428.008 372.362 427.72C372.863 427.432 373.258 427.021 373.546 426.488C373.834 425.955 373.978 425.336 373.978 424.632ZM383.502 421.208V426.632C383.502 427.165 383.603 427.533 383.806 427.736C384.008 427.939 384.366 428.04 384.878 428.04H385.902V429H384.702C383.912 429 383.326 428.819 382.942 428.456C382.558 428.083 382.366 427.475 382.366 426.632V421.208H381.15V420.264H382.366V418.072H383.502V420.264H385.902V421.208H383.502ZM388.309 418.616C388.085 418.616 387.893 418.536 387.733 418.376C387.573 418.216 387.493 418.019 387.493 417.784C387.493 417.549 387.573 417.357 387.733 417.208C387.893 417.048 388.085 416.968 388.309 416.968C388.533 416.968 388.725 417.048 388.885 417.208C389.045 417.357 389.125 417.549 389.125 417.784C389.125 418.019 389.045 418.216 388.885 418.376C388.725 418.536 388.533 418.616 388.309 418.616ZM388.869 420.264V429H387.749V420.264H388.869ZM399.309 424.184C399.309 424.568 399.298 424.861 399.277 425.064H392.029C392.061 425.725 392.221 426.291 392.509 426.76C392.797 427.229 393.176 427.587 393.645 427.832C394.114 428.067 394.626 428.184 395.181 428.184C395.906 428.184 396.514 428.008 397.005 427.656C397.506 427.304 397.837 426.829 397.997 426.232H399.181C398.968 427.085 398.509 427.784 397.805 428.328C397.112 428.861 396.237 429.128 395.181 429.128C394.36 429.128 393.624 428.947 392.973 428.584C392.322 428.211 391.81 427.688 391.437 427.016C391.074 426.333 390.893 425.539 390.893 424.632C390.893 423.725 391.074 422.931 391.437 422.248C391.8 421.565 392.306 421.043 392.957 420.68C393.608 420.317 394.349 420.136 395.181 420.136C396.013 420.136 396.738 420.317 397.357 420.68C397.986 421.043 398.466 421.533 398.797 422.152C399.138 422.76 399.309 423.437 399.309 424.184ZM398.173 424.152C398.184 423.501 398.05 422.947 397.773 422.488C397.506 422.029 397.138 421.683 396.669 421.448C396.2 421.213 395.688 421.096 395.133 421.096C394.301 421.096 393.592 421.363 393.005 421.896C392.418 422.429 392.093 423.181 392.029 424.152H398.173ZM412.949 420.264L407.765 433.112H406.597L408.293 428.952L404.709 420.264H405.941L408.917 427.72L411.797 420.264H412.949ZM418.292 429.128C417.47 429.128 416.729 428.947 416.068 428.584C415.417 428.211 414.9 427.688 414.516 427.016C414.142 426.333 413.956 425.539 413.956 424.632C413.956 423.725 414.148 422.936 414.532 422.264C414.916 421.581 415.438 421.059 416.1 420.696C416.761 420.323 417.502 420.136 418.324 420.136C419.145 420.136 419.886 420.323 420.548 420.696C421.22 421.059 421.742 421.581 422.116 422.264C422.5 422.936 422.692 423.725 422.692 424.632C422.692 425.528 422.5 426.317 422.116 427C421.732 427.683 421.204 428.211 420.532 428.584C419.86 428.947 419.113 429.128 418.292 429.128ZM418.292 428.152C418.868 428.152 419.401 428.024 419.892 427.768C420.382 427.501 420.777 427.107 421.076 426.584C421.385 426.051 421.54 425.4 421.54 424.632C421.54 423.864 421.39 423.219 421.092 422.696C420.793 422.163 420.398 421.768 419.908 421.512C419.417 421.245 418.884 421.112 418.308 421.112C417.732 421.112 417.198 421.245 416.708 421.512C416.217 421.768 415.822 422.163 415.524 422.696C415.236 423.219 415.092 423.864 415.092 424.632C415.092 425.4 415.236 426.051 415.524 426.584C415.822 427.107 416.212 427.501 416.692 427.768C417.182 428.024 417.716 428.152 418.292 428.152ZM432.301 420.264V429H431.181V427.464C430.925 428.008 430.53 428.424 429.997 428.712C429.464 429 428.866 429.144 428.205 429.144C427.16 429.144 426.306 428.824 425.645 428.184C424.984 427.533 424.653 426.595 424.653 425.368V420.264H425.757V425.24C425.757 426.189 425.992 426.915 426.461 427.416C426.941 427.917 427.592 428.168 428.413 428.168C429.256 428.168 429.928 427.901 430.429 427.368C430.93 426.835 431.181 426.051 431.181 425.016V420.264H432.301ZM440.705 421.208V426.632C440.705 427.165 440.806 427.533 441.009 427.736C441.211 427.939 441.569 428.04 442.081 428.04H443.105V429H441.905C441.115 429 440.529 428.819 440.145 428.456C439.761 428.083 439.569 427.475 439.569 426.632V421.208H438.353V420.264H439.569V418.072H440.705V420.264H443.105V421.208H440.705ZM448.776 429.128C447.955 429.128 447.213 428.947 446.552 428.584C445.901 428.211 445.384 427.688 445 427.016C444.627 426.333 444.44 425.539 444.44 424.632C444.44 423.725 444.632 422.936 445.016 422.264C445.4 421.581 445.923 421.059 446.584 420.696C447.245 420.323 447.987 420.136 448.808 420.136C449.629 420.136 450.371 420.323 451.032 420.696C451.704 421.059 452.227 421.581 452.6 422.264C452.984 422.936 453.176 423.725 453.176 424.632C453.176 425.528 452.984 426.317 452.6 427C452.216 427.683 451.688 428.211 451.016 428.584C450.344 428.947 449.597 429.128 448.776 429.128ZM448.776 428.152C449.352 428.152 449.885 428.024 450.376 427.768C450.867 427.501 451.261 427.107 451.56 426.584C451.869 426.051 452.024 425.4 452.024 424.632C452.024 423.864 451.875 423.219 451.576 422.696C451.277 422.163 450.883 421.768 450.392 421.512C449.901 421.245 449.368 421.112 448.792 421.112C448.216 421.112 447.683 421.245 447.192 421.512C446.701 421.768 446.307 422.163 446.008 422.696C445.72 423.219 445.576 423.864 445.576 424.632C445.576 425.4 445.72 426.051 446.008 426.584C446.307 427.107 446.696 427.501 447.176 427.768C447.667 428.024 448.2 428.152 448.776 428.152ZM459.096 424.616C459.096 423.72 459.272 422.936 459.624 422.264C459.987 421.581 460.483 421.059 461.112 420.696C461.752 420.323 462.472 420.136 463.272 420.136C464.104 420.136 464.819 420.328 465.416 420.712C466.024 421.096 466.461 421.587 466.728 422.184V420.264H467.848V429H466.728V427.064C466.451 427.661 466.008 428.157 465.4 428.552C464.803 428.936 464.088 429.128 463.256 429.128C462.467 429.128 461.752 428.941 461.112 428.568C460.483 428.195 459.987 427.667 459.624 426.984C459.272 426.301 459.096 425.512 459.096 424.616ZM466.728 424.632C466.728 423.928 466.584 423.309 466.296 422.776C466.008 422.243 465.613 421.832 465.112 421.544C464.621 421.256 464.077 421.112 463.48 421.112C462.861 421.112 462.307 421.251 461.816 421.528C461.325 421.805 460.936 422.211 460.648 422.744C460.371 423.267 460.232 423.891 460.232 424.616C460.232 425.331 460.371 425.96 460.648 426.504C460.936 427.037 461.325 427.448 461.816 427.736C462.307 428.013 462.861 428.152 463.48 428.152C464.077 428.152 464.621 428.008 465.112 427.72C465.613 427.432 466.008 427.021 466.296 426.488C466.584 425.955 466.728 425.336 466.728 424.632ZM474.501 420.104C475.546 420.104 476.4 420.429 477.061 421.08C477.722 421.72 478.053 422.653 478.053 423.88V429H476.949V424.008C476.949 423.059 476.709 422.333 476.229 421.832C475.76 421.331 475.114 421.08 474.293 421.08C473.45 421.08 472.778 421.347 472.277 421.88C471.776 422.413 471.525 423.197 471.525 424.232V429H470.405V420.264H471.525V421.752C471.802 421.219 472.202 420.813 472.725 420.536C473.248 420.248 473.84 420.104 474.501 420.104ZM487.73 420.264L482.546 433.112H481.378L483.074 428.952L479.49 420.264H480.722L483.698 427.72L486.578 420.264H487.73ZM497.463 429.128C496.642 429.128 495.901 428.947 495.239 428.584C494.589 428.211 494.071 427.688 493.687 427.016C493.314 426.333 493.127 425.539 493.127 424.632C493.127 423.725 493.319 422.936 493.703 422.264C494.087 421.581 494.61 421.059 495.271 420.696C495.933 420.323 496.674 420.136 497.495 420.136C498.317 420.136 499.058 420.323 499.719 420.696C500.391 421.059 500.914 421.581 501.287 422.264C501.671 422.936 501.863 423.725 501.863 424.632C501.863 425.528 501.671 426.317 501.287 427C500.903 427.683 500.375 428.211 499.703 428.584C499.031 428.947 498.285 429.128 497.463 429.128ZM497.463 428.152C498.039 428.152 498.573 428.024 499.063 427.768C499.554 427.501 499.949 427.107 500.247 426.584C500.557 426.051 500.711 425.4 500.711 424.632C500.711 423.864 500.562 423.219 500.263 422.696C499.965 422.163 499.57 421.768 499.079 421.512C498.589 421.245 498.055 421.112 497.479 421.112C496.903 421.112 496.37 421.245 495.879 421.512C495.389 421.768 494.994 422.163 494.695 422.696C494.407 423.219 494.263 423.864 494.263 424.632C494.263 425.4 494.407 426.051 494.695 426.584C494.994 427.107 495.383 427.501 495.863 427.768C496.354 428.024 496.887 428.152 497.463 428.152ZM508.001 420.104C509.046 420.104 509.9 420.429 510.561 421.08C511.222 421.72 511.553 422.653 511.553 423.88V429H510.449V424.008C510.449 423.059 510.209 422.333 509.729 421.832C509.26 421.331 508.614 421.08 507.793 421.08C506.95 421.08 506.278 421.347 505.777 421.88C505.276 422.413 505.025 423.197 505.025 424.232V429H503.905V420.264H505.025V421.752C505.302 421.219 505.702 420.813 506.225 420.536C506.748 420.248 507.34 420.104 508.001 420.104ZM515.15 417.16V429H514.03V417.16H515.15ZM518.246 418.616C518.022 418.616 517.83 418.536 517.67 418.376C517.51 418.216 517.43 418.019 517.43 417.784C517.43 417.549 517.51 417.357 517.67 417.208C517.83 417.048 518.022 416.968 518.246 416.968C518.47 416.968 518.662 417.048 518.822 417.208C518.982 417.357 519.062 417.549 519.062 417.784C519.062 418.019 518.982 418.216 518.822 418.376C518.662 418.536 518.47 418.616 518.246 418.616ZM518.806 420.264V429H517.686V420.264H518.806ZM525.439 420.104C526.484 420.104 527.337 420.429 527.999 421.08C528.66 421.72 528.991 422.653 528.991 423.88V429H527.887V424.008C527.887 423.059 527.647 422.333 527.167 421.832C526.697 421.331 526.052 421.08 525.231 421.08C524.388 421.08 523.716 421.347 523.215 421.88C522.713 422.413 522.463 423.197 522.463 424.232V429H521.343V420.264H522.463V421.752C522.74 421.219 523.14 420.813 523.663 420.536C524.185 420.248 524.777 420.104 525.439 420.104ZM539.372 424.184C539.372 424.568 539.361 424.861 539.34 425.064H532.092C532.124 425.725 532.284 426.291 532.572 426.76C532.86 427.229 533.238 427.587 533.708 427.832C534.177 428.067 534.689 428.184 535.244 428.184C535.969 428.184 536.577 428.008 537.068 427.656C537.569 427.304 537.9 426.829 538.06 426.232H539.244C539.03 427.085 538.572 427.784 537.868 428.328C537.174 428.861 536.3 429.128 535.244 429.128C534.422 429.128 533.686 428.947 533.036 428.584C532.385 428.211 531.873 427.688 531.5 427.016C531.137 426.333 530.956 425.539 530.956 424.632C530.956 423.725 531.137 422.931 531.5 422.248C531.862 421.565 532.369 421.043 533.02 420.68C533.67 420.317 534.412 420.136 535.244 420.136C536.076 420.136 536.801 420.317 537.42 420.68C538.049 421.043 538.529 421.533 538.86 422.152C539.201 422.76 539.372 423.437 539.372 424.184ZM538.236 424.152C538.246 423.501 538.113 422.947 537.836 422.488C537.569 422.029 537.201 421.683 536.732 421.448C536.262 421.213 535.75 421.096 535.196 421.096C534.364 421.096 533.654 421.363 533.068 421.896C532.481 422.429 532.156 423.181 532.092 424.152H538.236ZM545.299 424.616C545.299 423.72 545.475 422.936 545.827 422.264C546.19 421.581 546.686 421.059 547.315 420.696C547.955 420.323 548.675 420.136 549.475 420.136C550.307 420.136 551.022 420.328 551.619 420.712C552.227 421.096 552.665 421.587 552.931 422.184V420.264H554.051V429H552.931V427.064C552.654 427.661 552.211 428.157 551.603 428.552C551.006 428.936 550.291 429.128 549.459 429.128C548.67 429.128 547.955 428.941 547.315 428.568C546.686 428.195 546.19 427.667 545.827 426.984C545.475 426.301 545.299 425.512 545.299 424.616ZM552.931 424.632C552.931 423.928 552.787 423.309 552.499 422.776C552.211 422.243 551.817 421.832 551.315 421.544C550.825 421.256 550.281 421.112 549.683 421.112C549.065 421.112 548.51 421.251 548.019 421.528C547.529 421.805 547.139 422.211 546.851 422.744C546.574 423.267 546.435 423.891 546.435 424.616C546.435 425.331 546.574 425.96 546.851 426.504C547.139 427.037 547.529 427.448 548.019 427.736C548.51 428.013 549.065 428.152 549.683 428.152C550.281 428.152 550.825 428.008 551.315 427.72C551.817 427.432 552.211 427.021 552.499 426.488C552.787 425.955 552.931 425.336 552.931 424.632ZM556.096 424.632C556.096 423.725 556.277 422.936 556.64 422.264C557.003 421.581 557.504 421.059 558.144 420.696C558.784 420.323 559.515 420.136 560.336 420.136C561.413 420.136 562.299 420.403 562.992 420.936C563.696 421.469 564.149 422.195 564.352 423.112H563.152C563.003 422.483 562.677 421.992 562.176 421.64C561.685 421.277 561.072 421.096 560.336 421.096C559.749 421.096 559.221 421.229 558.752 421.496C558.283 421.763 557.909 422.163 557.632 422.696C557.365 423.219 557.232 423.864 557.232 424.632C557.232 425.4 557.365 426.051 557.632 426.584C557.909 427.117 558.283 427.517 558.752 427.784C559.221 428.051 559.749 428.184 560.336 428.184C561.072 428.184 561.685 428.008 562.176 427.656C562.677 427.293 563.003 426.792 563.152 426.152H564.352C564.149 427.048 563.696 427.768 562.992 428.312C562.288 428.856 561.403 429.128 560.336 429.128C559.515 429.128 558.784 428.947 558.144 428.584C557.504 428.211 557.003 427.688 556.64 427.016C556.277 426.333 556.096 425.539 556.096 424.632ZM567.877 421.208V426.632C567.877 427.165 567.978 427.533 568.181 427.736C568.383 427.939 568.741 428.04 569.253 428.04H570.277V429H569.077C568.287 429 567.701 428.819 567.317 428.456C566.933 428.083 566.741 427.475 566.741 426.632V421.208H565.525V420.264H566.741V418.072H567.877V420.264H570.277V421.208H567.877ZM572.684 418.616C572.46 418.616 572.268 418.536 572.108 418.376C571.948 418.216 571.868 418.019 571.868 417.784C571.868 417.549 571.948 417.357 572.108 417.208C572.268 417.048 572.46 416.968 572.684 416.968C572.908 416.968 573.1 417.048 573.26 417.208C573.42 417.357 573.5 417.549 573.5 417.784C573.5 418.019 573.42 418.216 573.26 418.376C573.1 418.536 572.908 418.616 572.684 418.616ZM573.244 420.264V429H572.124V420.264H573.244ZM578.884 427.912L581.828 420.264H583.012L579.508 429H578.244L574.74 420.264H575.94L578.884 427.912ZM585.09 418.616C584.866 418.616 584.674 418.536 584.514 418.376C584.354 418.216 584.274 418.019 584.274 417.784C584.274 417.549 584.354 417.357 584.514 417.208C584.674 417.048 584.866 416.968 585.09 416.968C585.314 416.968 585.506 417.048 585.666 417.208C585.826 417.357 585.906 417.549 585.906 417.784C585.906 418.019 585.826 418.216 585.666 418.376C585.506 418.536 585.314 418.616 585.09 418.616ZM585.65 420.264V429H584.53V420.264H585.65ZM589.642 421.208V426.632C589.642 427.165 589.744 427.533 589.946 427.736C590.149 427.939 590.506 428.04 591.018 428.04H592.042V429H590.842C590.053 429 589.466 428.819 589.082 428.456C588.698 428.083 588.506 427.475 588.506 426.632V421.208H587.29V420.264H588.506V418.072H589.642V420.264H592.042V421.208H589.642ZM601.089 420.264L595.905 433.112H594.737L596.433 428.952L592.849 420.264H594.081L597.057 427.72L599.937 420.264H601.089ZM602.8 429.08C602.565 429.08 602.368 429 602.208 428.84C602.059 428.68 601.984 428.483 601.984 428.248C601.984 428.013 602.059 427.821 602.208 427.672C602.368 427.512 602.565 427.432 602.8 427.432C603.024 427.432 603.211 427.512 603.36 427.672C603.52 427.821 603.6 428.013 603.6 428.248C603.6 428.483 603.52 428.68 603.36 428.84C603.211 429 603.024 429.08 602.8 429.08Z" fill="#171717"/>
<g filter="url(#filter2_b_1_66)">
<rect x="399" y="290" width="73.5015" height="73.5015" rx="27" fill="white"/>
<rect x="399.5" y="290.5" width="72.5015" height="72.5015" rx="26.5" stroke="#EBF1F3"/>
</g>
<path d="M422.5 333V331.5C431.26 334.425 440.74 334.425 449.5 331.5V333" stroke="#171717" stroke-width="1.5" stroke-linecap="round" stroke-linejoin="round"/>
<path d="M422.5 322.5C431.26 319.575 440.74 319.575 449.5 322.5" stroke="#171717" stroke-width="1.5" stroke-linecap="round" stroke-linejoin="round"/>
<path d="M436 342C444.284 342 451 335.284 451 327C451 318.716 444.284 312 436 312C427.716 312 421 318.716 421 327C421 335.284 427.716 342 436 342Z" stroke="#171717" stroke-width="1.5" stroke-linecap="round" stroke-linejoin="round"/>
<path d="M429.998 313.5H431.498C428.573 322.26 428.573 331.74 431.498 340.5H429.998" stroke="#171717" stroke-width="1.5" stroke-linecap="round" stroke-linejoin="round"/>
<path d="M440.5 313.5C443.425 322.26 443.425 331.74 440.5 340.5" stroke="#171717" stroke-width="1.5" stroke-linecap="round" stroke-linejoin="round"/>
<defs>
<filter id="filter0_b_1_66" x="541.403" y="92.2649" width="96.6954" height="96.6953" filterUnits="userSpaceOnUse" color-interpolation-filters="sRGB">
<feFlood flood-opacity="0" result="BackgroundImageFix"/>
<feGaussianBlur in="BackgroundImageFix" stdDeviation="5.79846"/>
<feComposite in2="SourceAlpha" operator="in" result="effect1_backgroundBlur_1_66"/>
<feBlend mode="normal" in="SourceGraphic" in2="effect1_backgroundBlur_1_66" result="shape"/>
</filter>
<filter id="filter1_d_1_66" x="531.552" y="98.4119" width="116.401" height="116.401" filterUnits="userSpaceOnUse" color-interpolation-filters="sRGB">
<feFlood flood-opacity="0" result="BackgroundImageFix"/>
<feColorMatrix in="SourceAlpha" type="matrix" values="0 0 0 0 0 0 0 0 0 0 0 0 0 0 0 0 0 0 127 0" result="hardAlpha"/>
<feOffset dy="16"/>
<feGaussianBlur stdDeviation="14.4"/>
<feComposite in2="hardAlpha" operator="out"/>
<feColorMatrix type="matrix" values="0 0 0 0 0.419087 0 0 0 0 0.544853 0 0 0 0 0.600749 0 0 0 0.45 0"/>
<feBlend mode="normal" in2="BackgroundImageFix" result="effect1_dropShadow_1_66"/>
<feBlend mode="normal" in="SourceGraphic" in2="effect1_dropShadow_1_66" result="shape"/>
</filter>
<filter id="filter2_b_1_66" x="387.403" y="278.403" width="96.6954" height="96.6953" filterUnits="userSpaceOnUse" color-interpolation-filters="sRGB">
<feFlood flood-opacity="0" result="BackgroundImageFix"/>
<feGaussianBlur in="BackgroundImageFix" stdDeviation="5.79846"/>
<feComposite in2="SourceAlpha" operator="in" result="effect1_backgroundBlur_1_66"/>
<feBlend mode="normal" in="SourceGraphic" in2="effect1_backgroundBlur_1_66" result="shape"/>
</filter>
<radialGradient id="paint0_radial_1_66" cx="0" cy="0" r="1" gradientUnits="userSpaceOnUse" gradientTransform="translate(29.9994 378.862) rotate(-17.5167) scale(809.015 2274.88)">
<stop stop-color="#E3EFF4"/>
<stop offset="0.569182" stop-color="#CDE0E9"/>
<stop offset="1" stop-color="#E8F3F8" stop-opacity="0"/>
</radialGradient>
<linearGradient id="paint1_linear_1_66" x1="438" y1="212.362" x2="523" y2="212.362" gradientUnits="userSpaceOnUse">
<stop stop-color="#FF5B4A" stop-opacity="0"/>
<stop offset="0.5" stop-color="#FF5B4A"/>
<stop offset="1" stop-color="#FF5B4A" stop-opacity="0"/>
</linearGradient>
<radialGradient id="paint2_diamond_1_66" cx="0" cy="0" r="1" gradientUnits="userSpaceOnUse" gradientTransform="translate(589.752 140.613) rotate(-119.306) scale(44.6455 37.9756)">
<stop stop-color="white"/>
<stop offset="1" stop-color="white" stop-opacity="0"/>
</radialGradient>
<clipPath id="clip0_1_66">
<rect x="574.752" y="125.613" width="30" height="30" rx="15" fill="white"/>
</clipPath>
</defs>
</svg>
