<svg width="76" height="76" viewBox="0 0 76 76" fill="none" xmlns="http://www.w3.org/2000/svg">
<rect width="75.2308" height="75.2308" rx="37.6154" fill="#D8E2EB"/>
<path d="M48.4319 37.5904C50.1722 39.3335 51.3567 41.5534 51.8357 43.9695C52.3147 46.3856 52.0668 48.8895 51.1233 51.1648C50.1797 53.4401 48.5829 55.3846 46.5346 56.7526C44.4862 58.1206 42.0784 58.8508 39.6152 58.8508C37.1521 58.8508 34.7442 58.1206 32.6959 56.7526C30.6476 55.3846 29.0508 53.4401 28.1072 51.1648C27.1637 48.8895 26.9157 46.3856 27.3948 43.9695C27.8738 41.5534 29.0583 39.3335 30.7986 37.5904C33.1349 35.2542 36.3036 33.9418 39.6076 33.9418C42.9115 33.9418 46.0802 35.2542 48.4166 37.5904" fill="#E6EEF2"/>
<path d="M30.3527 32.2851V28.032C30.3133 26.12 31.0019 24.2645 32.2791 22.841C33.5562 21.4176 35.3266 20.5327 37.2317 20.3653C38.2172 20.3133 39.203 20.4626 40.1289 20.8041C41.0549 21.1456 41.9015 21.6723 42.6171 22.3519C43.3328 23.0315 43.9025 23.8498 44.2914 24.7568C44.6803 25.6639 44.8803 26.6407 44.8792 27.6276V32.2851" stroke="#323232" stroke-width="2" stroke-linecap="round" stroke-linejoin="round"/>
<path d="M46.432 33.5904C48.1723 35.3335 49.3568 37.5534 49.8358 39.9695C50.3149 42.3856 50.067 44.8895 49.1234 47.1648C48.1799 49.4401 46.583 51.3846 44.5347 52.7526C42.4864 54.1206 40.0785 54.8508 37.6154 54.8508C35.1522 54.8508 32.7444 54.1206 30.696 52.7526C28.6477 51.3846 27.0509 49.4401 26.1074 47.1648C25.1638 44.8895 24.9159 42.3856 25.3949 39.9695C25.874 37.5534 27.0585 35.3335 28.7987 33.5904C31.1351 31.2542 34.3037 29.9418 37.6077 29.9418C40.9117 29.9418 44.0804 31.2542 46.4167 33.5904" fill="white"/>
<path d="M46.432 33.5904C48.1723 35.3335 49.3568 37.5534 49.8358 39.9695C50.3149 42.3856 50.067 44.8895 49.1234 47.1648C48.1799 49.4401 46.583 51.3846 44.5347 52.7526C42.4864 54.1206 40.0785 54.8508 37.6154 54.8508C35.1522 54.8508 32.7444 54.1206 30.696 52.7526C28.6477 51.3846 27.0509 49.4401 26.1074 47.1648C25.1638 44.8895 24.9159 42.3856 25.3949 39.9695C25.874 37.5534 27.0585 35.3335 28.7987 33.5904C31.1351 31.2542 34.3037 29.9418 37.6077 29.9418C40.9117 29.9418 44.0804 31.2542 46.4167 33.5904" stroke="#323232" stroke-width="2" stroke-linecap="round" stroke-linejoin="round"/>
<path d="M37.6154 46.2404V41.3529" stroke="#FF5B4A" stroke-width="2" stroke-linecap="round" stroke-linejoin="round"/>
<path d="M37.6153 38.4415C37.3312 38.4426 37.0538 38.5279 36.8182 38.6865C36.5826 38.8452 36.3992 39.0701 36.2913 39.3328C36.1834 39.5956 36.1557 39.8845 36.2118 40.1629C36.2679 40.4414 36.4053 40.697 36.6066 40.8975C36.8078 41.0979 37.064 41.2343 37.3427 41.2893C37.6214 41.3443 37.9101 41.3155 38.1724 41.2065C38.4348 41.0975 38.6589 40.9133 38.8166 40.677C38.9743 40.4407 39.0585 40.163 39.0585 39.879C39.0595 39.6894 39.0229 39.5016 38.9506 39.3263C38.8784 39.1511 38.772 38.9919 38.6377 38.8582C38.5034 38.7244 38.3439 38.6187 38.1683 38.5471C37.9928 38.4756 37.8048 38.4397 37.6153 38.4415" stroke="#FF5B4A" stroke-width="2" stroke-linecap="round" stroke-linejoin="round"/>
</svg>
