<svg width="76" height="76" viewBox="0 0 76 76" fill="none" xmlns="http://www.w3.org/2000/svg">
<rect width="75.2308" height="75.2308" rx="37.6154" fill="white"/>
<path d="M52.7167 35.8174L54.2654 28.3654C54.3625 27.8984 54.3419 27.4145 54.2054 26.9574C54.0689 26.5003 53.8209 26.0844 53.4835 25.7471C53.1462 25.4098 52.7303 25.1617 52.2732 25.0252C51.8161 24.8887 51.3323 24.8681 50.8652 24.9653L43.4132 26.5139C41.2166 26.9681 39.2011 28.0555 37.6153 29.6419L31.5088 35.7542C29.1755 38.0887 27.6571 41.1133 27.179 44.3792L27.158 44.5191C27.0086 45.5463 27.101 46.5941 27.4277 47.5794C27.7545 48.5646 28.3066 49.46 29.0401 50.1943C29.7742 50.9282 30.6697 51.4804 31.655 51.8068C32.6403 52.1333 33.6883 52.225 34.7154 52.0746L34.8553 52.0535C38.1214 51.5762 41.1463 50.0577 43.4803 47.7238L49.5887 41.6153C51.1738 40.0317 52.2611 38.0189 52.7167 35.8251V35.8174Z" fill="#E6EEF2"/>
<path d="M27.3286 41.532L20.6912 39.9623C20.5251 39.9231 20.3725 39.8403 20.2491 39.7225C20.1257 39.6046 20.0361 39.4559 19.9894 39.2918C19.9427 39.1277 19.9406 38.9541 19.9835 38.7889C20.0263 38.6237 20.1125 38.473 20.2331 38.3523L25.5116 33.0738C25.8677 32.7176 26.3496 32.5158 26.8533 32.5122L32.8045 32.4604" fill="#FF5B4A"/>
<path d="M35.6989 49.9021L37.2667 56.5395C37.3059 56.7056 37.3887 56.8582 37.5065 56.9816C37.6244 57.105 37.7731 57.1946 37.9372 57.2413C38.1013 57.288 38.2749 57.2901 38.4401 57.2472C38.6053 57.2044 38.756 57.1182 38.8767 56.9976L44.1552 51.7191C44.5114 51.3631 44.7132 50.8811 44.7168 50.3775L44.7686 44.4358" fill="#FF5B4A"/>
<path d="M39.4173 35.8137L25.8664 49.3646" stroke="#323232" stroke-width="2" stroke-linecap="round" stroke-linejoin="round"/>
<path d="M27.3285 39.532L20.691 37.9623C20.525 37.9231 20.3724 37.8403 20.249 37.7225C20.1256 37.6046 20.0359 37.4559 19.9893 37.2918C19.9426 37.1277 19.9405 36.9541 19.9834 36.7889C20.0262 36.6237 20.1124 36.473 20.233 36.3523L25.5115 31.0738C25.8675 30.7176 26.3495 30.5158 26.8531 30.5122L32.8044 30.4604" stroke="#323232" stroke-width="2" stroke-linecap="round" stroke-linejoin="round"/>
<path d="M52.7169 31.8174L54.2655 24.3654C54.3627 23.8984 54.3421 23.4145 54.2056 22.9574C54.0691 22.5003 53.821 22.0844 53.4837 21.7471C53.1464 21.4098 52.7305 21.1617 52.2734 21.0252C51.8163 20.8887 51.3324 20.8681 50.8654 20.9653L43.4134 22.5139C41.2168 22.9681 39.2012 24.0555 37.6155 25.6419L31.509 31.7542C29.1757 34.0887 27.6573 37.1133 27.1792 40.3792L27.1581 40.5191C27.0088 41.5463 27.1011 42.5941 27.4279 43.5794C27.7546 44.5646 28.3067 45.46 29.0403 46.1943C29.7744 46.9282 30.6698 47.4804 31.6552 47.8068C32.6405 48.1333 33.6885 48.225 34.7155 48.0746L34.8555 48.0535C38.1216 47.5762 41.1464 46.0577 43.4805 43.7238L49.5889 37.6153C51.174 36.0317 52.2613 34.0189 52.7169 31.8251V31.8174Z" fill="white" stroke="#323232" stroke-width="2" stroke-linecap="round" stroke-linejoin="round"/>
<path d="M40.2985 23.6505C44.7304 26.6737 48.5569 30.5001 51.58 34.932" stroke="#323232" stroke-width="2" stroke-linecap="round" stroke-linejoin="round"/>
<path d="M35.6987 47.9021L37.2666 54.5395C37.3057 54.7056 37.3885 54.8582 37.5064 54.9816C37.6243 55.105 37.7729 55.1946 37.937 55.2413C38.1012 55.288 38.2748 55.2901 38.4399 55.2472C38.6051 55.2044 38.7558 55.1182 38.8766 54.9976L44.1551 49.7191C44.5113 49.3631 44.713 48.8811 44.7166 48.3775L44.7684 42.4358" stroke="#323232" stroke-width="2" stroke-linecap="round" stroke-linejoin="round"/>
</svg>
