<svg width="76" height="76" viewBox="0 0 76 76" fill="none" xmlns="http://www.w3.org/2000/svg">
<rect width="75.2308" height="75.2308" rx="37.6154" fill="white"/>
<path d="M47.2834 27.9477C44.5609 25.6688 41.163 24.3511 37.6158 24.1987C30.917 24.1987 24.2183 30.012 20.5919 36.7203C20.4438 36.9957 20.3663 37.3036 20.3663 37.6164C20.3663 37.9291 20.4438 38.237 20.5919 38.5124C22.4198 41.9079 24.9232 44.8933 27.9481 47.285" fill="white"/>
<path d="M47.2834 27.9477C44.5609 25.6688 41.163 24.3511 37.6158 24.1987C30.917 24.1987 24.2183 30.012 20.5919 36.7203C20.4438 36.9957 20.3663 37.3036 20.3663 37.6164C20.3663 37.9291 20.4438 38.237 20.5919 38.5124C22.4198 41.9079 24.9232 44.8933 27.9481 47.285" stroke="#323232" stroke-width="2" stroke-linecap="round" stroke-linejoin="round"/>
<path d="M37.6153 51.0321C35.9727 51.0111 34.348 50.6862 32.8237 50.0737" stroke="#323232" stroke-width="2" stroke-linecap="round" stroke-linejoin="round"/>
<path d="M54.6392 38.5123C51.0129 45.2187 44.3141 51.032 37.6154 51.032" stroke="#323232" stroke-width="2" stroke-linecap="round" stroke-linejoin="round"/>
<path d="M33.3465 41.8837C32.2142 40.7514 31.5781 39.2157 31.5781 37.6143C31.5781 36.8215 31.7342 36.0363 32.0377 35.3038C32.3411 34.5712 32.7858 33.9056 33.3465 33.345C33.9072 32.7843 34.5728 32.3396 35.3053 32.0361C36.0378 31.7327 36.823 31.5765 37.6159 31.5765C39.2172 31.5765 40.7529 32.2127 41.8852 33.345" fill="#FF5B4A"/>
<path d="M33.3465 41.8837C32.2142 40.7514 31.5781 39.2157 31.5781 37.6143C31.5781 36.8215 31.7342 36.0363 32.0377 35.3038C32.3411 34.5712 32.7858 33.9056 33.3465 33.345C33.9072 32.7843 34.5728 32.3396 35.3053 32.0361C36.0378 31.7327 36.823 31.5765 37.6159 31.5765C39.2172 31.5765 40.7529 32.2127 41.8852 33.345" stroke="#323232" stroke-width="2" stroke-linecap="round" stroke-linejoin="round"/>
<path d="M51.1837 31.7139C52.5058 33.2572 53.6622 34.9352 54.6337 36.7202C54.7818 36.9956 54.8593 37.3035 54.8593 37.6162C54.8593 37.929 54.7818 38.2369 54.6337 38.5123" stroke="#323232" stroke-width="2" stroke-linecap="round" stroke-linejoin="round"/>
<path d="M24.1987 51.0321L51.032 24.1987" stroke="#323232" stroke-width="2" stroke-linecap="round" stroke-linejoin="round"/>
</svg>
