<svg width="700" height="472" viewBox="0 0 700 472" fill="none" xmlns="http://www.w3.org/2000/svg">
<rect x="71.7031" width="565" height="362" rx="33" transform="rotate(1.32555 71.7031 0)" fill="#ECDDD6"/>
<rect x="38.3789" y="38.0898" width="619" height="396" rx="33" transform="rotate(-0.471117 38.3789 38.0898)" fill="#F6E7E0"/>
<rect y="64" width="699" height="408" rx="33" fill="white"/>
<rect x="1" y="64.0002" width="699" height="408" rx="33" fill="white"/>
<path d="M699.5 202.5H548H495.5H431.25M431.25 202.5H398.5C387.454 202.5 378.5 211.455 378.5 222.5V246.5C378.5 257.546 369.546 266.5 358.5 266.5H242C230.954 266.5 222 257.546 222 246.5V202.5C222 191.455 213.046 182.5 202 182.5H0M431.25 202.5L350 141" stroke="url(#paint0_radial_1_158)" stroke-width="1.5" stroke-dasharray="6 6"/>
<g filter="url(#filter0_b_1_158)">
<rect x="544" y="162" width="73.5015" height="73.5015" rx="27" fill="white"/>
<rect x="544.5" y="162.5" width="72.5015" height="72.5015" rx="26.5" stroke="#EBF1F3"/>
</g>
<path d="M590.917 206.083H589.5C589.124 206.083 588.764 205.934 588.498 205.668C588.233 205.403 588.083 205.042 588.083 204.667V197.583C588.083 197.208 588.233 196.847 588.498 196.582C588.764 196.316 589.124 196.167 589.5 196.167H590.917C591.668 196.167 592.389 196.465 592.92 196.997C593.452 197.528 593.75 198.249 593.75 199V203.25C593.75 204.001 593.452 204.722 592.92 205.253C592.389 205.785 591.668 206.083 590.917 206.083Z" stroke="#323232" stroke-width="2" stroke-linecap="round" stroke-linejoin="round"/>
<path d="M572.5 206.083H571.083C570.332 206.083 569.611 205.785 569.08 205.253C568.549 204.722 568.25 204.001 568.25 203.25V199C568.25 198.249 568.549 197.528 569.08 196.997C569.611 196.465 570.332 196.167 571.083 196.167H572.5C572.876 196.167 573.236 196.316 573.502 196.582C573.767 196.847 573.917 197.208 573.917 197.583V204.667C573.917 205.042 573.767 205.403 573.502 205.668C573.236 205.934 572.876 206.083 572.5 206.083Z" stroke="#323232" stroke-width="2" stroke-linecap="round" stroke-linejoin="round"/>
<path d="M590.208 196.167V195.458C590.208 193.016 589.238 190.674 587.511 188.947C585.784 187.22 583.442 186.25 581 186.25V186.25C578.558 186.25 576.216 187.22 574.489 188.947C572.762 190.674 571.792 193.016 571.792 195.458V196.167" stroke="#323232" stroke-width="2" stroke-linecap="round" stroke-linejoin="round"/>
<path d="M581.885 212.104H580.115C579.645 212.104 579.195 211.918 578.862 211.586C578.53 211.253 578.344 210.803 578.344 210.333C578.344 209.864 578.53 209.413 578.862 209.081C579.195 208.749 579.645 208.562 580.115 208.562H581.885C582.355 208.562 582.805 208.749 583.138 209.081C583.47 209.413 583.656 209.864 583.656 210.333V210.333C583.656 210.803 583.47 211.253 583.138 211.586C582.805 211.918 582.355 212.104 581.885 212.104V212.104Z" stroke="#323232" stroke-width="2" stroke-linecap="round" stroke-linejoin="round"/>
<path d="M583.656 210.333H586.667C587.418 210.333 588.139 210.035 588.67 209.503C589.201 208.972 589.5 208.251 589.5 207.5V206.083" stroke="#323232" stroke-width="2" stroke-linecap="round" stroke-linejoin="round"/>
<path d="M393.605 199.438C393.605 199.438 354.372 189.596 312.918 195.531C301.255 197.201 290.924 203.987 284.63 213.948C273.29 231.894 257.256 263.875 260.648 297.23L278.447 301.631C278.447 301.631 290.749 262.049 304.594 245.939C304.594 245.939 320.991 283.315 320.162 303.839C320.139 304.419 320.102 304.986 320.05 305.538C318.168 325.618 398.761 309.285 398.761 309.285L393.605 199.438Z" fill="#FF5B4A"/>
<path d="M351.191 165.932L359.543 192.538C360.32 195.013 359.547 197.664 357.607 199.159C353.136 202.602 344.299 208.084 333.502 207.927C331.526 207.898 329.866 206.212 329.728 204.143L326.76 159.673L351.191 165.932Z" fill="#B3CBD7"/>
<path d="M318.847 136.773C318.847 136.773 315.603 157.726 317.646 167.739C319.689 177.752 319.245 184.715 331.178 183.704C343.111 182.693 351.23 174.483 353.855 163.284C353.855 163.284 358.035 145.992 354.575 140.27C351.114 134.547 318.847 136.773 318.847 136.773Z" fill="#DFF4FF"/>
<path d="M348.099 157.241L346.656 157.62C346.656 157.62 349.397 143.866 343.612 143.097C337.826 142.327 316.031 143.544 309.639 137.376C303.477 131.43 304.912 121.281 309.982 117.214C310.302 116.957 310.775 117.016 311.054 117.318L311.766 118.093C312.253 118.624 313.139 118.291 313.157 117.571C313.174 116.888 313.993 116.524 314.49 116.993C316.433 118.83 321.071 121.427 331.475 120.651C346.237 119.55 357.042 122.803 359.827 132.473C360.004 133.086 360.752 133.253 361.194 132.793C362.067 131.887 363.653 131.153 366.367 132.438C371.087 134.673 371.721 143.521 365.068 152.684C364.752 153.12 364.92 153.748 365.431 153.917C367.23 154.513 370.146 156.292 365.045 161.023C359.826 165.863 356.141 166.453 354.694 166.463C354.305 166.465 353.972 166.197 353.897 165.815L352.164 157.052C352.074 156.599 351.621 156.315 351.174 156.433L348.099 157.241Z" fill="black"/>
<path d="M348.219 159.138C348.219 159.138 348.186 146.307 354.455 148.259C360.725 150.212 355.197 162.451 350.986 164.038L348.219 159.138Z" fill="url(#paint1_linear_1_158)"/>
<path d="M393.362 279.454C395.1 267.181 382.392 249.142 377.135 242.297C375.631 240.339 374.79 237.945 374.769 235.476C374.615 218.096 381.913 206.933 393.606 199.438C393.606 199.438 436.044 248.88 425.238 286.91C424.073 291.014 422.266 294.54 419.974 297.57C418.271 283.241 401.709 280.115 393.362 279.454Z" fill="#FF5B4A"/>
<path d="M392.571 274.707L394.188 274.522C392.817 262.487 382.257 247.63 377.78 241.801L376.489 242.792C380.883 248.514 391.245 263.077 392.571 274.707Z" fill="url(#paint2_linear_1_158)"/>
<path d="M393.029 281.153C393.177 280.602 393.28 280.032 393.362 279.453C401.709 280.115 418.271 283.241 419.974 297.57C401.035 322.618 348.834 313.581 348.834 313.581V303.834C348.834 303.834 388.925 296.386 393.029 281.153Z" fill="#CAE4F0"/>
<path d="M353.852 310.89C353.852 310.89 346.145 292.703 332.564 299.154C318.982 305.606 320.05 309.827 320.05 309.827L353.852 310.89Z" fill="#CAE4F0"/>
<path d="M355.583 314.664C355.476 316.04 354.303 317.087 352.923 317.039L282.547 314.583C281.453 314.545 280.503 313.821 280.176 312.776L278.134 306.239C277.632 304.634 278.778 302.985 280.457 302.896L306.121 301.533C306.354 301.52 306.588 301.54 306.816 301.59L353.571 311.945C354.825 312.223 355.684 313.382 355.583 314.664Z" fill="#B2CBD9"/>
<path d="M308.41 312.096L306.473 303.072L280.111 304.33L281.846 311.817L308.41 312.096Z" fill="#758893"/>
<path d="M321.924 214.971C323.416 227.162 330.128 276.693 332.049 290.845C332.319 292.835 330.738 294.586 328.73 294.528L214.874 291.27C213.384 291.228 212.113 290.178 211.79 288.723L194.079 208.96C193.611 206.852 195.289 204.88 197.446 205.007L318.884 212.119C320.455 212.211 321.733 213.409 321.924 214.971Z" fill="#D4E4EC"/>
<path d="M276.158 264.99L292.985 312.751L253.858 313.581L250.6 265.277C250.447 263.01 252.327 261.129 254.594 261.279L272.866 262.492C274.364 262.592 275.659 263.574 276.158 264.99Z" fill="#ABBBC4"/>
<path d="M308.848 313.432C309.279 314.746 308.3 316.098 306.917 316.098H245.641C244.518 316.098 243.609 315.188 243.609 314.066V311.437C243.609 310.281 244.572 309.358 245.728 309.407L307.004 312.035C307.849 312.072 308.584 312.628 308.848 313.432Z" fill="#B2CBD9"/>
<path d="M330.024 172.664C342.668 173.619 350.017 160.546 350.09 160.413L349.243 159.947C349.173 160.074 342.115 172.608 330.097 171.7L330.024 172.664Z" fill="black"/>
<path d="M324.869 172.176C324.869 172.925 325.477 173.533 326.226 173.533H329.844C330.593 173.533 331.201 172.925 331.201 172.176C331.201 171.427 330.593 170.819 329.844 170.819H326.226C325.477 170.819 324.869 171.427 324.869 172.176Z" fill="black"/>
<path d="M349.218 145.91C349.218 145.91 344.68 122.634 331.31 120.438C331.31 120.438 335.097 118.532 339.044 120.599C342.991 122.667 352.968 133.996 352.561 146.484C349.847 147.461 349.218 145.91 349.218 145.91Z" fill="white"/>
<path d="M351.541 144.809C358.492 146.219 357.637 155.009 357.637 155.009C358.138 161.388 356.276 164.55 353.891 166.057C352.261 167.086 350.209 167.182 348.488 166.313C346.767 165.445 345.627 163.738 345.486 161.815C345.357 160.079 345.21 158.429 345.081 157.843C344.769 156.423 344.59 143.398 351.541 144.809Z" fill="white"/>
<path d="M350.903 147.031C352.346 146.78 353.769 147.547 354.349 148.892C358.503 158.515 353.403 164.775 350.899 164.906C348.26 165.043 348.313 152.347 348.873 149.092C349.108 147.728 349.975 147.193 350.903 147.031Z" fill="#D4E4EC"/>
<path d="M55.78 367.26C56.2333 366.9 56.44 366.733 56.4 366.76C57.7067 365.68 58.7333 364.793 59.48 364.1C60.24 363.407 60.88 362.68 61.4 361.92C61.92 361.16 62.18 360.42 62.18 359.7C62.18 359.153 62.0533 358.727 61.8 358.42C61.5467 358.113 61.1667 357.96 60.66 357.96C60.1533 357.96 59.7533 358.153 59.46 358.54C59.18 358.913 59.04 359.447 59.04 360.14H55.74C55.7667 359.007 56.0067 358.06 56.46 357.3C56.9267 356.54 57.5333 355.98 58.28 355.62C59.04 355.26 59.88 355.08 60.8 355.08C62.3867 355.08 63.58 355.487 64.38 356.3C65.1933 357.113 65.6 358.173 65.6 359.48C65.6 360.907 65.1133 362.233 64.14 363.46C63.1667 364.673 61.9267 365.86 60.42 367.02H65.82V369.8H55.78V367.26ZM67.4058 367.4V364.64L73.7258 355.6H77.5458V364.44H79.1858V367.4H77.5458V370H74.1258V367.4H67.4058ZM74.3658 359.36L71.0058 364.44H74.3658V359.36ZM88.8209 351L83.4609 373.74H80.1609L85.5209 351H88.8209ZM99.2434 357.96L94.2234 370H90.7234L95.8034 358.34H89.5834V355.42H99.2434V357.96ZM109.745 370.16C108.772 370.16 107.905 369.993 107.145 369.66C106.385 369.327 105.785 368.873 105.345 368.3C104.905 367.713 104.658 367.06 104.605 366.34H107.985C108.025 366.727 108.205 367.04 108.525 367.28C108.845 367.52 109.238 367.64 109.705 367.64C110.132 367.64 110.458 367.56 110.685 367.4C110.925 367.227 111.045 367.007 111.045 366.74C111.045 366.42 110.878 366.187 110.545 366.04C110.212 365.88 109.672 365.707 108.925 365.52C108.125 365.333 107.458 365.14 106.925 364.94C106.392 364.727 105.932 364.4 105.545 363.96C105.158 363.507 104.965 362.9 104.965 362.14C104.965 361.5 105.138 360.92 105.485 360.4C105.845 359.867 106.365 359.447 107.045 359.14C107.738 358.833 108.558 358.68 109.505 358.68C110.905 358.68 112.005 359.027 112.805 359.72C113.618 360.413 114.085 361.333 114.205 362.48H111.045C110.992 362.093 110.818 361.787 110.525 361.56C110.245 361.333 109.872 361.22 109.405 361.22C109.005 361.22 108.698 361.3 108.485 361.46C108.272 361.607 108.165 361.813 108.165 362.08C108.165 362.4 108.332 362.64 108.665 362.8C109.012 362.96 109.545 363.12 110.265 363.28C111.092 363.493 111.765 363.707 112.285 363.92C112.805 364.12 113.258 364.453 113.645 364.92C114.045 365.373 114.252 365.987 114.265 366.76C114.265 367.413 114.078 368 113.705 368.52C113.345 369.027 112.818 369.427 112.125 369.72C111.445 370.013 110.652 370.16 109.745 370.16ZM127.377 358.84V370H123.957V368.48C123.611 368.973 123.137 369.373 122.537 369.68C121.951 369.973 121.297 370.12 120.577 370.12C119.724 370.12 118.971 369.933 118.317 369.56C117.664 369.173 117.157 368.62 116.797 367.9C116.437 367.18 116.257 366.333 116.257 365.36V358.84H119.657V364.9C119.657 365.647 119.851 366.227 120.237 366.64C120.624 367.053 121.144 367.26 121.797 367.26C122.464 367.26 122.991 367.053 123.377 366.64C123.764 366.227 123.957 365.647 123.957 364.9V358.84H127.377ZM133.254 360.42C133.587 359.9 134.047 359.48 134.634 359.16C135.22 358.84 135.907 358.68 136.694 358.68C137.614 358.68 138.447 358.913 139.194 359.38C139.94 359.847 140.527 360.513 140.954 361.38C141.394 362.247 141.614 363.253 141.614 364.4C141.614 365.547 141.394 366.56 140.954 367.44C140.527 368.307 139.94 368.98 139.194 369.46C138.447 369.927 137.614 370.16 136.694 370.16C135.92 370.16 135.234 370 134.634 369.68C134.047 369.36 133.587 368.947 133.254 368.44V375.32H129.834V358.84H133.254V360.42ZM138.134 364.4C138.134 363.547 137.894 362.88 137.414 362.4C136.947 361.907 136.367 361.66 135.674 361.66C134.994 361.66 134.414 361.907 133.934 362.4C133.467 362.893 133.234 363.567 133.234 364.42C133.234 365.273 133.467 365.947 133.934 366.44C134.414 366.933 134.994 367.18 135.674 367.18C136.354 367.18 136.934 366.933 137.414 366.44C137.894 365.933 138.134 365.253 138.134 364.4ZM146.828 360.42C147.161 359.9 147.621 359.48 148.208 359.16C148.795 358.84 149.481 358.68 150.268 358.68C151.188 358.68 152.021 358.913 152.768 359.38C153.515 359.847 154.101 360.513 154.528 361.38C154.968 362.247 155.188 363.253 155.188 364.4C155.188 365.547 154.968 366.56 154.528 367.44C154.101 368.307 153.515 368.98 152.768 369.46C152.021 369.927 151.188 370.16 150.268 370.16C149.495 370.16 148.808 370 148.208 369.68C147.621 369.36 147.161 368.947 146.828 368.44V375.32H143.408V358.84H146.828V360.42ZM151.708 364.4C151.708 363.547 151.468 362.88 150.988 362.4C150.521 361.907 149.941 361.66 149.248 361.66C148.568 361.66 147.988 361.907 147.508 362.4C147.041 362.893 146.808 363.567 146.808 364.42C146.808 365.273 147.041 365.947 147.508 366.44C147.988 366.933 148.568 367.18 149.248 367.18C149.928 367.18 150.508 366.933 150.988 366.44C151.468 365.933 151.708 365.253 151.708 364.4ZM162.062 370.16C160.969 370.16 159.982 369.927 159.102 369.46C158.236 368.993 157.549 368.327 157.042 367.46C156.549 366.593 156.302 365.58 156.302 364.42C156.302 363.273 156.556 362.267 157.062 361.4C157.569 360.52 158.262 359.847 159.142 359.38C160.022 358.913 161.009 358.68 162.102 358.68C163.196 358.68 164.182 358.913 165.062 359.38C165.942 359.847 166.636 360.52 167.142 361.4C167.649 362.267 167.902 363.273 167.902 364.42C167.902 365.567 167.642 366.58 167.122 367.46C166.616 368.327 165.916 368.993 165.022 369.46C164.142 369.927 163.156 370.16 162.062 370.16ZM162.062 367.2C162.716 367.2 163.269 366.96 163.722 366.48C164.189 366 164.422 365.313 164.422 364.42C164.422 363.527 164.196 362.84 163.742 362.36C163.302 361.88 162.756 361.64 162.102 361.64C161.436 361.64 160.882 361.88 160.442 362.36C160.002 362.827 159.782 363.513 159.782 364.42C159.782 365.313 159.996 366 160.422 366.48C160.862 366.96 161.409 367.2 162.062 367.2ZM173.137 360.7C173.537 360.087 174.037 359.607 174.637 359.26C175.237 358.9 175.903 358.72 176.637 358.72V362.34H175.697C174.843 362.34 174.203 362.527 173.777 362.9C173.35 363.26 173.137 363.9 173.137 364.82V370H169.717V358.84H173.137V360.7ZM184.491 367.1V370H182.751C181.511 370 180.545 369.7 179.851 369.1C179.158 368.487 178.811 367.493 178.811 366.12V361.68H177.451V358.84H178.811V356.12H182.231V358.84H184.471V361.68H182.231V366.16C182.231 366.493 182.311 366.733 182.471 366.88C182.631 367.027 182.898 367.1 183.271 367.1H184.491ZM61.304 402.112C60.2693 402.112 59.3307 401.872 58.488 401.392C57.6453 400.901 56.9787 400.224 56.488 399.36C56.008 398.485 55.768 397.499 55.768 396.4C55.768 395.301 56.008 394.32 56.488 393.456C56.9787 392.581 57.6453 391.904 58.488 391.424C59.3307 390.933 60.2693 390.688 61.304 390.688C62.3493 390.688 63.2933 390.933 64.136 391.424C64.9787 391.904 65.64 392.581 66.12 393.456C66.6 394.32 66.84 395.301 66.84 396.4C66.84 397.499 66.6 398.485 66.12 399.36C65.64 400.224 64.9787 400.901 64.136 401.392C63.2933 401.872 62.3493 402.112 61.304 402.112ZM61.304 401.136C62.136 401.136 62.8827 400.944 63.544 400.56C64.2053 400.176 64.728 399.627 65.112 398.912C65.496 398.187 65.688 397.349 65.688 396.4C65.688 395.451 65.496 394.619 65.112 393.904C64.728 393.189 64.2053 392.64 63.544 392.256C62.8827 391.872 62.136 391.68 61.304 391.68C60.472 391.68 59.7253 391.872 59.064 392.256C58.4027 392.64 57.88 393.189 57.496 393.904C57.112 394.619 56.92 395.451 56.92 396.4C56.92 397.349 57.112 398.187 57.496 398.912C57.88 399.627 58.4027 400.176 59.064 400.56C59.7253 400.944 60.472 401.136 61.304 401.136ZM76.4574 393.264V402H75.3374V400.464C75.0814 401.008 74.6867 401.424 74.1534 401.712C73.62 402 73.0227 402.144 72.3614 402.144C71.316 402.144 70.4627 401.824 69.8014 401.184C69.14 400.533 68.8094 399.595 68.8094 398.368V393.264H69.9134V398.24C69.9134 399.189 70.148 399.915 70.6174 400.416C71.0974 400.917 71.748 401.168 72.5694 401.168C73.412 401.168 74.084 400.901 74.5854 400.368C75.0867 399.835 75.3374 399.051 75.3374 398.016V393.264H76.4574ZM80.1344 394.816C80.3797 394.272 80.753 393.851 81.2544 393.552C81.7664 393.253 82.3904 393.104 83.1264 393.104V394.272H82.8224C82.0117 394.272 81.361 394.491 80.8704 394.928C80.3797 395.365 80.1344 396.096 80.1344 397.12V402H79.0144V393.264H80.1344V394.816ZM88.6899 397.632C88.6899 396.725 88.8712 395.936 89.2339 395.264C89.5965 394.581 90.0979 394.059 90.7379 393.696C91.3779 393.323 92.1085 393.136 92.9299 393.136C94.0072 393.136 94.8925 393.403 95.5859 393.936C96.2899 394.469 96.7432 395.195 96.9459 396.112H95.7459C95.5965 395.483 95.2712 394.992 94.7699 394.64C94.2792 394.277 93.6659 394.096 92.9299 394.096C92.3432 394.096 91.8152 394.229 91.3459 394.496C90.8765 394.763 90.5032 395.163 90.2259 395.696C89.9592 396.219 89.8259 396.864 89.8259 397.632C89.8259 398.4 89.9592 399.051 90.2259 399.584C90.5032 400.117 90.8765 400.517 91.3459 400.784C91.8152 401.051 92.3432 401.184 92.9299 401.184C93.6659 401.184 94.2792 401.008 94.7699 400.656C95.2712 400.293 95.5965 399.792 95.7459 399.152H96.9459C96.7432 400.048 96.2899 400.768 95.5859 401.312C94.8819 401.856 93.9965 402.128 92.9299 402.128C92.1085 402.128 91.3779 401.947 90.7379 401.584C90.0979 401.211 89.5965 400.688 89.2339 400.016C88.8712 399.333 88.6899 398.539 88.6899 397.632ZM106.582 393.264V402H105.462V400.464C105.206 401.008 104.812 401.424 104.278 401.712C103.745 402 103.148 402.144 102.486 402.144C101.441 402.144 100.588 401.824 99.9264 401.184C99.265 400.533 98.9344 399.595 98.9344 398.368V393.264H100.038V398.24C100.038 399.189 100.273 399.915 100.742 400.416C101.222 400.917 101.873 401.168 102.694 401.168C103.537 401.168 104.209 400.901 104.71 400.368C105.212 399.835 105.462 399.051 105.462 398.016V393.264H106.582ZM112.147 402.128C111.145 402.128 110.323 401.899 109.683 401.44C109.054 400.971 108.702 400.336 108.627 399.536H109.779C109.833 400.027 110.062 400.427 110.467 400.736C110.883 401.035 111.438 401.184 112.131 401.184C112.739 401.184 113.214 401.04 113.555 400.752C113.907 400.464 114.083 400.107 114.083 399.68C114.083 399.381 113.987 399.136 113.795 398.944C113.603 398.752 113.358 398.603 113.059 398.496C112.771 398.379 112.377 398.256 111.875 398.128C111.225 397.957 110.697 397.787 110.291 397.616C109.886 397.445 109.539 397.195 109.251 396.864C108.974 396.523 108.835 396.069 108.835 395.504C108.835 395.077 108.963 394.683 109.219 394.32C109.475 393.957 109.838 393.669 110.307 393.456C110.777 393.243 111.31 393.136 111.907 393.136C112.846 393.136 113.603 393.376 114.179 393.856C114.755 394.325 115.065 394.976 115.107 395.808H113.987C113.955 395.296 113.753 394.885 113.379 394.576C113.017 394.256 112.515 394.096 111.875 394.096C111.31 394.096 110.851 394.229 110.499 394.496C110.147 394.763 109.971 395.093 109.971 395.488C109.971 395.829 110.073 396.112 110.275 396.336C110.489 396.549 110.75 396.72 111.059 396.848C111.369 396.965 111.785 397.099 112.307 397.248C112.937 397.419 113.438 397.584 113.811 397.744C114.185 397.904 114.505 398.139 114.771 398.448C115.038 398.757 115.177 399.168 115.187 399.68C115.187 400.149 115.059 400.571 114.803 400.944C114.547 401.307 114.19 401.595 113.731 401.808C113.273 402.021 112.745 402.128 112.147 402.128ZM118.752 394.208V399.632C118.752 400.165 118.853 400.533 119.056 400.736C119.258 400.939 119.616 401.04 120.128 401.04H121.152V402H119.952C119.162 402 118.576 401.819 118.192 401.456C117.808 401.083 117.616 400.475 117.616 399.632V394.208H116.4V393.264H117.616V391.072H118.752V393.264H121.152V394.208H118.752ZM126.823 402.128C126.001 402.128 125.26 401.947 124.599 401.584C123.948 401.211 123.431 400.688 123.047 400.016C122.673 399.333 122.487 398.539 122.487 397.632C122.487 396.725 122.679 395.936 123.063 395.264C123.447 394.581 123.969 394.059 124.631 393.696C125.292 393.323 126.033 393.136 126.855 393.136C127.676 393.136 128.417 393.323 129.079 393.696C129.751 394.059 130.273 394.581 130.647 395.264C131.031 395.936 131.223 396.725 131.223 397.632C131.223 398.528 131.031 399.317 130.647 400C130.263 400.683 129.735 401.211 129.063 401.584C128.391 401.947 127.644 402.128 126.823 402.128ZM126.823 401.152C127.399 401.152 127.932 401.024 128.423 400.768C128.913 400.501 129.308 400.107 129.607 399.584C129.916 399.051 130.071 398.4 130.071 397.632C130.071 396.864 129.921 396.219 129.623 395.696C129.324 395.163 128.929 394.768 128.439 394.512C127.948 394.245 127.415 394.112 126.839 394.112C126.263 394.112 125.729 394.245 125.239 394.512C124.748 394.768 124.353 395.163 124.055 395.696C123.767 396.219 123.623 396.864 123.623 397.632C123.623 398.4 123.767 399.051 124.055 399.584C124.353 400.107 124.743 400.501 125.223 400.768C125.713 401.024 126.247 401.152 126.823 401.152ZM143.664 393.104C144.688 393.104 145.52 393.429 146.16 394.08C146.811 394.72 147.136 395.653 147.136 396.88V402H146.032V397.008C146.032 396.059 145.803 395.333 145.344 394.832C144.886 394.331 144.262 394.08 143.472 394.08C142.651 394.08 141.995 394.352 141.504 394.896C141.014 395.44 140.768 396.229 140.768 397.264V402H139.664V397.008C139.664 396.059 139.435 395.333 138.976 394.832C138.518 394.331 137.888 394.08 137.088 394.08C136.267 394.08 135.611 394.352 135.12 394.896C134.63 395.44 134.384 396.229 134.384 397.264V402H133.264V393.264H134.384V394.768C134.662 394.224 135.056 393.813 135.568 393.536C136.08 393.248 136.651 393.104 137.28 393.104C138.038 393.104 138.699 393.285 139.264 393.648C139.84 394.011 140.256 394.544 140.512 395.248C140.747 394.555 141.147 394.027 141.712 393.664C142.288 393.291 142.939 393.104 143.664 393.104ZM157.528 397.184C157.528 397.568 157.517 397.861 157.496 398.064H150.248C150.28 398.725 150.44 399.291 150.728 399.76C151.016 400.229 151.394 400.587 151.864 400.832C152.333 401.067 152.845 401.184 153.4 401.184C154.125 401.184 154.733 401.008 155.224 400.656C155.725 400.304 156.056 399.829 156.216 399.232H157.4C157.186 400.085 156.728 400.784 156.024 401.328C155.33 401.861 154.456 402.128 153.4 402.128C152.578 402.128 151.842 401.947 151.192 401.584C150.541 401.211 150.029 400.688 149.656 400.016C149.293 399.333 149.112 398.539 149.112 397.632C149.112 396.725 149.293 395.931 149.656 395.248C150.018 394.565 150.525 394.043 151.176 393.68C151.826 393.317 152.568 393.136 153.4 393.136C154.232 393.136 154.957 393.317 155.576 393.68C156.205 394.043 156.685 394.533 157.016 395.152C157.357 395.76 157.528 396.437 157.528 397.184ZM156.392 397.152C156.402 396.501 156.269 395.947 155.992 395.488C155.725 395.029 155.357 394.683 154.888 394.448C154.418 394.213 153.906 394.096 153.352 394.096C152.52 394.096 151.81 394.363 151.224 394.896C150.637 395.429 150.312 396.181 150.248 397.152H156.392ZM160.697 394.816C160.942 394.272 161.316 393.851 161.817 393.552C162.329 393.253 162.953 393.104 163.689 393.104V394.272H163.385C162.574 394.272 161.924 394.491 161.433 394.928C160.942 395.365 160.697 396.096 160.697 397.12V402H159.577V393.264H160.697V394.816ZM172.772 402.128C171.77 402.128 170.948 401.899 170.308 401.44C169.679 400.971 169.327 400.336 169.252 399.536H170.404C170.458 400.027 170.687 400.427 171.092 400.736C171.508 401.035 172.063 401.184 172.756 401.184C173.364 401.184 173.839 401.04 174.18 400.752C174.532 400.464 174.708 400.107 174.708 399.68C174.708 399.381 174.612 399.136 174.42 398.944C174.228 398.752 173.983 398.603 173.684 398.496C173.396 398.379 173.002 398.256 172.5 398.128C171.85 397.957 171.322 397.787 170.916 397.616C170.511 397.445 170.164 397.195 169.876 396.864C169.599 396.523 169.46 396.069 169.46 395.504C169.46 395.077 169.588 394.683 169.844 394.32C170.1 393.957 170.463 393.669 170.932 393.456C171.402 393.243 171.935 393.136 172.532 393.136C173.471 393.136 174.228 393.376 174.804 393.856C175.38 394.325 175.69 394.976 175.732 395.808H174.612C174.58 395.296 174.378 394.885 174.004 394.576C173.642 394.256 173.14 394.096 172.5 394.096C171.935 394.096 171.476 394.229 171.124 394.496C170.772 394.763 170.596 395.093 170.596 395.488C170.596 395.829 170.698 396.112 170.9 396.336C171.114 396.549 171.375 396.72 171.684 396.848C171.994 396.965 172.41 397.099 172.932 397.248C173.562 397.419 174.063 397.584 174.436 397.744C174.81 397.904 175.13 398.139 175.396 398.448C175.663 398.757 175.802 399.168 175.812 399.68C175.812 400.149 175.684 400.571 175.428 400.944C175.172 401.307 174.815 401.595 174.356 401.808C173.898 402.021 173.37 402.128 172.772 402.128ZM185.489 393.264V402H184.369V400.464C184.113 401.008 183.718 401.424 183.185 401.712C182.651 402 182.054 402.144 181.393 402.144C180.347 402.144 179.494 401.824 178.833 401.184C178.171 400.533 177.841 399.595 177.841 398.368V393.264H178.945V398.24C178.945 399.189 179.179 399.915 179.649 400.416C180.129 400.917 180.779 401.168 181.601 401.168C182.443 401.168 183.115 400.901 183.617 400.368C184.118 399.835 184.369 399.051 184.369 398.016V393.264H185.489ZM189.15 395.184C189.427 394.597 189.864 394.112 190.462 393.728C191.07 393.333 191.79 393.136 192.622 393.136C193.411 393.136 194.12 393.323 194.75 393.696C195.39 394.059 195.886 394.581 196.238 395.264C196.6 395.936 196.782 396.72 196.782 397.616C196.782 398.512 196.6 399.301 196.238 399.984C195.886 400.667 195.39 401.195 194.75 401.568C194.12 401.941 193.411 402.128 192.622 402.128C191.8 402.128 191.086 401.936 190.478 401.552C189.87 401.157 189.427 400.667 189.15 400.08V406.128H188.046V393.264H189.15V395.184ZM195.646 397.616C195.646 396.891 195.502 396.267 195.214 395.744C194.936 395.211 194.552 394.805 194.062 394.528C193.571 394.251 193.016 394.112 192.398 394.112C191.8 394.112 191.251 394.256 190.75 394.544C190.259 394.832 189.87 395.243 189.582 395.776C189.294 396.309 189.15 396.928 189.15 397.632C189.15 398.336 189.294 398.955 189.582 399.488C189.87 400.021 190.259 400.432 190.75 400.72C191.251 401.008 191.8 401.152 192.398 401.152C193.016 401.152 193.571 401.013 194.062 400.736C194.552 400.448 194.936 400.037 195.214 399.504C195.502 398.96 195.646 398.331 195.646 397.616ZM199.947 395.184C200.224 394.597 200.661 394.112 201.259 393.728C201.867 393.333 202.587 393.136 203.419 393.136C204.208 393.136 204.917 393.323 205.547 393.696C206.187 394.059 206.683 394.581 207.035 395.264C207.397 395.936 207.579 396.72 207.579 397.616C207.579 398.512 207.397 399.301 207.035 399.984C206.683 400.667 206.187 401.195 205.547 401.568C204.917 401.941 204.208 402.128 203.419 402.128C202.597 402.128 201.883 401.936 201.275 401.552C200.667 401.157 200.224 400.667 199.947 400.08V406.128H198.843V393.264H199.947V395.184ZM206.443 397.616C206.443 396.891 206.299 396.267 206.01 395.744C205.733 395.211 205.349 394.805 204.859 394.528C204.368 394.251 203.813 394.112 203.195 394.112C202.597 394.112 202.048 394.256 201.547 394.544C201.056 394.832 200.667 395.243 200.379 395.776C200.091 396.309 199.947 396.928 199.947 397.632C199.947 398.336 200.091 398.955 200.379 399.488C200.667 400.021 201.056 400.432 201.547 400.72C202.048 401.008 202.597 401.152 203.195 401.152C203.813 401.152 204.368 401.013 204.859 400.736C205.349 400.448 205.733 400.037 206.01 399.504C206.299 398.96 206.443 398.331 206.443 397.616ZM213.463 402.128C212.642 402.128 211.901 401.947 211.239 401.584C210.589 401.211 210.071 400.688 209.687 400.016C209.314 399.333 209.127 398.539 209.127 397.632C209.127 396.725 209.319 395.936 209.703 395.264C210.087 394.581 210.61 394.059 211.271 393.696C211.933 393.323 212.674 393.136 213.495 393.136C214.317 393.136 215.058 393.323 215.719 393.696C216.391 394.059 216.914 394.581 217.287 395.264C217.671 395.936 217.863 396.725 217.863 397.632C217.863 398.528 217.671 399.317 217.287 400C216.903 400.683 216.375 401.211 215.703 401.584C215.031 401.947 214.285 402.128 213.463 402.128ZM213.463 401.152C214.039 401.152 214.573 401.024 215.063 400.768C215.554 400.501 215.949 400.107 216.247 399.584C216.557 399.051 216.711 398.4 216.711 397.632C216.711 396.864 216.562 396.219 216.263 395.696C215.965 395.163 215.57 394.768 215.079 394.512C214.589 394.245 214.055 394.112 213.479 394.112C212.903 394.112 212.37 394.245 211.879 394.512C211.389 394.768 210.994 395.163 210.695 395.696C210.407 396.219 210.263 396.864 210.263 397.632C210.263 398.4 210.407 399.051 210.695 399.584C210.994 400.107 211.383 400.501 211.863 400.768C212.354 401.024 212.887 401.152 213.463 401.152ZM221.025 394.816C221.27 394.272 221.644 393.851 222.145 393.552C222.657 393.253 223.281 393.104 224.017 393.104V394.272H223.713C222.902 394.272 222.252 394.491 221.761 394.928C221.27 395.365 221.025 396.096 221.025 397.12V402H219.905V393.264H221.025V394.816ZM227.158 394.208V399.632C227.158 400.165 227.259 400.533 227.462 400.736C227.665 400.939 228.022 401.04 228.534 401.04H229.558V402H228.358C227.569 402 226.982 401.819 226.598 401.456C226.214 401.083 226.022 400.475 226.022 399.632V394.208H224.806V393.264H226.022V391.072H227.158V393.264H229.558V394.208H227.158ZM243.7 397.184C243.7 397.568 243.689 397.861 243.668 398.064H236.42C236.452 398.725 236.612 399.291 236.9 399.76C237.188 400.229 237.566 400.587 238.036 400.832C238.505 401.067 239.017 401.184 239.572 401.184C240.297 401.184 240.905 401.008 241.396 400.656C241.897 400.304 242.228 399.829 242.388 399.232H243.572C243.358 400.085 242.9 400.784 242.196 401.328C241.502 401.861 240.628 402.128 239.572 402.128C238.75 402.128 238.014 401.947 237.364 401.584C236.713 401.211 236.201 400.688 235.828 400.016C235.465 399.333 235.284 398.539 235.284 397.632C235.284 396.725 235.465 395.931 235.828 395.248C236.19 394.565 236.697 394.043 237.348 393.68C237.998 393.317 238.74 393.136 239.572 393.136C240.404 393.136 241.129 393.317 241.748 393.68C242.377 394.043 242.857 394.533 243.188 395.152C243.529 395.76 243.7 396.437 243.7 397.184ZM242.564 397.152C242.574 396.501 242.441 395.947 242.164 395.488C241.897 395.029 241.529 394.683 241.06 394.448C240.59 394.213 240.078 394.096 239.524 394.096C238.692 394.096 237.982 394.363 237.396 394.896C236.809 395.429 236.484 396.181 236.42 397.152H242.564ZM250.325 402L248.069 398.48L245.893 402H244.709L247.525 397.632L244.741 393.264H246.005L248.229 396.736L250.389 393.264H251.557L248.773 397.584L251.589 402H250.325ZM254.212 395.184C254.489 394.597 254.927 394.112 255.524 393.728C256.132 393.333 256.852 393.136 257.684 393.136C258.473 393.136 259.183 393.323 259.812 393.696C260.452 394.059 260.948 394.581 261.3 395.264C261.663 395.936 261.844 396.72 261.844 397.616C261.844 398.512 261.663 399.301 261.3 399.984C260.948 400.667 260.452 401.195 259.812 401.568C259.183 401.941 258.473 402.128 257.684 402.128C256.863 402.128 256.148 401.936 255.54 401.552C254.932 401.157 254.489 400.667 254.212 400.08V406.128H253.108V393.264H254.212V395.184ZM260.708 397.616C260.708 396.891 260.564 396.267 260.276 395.744C259.999 395.211 259.615 394.805 259.124 394.528C258.633 394.251 258.079 394.112 257.46 394.112C256.863 394.112 256.313 394.256 255.812 394.544C255.321 394.832 254.932 395.243 254.644 395.776C254.356 396.309 254.212 396.928 254.212 397.632C254.212 398.336 254.356 398.955 254.644 399.488C254.932 400.021 255.321 400.432 255.812 400.72C256.313 401.008 256.863 401.152 257.46 401.152C258.079 401.152 258.633 401.013 259.124 400.736C259.615 400.448 259.999 400.037 260.276 399.504C260.564 398.96 260.708 398.331 260.708 397.616ZM271.809 397.184C271.809 397.568 271.798 397.861 271.777 398.064H264.529C264.561 398.725 264.721 399.291 265.009 399.76C265.297 400.229 265.676 400.587 266.145 400.832C266.614 401.067 267.126 401.184 267.681 401.184C268.406 401.184 269.014 401.008 269.505 400.656C270.006 400.304 270.337 399.829 270.497 399.232H271.681C271.468 400.085 271.009 400.784 270.305 401.328C269.612 401.861 268.737 402.128 267.681 402.128C266.86 402.128 266.124 401.947 265.473 401.584C264.822 401.211 264.31 400.688 263.937 400.016C263.574 399.333 263.393 398.539 263.393 397.632C263.393 396.725 263.574 395.931 263.937 395.248C264.3 394.565 264.806 394.043 265.457 393.68C266.108 393.317 266.849 393.136 267.681 393.136C268.513 393.136 269.238 393.317 269.857 393.68C270.486 394.043 270.966 394.533 271.297 395.152C271.638 395.76 271.809 396.437 271.809 397.184ZM270.673 397.152C270.684 396.501 270.55 395.947 270.273 395.488C270.006 395.029 269.638 394.683 269.169 394.448C268.7 394.213 268.188 394.096 267.633 394.096C266.801 394.096 266.092 394.363 265.505 394.896C264.918 395.429 264.593 396.181 264.529 397.152H270.673ZM274.978 394.816C275.223 394.272 275.597 393.851 276.098 393.552C276.61 393.253 277.234 393.104 277.97 393.104V394.272H277.666C276.855 394.272 276.205 394.491 275.714 394.928C275.223 395.365 274.978 396.096 274.978 397.12V402H273.858V393.264H274.978V394.816ZM281.111 394.208V399.632C281.111 400.165 281.212 400.533 281.415 400.736C281.618 400.939 281.975 401.04 282.487 401.04H283.511V402H282.311C281.522 402 280.935 401.819 280.551 401.456C280.167 401.083 279.975 400.475 279.975 399.632V394.208H278.759V393.264H279.975V391.072H281.111V393.264H283.511V394.208H281.111ZM288.366 402.128C287.363 402.128 286.542 401.899 285.902 401.44C285.273 400.971 284.921 400.336 284.846 399.536H285.998C286.051 400.027 286.281 400.427 286.686 400.736C287.102 401.035 287.657 401.184 288.35 401.184C288.958 401.184 289.433 401.04 289.774 400.752C290.126 400.464 290.302 400.107 290.302 399.68C290.302 399.381 290.206 399.136 290.014 398.944C289.822 398.752 289.577 398.603 289.278 398.496C288.99 398.379 288.595 398.256 288.094 398.128C287.443 397.957 286.915 397.787 286.51 397.616C286.105 397.445 285.758 397.195 285.47 396.864C285.193 396.523 285.054 396.069 285.054 395.504C285.054 395.077 285.182 394.683 285.438 394.32C285.694 393.957 286.057 393.669 286.526 393.456C286.995 393.243 287.529 393.136 288.126 393.136C289.065 393.136 289.822 393.376 290.398 393.856C290.974 394.325 291.283 394.976 291.326 395.808H290.206C290.174 395.296 289.971 394.885 289.598 394.576C289.235 394.256 288.734 394.096 288.094 394.096C287.529 394.096 287.07 394.229 286.718 394.496C286.366 394.763 286.19 395.093 286.19 395.488C286.19 395.829 286.291 396.112 286.494 396.336C286.707 396.549 286.969 396.72 287.278 396.848C287.587 396.965 288.003 397.099 288.526 397.248C289.155 397.419 289.657 397.584 290.03 397.744C290.403 397.904 290.723 398.139 290.99 398.448C291.257 398.757 291.395 399.168 291.406 399.68C291.406 400.149 291.278 400.571 291.022 400.944C290.766 401.307 290.409 401.595 289.95 401.808C289.491 402.021 288.963 402.128 288.366 402.128ZM297.393 397.616C297.393 396.72 297.569 395.936 297.921 395.264C298.284 394.581 298.78 394.059 299.409 393.696C300.049 393.323 300.769 393.136 301.569 393.136C302.401 393.136 303.116 393.328 303.713 393.712C304.321 394.096 304.758 394.587 305.025 395.184V393.264H306.145V402H305.025V400.064C304.748 400.661 304.305 401.157 303.697 401.552C303.1 401.936 302.385 402.128 301.553 402.128C300.764 402.128 300.049 401.941 299.409 401.568C298.78 401.195 298.284 400.667 297.921 399.984C297.569 399.301 297.393 398.512 297.393 397.616ZM305.025 397.632C305.025 396.928 304.881 396.309 304.593 395.776C304.305 395.243 303.91 394.832 303.409 394.544C302.918 394.256 302.374 394.112 301.777 394.112C301.158 394.112 300.604 394.251 300.113 394.528C299.622 394.805 299.233 395.211 298.945 395.744C298.668 396.267 298.529 396.891 298.529 397.616C298.529 398.331 298.668 398.96 298.945 399.504C299.233 400.037 299.622 400.448 300.113 400.736C300.604 401.013 301.158 401.152 301.777 401.152C302.374 401.152 302.918 401.008 303.409 400.72C303.91 400.432 304.305 400.021 304.593 399.488C304.881 398.955 305.025 398.336 305.025 397.632ZM309.822 394.816C310.067 394.272 310.441 393.851 310.942 393.552C311.454 393.253 312.078 393.104 312.814 393.104V394.272H312.51C311.699 394.272 311.049 394.491 310.558 394.928C310.067 395.365 309.822 396.096 309.822 397.12V402H308.702V393.264H309.822V394.816ZM322.403 397.184C322.403 397.568 322.392 397.861 322.371 398.064H315.123C315.155 398.725 315.315 399.291 315.603 399.76C315.891 400.229 316.269 400.587 316.739 400.832C317.208 401.067 317.72 401.184 318.275 401.184C319 401.184 319.608 401.008 320.099 400.656C320.6 400.304 320.931 399.829 321.091 399.232H322.275C322.061 400.085 321.603 400.784 320.899 401.328C320.205 401.861 319.331 402.128 318.275 402.128C317.453 402.128 316.717 401.947 316.067 401.584C315.416 401.211 314.904 400.688 314.531 400.016C314.168 399.333 313.987 398.539 313.987 397.632C313.987 396.725 314.168 395.931 314.531 395.248C314.893 394.565 315.4 394.043 316.051 393.68C316.701 393.317 317.443 393.136 318.275 393.136C319.107 393.136 319.832 393.317 320.451 393.68C321.08 394.043 321.56 394.533 321.891 395.152C322.232 395.76 322.403 396.437 322.403 397.184ZM321.267 397.152C321.277 396.501 321.144 395.947 320.867 395.488C320.6 395.029 320.232 394.683 319.763 394.448C319.293 394.213 318.781 394.096 318.227 394.096C317.395 394.096 316.685 394.363 316.099 394.896C315.512 395.429 315.187 396.181 315.123 397.152H321.267ZM330.299 394.208V399.632C330.299 400.165 330.4 400.533 330.603 400.736C330.805 400.939 331.163 401.04 331.674 401.04H332.699V402H331.499C330.709 402 330.123 401.819 329.739 401.456C329.355 401.083 329.163 400.475 329.163 399.632V394.208H327.947V393.264H329.163V391.072H330.299V393.264H332.699V394.208H330.299ZM338.706 393.104C339.367 393.104 339.959 393.243 340.482 393.52C341.015 393.797 341.431 394.224 341.73 394.8C342.039 395.365 342.194 396.059 342.194 396.88V402H341.09V397.008C341.09 396.059 340.85 395.333 340.37 394.832C339.9 394.331 339.255 394.08 338.434 394.08C337.591 394.08 336.919 394.347 336.418 394.88C335.916 395.413 335.666 396.197 335.666 397.232V402H334.546V390.16H335.666V394.752C335.943 394.229 336.348 393.824 336.882 393.536C337.426 393.248 338.034 393.104 338.706 393.104ZM352.575 397.184C352.575 397.568 352.564 397.861 352.543 398.064H345.295C345.327 398.725 345.487 399.291 345.775 399.76C346.063 400.229 346.441 400.587 346.911 400.832C347.38 401.067 347.892 401.184 348.447 401.184C349.172 401.184 349.78 401.008 350.271 400.656C350.772 400.304 351.103 399.829 351.263 399.232H352.447C352.233 400.085 351.775 400.784 351.071 401.328C350.377 401.861 349.503 402.128 348.447 402.128C347.625 402.128 346.889 401.947 346.239 401.584C345.588 401.211 345.076 400.688 344.703 400.016C344.34 399.333 344.159 398.539 344.159 397.632C344.159 396.725 344.34 395.931 344.703 395.248C345.065 394.565 345.572 394.043 346.223 393.68C346.873 393.317 347.615 393.136 348.447 393.136C349.279 393.136 350.004 393.317 350.623 393.68C351.252 394.043 351.732 394.533 352.063 395.152C352.404 395.76 352.575 396.437 352.575 397.184ZM351.439 397.152C351.449 396.501 351.316 395.947 351.039 395.488C350.772 395.029 350.404 394.683 349.935 394.448C349.465 394.213 348.953 394.096 348.399 394.096C347.567 394.096 346.857 394.363 346.271 394.896C345.684 395.429 345.359 396.181 345.295 397.152H351.439ZM355.744 394.816C355.989 394.272 356.362 393.851 356.864 393.552C357.376 393.253 358 393.104 358.736 393.104V394.272H358.432C357.621 394.272 356.97 394.491 356.48 394.928C355.989 395.365 355.744 396.096 355.744 397.12V402H354.624V393.264H355.744V394.816ZM368.325 397.184C368.325 397.568 368.314 397.861 368.293 398.064H361.045C361.077 398.725 361.237 399.291 361.525 399.76C361.813 400.229 362.191 400.587 362.661 400.832C363.13 401.067 363.642 401.184 364.197 401.184C364.922 401.184 365.53 401.008 366.021 400.656C366.522 400.304 366.853 399.829 367.013 399.232H368.197C367.983 400.085 367.525 400.784 366.821 401.328C366.127 401.861 365.253 402.128 364.197 402.128C363.375 402.128 362.639 401.947 361.989 401.584C361.338 401.211 360.826 400.688 360.453 400.016C360.09 399.333 359.909 398.539 359.909 397.632C359.909 396.725 360.09 395.931 360.453 395.248C360.815 394.565 361.322 394.043 361.973 393.68C362.623 393.317 363.365 393.136 364.197 393.136C365.029 393.136 365.754 393.317 366.373 393.68C367.002 394.043 367.482 394.533 367.813 395.152C368.154 395.76 368.325 396.437 368.325 397.184ZM367.189 397.152C367.199 396.501 367.066 395.947 366.789 395.488C366.522 395.029 366.154 394.683 365.685 394.448C365.215 394.213 364.703 394.096 364.149 394.096C363.317 394.096 362.607 394.363 362.021 394.896C361.434 395.429 361.109 396.181 361.045 397.152H367.189ZM378.204 394.208H376.172V402H375.052V394.208H373.836V393.264H375.052V392.656C375.052 391.707 375.292 391.008 375.772 390.56C376.263 390.112 377.052 389.888 378.14 389.888V390.848C377.415 390.848 376.903 390.987 376.604 391.264C376.316 391.541 376.172 392.005 376.172 392.656V393.264H378.204V394.208ZM383.792 402.128C382.97 402.128 382.229 401.947 381.568 401.584C380.917 401.211 380.4 400.688 380.016 400.016C379.642 399.333 379.456 398.539 379.456 397.632C379.456 396.725 379.648 395.936 380.032 395.264C380.416 394.581 380.938 394.059 381.6 393.696C382.261 393.323 383.002 393.136 383.824 393.136C384.645 393.136 385.386 393.323 386.048 393.696C386.72 394.059 387.242 394.581 387.616 395.264C388 395.936 388.192 396.725 388.192 397.632C388.192 398.528 388 399.317 387.616 400C387.232 400.683 386.704 401.211 386.032 401.584C385.36 401.947 384.613 402.128 383.792 402.128ZM383.792 401.152C384.368 401.152 384.901 401.024 385.392 400.768C385.882 400.501 386.277 400.107 386.576 399.584C386.885 399.051 387.04 398.4 387.04 397.632C387.04 396.864 386.89 396.219 386.592 395.696C386.293 395.163 385.898 394.768 385.408 394.512C384.917 394.245 384.384 394.112 383.808 394.112C383.232 394.112 382.698 394.245 382.208 394.512C381.717 394.768 381.322 395.163 381.024 395.696C380.736 396.219 380.592 396.864 380.592 397.632C380.592 398.4 380.736 399.051 381.024 399.584C381.322 400.107 381.712 400.501 382.192 400.768C382.682 401.024 383.216 401.152 383.792 401.152ZM391.353 394.816C391.598 394.272 391.972 393.851 392.473 393.552C392.985 393.253 393.609 393.104 394.345 393.104V394.272H394.041C393.23 394.272 392.58 394.491 392.089 394.928C391.598 395.365 391.353 396.096 391.353 397.12V402H390.233V393.264H391.353V394.816ZM407.621 393.264L402.437 406.112H401.269L402.965 401.952L399.381 393.264H400.613L403.589 400.72L406.469 393.264H407.621ZM412.963 402.128C412.142 402.128 411.401 401.947 410.739 401.584C410.089 401.211 409.571 400.688 409.187 400.016C408.814 399.333 408.627 398.539 408.627 397.632C408.627 396.725 408.819 395.936 409.203 395.264C409.587 394.581 410.11 394.059 410.771 393.696C411.433 393.323 412.174 393.136 412.995 393.136C413.817 393.136 414.558 393.323 415.219 393.696C415.891 394.059 416.414 394.581 416.787 395.264C417.171 395.936 417.363 396.725 417.363 397.632C417.363 398.528 417.171 399.317 416.787 400C416.403 400.683 415.875 401.211 415.203 401.584C414.531 401.947 413.785 402.128 412.963 402.128ZM412.963 401.152C413.539 401.152 414.073 401.024 414.563 400.768C415.054 400.501 415.449 400.107 415.747 399.584C416.057 399.051 416.211 398.4 416.211 397.632C416.211 396.864 416.062 396.219 415.763 395.696C415.465 395.163 415.07 394.768 414.579 394.512C414.089 394.245 413.555 394.112 412.979 394.112C412.403 394.112 411.87 394.245 411.379 394.512C410.889 394.768 410.494 395.163 410.195 395.696C409.907 396.219 409.763 396.864 409.763 397.632C409.763 398.4 409.907 399.051 410.195 399.584C410.494 400.107 410.883 400.501 411.363 400.768C411.854 401.024 412.387 401.152 412.963 401.152ZM426.973 393.264V402H425.853V400.464C425.597 401.008 425.202 401.424 424.669 401.712C424.136 402 423.538 402.144 422.877 402.144C421.832 402.144 420.978 401.824 420.317 401.184C419.656 400.533 419.325 399.595 419.325 398.368V393.264H420.429V398.24C420.429 399.189 420.664 399.915 421.133 400.416C421.613 400.917 422.264 401.168 423.085 401.168C423.928 401.168 424.6 400.901 425.101 400.368C425.602 399.835 425.853 399.051 425.853 398.016V393.264H426.973ZM433.457 401.12C435.419 399.648 436.934 398.331 438.001 397.168C439.078 395.995 439.617 394.848 439.617 393.728C439.617 392.992 439.43 392.405 439.057 391.968C438.694 391.52 438.097 391.296 437.265 391.296C436.454 391.296 435.825 391.552 435.377 392.064C434.939 392.565 434.694 393.237 434.641 394.08H433.553C433.617 392.896 433.979 391.979 434.641 391.328C435.313 390.667 436.187 390.336 437.265 390.336C438.299 390.336 439.137 390.629 439.777 391.216C440.417 391.792 440.737 392.613 440.737 393.68C440.737 394.971 440.198 396.224 439.121 397.44C438.054 398.645 436.737 399.824 435.169 400.976H441.089V401.92H433.457V401.12ZM442.341 399.28V398.432L448.165 390.592H449.493V398.304H451.205V399.28H449.493V402H448.389V399.28H442.341ZM448.437 391.824L443.637 398.304H448.437V391.824ZM457.865 386.96L453.449 404.656H452.345L456.729 386.96H457.865ZM466.576 391.408L462.112 402H460.976L465.488 391.504H459.088V390.544H466.576V391.408ZM469.507 400.144L467.843 404.336H467.075L468.259 400.144H469.507ZM476.199 391.616C475.975 391.616 475.783 391.536 475.623 391.376C475.463 391.216 475.383 391.019 475.383 390.784C475.383 390.549 475.463 390.357 475.623 390.208C475.783 390.048 475.975 389.968 476.199 389.968C476.423 389.968 476.615 390.048 476.775 390.208C476.935 390.357 477.015 390.549 477.015 390.784C477.015 391.019 476.935 391.216 476.775 391.376C476.615 391.536 476.423 391.616 476.199 391.616ZM476.759 393.264V402H475.639V393.264H476.759ZM482.736 394.208H480.704V402H479.584V394.208H478.368V393.264H479.584V392.656C479.584 391.707 479.824 391.008 480.304 390.56C480.794 390.112 481.584 389.888 482.672 389.888V390.848C481.946 390.848 481.434 390.987 481.136 391.264C480.848 391.541 480.704 392.005 480.704 392.656V393.264H482.736V394.208ZM496.089 393.264L490.905 406.112H489.737L491.433 401.952L487.849 393.264H489.081L492.057 400.72L494.937 393.264H496.089ZM501.432 402.128C500.611 402.128 499.869 401.947 499.208 401.584C498.557 401.211 498.04 400.688 497.656 400.016C497.283 399.333 497.096 398.539 497.096 397.632C497.096 396.725 497.288 395.936 497.672 395.264C498.056 394.581 498.579 394.059 499.24 393.696C499.901 393.323 500.643 393.136 501.464 393.136C502.285 393.136 503.027 393.323 503.688 393.696C504.36 394.059 504.883 394.581 505.256 395.264C505.64 395.936 505.832 396.725 505.832 397.632C505.832 398.528 505.64 399.317 505.256 400C504.872 400.683 504.344 401.211 503.672 401.584C503 401.947 502.253 402.128 501.432 402.128ZM501.432 401.152C502.008 401.152 502.541 401.024 503.032 400.768C503.523 400.501 503.917 400.107 504.216 399.584C504.525 399.051 504.68 398.4 504.68 397.632C504.68 396.864 504.531 396.219 504.232 395.696C503.933 395.163 503.539 394.768 503.048 394.512C502.557 394.245 502.024 394.112 501.448 394.112C500.872 394.112 500.339 394.245 499.848 394.512C499.357 394.768 498.963 395.163 498.664 395.696C498.376 396.219 498.232 396.864 498.232 397.632C498.232 398.4 498.376 399.051 498.664 399.584C498.963 400.107 499.352 400.501 499.832 400.768C500.323 401.024 500.856 401.152 501.432 401.152ZM515.442 393.264V402H514.322V400.464C514.066 401.008 513.671 401.424 513.138 401.712C512.604 402 512.007 402.144 511.346 402.144C510.3 402.144 509.447 401.824 508.786 401.184C508.124 400.533 507.794 399.595 507.794 398.368V393.264H508.898V398.24C508.898 399.189 509.132 399.915 509.602 400.416C510.082 400.917 510.732 401.168 511.554 401.168C512.396 401.168 513.068 400.901 513.57 400.368C514.071 399.835 514.322 399.051 514.322 398.016V393.264H515.442ZM526.485 393.104C527.531 393.104 528.384 393.429 529.045 394.08C529.707 394.72 530.037 395.653 530.037 396.88V402H528.933V397.008C528.933 396.059 528.693 395.333 528.213 394.832C527.744 394.331 527.099 394.08 526.277 394.08C525.435 394.08 524.763 394.347 524.261 394.88C523.76 395.413 523.509 396.197 523.509 397.232V402H522.389V393.264H523.509V394.752C523.787 394.219 524.187 393.813 524.709 393.536C525.232 393.248 525.824 393.104 526.485 393.104ZM540.418 397.184C540.418 397.568 540.408 397.861 540.386 398.064H533.138C533.17 398.725 533.33 399.291 533.618 399.76C533.906 400.229 534.285 400.587 534.754 400.832C535.224 401.067 535.736 401.184 536.29 401.184C537.016 401.184 537.624 401.008 538.114 400.656C538.616 400.304 538.946 399.829 539.106 399.232H540.29C540.077 400.085 539.618 400.784 538.914 401.328C538.221 401.861 537.346 402.128 536.29 402.128C535.469 402.128 534.733 401.947 534.082 401.584C533.432 401.211 532.92 400.688 532.546 400.016C532.184 399.333 532.002 398.539 532.002 397.632C532.002 396.725 532.184 395.931 532.546 395.248C532.909 394.565 533.416 394.043 534.066 393.68C534.717 393.317 535.458 393.136 536.29 393.136C537.122 393.136 537.848 393.317 538.466 393.68C539.096 394.043 539.576 394.533 539.906 395.152C540.248 395.76 540.418 396.437 540.418 397.184ZM539.282 397.152C539.293 396.501 539.16 395.947 538.882 395.488C538.616 395.029 538.248 394.683 537.778 394.448C537.309 394.213 536.797 394.096 536.242 394.096C535.41 394.096 534.701 394.363 534.114 394.896C533.528 395.429 533.202 396.181 533.138 397.152H539.282ZM550.372 397.184C550.372 397.568 550.361 397.861 550.34 398.064H543.092C543.124 398.725 543.284 399.291 543.572 399.76C543.86 400.229 544.238 400.587 544.708 400.832C545.177 401.067 545.689 401.184 546.244 401.184C546.969 401.184 547.577 401.008 548.068 400.656C548.569 400.304 548.9 399.829 549.06 399.232H550.244C550.03 400.085 549.572 400.784 548.868 401.328C548.174 401.861 547.3 402.128 546.244 402.128C545.422 402.128 544.686 401.947 544.036 401.584C543.385 401.211 542.873 400.688 542.5 400.016C542.137 399.333 541.956 398.539 541.956 397.632C541.956 396.725 542.137 395.931 542.5 395.248C542.862 394.565 543.369 394.043 544.02 393.68C544.67 393.317 545.412 393.136 546.244 393.136C547.076 393.136 547.801 393.317 548.42 393.68C549.049 394.043 549.529 394.533 549.86 395.152C550.201 395.76 550.372 396.437 550.372 397.184ZM549.236 397.152C549.246 396.501 549.113 395.947 548.836 395.488C548.569 395.029 548.201 394.683 547.732 394.448C547.262 394.213 546.75 394.096 546.196 394.096C545.364 394.096 544.654 394.363 544.068 394.896C543.481 395.429 543.156 396.181 543.092 397.152H549.236ZM551.909 397.616C551.909 396.72 552.09 395.936 552.453 395.264C552.815 394.581 553.311 394.059 553.941 393.696C554.581 393.323 555.301 393.136 556.101 393.136C556.869 393.136 557.562 393.323 558.181 393.696C558.799 394.069 559.253 394.555 559.541 395.152V390.16H560.661V402H559.541V400.048C559.274 400.656 558.837 401.157 558.229 401.552C557.621 401.936 556.906 402.128 556.085 402.128C555.285 402.128 554.565 401.941 553.925 401.568C553.295 401.195 552.799 400.667 552.437 399.984C552.085 399.301 551.909 398.512 551.909 397.616ZM559.541 397.632C559.541 396.928 559.397 396.309 559.109 395.776C558.821 395.243 558.426 394.832 557.925 394.544C557.434 394.256 556.89 394.112 556.293 394.112C555.674 394.112 555.119 394.251 554.629 394.528C554.138 394.805 553.749 395.211 553.461 395.744C553.183 396.267 553.045 396.891 553.045 397.616C553.045 398.331 553.183 398.96 553.461 399.504C553.749 400.037 554.138 400.448 554.629 400.736C555.119 401.013 555.674 401.152 556.293 401.152C556.89 401.152 557.434 401.008 557.925 400.72C558.426 400.432 558.821 400.021 559.109 399.488C559.397 398.955 559.541 398.336 559.541 397.632ZM567.096 397.616C567.096 396.72 567.272 395.936 567.624 395.264C567.987 394.581 568.483 394.059 569.112 393.696C569.752 393.323 570.472 393.136 571.272 393.136C572.104 393.136 572.819 393.328 573.416 393.712C574.024 394.096 574.461 394.587 574.728 395.184V393.264H575.848V402H574.728V400.064C574.451 400.661 574.008 401.157 573.4 401.552C572.803 401.936 572.088 402.128 571.256 402.128C570.467 402.128 569.752 401.941 569.112 401.568C568.483 401.195 567.987 400.667 567.624 399.984C567.272 399.301 567.096 398.512 567.096 397.616ZM574.728 397.632C574.728 396.928 574.584 396.309 574.296 395.776C574.008 395.243 573.613 394.832 573.112 394.544C572.621 394.256 572.077 394.112 571.48 394.112C570.861 394.112 570.307 394.251 569.816 394.528C569.325 394.805 568.936 395.211 568.648 395.744C568.371 396.267 568.232 396.891 568.232 397.616C568.232 398.331 568.371 398.96 568.648 399.504C568.936 400.037 569.325 400.448 569.816 400.736C570.307 401.013 570.861 401.152 571.48 401.152C572.077 401.152 572.621 401.008 573.112 400.72C573.613 400.432 574.008 400.021 574.296 399.488C574.584 398.955 574.728 398.336 574.728 397.632ZM586.956 393.104C587.617 393.104 588.209 393.243 588.732 393.52C589.265 393.797 589.681 394.224 589.98 394.8C590.289 395.365 590.444 396.059 590.444 396.88V402H589.34V397.008C589.34 396.059 589.1 395.333 588.62 394.832C588.15 394.331 587.505 394.08 586.684 394.08C585.841 394.08 585.169 394.347 584.668 394.88C584.166 395.413 583.916 396.197 583.916 397.232V402H582.796V390.16H583.916V394.752C584.193 394.229 584.598 393.824 585.132 393.536C585.676 393.248 586.284 393.104 586.956 393.104ZM600.825 397.184C600.825 397.568 600.814 397.861 600.793 398.064H593.545C593.577 398.725 593.737 399.291 594.025 399.76C594.313 400.229 594.691 400.587 595.161 400.832C595.63 401.067 596.142 401.184 596.697 401.184C597.422 401.184 598.03 401.008 598.521 400.656C599.022 400.304 599.353 399.829 599.513 399.232H600.697C600.483 400.085 600.025 400.784 599.321 401.328C598.627 401.861 597.753 402.128 596.697 402.128C595.875 402.128 595.139 401.947 594.489 401.584C593.838 401.211 593.326 400.688 592.953 400.016C592.59 399.333 592.409 398.539 592.409 397.632C592.409 396.725 592.59 395.931 592.953 395.248C593.315 394.565 593.822 394.043 594.473 393.68C595.123 393.317 595.865 393.136 596.697 393.136C597.529 393.136 598.254 393.317 598.873 393.68C599.502 394.043 599.982 394.533 600.313 395.152C600.654 395.76 600.825 396.437 600.825 397.184ZM599.689 397.152C599.699 396.501 599.566 395.947 599.289 395.488C599.022 395.029 598.654 394.683 598.185 394.448C597.715 394.213 597.203 394.096 596.649 394.096C595.817 394.096 595.107 394.363 594.521 394.896C593.934 395.429 593.609 396.181 593.545 397.152H599.689ZM603.994 390.16V402H602.874V390.16H603.994ZM607.634 395.184C607.911 394.597 608.349 394.112 608.946 393.728C609.554 393.333 610.274 393.136 611.106 393.136C611.895 393.136 612.605 393.323 613.234 393.696C613.874 394.059 614.37 394.581 614.722 395.264C615.085 395.936 615.266 396.72 615.266 397.616C615.266 398.512 615.085 399.301 614.722 399.984C614.37 400.667 613.874 401.195 613.234 401.568C612.605 401.941 611.895 402.128 611.106 402.128C610.285 402.128 609.57 401.936 608.962 401.552C608.354 401.157 607.911 400.667 607.634 400.08V406.128H606.53V393.264H607.634V395.184ZM614.13 397.616C614.13 396.891 613.986 396.267 613.698 395.744C613.421 395.211 613.037 394.805 612.546 394.528C612.055 394.251 611.501 394.112 610.882 394.112C610.285 394.112 609.735 394.256 609.234 394.544C608.743 394.832 608.354 395.243 608.066 395.776C607.778 396.309 607.634 396.928 607.634 397.632C607.634 398.336 607.778 398.955 608.066 399.488C608.354 400.021 608.743 400.432 609.234 400.72C609.735 401.008 610.285 401.152 610.882 401.152C611.501 401.152 612.055 401.013 612.546 400.736C613.037 400.448 613.421 400.037 613.698 399.504C613.986 398.96 614.13 398.331 614.13 397.616ZM617.887 391.616C617.663 391.616 617.471 391.536 617.311 391.376C617.151 391.216 617.071 391.019 617.071 390.784C617.071 390.549 617.151 390.357 617.311 390.208C617.471 390.048 617.663 389.968 617.887 389.968C618.111 389.968 618.303 390.048 618.463 390.208C618.623 390.357 618.703 390.549 618.703 390.784C618.703 391.019 618.623 391.216 618.463 391.376C618.303 391.536 618.111 391.616 617.887 391.616ZM618.447 393.264V402H617.327V393.264H618.447ZM625.079 393.104C626.124 393.104 626.978 393.429 627.639 394.08C628.3 394.72 628.631 395.653 628.631 396.88V402H627.527V397.008C627.527 396.059 627.287 395.333 626.807 394.832C626.338 394.331 625.692 394.08 624.871 394.08C624.028 394.08 623.356 394.347 622.855 394.88C622.354 395.413 622.103 396.197 622.103 397.232V402H620.983V393.264H622.103V394.752C622.38 394.219 622.78 393.813 623.303 393.536C623.826 393.248 624.418 393.104 625.079 393.104ZM634.772 393.136C635.593 393.136 636.308 393.328 636.916 393.712C637.524 394.096 637.961 394.581 638.228 395.168V393.264H639.348V402.224C639.348 403.024 639.172 403.733 638.82 404.352C638.479 404.971 637.999 405.445 637.38 405.776C636.761 406.117 636.057 406.288 635.268 406.288C634.148 406.288 633.215 406.021 632.468 405.488C631.732 404.955 631.273 404.229 631.092 403.312H632.196C632.388 403.92 632.751 404.405 633.284 404.768C633.828 405.131 634.489 405.312 635.268 405.312C635.833 405.312 636.34 405.189 636.788 404.944C637.236 404.709 637.588 404.357 637.844 403.888C638.1 403.419 638.228 402.864 638.228 402.224V400.064C637.951 400.661 637.508 401.157 636.9 401.552C636.303 401.936 635.593 402.128 634.772 402.128C633.972 402.128 633.252 401.941 632.612 401.568C631.983 401.195 631.487 400.667 631.124 399.984C630.772 399.301 630.596 398.512 630.596 397.616C630.596 396.72 630.772 395.936 631.124 395.264C631.487 394.581 631.983 394.059 632.612 393.696C633.252 393.323 633.972 393.136 634.772 393.136ZM638.228 397.632C638.228 396.928 638.084 396.309 637.796 395.776C637.508 395.243 637.113 394.832 636.612 394.544C636.121 394.256 635.577 394.112 634.98 394.112C634.361 394.112 633.807 394.251 633.316 394.528C632.825 394.805 632.436 395.211 632.148 395.744C631.871 396.267 631.732 396.891 631.732 397.616C631.732 398.331 631.871 398.96 632.148 399.504C632.436 400.037 632.825 400.448 633.316 400.736C633.807 401.013 634.361 401.152 634.98 401.152C635.577 401.152 636.121 401.008 636.612 400.72C637.113 400.432 637.508 400.021 637.796 399.488C638.084 398.955 638.228 398.336 638.228 397.632ZM60.44 425.104C61.1013 425.104 61.6933 425.243 62.216 425.52C62.7493 425.797 63.1653 426.224 63.464 426.8C63.7733 427.365 63.928 428.059 63.928 428.88V434H62.824V429.008C62.824 428.059 62.584 427.333 62.104 426.832C61.6347 426.331 60.9893 426.08 60.168 426.08C59.3253 426.08 58.6533 426.347 58.152 426.88C57.6507 427.413 57.4 428.197 57.4 429.232V434H56.28V422.16H57.4V426.752C57.6773 426.229 58.0827 425.824 58.616 425.536C59.16 425.248 59.768 425.104 60.44 425.104ZM65.893 429.616C65.893 428.72 66.069 427.936 66.421 427.264C66.7837 426.581 67.2797 426.059 67.909 425.696C68.549 425.323 69.269 425.136 70.069 425.136C70.901 425.136 71.6157 425.328 72.213 425.712C72.821 426.096 73.2583 426.587 73.525 427.184V425.264H74.645V434H73.525V432.064C73.2477 432.661 72.805 433.157 72.197 433.552C71.5997 433.936 70.885 434.128 70.053 434.128C69.2637 434.128 68.549 433.941 67.909 433.568C67.2797 433.195 66.7837 432.667 66.421 431.984C66.069 431.301 65.893 430.512 65.893 429.616ZM73.525 429.632C73.525 428.928 73.381 428.309 73.093 427.776C72.805 427.243 72.4103 426.832 71.909 426.544C71.4183 426.256 70.8743 426.112 70.277 426.112C69.6583 426.112 69.1037 426.251 68.613 426.528C68.1223 426.805 67.733 427.211 67.445 427.744C67.1677 428.267 67.029 428.891 67.029 429.616C67.029 430.331 67.1677 430.96 67.445 431.504C67.733 432.037 68.1223 432.448 68.613 432.736C69.1037 433.013 69.6583 433.152 70.277 433.152C70.8743 433.152 71.4183 433.008 71.909 432.72C72.4103 432.432 72.805 432.021 73.093 431.488C73.381 430.955 73.525 430.336 73.525 429.632ZM81.2979 425.104C82.3432 425.104 83.1965 425.429 83.8579 426.08C84.5192 426.72 84.8499 427.653 84.8499 428.88V434H83.7459V429.008C83.7459 428.059 83.5059 427.333 83.0259 426.832C82.5565 426.331 81.9112 426.08 81.0899 426.08C80.2472 426.08 79.5752 426.347 79.0739 426.88C78.5725 427.413 78.3219 428.197 78.3219 429.232V434H77.2019V425.264H78.3219V426.752C78.5992 426.219 78.9992 425.813 79.5219 425.536C80.0445 425.248 80.6365 425.104 81.2979 425.104ZM86.8149 429.616C86.8149 428.72 86.9962 427.936 87.3589 427.264C87.7215 426.581 88.2175 426.059 88.8469 425.696C89.4869 425.323 90.2069 425.136 91.0069 425.136C91.7749 425.136 92.4682 425.323 93.0869 425.696C93.7055 426.069 94.1589 426.555 94.4469 427.152V422.16H95.5669V434H94.4469V432.048C94.1802 432.656 93.7429 433.157 93.1349 433.552C92.5269 433.936 91.8122 434.128 90.9909 434.128C90.1909 434.128 89.4709 433.941 88.8309 433.568C88.2015 433.195 87.7055 432.667 87.3429 431.984C86.9909 431.301 86.8149 430.512 86.8149 429.616ZM94.4469 429.632C94.4469 428.928 94.3029 428.309 94.0149 427.776C93.7269 427.243 93.3322 426.832 92.8309 426.544C92.3402 426.256 91.7962 426.112 91.1989 426.112C90.5802 426.112 90.0255 426.251 89.5349 426.528C89.0442 426.805 88.6549 427.211 88.3669 427.744C88.0895 428.267 87.9509 428.891 87.9509 429.616C87.9509 430.331 88.0895 430.96 88.3669 431.504C88.6549 432.037 89.0442 432.448 89.5349 432.736C90.0255 433.013 90.5802 433.152 91.1989 433.152C91.7962 433.152 92.3402 433.008 92.8309 432.72C93.3322 432.432 93.7269 432.021 94.0149 431.488C94.3029 430.955 94.4469 430.336 94.4469 429.632ZM98.3158 434.08C98.0811 434.08 97.8838 434 97.7238 433.84C97.5744 433.68 97.4998 433.483 97.4998 433.248C97.4998 433.013 97.5744 432.821 97.7238 432.672C97.8838 432.512 98.0811 432.432 98.3158 432.432C98.5398 432.432 98.7264 432.512 98.8758 432.672C99.0358 432.821 99.1158 433.013 99.1158 433.248C99.1158 433.483 99.0358 433.68 98.8758 433.84C98.7264 434 98.5398 434.08 98.3158 434.08ZM114.221 426.08C113.901 425.344 113.41 424.768 112.749 424.352C112.098 423.925 111.33 423.712 110.445 423.712C109.613 423.712 108.866 423.904 108.205 424.288C107.543 424.672 107.021 425.221 106.637 425.936C106.253 426.64 106.061 427.461 106.061 428.4C106.061 429.339 106.253 430.165 106.637 430.88C107.021 431.595 107.543 432.144 108.205 432.528C108.866 432.912 109.613 433.104 110.445 433.104C111.223 433.104 111.922 432.939 112.541 432.608C113.17 432.267 113.671 431.787 114.045 431.168C114.429 430.539 114.647 429.808 114.701 428.976H109.997V428.064H115.885V428.88C115.831 429.861 115.565 430.752 115.085 431.552C114.605 432.341 113.959 432.965 113.149 433.424C112.349 433.883 111.447 434.112 110.445 434.112C109.41 434.112 108.471 433.872 107.629 433.392C106.786 432.901 106.119 432.224 105.629 431.36C105.149 430.485 104.909 429.499 104.909 428.4C104.909 427.301 105.149 426.32 105.629 425.456C106.119 424.581 106.786 423.904 107.629 423.424C108.471 422.933 109.41 422.688 110.445 422.688C111.639 422.688 112.685 422.987 113.581 423.584C114.477 424.181 115.127 425.013 115.533 426.08H114.221ZM125.84 429.184C125.84 429.568 125.83 429.861 125.808 430.064H118.56C118.592 430.725 118.752 431.291 119.04 431.76C119.328 432.229 119.707 432.587 120.176 432.832C120.646 433.067 121.158 433.184 121.712 433.184C122.438 433.184 123.046 433.008 123.536 432.656C124.038 432.304 124.368 431.829 124.528 431.232H125.712C125.499 432.085 125.04 432.784 124.336 433.328C123.643 433.861 122.768 434.128 121.712 434.128C120.891 434.128 120.155 433.947 119.504 433.584C118.854 433.211 118.342 432.688 117.968 432.016C117.606 431.333 117.424 430.539 117.424 429.632C117.424 428.725 117.606 427.931 117.968 427.248C118.331 426.565 118.838 426.043 119.488 425.68C120.139 425.317 120.88 425.136 121.712 425.136C122.544 425.136 123.27 425.317 123.888 425.68C124.518 426.043 124.998 426.533 125.328 427.152C125.67 427.76 125.84 428.437 125.84 429.184ZM124.704 429.152C124.715 428.501 124.582 427.947 124.304 427.488C124.038 427.029 123.67 426.683 123.2 426.448C122.731 426.213 122.219 426.096 121.664 426.096C120.832 426.096 120.123 426.363 119.536 426.896C118.95 427.429 118.624 428.181 118.56 429.152H124.704ZM129.345 426.208V431.632C129.345 432.165 129.447 432.533 129.649 432.736C129.852 432.939 130.209 433.04 130.721 433.04H131.745V434H130.545C129.756 434 129.169 433.819 128.785 433.456C128.401 433.083 128.209 432.475 128.209 431.632V426.208H126.993V425.264H128.209V423.072H129.345V425.264H131.745V426.208H129.345ZM138.543 423.616C138.319 423.616 138.127 423.536 137.967 423.376C137.807 423.216 137.727 423.019 137.727 422.784C137.727 422.549 137.807 422.357 137.967 422.208C138.127 422.048 138.319 421.968 138.543 421.968C138.767 421.968 138.959 422.048 139.119 422.208C139.279 422.357 139.359 422.549 139.359 422.784C139.359 423.019 139.279 423.216 139.119 423.376C138.959 423.536 138.767 423.616 138.543 423.616ZM139.103 425.264V434H137.983V425.264H139.103ZM145.735 425.104C146.781 425.104 147.634 425.429 148.295 426.08C148.957 426.72 149.287 427.653 149.287 428.88V434H148.183V429.008C148.183 428.059 147.943 427.333 147.463 426.832C146.994 426.331 146.349 426.08 145.527 426.08C144.685 426.08 144.013 426.347 143.511 426.88C143.01 427.413 142.759 428.197 142.759 429.232V434H141.639V425.264H142.759V426.752C143.037 426.219 143.437 425.813 143.959 425.536C144.482 425.248 145.074 425.104 145.735 425.104ZM157.611 426.208V431.632C157.611 432.165 157.712 432.533 157.915 432.736C158.118 432.939 158.475 433.04 158.987 433.04H160.011V434H158.811C158.022 434 157.435 433.819 157.051 433.456C156.667 433.083 156.475 432.475 156.475 431.632V426.208H155.259V425.264H156.475V423.072H157.611V425.264H160.011V426.208H157.611ZM165.682 434.128C164.861 434.128 164.119 433.947 163.458 433.584C162.807 433.211 162.29 432.688 161.906 432.016C161.533 431.333 161.346 430.539 161.346 429.632C161.346 428.725 161.538 427.936 161.922 427.264C162.306 426.581 162.829 426.059 163.49 425.696C164.151 425.323 164.893 425.136 165.714 425.136C166.535 425.136 167.277 425.323 167.938 425.696C168.61 426.059 169.133 426.581 169.506 427.264C169.89 427.936 170.082 428.725 170.082 429.632C170.082 430.528 169.89 431.317 169.506 432C169.122 432.683 168.594 433.211 167.922 433.584C167.25 433.947 166.503 434.128 165.682 434.128ZM165.682 433.152C166.258 433.152 166.791 433.024 167.282 432.768C167.773 432.501 168.167 432.107 168.466 431.584C168.775 431.051 168.93 430.4 168.93 429.632C168.93 428.864 168.781 428.219 168.482 427.696C168.183 427.163 167.789 426.768 167.298 426.512C166.807 426.245 166.274 426.112 165.698 426.112C165.122 426.112 164.589 426.245 164.098 426.512C163.607 426.768 163.213 427.163 162.914 427.696C162.626 428.219 162.482 428.864 162.482 429.632C162.482 430.4 162.626 431.051 162.914 431.584C163.213 432.107 163.602 432.501 164.082 432.768C164.573 433.024 165.106 433.152 165.682 433.152ZM179.692 425.264V434H178.572V432.464C178.316 433.008 177.921 433.424 177.388 433.712C176.854 434 176.257 434.144 175.596 434.144C174.55 434.144 173.697 433.824 173.036 433.184C172.374 432.533 172.044 431.595 172.044 430.368V425.264H173.148V430.24C173.148 431.189 173.382 431.915 173.852 432.416C174.332 432.917 174.982 433.168 175.804 433.168C176.646 433.168 177.318 432.901 177.82 432.368C178.321 431.835 178.572 431.051 178.572 430.016V425.264H179.692ZM181.737 429.632C181.737 428.725 181.918 427.936 182.281 427.264C182.643 426.581 183.145 426.059 183.785 425.696C184.425 425.323 185.155 425.136 185.977 425.136C187.054 425.136 187.939 425.403 188.633 425.936C189.337 426.469 189.79 427.195 189.993 428.112H188.793C188.643 427.483 188.318 426.992 187.817 426.64C187.326 426.277 186.713 426.096 185.977 426.096C185.39 426.096 184.862 426.229 184.393 426.496C183.923 426.763 183.55 427.163 183.273 427.696C183.006 428.219 182.873 428.864 182.873 429.632C182.873 430.4 183.006 431.051 183.273 431.584C183.55 432.117 183.923 432.517 184.393 432.784C184.862 433.051 185.39 433.184 185.977 433.184C186.713 433.184 187.326 433.008 187.817 432.656C188.318 432.293 188.643 431.792 188.793 431.152H189.993C189.79 432.048 189.337 432.768 188.633 433.312C187.929 433.856 187.043 434.128 185.977 434.128C185.155 434.128 184.425 433.947 183.785 433.584C183.145 433.211 182.643 432.688 182.281 432.016C181.918 431.333 181.737 430.539 181.737 429.632ZM196.221 425.104C196.883 425.104 197.475 425.243 197.997 425.52C198.531 425.797 198.947 426.224 199.245 426.8C199.555 427.365 199.709 428.059 199.709 428.88V434H198.605V429.008C198.605 428.059 198.365 427.333 197.885 426.832C197.416 426.331 196.771 426.08 195.949 426.08C195.107 426.08 194.435 426.347 193.933 426.88C193.432 427.413 193.181 428.197 193.181 429.232V434H192.061V422.16H193.181V426.752C193.459 426.229 193.864 425.824 194.397 425.536C194.941 425.248 195.549 425.104 196.221 425.104ZM218.097 425.264L215.361 434H214.241L211.825 426.672L209.409 434H208.273L205.537 425.264H206.673L208.849 432.864L211.297 425.264H212.417L214.833 432.88L216.993 425.264H218.097ZM220.184 423.616C219.96 423.616 219.768 423.536 219.608 423.376C219.448 423.216 219.368 423.019 219.368 422.784C219.368 422.549 219.448 422.357 219.608 422.208C219.768 422.048 219.96 421.968 220.184 421.968C220.408 421.968 220.6 422.048 220.76 422.208C220.92 422.357 221 422.549 221 422.784C221 423.019 220.92 423.216 220.76 423.376C220.6 423.536 220.408 423.616 220.184 423.616ZM220.744 425.264V434H219.624V425.264H220.744ZM224.736 426.208V431.632C224.736 432.165 224.837 432.533 225.04 432.736C225.243 432.939 225.6 433.04 226.112 433.04H227.136V434H225.936C225.147 434 224.56 433.819 224.176 433.456C223.792 433.083 223.6 432.475 223.6 431.632V426.208H222.384V425.264H223.6V423.072H224.736V425.264H227.136V426.208H224.736ZM233.143 425.104C233.804 425.104 234.396 425.243 234.919 425.52C235.452 425.797 235.868 426.224 236.167 426.8C236.476 427.365 236.631 428.059 236.631 428.88V434H235.527V429.008C235.527 428.059 235.287 427.333 234.807 426.832C234.338 426.331 233.692 426.08 232.871 426.08C232.028 426.08 231.356 426.347 230.855 426.88C230.354 427.413 230.103 428.197 230.103 429.232V434H228.983V422.16H230.103V426.752C230.38 426.229 230.786 425.824 231.319 425.536C231.863 425.248 232.471 425.104 233.143 425.104ZM244.955 426.208V431.632C244.955 432.165 245.056 432.533 245.259 432.736C245.461 432.939 245.819 433.04 246.331 433.04H247.355V434H246.155C245.365 434 244.779 433.819 244.395 433.456C244.011 433.083 243.819 432.475 243.819 431.632V426.208H242.603V425.264H243.819V423.072H244.955V425.264H247.355V426.208H244.955ZM253.362 425.104C254.023 425.104 254.615 425.243 255.138 425.52C255.671 425.797 256.087 426.224 256.386 426.8C256.695 427.365 256.85 428.059 256.85 428.88V434H255.746V429.008C255.746 428.059 255.506 427.333 255.026 426.832C254.557 426.331 253.911 426.08 253.09 426.08C252.247 426.08 251.575 426.347 251.074 426.88C250.573 427.413 250.322 428.197 250.322 429.232V434H249.202V422.16H250.322V426.752C250.599 426.229 251.005 425.824 251.538 425.536C252.082 425.248 252.69 425.104 253.362 425.104ZM267.231 429.184C267.231 429.568 267.22 429.861 267.199 430.064H259.951C259.983 430.725 260.143 431.291 260.431 431.76C260.719 432.229 261.098 432.587 261.567 432.832C262.036 433.067 262.548 433.184 263.103 433.184C263.828 433.184 264.436 433.008 264.927 432.656C265.428 432.304 265.759 431.829 265.919 431.232H267.103C266.89 432.085 266.431 432.784 265.727 433.328C265.034 433.861 264.159 434.128 263.103 434.128C262.282 434.128 261.546 433.947 260.895 433.584C260.244 433.211 259.732 432.688 259.359 432.016C258.996 431.333 258.815 430.539 258.815 429.632C258.815 428.725 258.996 427.931 259.359 427.248C259.722 426.565 260.228 426.043 260.879 425.68C261.53 425.317 262.271 425.136 263.103 425.136C263.935 425.136 264.66 425.317 265.279 425.68C265.908 426.043 266.388 426.533 266.719 427.152C267.06 427.76 267.231 428.437 267.231 429.184ZM266.095 429.152C266.106 428.501 265.972 427.947 265.695 427.488C265.428 427.029 265.06 426.683 264.591 426.448C264.122 426.213 263.61 426.096 263.055 426.096C262.223 426.096 261.514 426.363 260.927 426.896C260.34 427.429 260.015 428.181 259.951 429.152H266.095ZM279.68 425.104C280.704 425.104 281.536 425.429 282.176 426.08C282.827 426.72 283.152 427.653 283.152 428.88V434H282.048V429.008C282.048 428.059 281.819 427.333 281.36 426.832C280.901 426.331 280.277 426.08 279.488 426.08C278.667 426.08 278.011 426.352 277.52 426.896C277.029 427.44 276.784 428.229 276.784 429.264V434H275.68V429.008C275.68 428.059 275.451 427.333 274.992 426.832C274.533 426.331 273.904 426.08 273.104 426.08C272.283 426.08 271.627 426.352 271.136 426.896C270.645 427.44 270.4 428.229 270.4 429.264V434H269.28V425.264H270.4V426.768C270.677 426.224 271.072 425.813 271.584 425.536C272.096 425.248 272.667 425.104 273.296 425.104C274.053 425.104 274.715 425.285 275.28 425.648C275.856 426.011 276.272 426.544 276.528 427.248C276.763 426.555 277.163 426.027 277.728 425.664C278.304 425.291 278.955 425.104 279.68 425.104ZM293.134 432.912L296.078 425.264H297.262L293.758 434H292.494L288.99 425.264H290.19L293.134 432.912ZM299.34 423.616C299.116 423.616 298.924 423.536 298.764 423.376C298.604 423.216 298.524 423.019 298.524 422.784C298.524 422.549 298.604 422.357 298.764 422.208C298.924 422.048 299.116 421.968 299.34 421.968C299.564 421.968 299.756 422.048 299.916 422.208C300.076 422.357 300.156 422.549 300.156 422.784C300.156 423.019 300.076 423.216 299.916 423.376C299.756 423.536 299.564 423.616 299.34 423.616ZM299.9 425.264V434H298.78V425.264H299.9ZM301.924 429.616C301.924 428.72 302.1 427.936 302.452 427.264C302.815 426.581 303.311 426.059 303.94 425.696C304.58 425.323 305.3 425.136 306.1 425.136C306.932 425.136 307.647 425.328 308.244 425.712C308.852 426.096 309.29 426.587 309.556 427.184V425.264H310.676V434H309.556V432.064C309.279 432.661 308.836 433.157 308.228 433.552C307.631 433.936 306.916 434.128 306.084 434.128C305.295 434.128 304.58 433.941 303.94 433.568C303.311 433.195 302.815 432.667 302.452 431.984C302.1 431.301 301.924 430.512 301.924 429.616ZM309.556 429.632C309.556 428.928 309.412 428.309 309.124 427.776C308.836 427.243 308.442 426.832 307.94 426.544C307.45 426.256 306.906 426.112 306.308 426.112C305.69 426.112 305.135 426.251 304.644 426.528C304.154 426.805 303.764 427.211 303.476 427.744C303.199 428.267 303.06 428.891 303.06 429.616C303.06 430.331 303.199 430.96 303.476 431.504C303.764 432.037 304.154 432.448 304.644 432.736C305.135 433.013 305.69 433.152 306.308 433.152C306.906 433.152 307.45 433.008 307.94 432.72C308.442 432.432 308.836 432.021 309.124 431.488C309.412 430.955 309.556 430.336 309.556 429.632ZM318.744 422.16V434H317.624V422.16H318.744ZM321.84 423.616C321.616 423.616 321.424 423.536 321.264 423.376C321.104 423.216 321.024 423.019 321.024 422.784C321.024 422.549 321.104 422.357 321.264 422.208C321.424 422.048 321.616 421.968 321.84 421.968C322.064 421.968 322.256 422.048 322.416 422.208C322.576 422.357 322.656 422.549 322.656 422.784C322.656 423.019 322.576 423.216 322.416 423.376C322.256 423.536 322.064 423.616 321.84 423.616ZM322.4 425.264V434H321.28V425.264H322.4ZM328.04 432.912L330.984 425.264H332.168L328.664 434H327.4L323.896 425.264H325.096L328.04 432.912ZM341.59 429.184C341.59 429.568 341.58 429.861 341.558 430.064H334.31C334.342 430.725 334.502 431.291 334.79 431.76C335.078 432.229 335.457 432.587 335.926 432.832C336.396 433.067 336.908 433.184 337.462 433.184C338.188 433.184 338.796 433.008 339.286 432.656C339.788 432.304 340.118 431.829 340.278 431.232H341.462C341.249 432.085 340.79 432.784 340.086 433.328C339.393 433.861 338.518 434.128 337.462 434.128C336.641 434.128 335.905 433.947 335.254 433.584C334.604 433.211 334.092 432.688 333.718 432.016C333.356 431.333 333.174 430.539 333.174 429.632C333.174 428.725 333.356 427.931 333.718 427.248C334.081 426.565 334.588 426.043 335.238 425.68C335.889 425.317 336.63 425.136 337.462 425.136C338.294 425.136 339.02 425.317 339.638 425.68C340.268 426.043 340.748 426.533 341.078 427.152C341.42 427.76 341.59 428.437 341.59 429.184ZM340.454 429.152C340.465 428.501 340.332 427.947 340.054 427.488C339.788 427.029 339.42 426.683 338.95 426.448C338.481 426.213 337.969 426.096 337.414 426.096C336.582 426.096 335.873 426.363 335.286 426.896C334.7 427.429 334.374 428.181 334.31 429.152H340.454ZM347.518 429.632C347.518 428.725 347.699 427.936 348.062 427.264C348.425 426.581 348.926 426.059 349.566 425.696C350.206 425.323 350.937 425.136 351.758 425.136C352.835 425.136 353.721 425.403 354.414 425.936C355.118 426.469 355.571 427.195 355.774 428.112H354.574C354.425 427.483 354.099 426.992 353.598 426.64C353.107 426.277 352.494 426.096 351.758 426.096C351.171 426.096 350.643 426.229 350.174 426.496C349.705 426.763 349.331 427.163 349.054 427.696C348.787 428.219 348.654 428.864 348.654 429.632C348.654 430.4 348.787 431.051 349.054 431.584C349.331 432.117 349.705 432.517 350.174 432.784C350.643 433.051 351.171 433.184 351.758 433.184C352.494 433.184 353.107 433.008 353.598 432.656C354.099 432.293 354.425 431.792 354.574 431.152H355.774C355.571 432.048 355.118 432.768 354.414 433.312C353.71 433.856 352.825 434.128 351.758 434.128C350.937 434.128 350.206 433.947 349.566 433.584C348.926 433.211 348.425 432.688 348.062 432.016C347.699 431.333 347.518 430.539 347.518 429.632ZM362.003 425.104C362.664 425.104 363.256 425.243 363.779 425.52C364.312 425.797 364.728 426.224 365.027 426.8C365.336 427.365 365.491 428.059 365.491 428.88V434H364.387V429.008C364.387 428.059 364.147 427.333 363.667 426.832C363.197 426.331 362.552 426.08 361.731 426.08C360.888 426.08 360.216 426.347 359.715 426.88C359.213 427.413 358.963 428.197 358.963 429.232V434H357.843V422.16H358.963V426.752C359.24 426.229 359.645 425.824 360.179 425.536C360.723 425.248 361.331 425.104 362.003 425.104ZM367.456 429.616C367.456 428.72 367.632 427.936 367.984 427.264C368.346 426.581 368.842 426.059 369.472 425.696C370.112 425.323 370.832 425.136 371.632 425.136C372.464 425.136 373.178 425.328 373.776 425.712C374.384 426.096 374.821 426.587 375.088 427.184V425.264H376.208V434H375.088V432.064C374.81 432.661 374.368 433.157 373.76 433.552C373.162 433.936 372.448 434.128 371.616 434.128C370.826 434.128 370.112 433.941 369.472 433.568C368.842 433.195 368.346 432.667 367.984 431.984C367.632 431.301 367.456 430.512 367.456 429.616ZM375.088 429.632C375.088 428.928 374.944 428.309 374.656 427.776C374.368 427.243 373.973 426.832 373.472 426.544C372.981 426.256 372.437 426.112 371.84 426.112C371.221 426.112 370.666 426.251 370.176 426.528C369.685 426.805 369.296 427.211 369.008 427.744C368.73 428.267 368.592 428.891 368.592 429.616C368.592 430.331 368.73 430.96 369.008 431.504C369.296 432.037 369.685 432.448 370.176 432.736C370.666 433.013 371.221 433.152 371.84 433.152C372.437 433.152 372.981 433.008 373.472 432.72C373.973 432.432 374.368 432.021 374.656 431.488C374.944 430.955 375.088 430.336 375.088 429.632ZM380.22 426.208V431.632C380.22 432.165 380.322 432.533 380.524 432.736C380.727 432.939 381.084 433.04 381.596 433.04H382.62V434H381.42C380.631 434 380.044 433.819 379.66 433.456C379.276 433.083 379.084 432.475 379.084 431.632V426.208H377.868V425.264H379.084V423.072H380.22V425.264H382.62V426.208H380.22ZM392.682 434.128C391.861 434.128 391.119 433.947 390.458 433.584C389.807 433.211 389.29 432.688 388.906 432.016C388.533 431.333 388.346 430.539 388.346 429.632C388.346 428.725 388.538 427.936 388.922 427.264C389.306 426.581 389.829 426.059 390.49 425.696C391.151 425.323 391.893 425.136 392.714 425.136C393.535 425.136 394.277 425.323 394.938 425.696C395.61 426.059 396.133 426.581 396.506 427.264C396.89 427.936 397.082 428.725 397.082 429.632C397.082 430.528 396.89 431.317 396.506 432C396.122 432.683 395.594 433.211 394.922 433.584C394.25 433.947 393.503 434.128 392.682 434.128ZM392.682 433.152C393.258 433.152 393.791 433.024 394.282 432.768C394.773 432.501 395.167 432.107 395.466 431.584C395.775 431.051 395.93 430.4 395.93 429.632C395.93 428.864 395.781 428.219 395.482 427.696C395.183 427.163 394.789 426.768 394.298 426.512C393.807 426.245 393.274 426.112 392.698 426.112C392.122 426.112 391.589 426.245 391.098 426.512C390.607 426.768 390.213 427.163 389.914 427.696C389.626 428.219 389.482 428.864 389.482 429.632C389.482 430.4 389.626 431.051 389.914 431.584C390.213 432.107 390.602 432.501 391.082 432.768C391.573 433.024 392.106 433.152 392.682 433.152ZM400.244 426.816C400.489 426.272 400.862 425.851 401.364 425.552C401.876 425.253 402.5 425.104 403.236 425.104V426.272H402.932C402.121 426.272 401.47 426.491 400.98 426.928C400.489 427.365 400.244 428.096 400.244 429.12V434H399.124V425.264H400.244V426.816ZM417.215 429.184C417.215 429.568 417.205 429.861 417.183 430.064H409.935C409.967 430.725 410.127 431.291 410.415 431.76C410.703 432.229 411.082 432.587 411.551 432.832C412.021 433.067 412.533 433.184 413.087 433.184C413.813 433.184 414.421 433.008 414.911 432.656C415.413 432.304 415.743 431.829 415.903 431.232H417.087C416.874 432.085 416.415 432.784 415.711 433.328C415.018 433.861 414.143 434.128 413.087 434.128C412.266 434.128 411.53 433.947 410.879 433.584C410.229 433.211 409.717 432.688 409.343 432.016C408.981 431.333 408.799 430.539 408.799 429.632C408.799 428.725 408.981 427.931 409.343 427.248C409.706 426.565 410.213 426.043 410.863 425.68C411.514 425.317 412.255 425.136 413.087 425.136C413.919 425.136 414.645 425.317 415.263 425.68C415.893 426.043 416.373 426.533 416.703 427.152C417.045 427.76 417.215 428.437 417.215 429.184ZM416.079 429.152C416.09 428.501 415.957 427.947 415.679 427.488C415.413 427.029 415.045 426.683 414.575 426.448C414.106 426.213 413.594 426.096 413.039 426.096C412.207 426.096 411.498 426.363 410.911 426.896C410.325 427.429 409.999 428.181 409.935 429.152H416.079ZM429.664 425.104C430.688 425.104 431.52 425.429 432.16 426.08C432.811 426.72 433.136 427.653 433.136 428.88V434H432.032V429.008C432.032 428.059 431.803 427.333 431.344 426.832C430.886 426.331 430.262 426.08 429.472 426.08C428.651 426.08 427.995 426.352 427.504 426.896C427.014 427.44 426.768 428.229 426.768 429.264V434H425.664V429.008C425.664 428.059 425.435 427.333 424.976 426.832C424.518 426.331 423.888 426.08 423.088 426.08C422.267 426.08 421.611 426.352 421.12 426.896C420.63 427.44 420.384 428.229 420.384 429.264V434H419.264V425.264H420.384V426.768C420.662 426.224 421.056 425.813 421.568 425.536C422.08 425.248 422.651 425.104 423.28 425.104C424.038 425.104 424.699 425.285 425.264 425.648C425.84 426.011 426.256 426.544 426.512 427.248C426.747 426.555 427.147 426.027 427.712 425.664C428.288 425.291 428.939 425.104 429.664 425.104ZM435.112 429.616C435.112 428.72 435.288 427.936 435.64 427.264C436.002 426.581 436.498 426.059 437.128 425.696C437.768 425.323 438.488 425.136 439.288 425.136C440.12 425.136 440.834 425.328 441.432 425.712C442.04 426.096 442.477 426.587 442.744 427.184V425.264H443.864V434H442.744V432.064C442.466 432.661 442.024 433.157 441.416 433.552C440.818 433.936 440.104 434.128 439.272 434.128C438.482 434.128 437.768 433.941 437.128 433.568C436.498 433.195 436.002 432.667 435.64 431.984C435.288 431.301 435.112 430.512 435.112 429.616ZM442.744 429.632C442.744 428.928 442.6 428.309 442.312 427.776C442.024 427.243 441.629 426.832 441.128 426.544C440.637 426.256 440.093 426.112 439.496 426.112C438.877 426.112 438.322 426.251 437.832 426.528C437.341 426.805 436.952 427.211 436.664 427.744C436.386 428.267 436.248 428.891 436.248 429.616C436.248 430.331 436.386 430.96 436.664 431.504C436.952 432.037 437.341 432.448 437.832 432.736C438.322 433.013 438.877 433.152 439.496 433.152C440.093 433.152 440.637 433.008 441.128 432.72C441.629 432.432 442.024 432.021 442.312 431.488C442.6 430.955 442.744 430.336 442.744 429.632ZM446.981 423.616C446.757 423.616 446.565 423.536 446.405 423.376C446.245 423.216 446.165 423.019 446.165 422.784C446.165 422.549 446.245 422.357 446.405 422.208C446.565 422.048 446.757 421.968 446.981 421.968C447.205 421.968 447.397 422.048 447.557 422.208C447.717 422.357 447.797 422.549 447.797 422.784C447.797 423.019 447.717 423.216 447.557 423.376C447.397 423.536 447.205 423.616 446.981 423.616ZM447.541 425.264V434H446.421V425.264H447.541ZM451.197 422.16V434H450.077V422.16H451.197ZM453.925 434.08C453.69 434.08 453.493 434 453.333 433.84C453.184 433.68 453.109 433.483 453.109 433.248C453.109 433.013 453.184 432.821 453.333 432.672C453.493 432.512 453.69 432.432 453.925 432.432C454.149 432.432 454.336 432.512 454.485 432.672C454.645 432.821 454.725 433.013 454.725 433.248C454.725 433.483 454.645 433.68 454.485 433.84C454.336 434 454.149 434.08 453.925 434.08Z" fill="#171717"/>
<defs>
<filter id="filter0_b_1_158" x="532.403" y="150.403" width="96.6954" height="96.6954" filterUnits="userSpaceOnUse" color-interpolation-filters="sRGB">
<feFlood flood-opacity="0" result="BackgroundImageFix"/>
<feGaussianBlur in="BackgroundImageFix" stdDeviation="5.79846"/>
<feComposite in2="SourceAlpha" operator="in" result="effect1_backgroundBlur_1_158"/>
<feBlend mode="normal" in="SourceGraphic" in2="effect1_backgroundBlur_1_158" result="shape"/>
</filter>
<radialGradient id="paint0_radial_1_158" cx="0" cy="0" r="1" gradientUnits="userSpaceOnUse" gradientTransform="translate(29.9994 370.001) rotate(-17.5167) scale(809.015 2274.88)">
<stop stop-color="#E3EFF4"/>
<stop offset="0.569182" stop-color="#CDE0E9"/>
<stop offset="1" stop-color="#E8F3F8" stop-opacity="0"/>
</radialGradient>
<linearGradient id="paint1_linear_1_158" x1="325.291" y1="144.663" x2="381.49" y2="168.173" gradientUnits="userSpaceOnUse">
<stop stop-color="#FEBBBA"/>
<stop offset="1" stop-color="#FF928E"/>
</linearGradient>
<linearGradient id="paint2_linear_1_158" x1="235.594" y1="153.603" x2="521.104" y2="353.352" gradientUnits="userSpaceOnUse">
<stop stop-color="#FEBBBA"/>
<stop offset="1" stop-color="#FF928E"/>
</linearGradient>
</defs>
</svg>
