<svg width="700" height="472" viewBox="0 0 700 472" fill="none" xmlns="http://www.w3.org/2000/svg">
<rect x="72.7031" width="565" height="362" rx="33" transform="rotate(1.32555 72.7031 0)" fill="#ECDDD6"/>
<rect x="39.3789" y="38.0898" width="619" height="396" rx="33" transform="rotate(-0.471117 39.3789 38.0898)" fill="#F6E7E0"/>
<rect x="1" y="64" width="699" height="408" rx="33" fill="white"/>
<path d="M306.798 135H75.1389C71.494 135 68.5391 137.955 68.5391 141.6V290.1H313.402V141.6C313.402 137.955 310.442 135 306.798 135Z" fill="#D4E4EC"/>
<path d="M699.5 165H548H495.5H431.25H398.5C387.454 165 378.5 173.954 378.5 185V209C378.5 220.046 369.546 229 358.5 229H242C230.954 229 222 220.046 222 209V165C222 153.954 213.046 145 202 145H0" stroke="url(#paint0_radial_1_105)" stroke-width="1.5" stroke-dasharray="6 6"/>
<path d="M698.5 197H612.5H548.25H515.5C504.454 197 495.5 205.954 495.5 217V241C495.5 252.046 486.546 261 475.5 261H359C347.954 261 339 252.046 339 241V197C339 185.954 330.046 177 319 177H117" stroke="url(#paint1_radial_1_105)" stroke-width="1.5" stroke-dasharray="6 6"/>
<path d="M78 281V144.38H304.378V281H78Z" fill="white"/>
<g clip-path="url(#clip0_1_105)">
<path d="M187.436 233.952C199.276 233.952 208.873 224.355 208.873 212.516C208.873 200.677 199.276 191.08 187.436 191.08C175.597 191.08 166 200.677 166 212.516C166 224.355 175.597 233.952 187.436 233.952Z" fill="#FF5B4A"/>
<mask id="mask0_1_105" style="mask-type:alpha" maskUnits="userSpaceOnUse" x="166" y="191" width="43" height="43">
<path d="M187.436 233.952C199.275 233.952 208.873 224.355 208.873 212.516C208.873 200.677 199.275 191.08 187.436 191.08C175.597 191.08 166 200.677 166 212.516C166 224.355 175.597 233.952 187.436 233.952Z" fill="#2476F2"/>
</mask>
<g mask="url(#mask0_1_105)">
<path d="M154.075 227.903L152.254 223.857L171.273 215.221C171.657 215.046 171.839 214.604 171.689 214.21C171.536 213.81 171.727 213.362 172.12 213.193L198.055 202.078C198.736 201.786 199.077 201.64 199.392 201.709C199.494 201.731 199.592 201.769 199.682 201.821C199.961 201.983 200.114 202.32 200.421 202.995L201.902 206.261C202.215 206.952 202.372 207.297 202.305 207.618C202.284 207.722 202.246 207.822 202.194 207.914C202.031 208.199 201.685 208.354 200.993 208.665L175.02 220.326C174.633 220.5 174.178 220.322 174.011 219.932C173.845 219.544 173.393 219.366 173.006 219.537L154.075 227.903Z" fill="white"/>
<path d="M183.263 217.971L182.865 216.777L186.933 214.966L187.976 217.503C188.082 217.76 188.134 217.888 188.107 217.982C188.097 218.018 188.087 218.039 188.064 218.07C188.006 218.148 187.844 218.192 187.521 218.28C186.384 218.59 186.432 219.645 186.641 220.216L200.801 259.662H196.823L186.128 229.863C185.803 228.96 185.641 228.508 185.471 228.488C185.416 228.481 185.361 228.491 185.311 228.515C185.158 228.593 185.158 229.072 185.158 230.032V259.662H181.854V229.912C181.854 228.989 181.854 228.527 181.701 228.449C181.653 228.425 181.598 228.415 181.543 228.421C181.374 228.44 181.211 228.872 180.887 229.737L169.649 259.662H166.008L180.144 221.197C180.298 220.78 180.374 220.571 180.527 220.433C180.58 220.385 180.638 220.344 180.702 220.311C180.884 220.216 181.106 220.216 181.551 220.216H181.604C181.705 220.216 181.756 220.216 181.79 220.194C181.803 220.186 181.812 220.178 181.821 220.166C181.848 220.135 181.855 220.079 181.87 219.966C181.982 219.118 182.652 218.554 183.127 218.294C183.219 218.244 183.265 218.218 183.285 218.184C183.292 218.171 183.297 218.161 183.3 218.146C183.309 218.108 183.294 218.062 183.263 217.971Z" fill="white"/>
</g>
</g>
<path d="M319.339 289.9H62.5998C58.9549 289.9 56 286.945 56 283.3V280H325.937V283.3C325.937 286.945 322.983 289.9 319.339 289.9" fill="#171717"/>
<g clip-path="url(#clip1_1_105)">
<rect width="74.375" height="136" rx="15" transform="matrix(-1 0 0 1 555.375 145)" fill="white"/>
<path d="M495.562 145H540.813C548.799 145.009 555.27 151.48 555.278 159.466V266.535C555.27 274.521 548.799 280.992 540.813 281H495.562C487.576 280.992 481.106 274.52 481.096 266.535V159.466C481.105 151.48 487.576 145.009 495.562 145ZM487.279 266.535C487.283 271.108 490.989 274.814 495.562 274.818H540.813C545.386 274.814 549.092 271.108 549.097 266.535V159.466C549.092 154.892 545.386 151.186 540.813 151.181H495.562C490.989 151.186 487.283 154.892 487.279 159.466V266.535Z" fill="#D4E4EC"/>
<path d="M508.914 157.364H527.46C529.167 157.364 530.551 158.747 530.551 160.454C530.551 162.161 529.167 163.545 527.46 163.545H508.914C507.208 163.545 505.824 162.161 505.824 160.454C505.824 158.747 507.207 157.364 508.914 157.364ZM512.006 262.454C512.006 265.869 514.773 268.637 518.187 268.637C521.602 268.637 524.37 265.869 524.37 262.454C524.37 259.04 521.602 256.273 518.187 256.273C514.773 256.273 512.006 259.04 512.006 262.454Z" fill="black"/>
<g clip-path="url(#clip2_1_105)">
<path d="M519.466 220.975C525.799 220.975 530.932 215.841 530.932 209.509C530.932 203.176 525.799 198.043 519.466 198.043C513.134 198.043 508 203.176 508 209.509C508 215.841 513.134 220.975 519.466 220.975Z" fill="#FF5B4A"/>
<mask id="mask1_1_105" style="mask-type:alpha" maskUnits="userSpaceOnUse" x="508" y="198" width="23" height="23">
<path d="M519.466 220.975C525.799 220.975 530.932 215.841 530.932 209.508C530.932 203.176 525.799 198.043 519.466 198.043C513.133 198.043 508 203.176 508 209.508C508 215.841 513.133 220.975 519.466 220.975Z" fill="#2476F2"/>
</mask>
<g mask="url(#mask1_1_105)">
<path d="M501.621 217.739L500.647 215.575L510.82 210.955C511.026 210.862 511.123 210.625 511.043 210.415C510.961 210.201 511.063 209.961 511.273 209.871L525.146 203.925C525.51 203.769 525.692 203.691 525.861 203.728C525.915 203.74 525.968 203.76 526.016 203.788C526.165 203.875 526.247 204.055 526.411 204.416L527.203 206.163C527.371 206.532 527.455 206.717 527.419 206.889C527.408 206.944 527.387 206.998 527.359 207.047C527.272 207.199 527.087 207.282 526.717 207.448L512.825 213.686C512.618 213.779 512.374 213.684 512.285 213.475C512.196 213.267 511.954 213.172 511.747 213.264L501.621 217.739Z" fill="white"/>
<path d="M517.234 212.427L517.021 211.788L519.197 210.819L519.755 212.176C519.811 212.313 519.839 212.382 519.825 212.432C519.819 212.452 519.814 212.463 519.802 212.479C519.771 212.521 519.684 212.545 519.511 212.592C518.903 212.757 518.929 213.322 519.041 213.627L526.615 234.726H524.487L518.766 218.787C518.592 218.304 518.506 218.063 518.415 218.051C518.385 218.048 518.356 218.053 518.329 218.066C518.247 218.108 518.247 218.364 518.247 218.877V234.726H516.48V218.813C516.48 218.32 516.48 218.073 516.398 218.031C516.372 218.018 516.343 218.012 516.314 218.016C516.223 218.026 516.136 218.257 515.963 218.72L509.952 234.726H508.004L515.566 214.152C515.648 213.929 515.689 213.817 515.77 213.743C515.798 213.718 515.83 213.696 515.864 213.678C515.961 213.627 516.08 213.627 516.318 213.627H516.346C516.4 213.627 516.427 213.627 516.446 213.615C516.453 213.611 516.457 213.607 516.463 213.601C516.477 213.584 516.481 213.554 516.489 213.494C516.549 213.04 516.907 212.738 517.161 212.599C517.21 212.572 517.235 212.559 517.246 212.54C517.249 212.534 517.252 212.528 517.253 212.52C517.258 212.5 517.25 212.475 517.234 212.427Z" fill="white"/>
</g>
</g>
</g>
<path d="M60.6 355.96V364.36C60.6 365.2 60.8067 365.847 61.22 366.3C61.6333 366.753 62.24 366.98 63.04 366.98C63.84 366.98 64.4533 366.753 64.88 366.3C65.3067 365.847 65.52 365.2 65.52 364.36V355.96H68.94V364.34C68.94 365.593 68.6733 366.653 68.14 367.52C67.6067 368.387 66.8867 369.04 65.98 369.48C65.0867 369.92 64.0867 370.14 62.98 370.14C61.8733 370.14 60.88 369.927 60 369.5C59.1333 369.06 58.4467 368.407 57.94 367.54C57.4333 366.66 57.18 365.593 57.18 364.34V355.96H60.6ZM78.1416 358.72C79.4482 358.72 80.4882 359.147 81.2616 360C82.0482 360.84 82.4416 362 82.4416 363.48V370H79.0416V363.94C79.0416 363.193 78.8482 362.613 78.4616 362.2C78.0749 361.787 77.5549 361.58 76.9016 361.58C76.2482 361.58 75.7282 361.787 75.3416 362.2C74.9549 362.613 74.7616 363.193 74.7616 363.94V370H71.3416V358.84H74.7616V360.32C75.1082 359.827 75.5749 359.44 76.1616 359.16C76.7482 358.867 77.4082 358.72 78.1416 358.72ZM88.2381 355.2V370H84.8181V355.2H88.2381ZM92.4366 357.68C91.8366 357.68 91.3432 357.507 90.9566 357.16C90.5832 356.8 90.3966 356.36 90.3966 355.84C90.3966 355.307 90.5832 354.867 90.9566 354.52C91.3432 354.16 91.8366 353.98 92.4366 353.98C93.0232 353.98 93.5032 354.16 93.8766 354.52C94.2632 354.867 94.4566 355.307 94.4566 355.84C94.4566 356.36 94.2632 356.8 93.8766 357.16C93.5032 357.507 93.0232 357.68 92.4366 357.68ZM94.1366 358.84V370H90.7166V358.84H94.1366ZM110.855 358.72C112.242 358.72 113.342 359.14 114.155 359.98C114.982 360.82 115.395 361.987 115.395 363.48V370H111.995V363.94C111.995 363.22 111.802 362.667 111.415 362.28C111.042 361.88 110.522 361.68 109.855 361.68C109.188 361.68 108.662 361.88 108.275 362.28C107.902 362.667 107.715 363.22 107.715 363.94V370H104.315V363.94C104.315 363.22 104.122 362.667 103.735 362.28C103.362 361.88 102.842 361.68 102.175 361.68C101.508 361.68 100.982 361.88 100.595 362.28C100.222 362.667 100.035 363.22 100.035 363.94V370H96.615V358.84H100.035V360.24C100.382 359.773 100.835 359.407 101.395 359.14C101.955 358.86 102.588 358.72 103.295 358.72C104.135 358.72 104.882 358.9 105.535 359.26C106.202 359.62 106.722 360.133 107.095 360.8C107.482 360.187 108.008 359.687 108.675 359.3C109.342 358.913 110.068 358.72 110.855 358.72ZM119.507 357.68C118.907 357.68 118.414 357.507 118.027 357.16C117.654 356.8 117.467 356.36 117.467 355.84C117.467 355.307 117.654 354.867 118.027 354.52C118.414 354.16 118.907 353.98 119.507 353.98C120.094 353.98 120.574 354.16 120.947 354.52C121.334 354.867 121.527 355.307 121.527 355.84C121.527 356.36 121.334 356.8 120.947 357.16C120.574 357.507 120.094 357.68 119.507 357.68ZM121.207 358.84V370H117.787V358.84H121.207ZM129.905 367.1V370H128.165C126.925 370 125.959 369.7 125.265 369.1C124.572 368.487 124.225 367.493 124.225 366.12V361.68H122.865V358.84H124.225V356.12H127.645V358.84H129.885V361.68H127.645V366.16C127.645 366.493 127.725 366.733 127.885 366.88C128.045 367.027 128.312 367.1 128.685 367.1H129.905ZM142.33 364.24C142.33 364.56 142.31 364.893 142.27 365.24H134.53C134.584 365.933 134.804 366.467 135.19 366.84C135.59 367.2 136.077 367.38 136.65 367.38C137.504 367.38 138.097 367.02 138.43 366.3H142.07C141.884 367.033 141.544 367.693 141.05 368.28C140.57 368.867 139.964 369.327 139.23 369.66C138.497 369.993 137.677 370.16 136.77 370.16C135.677 370.16 134.704 369.927 133.85 369.46C132.997 368.993 132.33 368.327 131.85 367.46C131.37 366.593 131.13 365.58 131.13 364.42C131.13 363.26 131.364 362.247 131.83 361.38C132.31 360.513 132.977 359.847 133.83 359.38C134.684 358.913 135.664 358.68 136.77 358.68C137.85 358.68 138.81 358.907 139.65 359.36C140.49 359.813 141.144 360.46 141.61 361.3C142.09 362.14 142.33 363.12 142.33 364.24ZM138.83 363.34C138.83 362.753 138.63 362.287 138.23 361.94C137.83 361.593 137.33 361.42 136.73 361.42C136.157 361.42 135.67 361.587 135.27 361.92C134.884 362.253 134.644 362.727 134.55 363.34H138.83ZM143.455 364.4C143.455 363.253 143.668 362.247 144.095 361.38C144.535 360.513 145.128 359.847 145.875 359.38C146.621 358.913 147.455 358.68 148.375 358.68C149.108 358.68 149.775 358.833 150.375 359.14C150.988 359.447 151.468 359.86 151.815 360.38V355.2H155.235V370H151.815V368.4C151.495 368.933 151.035 369.36 150.435 369.68C149.848 370 149.161 370.16 148.375 370.16C147.455 370.16 146.621 369.927 145.875 369.46C145.128 368.98 144.535 368.307 144.095 367.44C143.668 366.56 143.455 365.547 143.455 364.4ZM151.815 364.42C151.815 363.567 151.575 362.893 151.095 362.4C150.628 361.907 150.055 361.66 149.375 361.66C148.695 361.66 148.115 361.907 147.635 362.4C147.168 362.88 146.935 363.547 146.935 364.4C146.935 365.253 147.168 365.933 147.635 366.44C148.115 366.933 148.695 367.18 149.375 367.18C150.055 367.18 150.628 366.933 151.095 366.44C151.575 365.947 151.815 365.273 151.815 364.42ZM167.207 355.96C168.687 355.96 169.98 356.253 171.087 356.84C172.194 357.427 173.047 358.253 173.647 359.32C174.26 360.373 174.567 361.593 174.567 362.98C174.567 364.353 174.26 365.573 173.647 366.64C173.047 367.707 172.187 368.533 171.067 369.12C169.96 369.707 168.674 370 167.207 370H161.947V355.96H167.207ZM166.987 367.04C168.28 367.04 169.287 366.687 170.007 365.98C170.727 365.273 171.087 364.273 171.087 362.98C171.087 361.687 170.727 360.68 170.007 359.96C169.287 359.24 168.28 358.88 166.987 358.88H165.367V367.04H166.987ZM186.998 364.24C186.998 364.56 186.978 364.893 186.938 365.24H179.198C179.252 365.933 179.472 366.467 179.858 366.84C180.258 367.2 180.745 367.38 181.318 367.38C182.172 367.38 182.765 367.02 183.098 366.3H186.738C186.552 367.033 186.212 367.693 185.718 368.28C185.238 368.867 184.632 369.327 183.898 369.66C183.165 369.993 182.345 370.16 181.438 370.16C180.345 370.16 179.372 369.927 178.518 369.46C177.665 368.993 176.998 368.327 176.518 367.46C176.038 366.593 175.798 365.58 175.798 364.42C175.798 363.26 176.032 362.247 176.498 361.38C176.978 360.513 177.645 359.847 178.498 359.38C179.352 358.913 180.332 358.68 181.438 358.68C182.518 358.68 183.478 358.907 184.318 359.36C185.158 359.813 185.812 360.46 186.278 361.3C186.758 362.14 186.998 363.12 186.998 364.24ZM183.498 363.34C183.498 362.753 183.298 362.287 182.898 361.94C182.498 361.593 181.998 361.42 181.398 361.42C180.825 361.42 180.338 361.587 179.938 361.92C179.552 362.253 179.312 362.727 179.218 363.34H183.498ZM193.823 366.8L196.243 358.84H199.883L195.923 370H191.703L187.743 358.84H191.403L193.823 366.8ZM203.042 357.68C202.442 357.68 201.949 357.507 201.562 357.16C201.189 356.8 201.002 356.36 201.002 355.84C201.002 355.307 201.189 354.867 201.562 354.52C201.949 354.16 202.442 353.98 203.042 353.98C203.629 353.98 204.109 354.16 204.482 354.52C204.869 354.867 205.062 355.307 205.062 355.84C205.062 356.36 204.869 356.8 204.482 357.16C204.109 357.507 203.629 357.68 203.042 357.68ZM204.742 358.84V370H201.322V358.84H204.742ZM206.54 364.42C206.54 363.26 206.774 362.247 207.24 361.38C207.72 360.513 208.38 359.847 209.22 359.38C210.074 358.913 211.047 358.68 212.14 358.68C213.54 358.68 214.707 359.047 215.64 359.78C216.587 360.513 217.207 361.547 217.5 362.88H213.86C213.554 362.027 212.96 361.6 212.08 361.6C211.454 361.6 210.954 361.847 210.58 362.34C210.207 362.82 210.02 363.513 210.02 364.42C210.02 365.327 210.207 366.027 210.58 366.52C210.954 367 211.454 367.24 212.08 367.24C212.96 367.24 213.554 366.813 213.86 365.96H217.5C217.207 367.267 216.587 368.293 215.64 369.04C214.694 369.787 213.527 370.16 212.14 370.16C211.047 370.16 210.074 369.927 209.22 369.46C208.38 368.993 207.72 368.327 207.24 367.46C206.774 366.593 206.54 365.58 206.54 364.42ZM229.85 364.24C229.85 364.56 229.83 364.893 229.79 365.24H222.05C222.103 365.933 222.323 366.467 222.71 366.84C223.11 367.2 223.597 367.38 224.17 367.38C225.023 367.38 225.617 367.02 225.95 366.3H229.59C229.403 367.033 229.063 367.693 228.57 368.28C228.09 368.867 227.483 369.327 226.75 369.66C226.017 369.993 225.197 370.16 224.29 370.16C223.197 370.16 222.223 369.927 221.37 369.46C220.517 368.993 219.85 368.327 219.37 367.46C218.89 366.593 218.65 365.58 218.65 364.42C218.65 363.26 218.883 362.247 219.35 361.38C219.83 360.513 220.497 359.847 221.35 359.38C222.203 358.913 223.183 358.68 224.29 358.68C225.37 358.68 226.33 358.907 227.17 359.36C228.01 359.813 228.663 360.46 229.13 361.3C229.61 362.14 229.85 363.12 229.85 364.24ZM226.35 363.34C226.35 362.753 226.15 362.287 225.75 361.94C225.35 361.593 224.85 361.42 224.25 361.42C223.677 361.42 223.19 361.587 222.79 361.92C222.403 362.253 222.163 362.727 222.07 363.34H226.35ZM236.194 370.16C235.221 370.16 234.354 369.993 233.594 369.66C232.834 369.327 232.234 368.873 231.794 368.3C231.354 367.713 231.107 367.06 231.054 366.34H234.434C234.474 366.727 234.654 367.04 234.974 367.28C235.294 367.52 235.687 367.64 236.154 367.64C236.581 367.64 236.907 367.56 237.134 367.4C237.374 367.227 237.494 367.007 237.494 366.74C237.494 366.42 237.327 366.187 236.994 366.04C236.661 365.88 236.121 365.707 235.374 365.52C234.574 365.333 233.907 365.14 233.374 364.94C232.841 364.727 232.381 364.4 231.994 363.96C231.607 363.507 231.414 362.9 231.414 362.14C231.414 361.5 231.587 360.92 231.934 360.4C232.294 359.867 232.814 359.447 233.494 359.14C234.187 358.833 235.007 358.68 235.954 358.68C237.354 358.68 238.454 359.027 239.254 359.72C240.067 360.413 240.534 361.333 240.654 362.48H237.494C237.441 362.093 237.267 361.787 236.974 361.56C236.694 361.333 236.321 361.22 235.854 361.22C235.454 361.22 235.147 361.3 234.934 361.46C234.721 361.607 234.614 361.813 234.614 362.08C234.614 362.4 234.781 362.64 235.114 362.8C235.461 362.96 235.994 363.12 236.714 363.28C237.541 363.493 238.214 363.707 238.734 363.92C239.254 364.12 239.707 364.453 240.094 364.92C240.494 365.373 240.701 365.987 240.714 366.76C240.714 367.413 240.527 368 240.154 368.52C239.794 369.027 239.267 369.427 238.574 369.72C237.894 370.013 237.101 370.16 236.194 370.16ZM63.76 399.344H58.672L57.696 402H56.512L60.592 390.96H61.856L65.92 402H64.736L63.76 399.344ZM63.424 398.416L61.216 392.368L59.008 398.416H63.424ZM75.1161 402.128C74.1135 402.128 73.2921 401.899 72.6521 401.44C72.0228 400.971 71.6708 400.336 71.5961 399.536H72.7481C72.8015 400.027 73.0308 400.427 73.4361 400.736C73.8521 401.035 74.4068 401.184 75.1001 401.184C75.7081 401.184 76.1828 401.04 76.5241 400.752C76.8761 400.464 77.0521 400.107 77.0521 399.68C77.0521 399.381 76.9561 399.136 76.7641 398.944C76.5721 398.752 76.3268 398.603 76.0281 398.496C75.7401 398.379 75.3455 398.256 74.8441 398.128C74.1935 397.957 73.6655 397.787 73.2601 397.616C72.8548 397.445 72.5081 397.195 72.2201 396.864C71.9428 396.523 71.8041 396.069 71.8041 395.504C71.8041 395.077 71.9321 394.683 72.1881 394.32C72.4441 393.957 72.8068 393.669 73.2761 393.456C73.7455 393.243 74.2788 393.136 74.8761 393.136C75.8148 393.136 76.5721 393.376 77.1481 393.856C77.7241 394.325 78.0335 394.976 78.0761 395.808H76.9561C76.9241 395.296 76.7215 394.885 76.3481 394.576C75.9855 394.256 75.4841 394.096 74.8441 394.096C74.2788 394.096 73.8201 394.229 73.4681 394.496C73.1161 394.763 72.9401 395.093 72.9401 395.488C72.9401 395.829 73.0415 396.112 73.2441 396.336C73.4575 396.549 73.7188 396.72 74.0281 396.848C74.3375 396.965 74.7535 397.099 75.2761 397.248C75.9055 397.419 76.4068 397.584 76.7801 397.744C77.1535 397.904 77.4735 398.139 77.7401 398.448C78.0068 398.757 78.1455 399.168 78.1561 399.68C78.1561 400.149 78.0281 400.571 77.7721 400.944C77.5161 401.307 77.1588 401.595 76.7001 401.808C76.2415 402.021 75.7135 402.128 75.1161 402.128ZM80.8244 391.616C80.6004 391.616 80.4084 391.536 80.2484 391.376C80.0884 391.216 80.0084 391.019 80.0084 390.784C80.0084 390.549 80.0884 390.357 80.2484 390.208C80.4084 390.048 80.6004 389.968 80.8244 389.968C81.0484 389.968 81.2404 390.048 81.4004 390.208C81.5604 390.357 81.6404 390.549 81.6404 390.784C81.6404 391.019 81.5604 391.216 81.4004 391.376C81.2404 391.536 81.0484 391.616 80.8244 391.616ZM81.3844 393.264V402H80.2644V393.264H81.3844ZM88.0166 393.104C89.062 393.104 89.9153 393.429 90.5766 394.08C91.238 394.72 91.5686 395.653 91.5686 396.88V402H90.4646V397.008C90.4646 396.059 90.2246 395.333 89.7446 394.832C89.2753 394.331 88.63 394.08 87.8086 394.08C86.966 394.08 86.294 394.347 85.7926 394.88C85.2913 395.413 85.0406 396.197 85.0406 397.232V402H83.9206V393.264H85.0406V394.752C85.318 394.219 85.718 393.813 86.2406 393.536C86.7633 393.248 87.3553 393.104 88.0166 393.104ZM97.7096 393.136C98.531 393.136 99.2456 393.328 99.8536 393.712C100.462 394.096 100.899 394.581 101.166 395.168V393.264H102.286V402.224C102.286 403.024 102.11 403.733 101.758 404.352C101.416 404.971 100.936 405.445 100.318 405.776C99.699 406.117 98.995 406.288 98.2056 406.288C97.0856 406.288 96.1523 406.021 95.4056 405.488C94.6696 404.955 94.211 404.229 94.0296 403.312H95.1336C95.3256 403.92 95.6883 404.405 96.2216 404.768C96.7656 405.131 97.427 405.312 98.2056 405.312C98.771 405.312 99.2776 405.189 99.7256 404.944C100.174 404.709 100.526 404.357 100.782 403.888C101.038 403.419 101.166 402.864 101.166 402.224V400.064C100.888 400.661 100.446 401.157 99.8376 401.552C99.2403 401.936 98.531 402.128 97.7096 402.128C96.9096 402.128 96.1896 401.941 95.5496 401.568C94.9203 401.195 94.4243 400.667 94.0616 399.984C93.7096 399.301 93.5336 398.512 93.5336 397.616C93.5336 396.72 93.7096 395.936 94.0616 395.264C94.4243 394.581 94.9203 394.059 95.5496 393.696C96.1896 393.323 96.9096 393.136 97.7096 393.136ZM101.166 397.632C101.166 396.928 101.022 396.309 100.734 395.776C100.446 395.243 100.051 394.832 99.5496 394.544C99.059 394.256 98.515 394.112 97.9176 394.112C97.299 394.112 96.7443 394.251 96.2536 394.528C95.763 394.805 95.3736 395.211 95.0856 395.744C94.8083 396.267 94.6696 396.891 94.6696 397.616C94.6696 398.331 94.8083 398.96 95.0856 399.504C95.3736 400.037 95.763 400.448 96.2536 400.736C96.7443 401.013 97.299 401.152 97.9176 401.152C98.515 401.152 99.059 401.008 99.5496 400.72C100.051 400.432 100.446 400.021 100.734 399.488C101.022 398.955 101.166 398.336 101.166 397.632ZM105.963 390.16V402H104.843V390.16H105.963ZM116.403 397.184C116.403 397.568 116.392 397.861 116.371 398.064H109.123C109.155 398.725 109.315 399.291 109.603 399.76C109.891 400.229 110.269 400.587 110.739 400.832C111.208 401.067 111.72 401.184 112.275 401.184C113 401.184 113.608 401.008 114.099 400.656C114.6 400.304 114.931 399.829 115.091 399.232H116.275C116.061 400.085 115.603 400.784 114.899 401.328C114.205 401.861 113.331 402.128 112.275 402.128C111.453 402.128 110.717 401.947 110.067 401.584C109.416 401.211 108.904 400.688 108.531 400.016C108.168 399.333 107.987 398.539 107.987 397.632C107.987 396.725 108.168 395.931 108.531 395.248C108.893 394.565 109.4 394.043 110.051 393.68C110.701 393.317 111.443 393.136 112.275 393.136C113.107 393.136 113.832 393.317 114.451 393.68C115.08 394.043 115.56 394.533 115.891 395.152C116.232 395.76 116.403 396.437 116.403 397.184ZM115.267 397.152C115.277 396.501 115.144 395.947 114.867 395.488C114.6 395.029 114.232 394.683 113.763 394.448C113.293 394.213 112.781 394.096 112.227 394.096C111.395 394.096 110.685 394.363 110.099 394.896C109.512 395.429 109.187 396.181 109.123 397.152H115.267ZM123.963 391.728V395.904H128.203V396.832H123.963V401.072H128.683V402H122.843V390.8H128.683V391.728H123.963ZM135.465 402L133.209 398.48L131.033 402H129.849L132.665 397.632L129.881 393.264H131.145L133.369 396.736L135.529 393.264H136.697L133.913 397.584L136.729 402H135.465ZM139.353 395.184C139.63 394.597 140.067 394.112 140.665 393.728C141.273 393.333 141.993 393.136 142.825 393.136C143.614 393.136 144.323 393.323 144.953 393.696C145.593 394.059 146.089 394.581 146.441 395.264C146.803 395.936 146.985 396.72 146.985 397.616C146.985 398.512 146.803 399.301 146.441 399.984C146.089 400.667 145.593 401.195 144.953 401.568C144.323 401.941 143.614 402.128 142.825 402.128C142.003 402.128 141.289 401.936 140.681 401.552C140.073 401.157 139.63 400.667 139.353 400.08V406.128H138.249V393.264H139.353V395.184ZM145.849 397.616C145.849 396.891 145.705 396.267 145.417 395.744C145.139 395.211 144.755 394.805 144.265 394.528C143.774 394.251 143.219 394.112 142.601 394.112C142.003 394.112 141.454 394.256 140.953 394.544C140.462 394.832 140.073 395.243 139.785 395.776C139.497 396.309 139.353 396.928 139.353 397.632C139.353 398.336 139.497 398.955 139.785 399.488C140.073 400.021 140.462 400.432 140.953 400.72C141.454 401.008 142.003 401.152 142.601 401.152C143.219 401.152 143.774 401.013 144.265 400.736C144.755 400.448 145.139 400.037 145.417 399.504C145.705 398.96 145.849 398.331 145.849 397.616ZM150.166 390.16V402H149.046V390.16H150.166ZM156.526 402.128C155.705 402.128 154.963 401.947 154.302 401.584C153.651 401.211 153.134 400.688 152.75 400.016C152.377 399.333 152.19 398.539 152.19 397.632C152.19 396.725 152.382 395.936 152.766 395.264C153.15 394.581 153.673 394.059 154.334 393.696C154.995 393.323 155.737 393.136 156.558 393.136C157.379 393.136 158.121 393.323 158.782 393.696C159.454 394.059 159.977 394.581 160.35 395.264C160.734 395.936 160.926 396.725 160.926 397.632C160.926 398.528 160.734 399.317 160.35 400C159.966 400.683 159.438 401.211 158.766 401.584C158.094 401.947 157.347 402.128 156.526 402.128ZM156.526 401.152C157.102 401.152 157.635 401.024 158.126 400.768C158.617 400.501 159.011 400.107 159.31 399.584C159.619 399.051 159.774 398.4 159.774 397.632C159.774 396.864 159.625 396.219 159.326 395.696C159.027 395.163 158.633 394.768 158.142 394.512C157.651 394.245 157.118 394.112 156.542 394.112C155.966 394.112 155.433 394.245 154.942 394.512C154.451 394.768 154.057 395.163 153.758 395.696C153.47 396.219 153.326 396.864 153.326 397.632C153.326 398.4 153.47 399.051 153.758 399.584C154.057 400.107 154.446 400.501 154.926 400.768C155.417 401.024 155.95 401.152 156.526 401.152ZM164.088 394.816C164.333 394.272 164.706 393.851 165.208 393.552C165.72 393.253 166.344 393.104 167.08 393.104V394.272H166.776C165.965 394.272 165.314 394.491 164.824 394.928C164.333 395.365 164.088 396.096 164.088 397.12V402H162.968V393.264H164.088V394.816ZM176.668 397.184C176.668 397.568 176.658 397.861 176.636 398.064H169.388C169.42 398.725 169.58 399.291 169.868 399.76C170.156 400.229 170.535 400.587 171.004 400.832C171.474 401.067 171.986 401.184 172.54 401.184C173.266 401.184 173.874 401.008 174.364 400.656C174.866 400.304 175.196 399.829 175.356 399.232H176.54C176.327 400.085 175.868 400.784 175.164 401.328C174.471 401.861 173.596 402.128 172.54 402.128C171.719 402.128 170.983 401.947 170.332 401.584C169.682 401.211 169.17 400.688 168.796 400.016C168.434 399.333 168.252 398.539 168.252 397.632C168.252 396.725 168.434 395.931 168.796 395.248C169.159 394.565 169.666 394.043 170.316 393.68C170.967 393.317 171.708 393.136 172.54 393.136C173.372 393.136 174.098 393.317 174.716 393.68C175.346 394.043 175.826 394.533 176.156 395.152C176.498 395.76 176.668 396.437 176.668 397.184ZM175.532 397.152C175.543 396.501 175.41 395.947 175.132 395.488C174.866 395.029 174.498 394.683 174.028 394.448C173.559 394.213 173.047 394.096 172.492 394.096C171.66 394.096 170.951 394.363 170.364 394.896C169.778 395.429 169.452 396.181 169.388 397.152H175.532ZM179.838 394.816C180.083 394.272 180.456 393.851 180.958 393.552C181.47 393.253 182.094 393.104 182.83 393.104V394.272H182.526C181.715 394.272 181.064 394.491 180.574 394.928C180.083 395.365 179.838 396.096 179.838 397.12V402H178.718V393.264H179.838V394.816ZM193.378 390.816L189.138 402H187.858L183.618 390.816H184.834L188.498 400.784L192.194 390.816H193.378ZM202.213 394.032C202.213 394.992 201.899 395.765 201.269 396.352C200.64 396.939 199.696 397.232 198.437 397.232H196.181V402H195.061V390.816H198.437C199.685 390.816 200.624 391.109 201.253 391.696C201.893 392.283 202.213 393.061 202.213 394.032ZM198.437 396.272C200.187 396.272 201.061 395.525 201.061 394.032C201.061 393.285 200.853 392.72 200.437 392.336C200.021 391.952 199.355 391.76 198.437 391.76H196.181V396.272H198.437ZM212.525 402H211.405L205.213 392.592V402H204.093V390.816H205.213L211.405 400.208V390.816H212.525V402ZM222.46 402.128C221.457 402.128 220.636 401.899 219.996 401.44C219.367 400.971 219.015 400.336 218.94 399.536H220.092C220.145 400.027 220.375 400.427 220.78 400.736C221.196 401.035 221.751 401.184 222.444 401.184C223.052 401.184 223.527 401.04 223.868 400.752C224.22 400.464 224.396 400.107 224.396 399.68C224.396 399.381 224.3 399.136 224.108 398.944C223.916 398.752 223.671 398.603 223.372 398.496C223.084 398.379 222.689 398.256 222.188 398.128C221.537 397.957 221.009 397.787 220.604 397.616C220.199 397.445 219.852 397.195 219.564 396.864C219.287 396.523 219.148 396.069 219.148 395.504C219.148 395.077 219.276 394.683 219.532 394.32C219.788 393.957 220.151 393.669 220.62 393.456C221.089 393.243 221.623 393.136 222.22 393.136C223.159 393.136 223.916 393.376 224.492 393.856C225.068 394.325 225.377 394.976 225.42 395.808H224.3C224.268 395.296 224.065 394.885 223.692 394.576C223.329 394.256 222.828 394.096 222.188 394.096C221.623 394.096 221.164 394.229 220.812 394.496C220.46 394.763 220.284 395.093 220.284 395.488C220.284 395.829 220.385 396.112 220.588 396.336C220.801 396.549 221.063 396.72 221.372 396.848C221.681 396.965 222.097 397.099 222.62 397.248C223.249 397.419 223.751 397.584 224.124 397.744C224.497 397.904 224.817 398.139 225.084 398.448C225.351 398.757 225.489 399.168 225.5 399.68C225.5 400.149 225.372 400.571 225.116 400.944C224.86 401.307 224.503 401.595 224.044 401.808C223.585 402.021 223.057 402.128 222.46 402.128ZM235.176 393.264V402H234.056V400.464C233.8 401.008 233.405 401.424 232.872 401.712C232.339 402 231.741 402.144 231.08 402.144C230.035 402.144 229.181 401.824 228.52 401.184C227.859 400.533 227.528 399.595 227.528 398.368V393.264H228.632V398.24C228.632 399.189 228.867 399.915 229.336 400.416C229.816 400.917 230.467 401.168 231.288 401.168C232.131 401.168 232.803 400.901 233.304 400.368C233.805 399.835 234.056 399.051 234.056 398.016V393.264H235.176ZM238.837 395.2C239.125 394.592 239.568 394.096 240.165 393.712C240.773 393.328 241.488 393.136 242.309 393.136C243.109 393.136 243.824 393.323 244.453 393.696C245.082 394.059 245.573 394.581 245.925 395.264C246.288 395.936 246.469 396.72 246.469 397.616C246.469 398.512 246.288 399.301 245.925 399.984C245.573 400.667 245.077 401.195 244.437 401.568C243.808 401.941 243.098 402.128 242.309 402.128C241.477 402.128 240.757 401.941 240.149 401.568C239.552 401.184 239.114 400.688 238.837 400.08V402H237.733V390.16H238.837V395.2ZM245.333 397.616C245.333 396.891 245.189 396.267 244.901 395.744C244.624 395.211 244.24 394.805 243.749 394.528C243.258 394.251 242.704 394.112 242.085 394.112C241.488 394.112 240.938 394.256 240.437 394.544C239.946 394.832 239.557 395.243 239.269 395.776C238.981 396.309 238.837 396.928 238.837 397.632C238.837 398.336 238.981 398.955 239.269 399.488C239.557 400.021 239.946 400.432 240.437 400.72C240.938 401.008 241.488 401.152 242.085 401.152C242.704 401.152 243.258 401.013 243.749 400.736C244.24 400.448 244.624 400.037 244.901 399.504C245.189 398.96 245.333 398.331 245.333 397.616ZM251.538 402.128C250.535 402.128 249.714 401.899 249.074 401.44C248.445 400.971 248.093 400.336 248.018 399.536H249.17C249.223 400.027 249.453 400.427 249.858 400.736C250.274 401.035 250.829 401.184 251.522 401.184C252.13 401.184 252.605 401.04 252.946 400.752C253.298 400.464 253.474 400.107 253.474 399.68C253.474 399.381 253.378 399.136 253.186 398.944C252.994 398.752 252.749 398.603 252.45 398.496C252.162 398.379 251.767 398.256 251.266 398.128C250.615 397.957 250.087 397.787 249.682 397.616C249.277 397.445 248.93 397.195 248.642 396.864C248.365 396.523 248.226 396.069 248.226 395.504C248.226 395.077 248.354 394.683 248.61 394.32C248.866 393.957 249.229 393.669 249.698 393.456C250.167 393.243 250.701 393.136 251.298 393.136C252.237 393.136 252.994 393.376 253.57 393.856C254.146 394.325 254.455 394.976 254.498 395.808H253.378C253.346 395.296 253.143 394.885 252.77 394.576C252.407 394.256 251.906 394.096 251.266 394.096C250.701 394.096 250.242 394.229 249.89 394.496C249.538 394.763 249.362 395.093 249.362 395.488C249.362 395.829 249.463 396.112 249.666 396.336C249.879 396.549 250.141 396.72 250.45 396.848C250.759 396.965 251.175 397.099 251.698 397.248C252.327 397.419 252.829 397.584 253.202 397.744C253.575 397.904 253.895 398.139 254.162 398.448C254.429 398.757 254.567 399.168 254.578 399.68C254.578 400.149 254.45 400.571 254.194 400.944C253.938 401.307 253.581 401.595 253.122 401.808C252.663 402.021 252.135 402.128 251.538 402.128ZM256.174 397.632C256.174 396.725 256.356 395.936 256.718 395.264C257.081 394.581 257.582 394.059 258.222 393.696C258.862 393.323 259.593 393.136 260.414 393.136C261.492 393.136 262.377 393.403 263.07 393.936C263.774 394.469 264.228 395.195 264.43 396.112H263.23C263.081 395.483 262.756 394.992 262.254 394.64C261.764 394.277 261.15 394.096 260.414 394.096C259.828 394.096 259.3 394.229 258.83 394.496C258.361 394.763 257.988 395.163 257.71 395.696C257.444 396.219 257.31 396.864 257.31 397.632C257.31 398.4 257.444 399.051 257.71 399.584C257.988 400.117 258.361 400.517 258.83 400.784C259.3 401.051 259.828 401.184 260.414 401.184C261.15 401.184 261.764 401.008 262.254 400.656C262.756 400.293 263.081 399.792 263.23 399.152H264.43C264.228 400.048 263.774 400.768 263.07 401.312C262.366 401.856 261.481 402.128 260.414 402.128C259.593 402.128 258.862 401.947 258.222 401.584C257.582 401.211 257.081 400.688 256.718 400.016C256.356 399.333 256.174 398.539 256.174 397.632ZM267.619 394.816C267.864 394.272 268.237 393.851 268.739 393.552C269.251 393.253 269.875 393.104 270.611 393.104V394.272H270.307C269.496 394.272 268.845 394.491 268.355 394.928C267.864 395.365 267.619 396.096 267.619 397.12V402H266.499V393.264H267.619V394.816ZM272.856 391.616C272.632 391.616 272.44 391.536 272.28 391.376C272.12 391.216 272.04 391.019 272.04 390.784C272.04 390.549 272.12 390.357 272.28 390.208C272.44 390.048 272.632 389.968 272.856 389.968C273.08 389.968 273.272 390.048 273.432 390.208C273.592 390.357 273.672 390.549 273.672 390.784C273.672 391.019 273.592 391.216 273.432 391.376C273.272 391.536 273.08 391.616 272.856 391.616ZM273.416 393.264V402H272.296V393.264H273.416ZM277.056 395.184C277.333 394.597 277.771 394.112 278.368 393.728C278.976 393.333 279.696 393.136 280.528 393.136C281.317 393.136 282.027 393.323 282.656 393.696C283.296 394.059 283.792 394.581 284.144 395.264C284.507 395.936 284.688 396.72 284.688 397.616C284.688 398.512 284.507 399.301 284.144 399.984C283.792 400.667 283.296 401.195 282.656 401.568C282.027 401.941 281.317 402.128 280.528 402.128C279.707 402.128 278.992 401.936 278.384 401.552C277.776 401.157 277.333 400.667 277.056 400.08V406.128H275.952V393.264H277.056V395.184ZM283.552 397.616C283.552 396.891 283.408 396.267 283.12 395.744C282.843 395.211 282.459 394.805 281.968 394.528C281.477 394.251 280.923 394.112 280.304 394.112C279.707 394.112 279.157 394.256 278.656 394.544C278.165 394.832 277.776 395.243 277.488 395.776C277.2 396.309 277.056 396.928 277.056 397.632C277.056 398.336 277.2 398.955 277.488 399.488C277.776 400.021 278.165 400.432 278.656 400.72C279.157 401.008 279.707 401.152 280.304 401.152C280.923 401.152 281.477 401.013 281.968 400.736C282.459 400.448 282.843 400.037 283.12 399.504C283.408 398.96 283.552 398.331 283.552 397.616ZM288.205 394.208V399.632C288.205 400.165 288.306 400.533 288.509 400.736C288.711 400.939 289.069 401.04 289.581 401.04H290.605V402H289.405C288.615 402 288.029 401.819 287.645 401.456C287.261 401.083 287.069 400.475 287.069 399.632V394.208H285.853V393.264H287.069V391.072H288.205V393.264H290.605V394.208H288.205ZM293.012 391.616C292.788 391.616 292.596 391.536 292.436 391.376C292.276 391.216 292.196 391.019 292.196 390.784C292.196 390.549 292.276 390.357 292.436 390.208C292.596 390.048 292.788 389.968 293.012 389.968C293.236 389.968 293.428 390.048 293.588 390.208C293.748 390.357 293.828 390.549 293.828 390.784C293.828 391.019 293.748 391.216 293.588 391.376C293.428 391.536 293.236 391.616 293.012 391.616ZM293.572 393.264V402H292.452V393.264H293.572ZM299.932 402.128C299.111 402.128 298.369 401.947 297.708 401.584C297.057 401.211 296.54 400.688 296.156 400.016C295.783 399.333 295.596 398.539 295.596 397.632C295.596 396.725 295.788 395.936 296.172 395.264C296.556 394.581 297.079 394.059 297.74 393.696C298.401 393.323 299.143 393.136 299.964 393.136C300.785 393.136 301.527 393.323 302.188 393.696C302.86 394.059 303.383 394.581 303.756 395.264C304.14 395.936 304.332 396.725 304.332 397.632C304.332 398.528 304.14 399.317 303.756 400C303.372 400.683 302.844 401.211 302.172 401.584C301.5 401.947 300.753 402.128 299.932 402.128ZM299.932 401.152C300.508 401.152 301.041 401.024 301.532 400.768C302.023 400.501 302.417 400.107 302.716 399.584C303.025 399.051 303.18 398.4 303.18 397.632C303.18 396.864 303.031 396.219 302.732 395.696C302.433 395.163 302.039 394.768 301.548 394.512C301.057 394.245 300.524 394.112 299.948 394.112C299.372 394.112 298.839 394.245 298.348 394.512C297.857 394.768 297.463 395.163 297.164 395.696C296.876 396.219 296.732 396.864 296.732 397.632C296.732 398.4 296.876 399.051 297.164 399.584C297.463 400.107 297.852 400.501 298.332 400.768C298.823 401.024 299.356 401.152 299.932 401.152ZM310.47 393.104C311.515 393.104 312.368 393.429 313.03 394.08C313.691 394.72 314.022 395.653 314.022 396.88V402H312.918V397.008C312.918 396.059 312.678 395.333 312.198 394.832C311.728 394.331 311.083 394.08 310.262 394.08C309.419 394.08 308.747 394.347 308.246 394.88C307.744 395.413 307.494 396.197 307.494 397.232V402H306.374V393.264H307.494V394.752C307.771 394.219 308.171 393.813 308.694 393.536C309.216 393.248 309.808 393.104 310.47 393.104ZM332.409 393.264L329.673 402H328.553L326.137 394.672L323.721 402H322.585L319.849 393.264H320.985L323.161 400.864L325.609 393.264H326.729L329.145 400.88L331.305 393.264H332.409ZM337.76 402.128C336.939 402.128 336.198 401.947 335.536 401.584C334.886 401.211 334.368 400.688 333.984 400.016C333.611 399.333 333.424 398.539 333.424 397.632C333.424 396.725 333.616 395.936 334 395.264C334.384 394.581 334.907 394.059 335.568 393.696C336.23 393.323 336.971 393.136 337.792 393.136C338.614 393.136 339.355 393.323 340.016 393.696C340.688 394.059 341.211 394.581 341.584 395.264C341.968 395.936 342.16 396.725 342.16 397.632C342.16 398.528 341.968 399.317 341.584 400C341.2 400.683 340.672 401.211 340 401.584C339.328 401.947 338.582 402.128 337.76 402.128ZM337.76 401.152C338.336 401.152 338.87 401.024 339.36 400.768C339.851 400.501 340.246 400.107 340.544 399.584C340.854 399.051 341.008 398.4 341.008 397.632C341.008 396.864 340.859 396.219 340.56 395.696C340.262 395.163 339.867 394.768 339.376 394.512C338.886 394.245 338.352 394.112 337.776 394.112C337.2 394.112 336.667 394.245 336.176 394.512C335.686 394.768 335.291 395.163 334.992 395.696C334.704 396.219 334.56 396.864 334.56 397.632C334.56 398.4 334.704 399.051 334.992 399.584C335.291 400.107 335.68 400.501 336.16 400.768C336.651 401.024 337.184 401.152 337.76 401.152ZM345.322 394.816C345.567 394.272 345.941 393.851 346.442 393.552C346.954 393.253 347.578 393.104 348.314 393.104V394.272H348.01C347.199 394.272 346.549 394.491 346.058 394.928C345.567 395.365 345.322 396.096 345.322 397.12V402H344.202V393.264H345.322V394.816ZM354.719 402L351.119 398.08V402H349.999V390.16H351.119V397.168L354.639 393.264H356.207L352.063 397.616L356.239 402H354.719ZM360.694 402.128C359.692 402.128 358.87 401.899 358.23 401.44C357.601 400.971 357.249 400.336 357.174 399.536H358.326C358.38 400.027 358.609 400.427 359.014 400.736C359.43 401.035 359.985 401.184 360.678 401.184C361.286 401.184 361.761 401.04 362.102 400.752C362.454 400.464 362.63 400.107 362.63 399.68C362.63 399.381 362.534 399.136 362.342 398.944C362.15 398.752 361.905 398.603 361.606 398.496C361.318 398.379 360.924 398.256 360.422 398.128C359.772 397.957 359.244 397.787 358.838 397.616C358.433 397.445 358.086 397.195 357.798 396.864C357.521 396.523 357.382 396.069 357.382 395.504C357.382 395.077 357.51 394.683 357.766 394.32C358.022 393.957 358.385 393.669 358.854 393.456C359.324 393.243 359.857 393.136 360.454 393.136C361.393 393.136 362.15 393.376 362.726 393.856C363.302 394.325 363.612 394.976 363.654 395.808H362.534C362.502 395.296 362.3 394.885 361.926 394.576C361.564 394.256 361.062 394.096 360.422 394.096C359.857 394.096 359.398 394.229 359.046 394.496C358.694 394.763 358.518 395.093 358.518 395.488C358.518 395.829 358.62 396.112 358.822 396.336C359.036 396.549 359.297 396.72 359.606 396.848C359.916 396.965 360.332 397.099 360.854 397.248C361.484 397.419 361.985 397.584 362.358 397.744C362.732 397.904 363.052 398.139 363.318 398.448C363.585 398.757 363.724 399.168 363.734 399.68C363.734 400.149 363.606 400.571 363.35 400.944C363.094 401.307 362.737 401.595 362.278 401.808C361.82 402.021 361.292 402.128 360.694 402.128ZM373.241 402.128C372.238 402.128 371.417 401.899 370.777 401.44C370.148 400.971 369.796 400.336 369.721 399.536H370.873C370.926 400.027 371.156 400.427 371.561 400.736C371.977 401.035 372.532 401.184 373.225 401.184C373.833 401.184 374.308 401.04 374.649 400.752C375.001 400.464 375.177 400.107 375.177 399.68C375.177 399.381 375.081 399.136 374.889 398.944C374.697 398.752 374.452 398.603 374.153 398.496C373.865 398.379 373.47 398.256 372.969 398.128C372.318 397.957 371.79 397.787 371.385 397.616C370.98 397.445 370.633 397.195 370.345 396.864C370.068 396.523 369.929 396.069 369.929 395.504C369.929 395.077 370.057 394.683 370.313 394.32C370.569 393.957 370.932 393.669 371.401 393.456C371.87 393.243 372.404 393.136 373.001 393.136C373.94 393.136 374.697 393.376 375.273 393.856C375.849 394.325 376.158 394.976 376.201 395.808H375.081C375.049 395.296 374.846 394.885 374.473 394.576C374.11 394.256 373.609 394.096 372.969 394.096C372.404 394.096 371.945 394.229 371.593 394.496C371.241 394.763 371.065 395.093 371.065 395.488C371.065 395.829 371.166 396.112 371.369 396.336C371.582 396.549 371.844 396.72 372.153 396.848C372.462 396.965 372.878 397.099 373.401 397.248C374.03 397.419 374.532 397.584 374.905 397.744C375.278 397.904 375.598 398.139 375.865 398.448C376.132 398.757 376.27 399.168 376.281 399.68C376.281 400.149 376.153 400.571 375.897 400.944C375.641 401.307 375.284 401.595 374.825 401.808C374.366 402.021 373.838 402.128 373.241 402.128ZM378.949 391.616C378.725 391.616 378.533 391.536 378.373 391.376C378.213 391.216 378.133 391.019 378.133 390.784C378.133 390.549 378.213 390.357 378.373 390.208C378.533 390.048 378.725 389.968 378.949 389.968C379.173 389.968 379.365 390.048 379.525 390.208C379.685 390.357 379.765 390.549 379.765 390.784C379.765 391.019 379.685 391.216 379.525 391.376C379.365 391.536 379.173 391.616 378.949 391.616ZM379.509 393.264V402H378.389V393.264H379.509ZM392.446 393.104C393.47 393.104 394.302 393.429 394.942 394.08C395.592 394.72 395.918 395.653 395.918 396.88V402H394.814V397.008C394.814 396.059 394.584 395.333 394.126 394.832C393.667 394.331 393.043 394.08 392.254 394.08C391.432 394.08 390.776 394.352 390.286 394.896C389.795 395.44 389.55 396.229 389.55 397.264V402H388.446V397.008C388.446 396.059 388.216 395.333 387.758 394.832C387.299 394.331 386.67 394.08 385.87 394.08C385.048 394.08 384.392 394.352 383.902 394.896C383.411 395.44 383.166 396.229 383.166 397.264V402H382.046V393.264H383.166V394.768C383.443 394.224 383.838 393.813 384.35 393.536C384.862 393.248 385.432 393.104 386.062 393.104C386.819 393.104 387.48 393.285 388.046 393.648C388.622 394.011 389.038 394.544 389.294 395.248C389.528 394.555 389.928 394.027 390.494 393.664C391.07 393.291 391.72 393.104 392.446 393.104ZM405.973 393.264V402H404.853V400.464C404.597 401.008 404.202 401.424 403.669 401.712C403.136 402 402.538 402.144 401.877 402.144C400.832 402.144 399.978 401.824 399.317 401.184C398.656 400.533 398.325 399.595 398.325 398.368V393.264H399.429V398.24C399.429 399.189 399.664 399.915 400.133 400.416C400.613 400.917 401.264 401.168 402.085 401.168C402.928 401.168 403.6 400.901 404.101 400.368C404.602 399.835 404.853 399.051 404.853 398.016V393.264H405.973ZM409.65 390.16V402H408.53V390.16H409.65ZM413.642 394.208V399.632C413.642 400.165 413.744 400.533 413.946 400.736C414.149 400.939 414.506 401.04 415.018 401.04H416.042V402H414.842C414.053 402 413.466 401.819 413.082 401.456C412.698 401.083 412.506 400.475 412.506 399.632V394.208H411.29V393.264H412.506V391.072H413.642V393.264H416.042V394.208H413.642ZM417.377 397.616C417.377 396.72 417.553 395.936 417.905 395.264C418.268 394.581 418.764 394.059 419.393 393.696C420.033 393.323 420.753 393.136 421.553 393.136C422.385 393.136 423.1 393.328 423.697 393.712C424.305 394.096 424.743 394.587 425.009 395.184V393.264H426.129V402H425.009V400.064C424.732 400.661 424.289 401.157 423.681 401.552C423.084 401.936 422.369 402.128 421.537 402.128C420.748 402.128 420.033 401.941 419.393 401.568C418.764 401.195 418.268 400.667 417.905 399.984C417.553 399.301 417.377 398.512 417.377 397.616ZM425.009 397.632C425.009 396.928 424.865 396.309 424.577 395.776C424.289 395.243 423.895 394.832 423.393 394.544C422.903 394.256 422.359 394.112 421.761 394.112C421.143 394.112 420.588 394.251 420.097 394.528C419.607 394.805 419.217 395.211 418.929 395.744C418.652 396.267 418.513 396.891 418.513 397.616C418.513 398.331 418.652 398.96 418.929 399.504C419.217 400.037 419.607 400.448 420.097 400.736C420.588 401.013 421.143 401.152 421.761 401.152C422.359 401.152 422.903 401.008 423.393 400.72C423.895 400.432 424.289 400.021 424.577 399.488C424.865 398.955 425.009 398.336 425.009 397.632ZM432.782 393.104C433.828 393.104 434.681 393.429 435.342 394.08C436.004 394.72 436.334 395.653 436.334 396.88V402H435.23V397.008C435.23 396.059 434.99 395.333 434.51 394.832C434.041 394.331 433.396 394.08 432.574 394.08C431.732 394.08 431.06 394.347 430.558 394.88C430.057 395.413 429.806 396.197 429.806 397.232V402H428.686V393.264H429.806V394.752C430.084 394.219 430.484 393.813 431.006 393.536C431.529 393.248 432.121 393.104 432.782 393.104ZM446.715 397.184C446.715 397.568 446.705 397.861 446.683 398.064H439.435C439.467 398.725 439.627 399.291 439.915 399.76C440.203 400.229 440.582 400.587 441.051 400.832C441.521 401.067 442.033 401.184 442.587 401.184C443.313 401.184 443.921 401.008 444.411 400.656C444.913 400.304 445.243 399.829 445.403 399.232H446.587C446.374 400.085 445.915 400.784 445.211 401.328C444.518 401.861 443.643 402.128 442.587 402.128C441.766 402.128 441.03 401.947 440.379 401.584C439.729 401.211 439.217 400.688 438.843 400.016C438.481 399.333 438.299 398.539 438.299 397.632C438.299 396.725 438.481 395.931 438.843 395.248C439.206 394.565 439.713 394.043 440.363 393.68C441.014 393.317 441.755 393.136 442.587 393.136C443.419 393.136 444.145 393.317 444.763 393.68C445.393 394.043 445.873 394.533 446.203 395.152C446.545 395.76 446.715 396.437 446.715 397.184ZM445.579 397.152C445.59 396.501 445.457 395.947 445.179 395.488C444.913 395.029 444.545 394.683 444.075 394.448C443.606 394.213 443.094 394.096 442.539 394.096C441.707 394.096 440.998 394.363 440.411 394.896C439.825 395.429 439.499 396.181 439.435 397.152H445.579ZM452.588 402.128C451.767 402.128 451.026 401.947 450.364 401.584C449.714 401.211 449.196 400.688 448.812 400.016C448.439 399.333 448.252 398.539 448.252 397.632C448.252 396.725 448.444 395.936 448.828 395.264C449.212 394.581 449.735 394.059 450.396 393.696C451.058 393.323 451.799 393.136 452.62 393.136C453.442 393.136 454.183 393.323 454.844 393.696C455.516 394.059 456.039 394.581 456.412 395.264C456.796 395.936 456.988 396.725 456.988 397.632C456.988 398.528 456.796 399.317 456.412 400C456.028 400.683 455.5 401.211 454.828 401.584C454.156 401.947 453.41 402.128 452.588 402.128ZM452.588 401.152C453.164 401.152 453.698 401.024 454.188 400.768C454.679 400.501 455.074 400.107 455.372 399.584C455.682 399.051 455.836 398.4 455.836 397.632C455.836 396.864 455.687 396.219 455.388 395.696C455.09 395.163 454.695 394.768 454.204 394.512C453.714 394.245 453.18 394.112 452.604 394.112C452.028 394.112 451.495 394.245 451.004 394.512C450.514 394.768 450.119 395.163 449.82 395.696C449.532 396.219 449.388 396.864 449.388 397.632C449.388 398.4 449.532 399.051 449.82 399.584C450.119 400.107 450.508 400.501 450.988 400.768C451.479 401.024 452.012 401.152 452.588 401.152ZM466.598 393.264V402H465.478V400.464C465.222 401.008 464.827 401.424 464.294 401.712C463.761 402 463.163 402.144 462.502 402.144C461.457 402.144 460.603 401.824 459.942 401.184C459.281 400.533 458.95 399.595 458.95 398.368V393.264H460.054V398.24C460.054 399.189 460.289 399.915 460.758 400.416C461.238 400.917 461.889 401.168 462.71 401.168C463.553 401.168 464.225 400.901 464.726 400.368C465.227 399.835 465.478 399.051 465.478 398.016V393.264H466.598ZM472.163 402.128C471.16 402.128 470.339 401.899 469.699 401.44C469.07 400.971 468.718 400.336 468.643 399.536H469.795C469.848 400.027 470.078 400.427 470.483 400.736C470.899 401.035 471.454 401.184 472.147 401.184C472.755 401.184 473.23 401.04 473.571 400.752C473.923 400.464 474.099 400.107 474.099 399.68C474.099 399.381 474.003 399.136 473.811 398.944C473.619 398.752 473.374 398.603 473.075 398.496C472.787 398.379 472.392 398.256 471.891 398.128C471.24 397.957 470.712 397.787 470.307 397.616C469.902 397.445 469.555 397.195 469.267 396.864C468.99 396.523 468.851 396.069 468.851 395.504C468.851 395.077 468.979 394.683 469.235 394.32C469.491 393.957 469.854 393.669 470.323 393.456C470.792 393.243 471.326 393.136 471.923 393.136C472.862 393.136 473.619 393.376 474.195 393.856C474.771 394.325 475.08 394.976 475.123 395.808H474.003C473.971 395.296 473.768 394.885 473.395 394.576C473.032 394.256 472.531 394.096 471.891 394.096C471.326 394.096 470.867 394.229 470.515 394.496C470.163 394.763 469.987 395.093 469.987 395.488C469.987 395.829 470.088 396.112 470.291 396.336C470.504 396.549 470.766 396.72 471.075 396.848C471.384 396.965 471.8 397.099 472.323 397.248C472.952 397.419 473.454 397.584 473.827 397.744C474.2 397.904 474.52 398.139 474.787 398.448C475.054 398.757 475.192 399.168 475.203 399.68C475.203 400.149 475.075 400.571 474.819 400.944C474.563 401.307 474.206 401.595 473.747 401.808C473.288 402.021 472.76 402.128 472.163 402.128ZM478.431 390.16V402H477.311V390.16H478.431ZM488.168 393.264L482.984 406.112H481.816L483.512 401.952L479.928 393.264H481.16L484.136 400.72L487.016 393.264H488.168ZM497.901 402.128C497.08 402.128 496.338 401.947 495.677 401.584C495.026 401.211 494.509 400.688 494.125 400.016C493.752 399.333 493.565 398.539 493.565 397.632C493.565 396.725 493.757 395.936 494.141 395.264C494.525 394.581 495.048 394.059 495.709 393.696C496.37 393.323 497.112 393.136 497.933 393.136C498.754 393.136 499.496 393.323 500.157 393.696C500.829 394.059 501.352 394.581 501.725 395.264C502.109 395.936 502.301 396.725 502.301 397.632C502.301 398.528 502.109 399.317 501.725 400C501.341 400.683 500.813 401.211 500.141 401.584C499.469 401.947 498.722 402.128 497.901 402.128ZM497.901 401.152C498.477 401.152 499.01 401.024 499.501 400.768C499.992 400.501 500.386 400.107 500.685 399.584C500.994 399.051 501.149 398.4 501.149 397.632C501.149 396.864 501 396.219 500.701 395.696C500.402 395.163 500.008 394.768 499.517 394.512C499.026 394.245 498.493 394.112 497.917 394.112C497.341 394.112 496.808 394.245 496.317 394.512C495.826 394.768 495.432 395.163 495.133 395.696C494.845 396.219 494.701 396.864 494.701 397.632C494.701 398.4 494.845 399.051 495.133 399.584C495.432 400.107 495.821 400.501 496.301 400.768C496.792 401.024 497.325 401.152 497.901 401.152ZM508.439 393.104C509.484 393.104 510.337 393.429 510.999 394.08C511.66 394.72 511.991 395.653 511.991 396.88V402H510.887V397.008C510.887 396.059 510.647 395.333 510.167 394.832C509.697 394.331 509.052 394.08 508.231 394.08C507.388 394.08 506.716 394.347 506.215 394.88C505.713 395.413 505.463 396.197 505.463 397.232V402H504.343V393.264H505.463V394.752C505.74 394.219 506.14 393.813 506.663 393.536C507.185 393.248 507.777 393.104 508.439 393.104ZM529.258 393.104C530.282 393.104 531.114 393.429 531.754 394.08C532.405 394.72 532.73 395.653 532.73 396.88V402H531.626V397.008C531.626 396.059 531.397 395.333 530.938 394.832C530.479 394.331 529.855 394.08 529.066 394.08C528.245 394.08 527.589 394.352 527.098 394.896C526.607 395.44 526.362 396.229 526.362 397.264V402H525.258V397.008C525.258 396.059 525.029 395.333 524.57 394.832C524.111 394.331 523.482 394.08 522.682 394.08C521.861 394.08 521.205 394.352 520.714 394.896C520.223 395.44 519.978 396.229 519.978 397.264V402H518.858V393.264H519.978V394.768C520.255 394.224 520.65 393.813 521.162 393.536C521.674 393.248 522.245 393.104 522.874 393.104C523.631 393.104 524.293 393.285 524.858 393.648C525.434 394.011 525.85 394.544 526.106 395.248C526.341 394.555 526.741 394.027 527.306 393.664C527.882 393.291 528.533 393.104 529.258 393.104ZM542.786 393.264V402H541.666V400.464C541.41 401.008 541.015 401.424 540.482 401.712C539.948 402 539.351 402.144 538.69 402.144C537.644 402.144 536.791 401.824 536.13 401.184C535.468 400.533 535.138 399.595 535.138 398.368V393.264H536.242V398.24C536.242 399.189 536.476 399.915 536.946 400.416C537.426 400.917 538.076 401.168 538.898 401.168C539.74 401.168 540.412 400.901 540.914 400.368C541.415 399.835 541.666 399.051 541.666 398.016V393.264H542.786ZM546.463 390.16V402H545.343V390.16H546.463ZM550.455 394.208V399.632C550.455 400.165 550.556 400.533 550.759 400.736C550.961 400.939 551.319 401.04 551.831 401.04H552.855V402H551.655C550.865 402 550.279 401.819 549.895 401.456C549.511 401.083 549.319 400.475 549.319 399.632V394.208H548.103V393.264H549.319V391.072H550.455V393.264H552.855V394.208H550.455ZM555.262 391.616C555.038 391.616 554.846 391.536 554.686 391.376C554.526 391.216 554.446 391.019 554.446 390.784C554.446 390.549 554.526 390.357 554.686 390.208C554.846 390.048 555.038 389.968 555.262 389.968C555.486 389.968 555.678 390.048 555.838 390.208C555.998 390.357 556.078 390.549 556.078 390.784C556.078 391.019 555.998 391.216 555.838 391.376C555.678 391.536 555.486 391.616 555.262 391.616ZM555.822 393.264V402H554.702V393.264H555.822ZM559.462 395.184C559.739 394.597 560.177 394.112 560.774 393.728C561.382 393.333 562.102 393.136 562.934 393.136C563.723 393.136 564.433 393.323 565.062 393.696C565.702 394.059 566.198 394.581 566.55 395.264C566.913 395.936 567.094 396.72 567.094 397.616C567.094 398.512 566.913 399.301 566.55 399.984C566.198 400.667 565.702 401.195 565.062 401.568C564.433 401.941 563.723 402.128 562.934 402.128C562.113 402.128 561.398 401.936 560.79 401.552C560.182 401.157 559.739 400.667 559.462 400.08V406.128H558.358V393.264H559.462V395.184ZM565.958 397.616C565.958 396.891 565.814 396.267 565.526 395.744C565.249 395.211 564.865 394.805 564.374 394.528C563.883 394.251 563.329 394.112 562.71 394.112C562.113 394.112 561.563 394.256 561.062 394.544C560.571 394.832 560.182 395.243 559.894 395.776C559.606 396.309 559.462 396.928 559.462 397.632C559.462 398.336 559.606 398.955 559.894 399.488C560.182 400.021 560.571 400.432 561.062 400.72C561.563 401.008 562.113 401.152 562.71 401.152C563.329 401.152 563.883 401.013 564.374 400.736C564.865 400.448 565.249 400.037 565.526 399.504C565.814 398.96 565.958 398.331 565.958 397.616ZM570.275 390.16V402H569.155V390.16H570.275ZM580.715 397.184C580.715 397.568 580.705 397.861 580.683 398.064H573.435C573.467 398.725 573.627 399.291 573.915 399.76C574.203 400.229 574.582 400.587 575.051 400.832C575.521 401.067 576.033 401.184 576.587 401.184C577.313 401.184 577.921 401.008 578.411 400.656C578.913 400.304 579.243 399.829 579.403 399.232H580.587C580.374 400.085 579.915 400.784 579.211 401.328C578.518 401.861 577.643 402.128 576.587 402.128C575.766 402.128 575.03 401.947 574.379 401.584C573.729 401.211 573.217 400.688 572.843 400.016C572.481 399.333 572.299 398.539 572.299 397.632C572.299 396.725 572.481 395.931 572.843 395.248C573.206 394.565 573.713 394.043 574.363 393.68C575.014 393.317 575.755 393.136 576.587 393.136C577.419 393.136 578.145 393.317 578.763 393.68C579.393 394.043 579.873 394.533 580.203 395.152C580.545 395.76 580.715 396.437 580.715 397.184ZM579.579 397.152C579.59 396.501 579.457 395.947 579.179 395.488C578.913 395.029 578.545 394.683 578.075 394.448C577.606 394.213 577.094 394.096 576.539 394.096C575.707 394.096 574.998 394.363 574.411 394.896C573.825 395.429 573.499 396.181 573.435 397.152H579.579ZM586.643 397.616C586.643 396.72 586.824 395.936 587.187 395.264C587.55 394.581 588.046 394.059 588.675 393.696C589.315 393.323 590.035 393.136 590.835 393.136C591.603 393.136 592.296 393.323 592.915 393.696C593.534 394.069 593.987 394.555 594.275 395.152V390.16H595.395V402H594.275V400.048C594.008 400.656 593.571 401.157 592.963 401.552C592.355 401.936 591.64 402.128 590.819 402.128C590.019 402.128 589.299 401.941 588.659 401.568C588.03 401.195 587.534 400.667 587.171 399.984C586.819 399.301 586.643 398.512 586.643 397.616ZM594.275 397.632C594.275 396.928 594.131 396.309 593.843 395.776C593.555 395.243 593.16 394.832 592.659 394.544C592.168 394.256 591.624 394.112 591.027 394.112C590.408 394.112 589.854 394.251 589.363 394.528C588.872 394.805 588.483 395.211 588.195 395.744C587.918 396.267 587.779 396.891 587.779 397.616C587.779 398.331 587.918 398.96 588.195 399.504C588.483 400.037 588.872 400.448 589.363 400.736C589.854 401.013 590.408 401.152 591.027 401.152C591.624 401.152 592.168 401.008 592.659 400.72C593.16 400.432 593.555 400.021 593.843 399.488C594.131 398.955 594.275 398.336 594.275 397.632ZM605.856 397.184C605.856 397.568 605.845 397.861 605.824 398.064H598.576C598.608 398.725 598.768 399.291 599.056 399.76C599.344 400.229 599.723 400.587 600.192 400.832C600.661 401.067 601.173 401.184 601.728 401.184C602.453 401.184 603.061 401.008 603.552 400.656C604.053 400.304 604.384 399.829 604.544 399.232H605.728C605.515 400.085 605.056 400.784 604.352 401.328C603.659 401.861 602.784 402.128 601.728 402.128C600.907 402.128 600.171 401.947 599.52 401.584C598.869 401.211 598.357 400.688 597.984 400.016C597.621 399.333 597.44 398.539 597.44 397.632C597.44 396.725 597.621 395.931 597.984 395.248C598.347 394.565 598.853 394.043 599.504 393.68C600.155 393.317 600.896 393.136 601.728 393.136C602.56 393.136 603.285 393.317 603.904 393.68C604.533 394.043 605.013 394.533 605.344 395.152C605.685 395.76 605.856 396.437 605.856 397.184ZM604.72 397.152C604.731 396.501 604.597 395.947 604.32 395.488C604.053 395.029 603.685 394.683 603.216 394.448C602.747 394.213 602.235 394.096 601.68 394.096C600.848 394.096 600.139 394.363 599.552 394.896C598.965 395.429 598.64 396.181 598.576 397.152H604.72ZM611.009 400.912L613.953 393.264H615.137L611.633 402H610.369L606.865 393.264H608.065L611.009 400.912ZM617.215 391.616C616.991 391.616 616.799 391.536 616.639 391.376C616.479 391.216 616.399 391.019 616.399 390.784C616.399 390.549 616.479 390.357 616.639 390.208C616.799 390.048 616.991 389.968 617.215 389.968C617.439 389.968 617.631 390.048 617.791 390.208C617.951 390.357 618.031 390.549 618.031 390.784C618.031 391.019 617.951 391.216 617.791 391.376C617.631 391.536 617.439 391.616 617.215 391.616ZM617.775 393.264V402H616.655V393.264H617.775ZM619.799 397.632C619.799 396.725 619.981 395.936 620.343 395.264C620.706 394.581 621.207 394.059 621.847 393.696C622.487 393.323 623.218 393.136 624.039 393.136C625.117 393.136 626.002 393.403 626.695 393.936C627.399 394.469 627.853 395.195 628.055 396.112H626.855C626.706 395.483 626.381 394.992 625.879 394.64C625.389 394.277 624.775 394.096 624.039 394.096C623.453 394.096 622.925 394.229 622.455 394.496C621.986 394.763 621.613 395.163 621.335 395.696C621.069 396.219 620.935 396.864 620.935 397.632C620.935 398.4 621.069 399.051 621.335 399.584C621.613 400.117 621.986 400.517 622.455 400.784C622.925 401.051 623.453 401.184 624.039 401.184C624.775 401.184 625.389 401.008 625.879 400.656C626.381 400.293 626.706 399.792 626.855 399.152H628.055C627.853 400.048 627.399 400.768 626.695 401.312C625.991 401.856 625.106 402.128 624.039 402.128C623.218 402.128 622.487 401.947 621.847 401.584C621.207 401.211 620.706 400.688 620.343 400.016C619.981 399.333 619.799 398.539 619.799 397.632ZM638.028 397.184C638.028 397.568 638.017 397.861 637.996 398.064H630.748C630.78 398.725 630.94 399.291 631.228 399.76C631.516 400.229 631.894 400.587 632.364 400.832C632.833 401.067 633.345 401.184 633.9 401.184C634.625 401.184 635.233 401.008 635.724 400.656C636.225 400.304 636.556 399.829 636.716 399.232H637.9C637.686 400.085 637.228 400.784 636.524 401.328C635.83 401.861 634.956 402.128 633.9 402.128C633.078 402.128 632.342 401.947 631.692 401.584C631.041 401.211 630.529 400.688 630.156 400.016C629.793 399.333 629.612 398.539 629.612 397.632C629.612 396.725 629.793 395.931 630.156 395.248C630.518 394.565 631.025 394.043 631.676 393.68C632.326 393.317 633.068 393.136 633.9 393.136C634.732 393.136 635.457 393.317 636.076 393.68C636.705 394.043 637.185 394.533 637.516 395.152C637.857 395.76 638.028 396.437 638.028 397.184ZM636.892 397.152C636.902 396.501 636.769 395.947 636.492 395.488C636.225 395.029 635.857 394.683 635.388 394.448C634.918 394.213 634.406 394.096 633.852 394.096C633.02 394.096 632.31 394.363 631.724 394.896C631.137 395.429 630.812 396.181 630.748 397.152H636.892ZM643.085 402.128C642.082 402.128 641.261 401.899 640.621 401.44C639.992 400.971 639.64 400.336 639.565 399.536H640.717C640.77 400.027 641 400.427 641.405 400.736C641.821 401.035 642.376 401.184 643.069 401.184C643.677 401.184 644.152 401.04 644.493 400.752C644.845 400.464 645.021 400.107 645.021 399.68C645.021 399.381 644.925 399.136 644.733 398.944C644.541 398.752 644.296 398.603 643.997 398.496C643.709 398.379 643.314 398.256 642.813 398.128C642.162 397.957 641.634 397.787 641.229 397.616C640.824 397.445 640.477 397.195 640.189 396.864C639.912 396.523 639.773 396.069 639.773 395.504C639.773 395.077 639.901 394.683 640.157 394.32C640.413 393.957 640.776 393.669 641.245 393.456C641.714 393.243 642.248 393.136 642.845 393.136C643.784 393.136 644.541 393.376 645.117 393.856C645.693 394.325 646.002 394.976 646.045 395.808H644.925C644.893 395.296 644.69 394.885 644.317 394.576C643.954 394.256 643.453 394.096 642.813 394.096C642.248 394.096 641.789 394.229 641.437 394.496C641.085 394.763 640.909 395.093 640.909 395.488C640.909 395.829 641.01 396.112 641.213 396.336C641.426 396.549 641.688 396.72 641.997 396.848C642.306 396.965 642.722 397.099 643.245 397.248C643.874 397.419 644.376 397.584 644.749 397.744C645.122 397.904 645.442 398.139 645.709 398.448C645.976 398.757 646.114 399.168 646.125 399.68C646.125 400.149 645.997 400.571 645.741 400.944C645.485 401.307 645.128 401.595 644.669 401.808C644.21 402.021 643.682 402.128 643.085 402.128ZM56.768 429.616C56.768 428.72 56.944 427.936 57.296 427.264C57.6587 426.581 58.1547 426.059 58.784 425.696C59.424 425.323 60.144 425.136 60.944 425.136C61.776 425.136 62.4907 425.328 63.088 425.712C63.696 426.096 64.1333 426.587 64.4 427.184V425.264H65.52V434H64.4V432.064C64.1227 432.661 63.68 433.157 63.072 433.552C62.4747 433.936 61.76 434.128 60.928 434.128C60.1387 434.128 59.424 433.941 58.784 433.568C58.1547 433.195 57.6587 432.667 57.296 431.984C56.944 431.301 56.768 430.512 56.768 429.616ZM64.4 429.632C64.4 428.928 64.256 428.309 63.968 427.776C63.68 427.243 63.2853 426.832 62.784 426.544C62.2933 426.256 61.7493 426.112 61.152 426.112C60.5333 426.112 59.9787 426.251 59.488 426.528C58.9973 426.805 58.608 427.211 58.32 427.744C58.0427 428.267 57.904 428.891 57.904 429.616C57.904 430.331 58.0427 430.96 58.32 431.504C58.608 432.037 58.9973 432.448 59.488 432.736C59.9787 433.013 60.5333 433.152 61.152 433.152C61.7493 433.152 62.2933 433.008 62.784 432.72C63.2853 432.432 63.68 432.021 63.968 431.488C64.256 430.955 64.4 430.336 64.4 429.632ZM72.1729 425.104C73.2182 425.104 74.0715 425.429 74.7329 426.08C75.3942 426.72 75.7249 427.653 75.7249 428.88V434H74.6209V429.008C74.6209 428.059 74.3809 427.333 73.9009 426.832C73.4315 426.331 72.7862 426.08 71.9649 426.08C71.1222 426.08 70.4502 426.347 69.9489 426.88C69.4475 427.413 69.1969 428.197 69.1969 429.232V434H68.0769V425.264H69.1969V426.752C69.4742 426.219 69.8742 425.813 70.3969 425.536C70.9195 425.248 71.5115 425.104 72.1729 425.104ZM77.6899 429.616C77.6899 428.72 77.8712 427.936 78.2339 427.264C78.5965 426.581 79.0925 426.059 79.7219 425.696C80.3619 425.323 81.0819 425.136 81.8819 425.136C82.6499 425.136 83.3432 425.323 83.9619 425.696C84.5805 426.069 85.0339 426.555 85.3219 427.152V422.16H86.4419V434H85.3219V432.048C85.0552 432.656 84.6179 433.157 84.0099 433.552C83.4019 433.936 82.6872 434.128 81.8659 434.128C81.0659 434.128 80.3459 433.941 79.7059 433.568C79.0765 433.195 78.5805 432.667 78.2179 431.984C77.8659 431.301 77.6899 430.512 77.6899 429.616ZM85.3219 429.632C85.3219 428.928 85.1779 428.309 84.8899 427.776C84.6019 427.243 84.2072 426.832 83.7059 426.544C83.2152 426.256 82.6712 426.112 82.0739 426.112C81.4552 426.112 80.9005 426.251 80.4099 426.528C79.9192 426.805 79.5299 427.211 79.2419 427.744C78.9645 428.267 78.8259 428.891 78.8259 429.616C78.8259 430.331 78.9645 430.96 79.2419 431.504C79.5299 432.037 79.9192 432.448 80.4099 432.736C80.9005 433.013 81.4552 433.152 82.0739 433.152C82.6712 433.152 83.2152 433.008 83.7059 432.72C84.2072 432.432 84.6019 432.021 84.8899 431.488C85.1779 430.955 85.3219 430.336 85.3219 429.632ZM94.4934 427.184C94.7707 426.597 95.208 426.112 95.8054 425.728C96.4134 425.333 97.1334 425.136 97.9654 425.136C98.7547 425.136 99.464 425.323 100.093 425.696C100.733 426.059 101.229 426.581 101.581 427.264C101.944 427.936 102.125 428.72 102.125 429.616C102.125 430.512 101.944 431.301 101.581 431.984C101.229 432.667 100.733 433.195 100.093 433.568C99.464 433.941 98.7547 434.128 97.9654 434.128C97.144 434.128 96.4294 433.936 95.8214 433.552C95.2134 433.157 94.7707 432.667 94.4934 432.08V438.128H93.3894V425.264H94.4934V427.184ZM100.989 429.616C100.989 428.891 100.845 428.267 100.557 427.744C100.28 427.211 99.896 426.805 99.4054 426.528C98.9147 426.251 98.36 426.112 97.7414 426.112C97.144 426.112 96.5947 426.256 96.0934 426.544C95.6027 426.832 95.2134 427.243 94.9254 427.776C94.6374 428.309 94.4934 428.928 94.4934 429.632C94.4934 430.336 94.6374 430.955 94.9254 431.488C95.2134 432.021 95.6027 432.432 96.0934 432.72C96.5947 433.008 97.144 433.152 97.7414 433.152C98.36 433.152 98.9147 433.013 99.4054 432.736C99.896 432.448 100.28 432.037 100.557 431.504C100.845 430.96 100.989 430.331 100.989 429.616ZM105.306 426.816C105.552 426.272 105.925 425.851 106.426 425.552C106.938 425.253 107.562 425.104 108.298 425.104V426.272H107.994C107.184 426.272 106.533 426.491 106.042 426.928C105.552 427.365 105.306 428.096 105.306 429.12V434H104.186V425.264H105.306V426.816ZM113.807 434.128C112.986 434.128 112.244 433.947 111.583 433.584C110.932 433.211 110.415 432.688 110.031 432.016C109.658 431.333 109.471 430.539 109.471 429.632C109.471 428.725 109.663 427.936 110.047 427.264C110.431 426.581 110.954 426.059 111.615 425.696C112.276 425.323 113.018 425.136 113.839 425.136C114.66 425.136 115.402 425.323 116.063 425.696C116.735 426.059 117.258 426.581 117.631 427.264C118.015 427.936 118.207 428.725 118.207 429.632C118.207 430.528 118.015 431.317 117.631 432C117.247 432.683 116.719 433.211 116.047 433.584C115.375 433.947 114.628 434.128 113.807 434.128ZM113.807 433.152C114.383 433.152 114.916 433.024 115.407 432.768C115.898 432.501 116.292 432.107 116.591 431.584C116.9 431.051 117.055 430.4 117.055 429.632C117.055 428.864 116.906 428.219 116.607 427.696C116.308 427.163 115.914 426.768 115.423 426.512C114.932 426.245 114.399 426.112 113.823 426.112C113.247 426.112 112.714 426.245 112.223 426.512C111.732 426.768 111.338 427.163 111.039 427.696C110.751 428.219 110.607 428.864 110.607 429.632C110.607 430.4 110.751 431.051 111.039 431.584C111.338 432.107 111.727 432.501 112.207 432.768C112.698 433.024 113.231 433.152 113.807 433.152ZM121.705 426.208V431.632C121.705 432.165 121.806 432.533 122.009 432.736C122.211 432.939 122.569 433.04 123.081 433.04H124.105V434H122.905C122.115 434 121.529 433.819 121.145 433.456C120.761 433.083 120.569 432.475 120.569 431.632V426.208H119.353V425.264H120.569V423.072H121.705V425.264H124.105V426.208H121.705ZM133.856 429.184C133.856 429.568 133.845 429.861 133.824 430.064H126.576C126.608 430.725 126.768 431.291 127.056 431.76C127.344 432.229 127.723 432.587 128.192 432.832C128.661 433.067 129.173 433.184 129.728 433.184C130.453 433.184 131.061 433.008 131.552 432.656C132.053 432.304 132.384 431.829 132.544 431.232H133.728C133.515 432.085 133.056 432.784 132.352 433.328C131.659 433.861 130.784 434.128 129.728 434.128C128.907 434.128 128.171 433.947 127.52 433.584C126.869 433.211 126.357 432.688 125.984 432.016C125.621 431.333 125.44 430.539 125.44 429.632C125.44 428.725 125.621 427.931 125.984 427.248C126.347 426.565 126.853 426.043 127.504 425.68C128.155 425.317 128.896 425.136 129.728 425.136C130.56 425.136 131.285 425.317 131.904 425.68C132.533 426.043 133.013 426.533 133.344 427.152C133.685 427.76 133.856 428.437 133.856 429.184ZM132.72 429.152C132.731 428.501 132.597 427.947 132.32 427.488C132.053 427.029 131.685 426.683 131.216 426.448C130.747 426.213 130.235 426.096 129.68 426.096C128.848 426.096 128.139 426.363 127.552 426.896C126.965 427.429 126.64 428.181 126.576 429.152H132.72ZM135.393 429.632C135.393 428.725 135.574 427.936 135.937 427.264C136.3 426.581 136.801 426.059 137.441 425.696C138.081 425.323 138.812 425.136 139.633 425.136C140.71 425.136 141.596 425.403 142.289 425.936C142.993 426.469 143.446 427.195 143.649 428.112H142.449C142.3 427.483 141.974 426.992 141.473 426.64C140.982 426.277 140.369 426.096 139.633 426.096C139.046 426.096 138.518 426.229 138.049 426.496C137.58 426.763 137.206 427.163 136.929 427.696C136.662 428.219 136.529 428.864 136.529 429.632C136.529 430.4 136.662 431.051 136.929 431.584C137.206 432.117 137.58 432.517 138.049 432.784C138.518 433.051 139.046 433.184 139.633 433.184C140.369 433.184 140.982 433.008 141.473 432.656C141.974 432.293 142.3 431.792 142.449 431.152H143.649C143.446 432.048 142.993 432.768 142.289 433.312C141.585 433.856 140.7 434.128 139.633 434.128C138.812 434.128 138.081 433.947 137.441 433.584C136.801 433.211 136.3 432.688 135.937 432.016C135.574 431.333 135.393 430.539 135.393 429.632ZM147.174 426.208V431.632C147.174 432.165 147.275 432.533 147.478 432.736C147.68 432.939 148.038 433.04 148.549 433.04H149.574V434H148.374C147.584 434 146.998 433.819 146.614 433.456C146.23 433.083 146.038 432.475 146.038 431.632V426.208H144.822V425.264H146.038V423.072H147.174V425.264H149.574V426.208H147.174ZM154.429 434.128C153.426 434.128 152.605 433.899 151.965 433.44C151.335 432.971 150.983 432.336 150.909 431.536H152.061C152.114 432.027 152.343 432.427 152.749 432.736C153.165 433.035 153.719 433.184 154.413 433.184C155.021 433.184 155.495 433.04 155.837 432.752C156.189 432.464 156.365 432.107 156.365 431.68C156.365 431.381 156.269 431.136 156.077 430.944C155.885 430.752 155.639 430.603 155.341 430.496C155.053 430.379 154.658 430.256 154.157 430.128C153.506 429.957 152.978 429.787 152.573 429.616C152.167 429.445 151.821 429.195 151.533 428.864C151.255 428.523 151.117 428.069 151.117 427.504C151.117 427.077 151.245 426.683 151.501 426.32C151.757 425.957 152.119 425.669 152.589 425.456C153.058 425.243 153.591 425.136 154.189 425.136C155.127 425.136 155.885 425.376 156.461 425.856C157.037 426.325 157.346 426.976 157.389 427.808H156.269C156.237 427.296 156.034 426.885 155.661 426.576C155.298 426.256 154.797 426.096 154.157 426.096C153.591 426.096 153.133 426.229 152.781 426.496C152.429 426.763 152.253 427.093 152.253 427.488C152.253 427.829 152.354 428.112 152.557 428.336C152.77 428.549 153.031 428.72 153.341 428.848C153.65 428.965 154.066 429.099 154.589 429.248C155.218 429.419 155.719 429.584 156.093 429.744C156.466 429.904 156.786 430.139 157.053 430.448C157.319 430.757 157.458 431.168 157.469 431.68C157.469 432.149 157.341 432.571 157.085 432.944C156.829 433.307 156.471 433.595 156.013 433.808C155.554 434.021 155.026 434.128 154.429 434.128ZM171.168 425.264L165.984 438.112H164.816L166.512 433.952L162.928 425.264H164.16L167.136 432.72L170.016 425.264H171.168ZM176.51 434.128C175.689 434.128 174.948 433.947 174.286 433.584C173.636 433.211 173.118 432.688 172.734 432.016C172.361 431.333 172.174 430.539 172.174 429.632C172.174 428.725 172.366 427.936 172.75 427.264C173.134 426.581 173.657 426.059 174.318 425.696C174.98 425.323 175.721 425.136 176.542 425.136C177.364 425.136 178.105 425.323 178.766 425.696C179.438 426.059 179.961 426.581 180.334 427.264C180.718 427.936 180.91 428.725 180.91 429.632C180.91 430.528 180.718 431.317 180.334 432C179.95 432.683 179.422 433.211 178.75 433.584C178.078 433.947 177.332 434.128 176.51 434.128ZM176.51 433.152C177.086 433.152 177.62 433.024 178.11 432.768C178.601 432.501 178.996 432.107 179.294 431.584C179.604 431.051 179.758 430.4 179.758 429.632C179.758 428.864 179.609 428.219 179.31 427.696C179.012 427.163 178.617 426.768 178.126 426.512C177.636 426.245 177.102 426.112 176.526 426.112C175.95 426.112 175.417 426.245 174.926 426.512C174.436 426.768 174.041 427.163 173.742 427.696C173.454 428.219 173.31 428.864 173.31 429.632C173.31 430.4 173.454 431.051 173.742 431.584C174.041 432.107 174.43 432.501 174.91 432.768C175.401 433.024 175.934 433.152 176.51 433.152ZM190.52 425.264V434H189.4V432.464C189.144 433.008 188.749 433.424 188.216 433.712C187.683 434 187.085 434.144 186.424 434.144C185.379 434.144 184.525 433.824 183.864 433.184C183.203 432.533 182.872 431.595 182.872 430.368V425.264H183.976V430.24C183.976 431.189 184.211 431.915 184.68 432.416C185.16 432.917 185.811 433.168 186.632 433.168C187.475 433.168 188.147 432.901 188.648 432.368C189.149 431.835 189.4 431.051 189.4 430.016V425.264H190.52ZM194.197 426.816C194.442 426.272 194.816 425.851 195.317 425.552C195.829 425.253 196.453 425.104 197.189 425.104V426.272H196.885C196.074 426.272 195.424 426.491 194.933 426.928C194.442 427.365 194.197 428.096 194.197 429.12V434H193.077V425.264H194.197V426.816ZM211.168 429.184C211.168 429.568 211.158 429.861 211.136 430.064H203.888C203.92 430.725 204.08 431.291 204.368 431.76C204.656 432.229 205.035 432.587 205.504 432.832C205.974 433.067 206.486 433.184 207.04 433.184C207.766 433.184 208.374 433.008 208.864 432.656C209.366 432.304 209.696 431.829 209.856 431.232H211.04C210.827 432.085 210.368 432.784 209.664 433.328C208.971 433.861 208.096 434.128 207.04 434.128C206.219 434.128 205.483 433.947 204.832 433.584C204.182 433.211 203.67 432.688 203.296 432.016C202.934 431.333 202.752 430.539 202.752 429.632C202.752 428.725 202.934 427.931 203.296 427.248C203.659 426.565 204.166 426.043 204.816 425.68C205.467 425.317 206.208 425.136 207.04 425.136C207.872 425.136 208.598 425.317 209.216 425.68C209.846 426.043 210.326 426.533 210.656 427.152C210.998 427.76 211.168 428.437 211.168 429.184ZM210.032 429.152C210.043 428.501 209.91 427.947 209.632 427.488C209.366 427.029 208.998 426.683 208.528 426.448C208.059 426.213 207.547 426.096 206.992 426.096C206.16 426.096 205.451 426.363 204.864 426.896C204.278 427.429 203.952 428.181 203.888 429.152H210.032ZM217.314 425.104C218.359 425.104 219.212 425.429 219.874 426.08C220.535 426.72 220.866 427.653 220.866 428.88V434H219.762V429.008C219.762 428.059 219.522 427.333 219.042 426.832C218.572 426.331 217.927 426.08 217.106 426.08C216.263 426.08 215.591 426.347 215.09 426.88C214.588 427.413 214.338 428.197 214.338 429.232V434H213.218V425.264H214.338V426.752C214.615 426.219 215.015 425.813 215.538 425.536C216.06 425.248 216.652 425.104 217.314 425.104ZM224.799 426.208V431.632C224.799 432.165 224.9 432.533 225.103 432.736C225.305 432.939 225.663 433.04 226.174 433.04H227.199V434H225.999C225.209 434 224.623 433.819 224.239 433.456C223.855 433.083 223.663 432.475 223.663 431.632V426.208H222.447V425.264H223.663V423.072H224.799V425.264H227.199V426.208H224.799ZM229.606 423.616C229.382 423.616 229.19 423.536 229.03 423.376C228.87 423.216 228.79 423.019 228.79 422.784C228.79 422.549 228.87 422.357 229.03 422.208C229.19 422.048 229.382 421.968 229.606 421.968C229.83 421.968 230.022 422.048 230.182 422.208C230.342 422.357 230.422 422.549 230.422 422.784C230.422 423.019 230.342 423.216 230.182 423.376C230.022 423.536 229.83 423.616 229.606 423.616ZM230.166 425.264V434H229.046V425.264H230.166ZM233.822 426.816C234.067 426.272 234.441 425.851 234.942 425.552C235.454 425.253 236.078 425.104 236.814 425.104V426.272H236.51C235.699 426.272 235.049 426.491 234.558 426.928C234.067 427.365 233.822 428.096 233.822 429.12V434H232.702V425.264H233.822V426.816ZM246.403 429.184C246.403 429.568 246.392 429.861 246.371 430.064H239.123C239.155 430.725 239.315 431.291 239.603 431.76C239.891 432.229 240.269 432.587 240.739 432.832C241.208 433.067 241.72 433.184 242.275 433.184C243 433.184 243.608 433.008 244.099 432.656C244.6 432.304 244.931 431.829 245.091 431.232H246.275C246.061 432.085 245.603 432.784 244.899 433.328C244.205 433.861 243.331 434.128 242.275 434.128C241.453 434.128 240.717 433.947 240.067 433.584C239.416 433.211 238.904 432.688 238.531 432.016C238.168 431.333 237.987 430.539 237.987 429.632C237.987 428.725 238.168 427.931 238.531 427.248C238.893 426.565 239.4 426.043 240.051 425.68C240.701 425.317 241.443 425.136 242.275 425.136C243.107 425.136 243.832 425.317 244.451 425.68C245.08 426.043 245.56 426.533 245.891 427.152C246.232 427.76 246.403 428.437 246.403 429.184ZM245.267 429.152C245.277 428.501 245.144 427.947 244.867 427.488C244.6 427.029 244.232 426.683 243.763 426.448C243.293 426.213 242.781 426.096 242.227 426.096C241.395 426.096 240.685 426.363 240.099 426.896C239.512 427.429 239.187 428.181 239.123 429.152H245.267ZM257.003 425.104C257.664 425.104 258.256 425.243 258.779 425.52C259.312 425.797 259.728 426.224 260.027 426.8C260.336 427.365 260.491 428.059 260.491 428.88V434H259.387V429.008C259.387 428.059 259.147 427.333 258.667 426.832C258.197 426.331 257.552 426.08 256.731 426.08C255.888 426.08 255.216 426.347 254.715 426.88C254.213 427.413 253.963 428.197 253.963 429.232V434H252.843V422.16H253.963V426.752C254.24 426.229 254.645 425.824 255.179 425.536C255.723 425.248 256.331 425.104 257.003 425.104ZM266.792 434.128C265.97 434.128 265.229 433.947 264.568 433.584C263.917 433.211 263.4 432.688 263.016 432.016C262.642 431.333 262.456 430.539 262.456 429.632C262.456 428.725 262.648 427.936 263.032 427.264C263.416 426.581 263.938 426.059 264.6 425.696C265.261 425.323 266.002 425.136 266.824 425.136C267.645 425.136 268.386 425.323 269.048 425.696C269.72 426.059 270.242 426.581 270.616 427.264C271 427.936 271.192 428.725 271.192 429.632C271.192 430.528 271 431.317 270.616 432C270.232 432.683 269.704 433.211 269.032 433.584C268.36 433.947 267.613 434.128 266.792 434.128ZM266.792 433.152C267.368 433.152 267.901 433.024 268.392 432.768C268.882 432.501 269.277 432.107 269.576 431.584C269.885 431.051 270.04 430.4 270.04 429.632C270.04 428.864 269.89 428.219 269.592 427.696C269.293 427.163 268.898 426.768 268.408 426.512C267.917 426.245 267.384 426.112 266.808 426.112C266.232 426.112 265.698 426.245 265.208 426.512C264.717 426.768 264.322 427.163 264.024 427.696C263.736 428.219 263.592 428.864 263.592 429.632C263.592 430.4 263.736 431.051 264.024 431.584C264.322 432.107 264.712 432.501 265.192 432.768C265.682 433.024 266.216 433.152 266.792 433.152ZM280.801 425.264V434H279.681V432.464C279.425 433.008 279.03 433.424 278.497 433.712C277.964 434 277.366 434.144 276.705 434.144C275.66 434.144 274.806 433.824 274.145 433.184C273.484 432.533 273.153 431.595 273.153 430.368V425.264H274.257V430.24C274.257 431.189 274.492 431.915 274.961 432.416C275.441 432.917 276.092 433.168 276.913 433.168C277.756 433.168 278.428 432.901 278.929 432.368C279.43 431.835 279.681 431.051 279.681 430.016V425.264H280.801ZM286.366 434.128C285.363 434.128 284.542 433.899 283.902 433.44C283.273 432.971 282.921 432.336 282.846 431.536H283.998C284.051 432.027 284.281 432.427 284.686 432.736C285.102 433.035 285.657 433.184 286.35 433.184C286.958 433.184 287.433 433.04 287.774 432.752C288.126 432.464 288.302 432.107 288.302 431.68C288.302 431.381 288.206 431.136 288.014 430.944C287.822 430.752 287.577 430.603 287.278 430.496C286.99 430.379 286.595 430.256 286.094 430.128C285.443 429.957 284.915 429.787 284.51 429.616C284.105 429.445 283.758 429.195 283.47 428.864C283.193 428.523 283.054 428.069 283.054 427.504C283.054 427.077 283.182 426.683 283.438 426.32C283.694 425.957 284.057 425.669 284.526 425.456C284.995 425.243 285.529 425.136 286.126 425.136C287.065 425.136 287.822 425.376 288.398 425.856C288.974 426.325 289.283 426.976 289.326 427.808H288.206C288.174 427.296 287.971 426.885 287.598 426.576C287.235 426.256 286.734 426.096 286.094 426.096C285.529 426.096 285.07 426.229 284.718 426.496C284.366 426.763 284.19 427.093 284.19 427.488C284.19 427.829 284.291 428.112 284.494 428.336C284.707 428.549 284.969 428.72 285.278 428.848C285.587 428.965 286.003 429.099 286.526 429.248C287.155 429.419 287.657 429.584 288.03 429.744C288.403 429.904 288.723 430.139 288.99 430.448C289.257 430.757 289.395 431.168 289.406 431.68C289.406 432.149 289.278 432.571 289.022 432.944C288.766 433.307 288.409 433.595 287.95 433.808C287.491 434.021 286.963 434.128 286.366 434.128ZM299.418 429.184C299.418 429.568 299.408 429.861 299.386 430.064H292.138C292.17 430.725 292.33 431.291 292.618 431.76C292.906 432.229 293.285 432.587 293.754 432.832C294.224 433.067 294.736 433.184 295.29 433.184C296.016 433.184 296.624 433.008 297.114 432.656C297.616 432.304 297.946 431.829 298.106 431.232H299.29C299.077 432.085 298.618 432.784 297.914 433.328C297.221 433.861 296.346 434.128 295.29 434.128C294.469 434.128 293.733 433.947 293.082 433.584C292.432 433.211 291.92 432.688 291.546 432.016C291.184 431.333 291.002 430.539 291.002 429.632C291.002 428.725 291.184 427.931 291.546 427.248C291.909 426.565 292.416 426.043 293.066 425.68C293.717 425.317 294.458 425.136 295.29 425.136C296.122 425.136 296.848 425.317 297.466 425.68C298.096 426.043 298.576 426.533 298.906 427.152C299.248 427.76 299.418 428.437 299.418 429.184ZM298.282 429.152C298.293 428.501 298.16 427.947 297.882 427.488C297.616 427.029 297.248 426.683 296.778 426.448C296.309 426.213 295.797 426.096 295.242 426.096C294.41 426.096 293.701 426.363 293.114 426.896C292.528 427.429 292.202 428.181 292.138 429.152H298.282ZM305.628 425.104C306.289 425.104 306.881 425.243 307.404 425.52C307.937 425.797 308.353 426.224 308.652 426.8C308.961 427.365 309.116 428.059 309.116 428.88V434H308.012V429.008C308.012 428.059 307.772 427.333 307.292 426.832C306.822 426.331 306.177 426.08 305.356 426.08C304.513 426.08 303.841 426.347 303.34 426.88C302.838 427.413 302.588 428.197 302.588 429.232V434H301.468V422.16H302.588V426.752C302.865 426.229 303.27 425.824 303.804 425.536C304.348 425.248 304.956 425.104 305.628 425.104ZM315.417 434.128C314.595 434.128 313.854 433.947 313.193 433.584C312.542 433.211 312.025 432.688 311.641 432.016C311.267 431.333 311.081 430.539 311.081 429.632C311.081 428.725 311.273 427.936 311.657 427.264C312.041 426.581 312.563 426.059 313.225 425.696C313.886 425.323 314.627 425.136 315.449 425.136C316.27 425.136 317.011 425.323 317.673 425.696C318.345 426.059 318.867 426.581 319.241 427.264C319.625 427.936 319.817 428.725 319.817 429.632C319.817 430.528 319.625 431.317 319.241 432C318.857 432.683 318.329 433.211 317.657 433.584C316.985 433.947 316.238 434.128 315.417 434.128ZM315.417 433.152C315.993 433.152 316.526 433.024 317.017 432.768C317.507 432.501 317.902 432.107 318.201 431.584C318.51 431.051 318.665 430.4 318.665 429.632C318.665 428.864 318.515 428.219 318.217 427.696C317.918 427.163 317.523 426.768 317.033 426.512C316.542 426.245 316.009 426.112 315.433 426.112C314.857 426.112 314.323 426.245 313.833 426.512C313.342 426.768 312.947 427.163 312.649 427.696C312.361 428.219 312.217 428.864 312.217 429.632C312.217 430.4 312.361 431.051 312.649 431.584C312.947 432.107 313.337 432.501 313.817 432.768C314.307 433.024 314.841 433.152 315.417 433.152ZM322.978 422.16V434H321.858V422.16H322.978ZM325.002 429.616C325.002 428.72 325.184 427.936 325.546 427.264C325.909 426.581 326.405 426.059 327.034 425.696C327.674 425.323 328.394 425.136 329.194 425.136C329.962 425.136 330.656 425.323 331.274 425.696C331.893 426.069 332.346 426.555 332.634 427.152V422.16H333.754V434H332.634V432.048C332.368 432.656 331.93 433.157 331.322 433.552C330.714 433.936 330 434.128 329.178 434.128C328.378 434.128 327.658 433.941 327.018 433.568C326.389 433.195 325.893 432.667 325.53 431.984C325.178 431.301 325.002 430.512 325.002 429.616ZM332.634 429.632C332.634 428.928 332.49 428.309 332.202 427.776C331.914 427.243 331.52 426.832 331.018 426.544C330.528 426.256 329.984 426.112 329.386 426.112C328.768 426.112 328.213 426.251 327.722 426.528C327.232 426.805 326.842 427.211 326.554 427.744C326.277 428.267 326.138 428.891 326.138 429.616C326.138 430.331 326.277 430.96 326.554 431.504C326.842 432.037 327.232 432.448 327.722 432.736C328.213 433.013 328.768 433.152 329.386 433.152C329.984 433.152 330.528 433.008 331.018 432.72C331.52 432.432 331.914 432.021 332.202 431.488C332.49 430.955 332.634 430.336 332.634 429.632ZM336.503 434.08C336.269 434.08 336.071 434 335.911 433.84C335.762 433.68 335.687 433.483 335.687 433.248C335.687 433.013 335.762 432.821 335.911 432.672C336.071 432.512 336.269 432.432 336.503 432.432C336.727 432.432 336.914 432.512 337.063 432.672C337.223 432.821 337.303 433.013 337.303 433.248C337.303 433.483 337.223 433.68 337.063 433.84C336.914 434 336.727 434.08 336.503 434.08Z" fill="#171717"/>
<defs>
<radialGradient id="paint0_radial_1_105" cx="0" cy="0" r="1" gradientUnits="userSpaceOnUse" gradientTransform="translate(29.9994 332.501) rotate(-17.5167) scale(809.015 2274.88)">
<stop stop-color="#E3EFF4"/>
<stop offset="0.569182" stop-color="#CDE0E9"/>
<stop offset="1" stop-color="#E8F3F8" stop-opacity="0"/>
</radialGradient>
<radialGradient id="paint1_radial_1_105" cx="0" cy="0" r="1" gradientUnits="userSpaceOnUse" gradientTransform="translate(146.999 364.501) rotate(-17.5167) scale(809.015 2274.88)">
<stop stop-color="#E3EFF4"/>
<stop offset="0.569182" stop-color="#CDE0E9"/>
<stop offset="1" stop-color="#E8F3F8" stop-opacity="0"/>
</radialGradient>
<clipPath id="clip0_1_105">
<rect width="43" height="43" fill="white" transform="translate(166 191)"/>
</clipPath>
<clipPath id="clip1_1_105">
<rect width="74.375" height="136" rx="15" transform="matrix(-1 0 0 1 555.375 145)" fill="white"/>
</clipPath>
<clipPath id="clip2_1_105">
<rect width="23" height="23" fill="white" transform="translate(508 198)"/>
</clipPath>
</defs>
</svg>
