<svg width="92" height="92" viewBox="0 0 92 92" fill="none" xmlns="http://www.w3.org/2000/svg">
<g opacity="0.99">
<g clip-path="url(#clip0_3_89)">
<path d="M81.0475 0H10.9523C4.90343 0 -0.00012207 4.90355 -0.00012207 10.9524V81.0476C-0.00012207 87.0965 4.90343 92 10.9523 92H81.0475C87.0963 92 91.9999 87.0965 91.9999 81.0476V10.9524C91.9999 4.90355 87.0963 0 81.0475 0Z" fill="white"/>
<g clip-path="url(#clip1_3_89)">
<path d="M45.8885 38.2202C42.5605 38.2202 39.7381 40.4128 38.7512 43.44L34.412 35.8586C37.1679 32.6675 41.2165 30.64 45.7311 30.64C51.2812 30.64 56.1247 33.6967 58.7295 38.2202H45.8885Z" fill="#FF5B4A"/>
<path d="M51.052 46C51.052 47.3579 50.5126 48.6602 49.5524 49.6204C48.5922 50.5806 47.2899 51.12 45.932 51.12C44.5741 51.12 43.2718 50.5806 42.3116 49.6204C41.3514 48.6602 40.812 47.3579 40.812 46C40.812 44.6421 41.3514 43.3398 42.3116 42.3796C43.2718 41.4194 44.5741 40.88 45.932 40.88C47.2899 40.88 48.5922 41.4194 49.5524 42.3796C50.5126 43.3398 51.052 44.6421 51.052 46Z" fill="#FF5B4A"/>
<path d="M47.212 53.721C46.709 53.8299 46.1958 53.8848 45.6811 53.8848C42.9189 53.8848 40.5087 52.3258 39.2133 50.0192L39.2056 50.023L32.6648 38.32C31.293 40.7056 30.5713 43.4094 30.572 46.1613C30.572 53.767 35.925 60.0902 42.9407 61.36L47.212 53.721ZM53.6901 46.0026C53.6877 44.106 52.9764 42.2789 51.6959 40.88H60.3845C60.9605 42.4851 61.2895 44.2042 61.2895 46.0026C61.2895 54.4198 54.4146 61.2704 45.9295 61.36L52.6482 49.8438L52.6405 49.84C53.326 48.6773 53.6892 47.3523 53.6901 46.0026Z" fill="#FF5B4A"/>
</g>
</g>
</g>
<defs>
<clipPath id="clip0_3_89">
<rect width="92" height="92" rx="46" fill="white"/>
</clipPath>
<clipPath id="clip1_3_89">
<rect width="32" height="32" fill="white" transform="translate(29.9999 30)"/>
</clipPath>
</defs>
</svg>
