<svg width="24" height="25" viewBox="0 0 24 25" fill="none" xmlns="http://www.w3.org/2000/svg">
<path d="M20.3912 4.77883C18.8923 4.08295 17.285 3.57026 15.6044 3.27662C15.5738 3.27096 15.5432 3.28512 15.5275 3.31344C15.3207 3.68545 15.0918 4.17076 14.9314 4.55221C13.1238 4.2784 11.3255 4.2784 9.555 4.55221C9.39462 4.16228 9.15733 3.68545 8.94968 3.31344C8.93391 3.28606 8.90334 3.2719 8.87274 3.27662C7.19307 3.56932 5.58572 4.08201 4.08588 4.77883C4.0729 4.78449 4.06177 4.79394 4.05438 4.80621C1.00557 9.41478 0.170376 13.9101 0.580095 18.3497C0.581949 18.3714 0.594 18.3921 0.610685 18.4054C2.6222 19.9 4.5707 20.8074 6.48302 21.4088C6.51363 21.4183 6.54605 21.4069 6.56553 21.3814C7.01789 20.7564 7.42113 20.0973 7.76686 19.4043C7.78727 19.3637 7.76779 19.3155 7.72609 19.2995C7.08648 19.054 6.47745 18.7547 5.89161 18.4148C5.84527 18.3874 5.84156 18.3204 5.88419 18.2883C6.00747 18.1948 6.13079 18.0975 6.24851 17.9993C6.26981 17.9814 6.29949 17.9776 6.32453 17.9889C10.1733 19.7669 14.34 19.7669 18.1433 17.9889C18.1684 17.9767 18.198 17.9805 18.2203 17.9984C18.338 18.0966 18.4613 18.1948 18.5855 18.2883C18.6282 18.3204 18.6254 18.3874 18.579 18.4148C17.9932 18.7613 17.3842 19.054 16.7436 19.2986C16.7019 19.3146 16.6834 19.3637 16.7038 19.4043C17.0569 20.0964 17.4602 20.7554 17.9042 21.3805C17.9227 21.4069 17.9561 21.4183 17.9867 21.4088C19.9083 20.8074 21.8568 19.9 23.8683 18.4054C23.8859 18.3921 23.897 18.3723 23.8989 18.3506C24.3892 13.218 23.0776 8.75953 20.4218 4.80714C20.4153 4.79394 20.4042 4.78449 20.3912 4.77883ZM8.34161 15.6464C7.18287 15.6464 6.22811 14.5701 6.22811 13.2482C6.22811 11.9263 7.16436 10.85 8.34161 10.85C9.5281 10.85 10.4736 11.9358 10.4551 13.2482C10.4551 14.5701 9.51883 15.6464 8.34161 15.6464ZM16.1559 15.6464C14.9972 15.6464 14.0425 14.5701 14.0425 13.2482C14.0425 11.9263 14.9787 10.85 16.1559 10.85C17.3425 10.85 18.2879 11.9358 18.2694 13.2482C18.2694 14.5701 17.3425 15.6464 16.1559 15.6464Z" fill="white"/>
</svg>
