<svg width="93" height="92" viewBox="0 0 93 92" fill="none" xmlns="http://www.w3.org/2000/svg">
<g opacity="0.99">
<g clip-path="url(#clip0_142_219)">
<path d="M81.5475 0H11.4522C5.4034 0 0.499847 4.90355 0.499847 10.9524V81.0476C0.499847 87.0965 5.4034 92 11.4522 92H81.5475C87.5963 92 92.4998 87.0965 92.4998 81.0476V10.9524C92.4998 4.90355 87.5963 0 81.5475 0Z" fill="white" fill-opacity="0.28"/>
<g clip-path="url(#clip1_142_219)">
<path d="M29.3636 46.2892C29.4712 45.4435 29.5775 44.806 29.8991 44.0707C30.7547 42.0732 32.357 40.8095 34.3885 40.0743C37.8097 38.812 41.3372 38.9169 44.6508 40.3888C45.1849 40.5999 45.6878 40.9795 46.2233 41.2955C46.3579 41.3734 46.2545 41.2955 46.6823 41.5462C46.8169 41.6255 46.9727 41.6652 46.8651 41.7573C46.7659 41.8423 46.3607 41.8621 46.2545 41.8621C44.8647 41.967 43.6889 42.7036 42.727 43.65C40.4816 45.5426 39.1995 48.0671 38.7716 50.8013C38.0236 55.744 39.8398 59.6356 43.9028 62.6843C44.0091 62.7905 44.1153 62.7905 44.223 63.0002C41.2296 62.5795 38.664 61.5269 36.42 59.8453C33.2126 57.427 30.9672 54.2721 30.0053 50.3805C29.7928 49.539 29.4528 48.8052 29.365 47.7512C29.3168 47.1817 29.2559 47.1335 29.3636 46.2892Z" fill="white"/>
<path d="M30.2683 39.4299C30.7981 38.4892 31.2217 37.5471 31.8564 36.6065C34.7181 32.4231 38.5317 29.7031 43.6161 29.1803C49.5491 28.4479 54.9523 29.9127 59.2958 34.201C61.3075 36.1886 62.7907 38.5926 63.2143 41.5223C63.6393 44.4506 63.1095 47.1691 60.8839 49.3664C59.4006 50.9346 57.4938 51.5622 55.3759 51.6671C53.8926 51.6671 52.4094 51.5622 50.9261 51.1429C50.4653 51.0204 50.0333 50.8076 49.6554 50.5167C49.0179 50.0988 48.9131 49.5746 49.3366 48.8436C49.5491 48.5291 49.7616 48.3195 49.8665 48.1112C50.6088 46.7512 50.6088 45.3912 50.1838 43.9278C49.4429 41.732 47.9596 40.1623 45.948 39.012C43.4022 37.4437 40.542 36.9196 37.5755 37.1292C35.034 37.3389 32.5973 38.0699 30.478 39.5347C30.478 39.4299 30.478 39.4299 30.2655 39.4299C30.3717 39.4299 30.3717 39.4299 30.2655 39.4299H30.2683Z" fill="white"/>
<path d="M42.1074 46.9453C43.2308 51.8739 46.4991 54.5032 50.8893 55.5983C53.8501 56.2556 56.811 55.8165 59.5678 54.5032C59.7732 54.3927 59.9772 54.3927 60.0778 54.5032C60.1812 54.6123 60.2832 54.941 60.1812 55.1591C60.1812 55.3787 59.9772 55.5983 59.8752 55.8165C57.7304 58.9941 54.9736 61.2933 51.3993 62.3898C47.6225 63.594 44.4576 62.1702 42.3128 58.7745C39.964 55.0501 39.658 51.2166 41.9034 47.274C42.0054 47.1635 42.0054 47.0544 42.1074 46.9453Z" fill="white"/>
</g>
</g>
</g>
<defs>
<clipPath id="clip0_142_219">
<rect x="0.5" width="92" height="92" rx="46" fill="white"/>
</clipPath>
<clipPath id="clip1_142_219">
<rect width="35.4167" height="34" fill="white" transform="translate(28.6405 29)"/>
</clipPath>
</defs>
</svg>
