<svg width="92" height="92" viewBox="0 0 92 92" fill="none" xmlns="http://www.w3.org/2000/svg">
<g opacity="0.99">
<g clip-path="url(#clip0_3_94)">
<path d="M81.0475 0H10.9523C4.90343 0 -0.00012207 4.90355 -0.00012207 10.9524V81.0476C-0.00012207 87.0965 4.90343 92 10.9523 92H81.0475C87.0963 92 91.9999 87.0965 91.9999 81.0476V10.9524C91.9999 4.90355 87.0963 0 81.0475 0Z" fill="white"/>
<g clip-path="url(#clip1_3_94)">
<path d="M28.8636 46.2892C28.9712 45.4435 29.0775 44.806 29.3991 44.0707C30.2547 42.0732 31.857 40.8095 33.8885 40.0743C37.3097 38.812 40.8372 38.9169 44.1508 40.3888C44.6849 40.5999 45.1878 40.9795 45.7233 41.2955C45.8579 41.3734 45.7545 41.2955 46.1823 41.5462C46.3169 41.6255 46.4728 41.6652 46.3651 41.7573C46.2659 41.8423 45.8607 41.8621 45.7545 41.8621C44.3647 41.967 43.1889 42.7036 42.227 43.65C39.9816 45.5426 38.6995 48.0671 38.2717 50.8013C37.5237 55.744 39.3398 59.6356 43.4028 62.6843C43.5091 62.7905 43.6153 62.7905 43.723 63.0002C40.7296 62.5795 38.164 61.5269 35.92 59.8453C32.7127 57.427 30.4672 54.2721 29.5053 50.3805C29.2928 49.539 28.9528 48.8052 28.865 47.7512C28.8168 47.1817 28.7559 47.1335 28.8636 46.2892Z" fill="#FF5B4A"/>
<path d="M29.7683 39.4299C30.2982 38.4892 30.7218 37.5471 31.3564 36.6065C34.2181 32.4231 38.0318 29.7031 43.1162 29.1803C49.0492 28.4479 54.4523 29.9127 58.7958 34.201C60.8075 36.1886 62.2908 38.5926 62.7143 41.5223C63.1393 44.4506 62.6095 47.1691 60.3839 49.3664C58.9007 50.9346 56.9938 51.5622 54.8759 51.6671C53.3927 51.6671 51.9094 51.5622 50.4262 51.1429C49.9653 51.0204 49.5333 50.8076 49.1554 50.5167C48.5179 50.0988 48.4131 49.5746 48.8367 48.8436C49.0492 48.5291 49.2617 48.3195 49.3665 48.1112C50.1088 46.7512 50.1088 45.3912 49.6838 43.9278C48.9429 41.732 47.4597 40.1623 45.448 39.012C42.9023 37.4437 40.042 36.9196 37.0755 37.1292C34.534 37.3389 32.0973 38.0699 29.978 39.5347C29.978 39.4299 29.978 39.4299 29.7655 39.4299C29.8718 39.4299 29.8718 39.4299 29.7655 39.4299H29.7683Z" fill="#FF5B4A"/>
<path d="M41.6074 46.9453C42.7308 51.8739 45.9991 54.5032 50.3893 55.5983C53.3502 56.2556 56.311 55.8165 59.0678 54.5032C59.2733 54.3927 59.4773 54.3927 59.5778 54.5032C59.6813 54.6123 59.7833 54.941 59.6813 55.1591C59.6813 55.3787 59.4773 55.5983 59.3753 55.8165C57.2304 58.9941 54.4736 61.2933 50.8993 62.3898C47.1225 63.594 43.9577 62.1702 41.8128 58.7745C39.464 55.0501 39.158 51.2166 41.4034 47.274C41.5054 47.1635 41.5054 47.0544 41.6074 46.9453Z" fill="#FF5B4A"/>
</g>
</g>
</g>
<defs>
<clipPath id="clip0_3_94">
<rect width="92" height="92" rx="46" fill="white"/>
</clipPath>
<clipPath id="clip1_3_94">
<rect width="35.4167" height="34" fill="white" transform="translate(28.1405 29)"/>
</clipPath>
</defs>
</svg>
