<svg width="92" height="106" viewBox="0 0 92 106" fill="none" xmlns="http://www.w3.org/2000/svg">
<g opacity="0.99">
<g clip-path="url(#clip0_5497_228)">
<path d="M81.0476 13.833H10.9524C4.90355 13.833 0 18.7366 0 24.7854V94.8806C0 100.929 4.90355 105.833 10.9524 105.833H81.0476C87.0965 105.833 92 100.929 92 94.8806V24.7854C92 18.7366 87.0965 13.833 81.0476 13.833Z" fill="#F0F3F6"/>
<g clip-path="url(#clip1_5497_228)">
<g clip-path="url(#clip2_5497_228)">
<g clip-path="url(#clip3_5497_228)">
<path d="M28.7231 60.1222C28.8307 59.2765 28.937 58.639 29.2586 57.9037C30.1142 55.9062 31.7165 54.6425 33.748 53.9073C37.1692 52.645 40.6967 52.7499 44.0103 54.2218C44.5444 54.4329 45.0473 54.8125 45.5828 55.1285C45.7174 55.2064 45.614 55.1285 46.0418 55.3792C46.1764 55.4585 46.3322 55.4982 46.2246 55.5903C46.1254 55.6753 45.7202 55.6951 45.614 55.6951C44.2242 55.8 43.0484 56.5366 42.0865 57.483C39.8411 59.3756 38.559 61.9001 38.1312 64.6343C37.3832 69.577 39.1993 73.4686 43.2623 76.5173C43.3686 76.6235 43.4748 76.6235 43.5825 76.8332C40.5891 76.4125 38.0235 75.3599 35.7795 73.6783C32.5722 71.26 30.3267 68.1051 29.3648 64.2135C29.1523 63.372 28.8123 62.6382 28.7245 61.5842C28.6763 61.0147 28.6154 60.9665 28.7231 60.1222Z" fill="#171717"/>
<path d="M29.6278 53.2629C30.1577 52.3222 30.5813 51.3801 31.2159 50.4395C34.0776 46.2561 37.8912 43.5361 42.9757 43.0133C48.9087 42.2809 54.3118 43.7457 58.6553 48.034C60.667 50.0216 62.1502 52.4256 62.5738 55.3553C62.9988 58.2836 62.469 61.0021 60.2434 63.1994C58.7602 64.7676 56.8533 65.3952 54.7354 65.5001C53.2522 65.5001 51.7689 65.3952 50.2857 64.9759C49.8248 64.8534 49.3928 64.6406 49.0149 64.3497C48.3774 63.9318 48.2726 63.4076 48.6962 62.6766C48.9087 62.3621 49.1212 62.1525 49.226 61.9442C49.9683 60.5842 49.9683 59.2242 49.5433 57.7608C48.8024 55.565 47.3192 53.9953 45.3075 52.845C42.7617 51.2767 39.9015 50.7526 36.935 50.9622C34.3935 51.1719 31.9568 51.9029 29.8375 53.3677C29.8375 53.2629 29.8375 53.2629 29.625 53.2629C29.7313 53.2629 29.7313 53.2629 29.625 53.2629H29.6278Z" fill="#171717"/>
<path d="M41.4669 60.7783C42.5903 65.7069 45.8586 68.3362 50.2488 69.4313C53.2097 70.0887 56.1705 69.6495 58.9273 68.3362C59.1328 68.2257 59.3368 68.2257 59.4373 68.3362C59.5408 68.4453 59.6428 68.774 59.5408 68.9922C59.5408 69.2117 59.3368 69.4313 59.2348 69.6495C57.0899 72.8271 54.3331 75.1263 50.7588 76.2228C46.982 77.427 43.8172 76.0032 41.6723 72.6075C39.3235 68.8831 39.0175 65.0496 41.2629 61.107C41.3649 60.9965 41.3649 60.8874 41.4669 60.7783Z" fill="#171717"/>
</g>
</g>
</g>
</g>
<rect x="0.5" y="14.333" width="91" height="91" rx="45.5" stroke="white" stroke-opacity="0.25"/>
</g>
<rect x="16.9238" y="10.1675" width="56" height="28" rx="14" transform="rotate(-10.4607 16.9238 10.1675)" fill="#FF5B4A"/>
<path d="M34.2677 25.4404C32.6845 25.7327 31.1281 25.3224 30.0621 24.2522L30.9705 22.6181C31.8017 23.4185 32.8844 23.7311 33.9307 23.5379C34.7705 23.3829 35.3087 22.8279 35.1893 22.1809C35.113 21.7678 34.744 21.4658 34.0711 21.2911C33.9207 21.2477 33.5674 21.1848 32.9924 21.0774C32.4311 20.9675 31.9963 20.8484 31.693 20.7478C30.5047 20.3266 29.8127 19.5859 29.6145 18.5121C29.4569 17.6585 29.6439 16.8979 30.1867 16.214C30.7296 15.53 31.516 15.0859 32.5348 14.8978C33.8565 14.6537 35.0555 14.9022 36.1344 15.6568L35.3214 17.3445C34.645 16.843 33.6729 16.6665 32.9157 16.8063C32.1034 16.9563 31.6789 17.4333 31.7882 18.0253C31.8619 18.4245 32.1983 18.7041 32.7998 18.8778L33.8862 19.1328C34.4939 19.2626 34.9399 19.3653 35.2244 19.441C36.485 19.7919 37.2183 20.5249 37.4268 21.6539C37.5945 22.5625 37.3876 23.3695 36.806 24.0748C36.2244 24.7801 35.3829 25.2345 34.2677 25.4404ZM38.2579 20.6462C38.0545 19.5448 38.2534 18.54 38.8708 17.643C39.4856 16.7323 40.3782 16.1688 41.5484 15.9528C42.7186 15.7367 43.7535 15.9443 44.653 16.5754C45.5501 17.1928 46.0946 18.0604 46.298 19.1618C46.5039 20.2769 46.305 21.2817 45.6876 22.1787C45.0702 23.0757 44.1776 23.6392 43.0074 23.8552C41.8372 24.0713 40.8023 23.8637 39.9053 23.2463C39.0083 22.6289 38.4637 21.7614 38.2579 20.6462ZM41.0732 21.7067C41.5487 22.046 42.0824 22.161 42.6744 22.0517C43.2664 21.9424 43.7102 21.6469 44.0332 21.1602C44.3536 20.6597 44.4661 20.1122 44.3568 19.5202C44.2475 18.9282 43.9469 18.4569 43.4714 18.1176C42.9959 17.7783 42.4759 17.6608 41.8839 17.7701C41.2919 17.8794 40.8344 18.1774 40.5114 18.6641C40.1884 19.1508 40.0897 19.6958 40.199 20.2878C40.3083 20.8798 40.5951 21.3536 41.0732 21.7067ZM47.2658 18.9831C47.0624 17.8817 47.2613 16.8769 47.8787 15.9799C48.4935 15.0691 49.3861 14.5057 50.5563 14.2896C51.7265 14.0736 52.7614 14.2811 53.661 14.9123C54.558 15.5297 55.1025 16.3973 55.3059 17.4986C55.5118 18.6138 55.3129 19.6186 54.6955 20.5156C54.0781 21.4126 53.1856 21.976 52.0153 22.1921C50.8451 22.4081 49.8102 22.2006 48.9132 21.5832C48.0162 20.9658 47.4717 20.0982 47.2658 18.9831ZM50.0811 20.0436C50.5566 20.3829 51.0904 20.4979 51.6824 20.3886C52.2743 20.2793 52.7181 19.9838 53.0411 19.4971C53.3615 18.9966 53.474 18.449 53.3647 17.857C53.2554 17.2651 52.9548 16.7938 52.4793 16.4545C52.0038 16.1152 51.4838 15.9976 50.8918 16.1069C50.2998 16.2162 49.8423 16.5143 49.5193 17.001C49.1964 17.4877 49.0977 18.0327 49.207 18.6247C49.3163 19.2167 49.603 19.6905 50.0811 20.0436ZM59.308 20.6463L57.3669 21.0047L55.9815 13.5015L57.8814 13.1508L58.0746 14.1971C58.3391 13.3937 59.1374 12.7053 60.1975 12.5096C61.0098 12.3596 61.7628 12.5053 62.4264 12.938C63.0899 13.3708 63.5214 14.0883 63.707 15.0934L64.5534 19.6779L62.6122 20.0363L61.8624 15.9749C61.6412 14.7772 60.8859 14.2333 59.936 14.4086C58.9034 14.5993 58.3599 15.5111 58.5658 16.6263L59.308 20.6463Z" fill="white"/>
<defs>
<clipPath id="clip0_5497_228">
<rect y="13.833" width="92" height="92" rx="46" fill="white"/>
</clipPath>
<clipPath id="clip1_5497_228">
<rect width="34" height="34" fill="white" transform="translate(29 42.833)"/>
</clipPath>
<clipPath id="clip2_5497_228">
<rect width="34" height="34" fill="white" transform="translate(29 42.4985)"/>
</clipPath>
<clipPath id="clip3_5497_228">
<rect width="35.4167" height="34" fill="white" transform="translate(28 42.833)"/>
</clipPath>
</defs>
</svg>
