<svg width="92" height="92" viewBox="0 0 92 92" fill="none" xmlns="http://www.w3.org/2000/svg">
<g opacity="0.99">
<g clip-path="url(#clip0_3_90)">
<path d="M81.0476 0H10.9524C4.90355 0 0 4.90355 0 10.9524V81.0476C0 87.0965 4.90355 92 10.9524 92H81.0476C87.0965 92 92 87.0965 92 81.0476V10.9524C92 4.90355 87.0965 0 81.0476 0Z" fill="white"/>
<g clip-path="url(#clip1_3_90)">
<path d="M45.7001 61.9573C42.1201 61.9573 38.9284 61.0053 36.1276 59.1027C33.3255 57.1988 31.2416 54.6785 29.8759 51.5406C29.1421 49.8831 28.7185 47.9805 28.6051 45.83C28.4918 43.6795 28.6547 41.5772 29.0981 39.5216C29.5409 37.4648 30.249 35.4742 31.2047 33.5999C32.1652 31.7115 33.2971 30.1758 34.6005 29L34.3922 34.3323C34.5311 34.1552 34.9603 34.0561 35.6814 34.0377C36.4039 34.0192 36.8459 34.117 37.0102 34.3323C37.5415 33.3067 38.5558 32.434 40.0561 31.7129C41.5549 30.9918 43.0381 30.6192 44.5044 30.5937C43.8216 31.1632 43.0665 32.1025 42.2377 33.4115C41.409 34.7205 41.0392 35.7547 41.1271 36.514C41.4444 36.6146 41.8396 36.6996 42.3128 36.769C42.7874 36.8398 43.1855 36.8866 43.5085 36.9121C43.8315 36.9376 44.2607 36.9631 44.7976 36.9886C45.336 37.0127 45.6561 37.0311 45.7567 37.0452C45.9466 37.1076 46.0075 37.3966 45.9381 37.9094C45.8672 38.4194 45.6746 38.8982 45.3586 39.3402C45.2634 39.4652 45.1588 39.5827 45.0456 39.6916C44.8996 39.8375 44.5426 40.0613 43.9731 40.3659C43.3725 40.68 42.7261 40.8975 42.0578 41.0105L42.3411 44.5961L39.7047 43.3253C39.4781 43.8693 39.4299 44.385 39.5631 44.8723C39.6948 45.3583 39.9229 45.779 40.2445 46.1332C40.5675 46.4873 40.9811 46.7508 41.4883 46.9208C41.9941 47.0908 42.5069 47.1333 43.0254 47.0441C43.67 46.9308 44.2905 46.7126 44.8841 46.3896C45.4791 46.0666 46.0075 45.7818 46.4693 45.5353C46.9297 45.2888 47.3958 45.1783 47.8633 45.2038C48.6354 45.2548 49.2006 45.4631 49.5619 45.83C49.9217 46.1969 50.045 46.6092 49.9302 47.0625L49.8835 47.1673C49.766 47.3859 49.5924 47.5693 49.3806 47.6986C49.1939 47.7968 48.9925 47.8638 48.7841 47.8969C48.4927 47.9487 48.195 47.9554 47.9016 47.9167C47.1422 49.1181 46.2285 49.9752 45.1589 50.488C44.0907 51.0008 42.7647 51.1864 41.1837 51.0476C42.0786 51.7983 43.1336 52.3338 44.2678 52.613C45.387 52.885 46.4523 52.9232 47.4652 52.7263C48.4816 52.5289 49.4673 52.1973 50.3963 51.7403C51.286 51.3146 52.105 50.7546 52.8245 50.08C53.5016 49.4354 54.0102 48.7767 54.3516 48.1066C54.8933 46.968 55.1477 45.7141 55.0926 44.4544C55.0543 43.231 54.814 42.0223 54.3814 40.8773C53.9564 39.7766 53.4606 38.9861 52.8911 38.5058C53.9918 38.9875 54.8588 39.489 55.4906 40.0146C56.1239 40.5387 56.6098 41.2513 56.9512 42.1495C57.1411 39.999 56.7784 37.8287 55.8604 35.6413C54.9438 33.4526 53.6192 31.6562 51.8852 30.2523C55.2371 31.2256 57.8437 32.9936 59.7024 35.5549C61.5639 38.1177 62.5173 41.3902 62.5697 45.3738C62.5889 47.0188 62.3288 48.6552 61.8005 50.2132C61.2626 51.8324 60.4718 53.3562 59.4573 54.7281C58.4318 56.1211 57.2261 57.3721 55.8717 58.4483C54.4604 59.5605 52.8731 60.4291 51.1755 61.0181C49.4182 61.643 47.5665 61.9607 45.7015 61.9573H45.7001Z" fill="#FF5B4A"/>
</g>
</g>
</g>
<defs>
<clipPath id="clip0_3_90">
<rect width="92" height="92" rx="46" fill="white"/>
</clipPath>
<clipPath id="clip1_3_90">
<rect width="34" height="34" fill="white" transform="translate(28.5703 29)"/>
</clipPath>
</defs>
</svg>
