<svg width="92" height="107" viewBox="0 0 92 107" fill="none" xmlns="http://www.w3.org/2000/svg">
<g opacity="0.99">
<g clip-path="url(#clip0_5497_229)">
<path d="M81.0476 14.3345H10.9524C4.90355 14.3345 0 19.238 0 25.2869V95.3821C0 101.431 4.90355 106.334 10.9524 106.334H81.0476C87.0965 106.334 92 101.431 92 95.3821V25.2869C92 19.238 87.0965 14.3345 81.0476 14.3345Z" fill="#F0F3F6"/>
<g clip-path="url(#clip1_5497_229)">
<g clip-path="url(#clip2_5497_229)">
<path d="M46.1298 75.9573C42.5498 75.9573 39.3581 75.0053 36.5573 73.1028C33.7552 71.1987 31.6713 68.6785 30.3056 65.5406C29.5718 63.8831 29.1482 61.9805 29.0348 59.83C28.9215 57.6795 29.0844 55.5772 29.5278 53.5216C29.9706 51.4648 30.6787 49.4742 31.6344 47.5999C32.5949 45.7115 33.7268 44.1758 35.0302 43L34.8219 48.3323C34.9608 48.1552 35.39 48.0561 36.1111 48.0377C36.8336 48.0192 37.2756 48.117 37.4399 48.3323C37.9712 47.3067 38.9855 46.434 40.4858 45.7129C41.9846 44.9918 43.4678 44.6192 44.9341 44.5938C44.2513 45.1632 43.4962 46.1025 42.6674 47.4115C41.8387 48.7205 41.4689 49.7547 41.5568 50.514C41.8741 50.6146 42.2693 50.6996 42.7425 50.769C43.2171 50.8398 43.6152 50.8866 43.9382 50.9121C44.2612 50.9376 44.6904 50.9631 45.2273 50.9886C45.7657 51.0127 46.0858 51.0311 46.1864 51.0452C46.3763 51.1076 46.4372 51.3966 46.3678 51.9094C46.2969 52.4194 46.1043 52.8982 45.7883 53.3402C45.6931 53.4652 45.5884 53.5827 45.4753 53.6916C45.3293 53.8375 44.9723 54.0613 44.4028 54.3659C43.8022 54.68 43.1558 54.8975 42.4875 55.0105L42.7708 58.5961L40.1344 57.3253C39.9078 57.8693 39.8596 58.385 39.9928 58.8723C40.1245 59.3582 40.3526 59.779 40.6742 60.1332C40.9972 60.4873 41.4108 60.7508 41.918 60.9208C42.4238 61.0908 42.9366 61.1333 43.4551 61.0441C44.0997 60.9307 44.7202 60.7126 45.3138 60.3896C45.9088 60.0666 46.4372 59.7818 46.899 59.5353C47.3594 59.2888 47.8255 59.1783 48.293 59.2038C49.0651 59.2548 49.6303 59.4631 49.9916 59.83C50.3514 60.1969 50.4747 60.6092 50.3599 61.0625L50.3132 61.1673C50.1956 61.3859 50.0221 61.5693 49.8103 61.6986C49.6236 61.7968 49.4221 61.8638 49.2138 61.8969C48.9224 61.9487 48.6247 61.9554 48.3313 61.9167C47.5719 63.1181 46.6582 63.9752 45.5886 64.488C44.5204 65.0008 43.1944 65.1864 41.6134 65.0476C42.5083 65.7983 43.5633 66.3338 44.6975 66.613C45.8167 66.885 46.882 66.9232 47.8949 66.7263C48.9113 66.5289 49.8969 66.1973 50.826 65.7403C51.7157 65.3146 52.5347 64.7546 53.2542 64.08C53.9313 63.4354 54.4399 62.7767 54.7813 62.1066C55.323 60.968 55.5774 59.7141 55.5223 58.4544C55.484 57.231 55.2437 56.0223 54.8111 54.8773C54.3861 53.7766 53.8903 52.9861 53.3208 52.5058C54.4215 52.9875 55.2885 53.489 55.9203 54.0146C56.5536 54.5387 57.0395 55.2513 57.3809 56.1495C57.5708 53.999 57.2081 51.8287 56.2901 49.6413C55.3735 47.4526 54.0489 45.6562 52.3149 44.2523C55.6668 45.2256 58.2734 46.9936 60.1321 49.5549C61.9936 52.1177 62.947 55.3902 62.9994 59.3738C63.0186 61.0188 62.7585 62.6552 62.2302 64.2132C61.6923 65.8324 60.9014 67.3562 59.887 68.7281C58.8615 70.1211 57.6558 71.3721 56.3014 72.4482C54.8901 73.5605 53.3028 74.4291 51.6052 75.0181C49.8479 75.643 47.9962 75.9607 46.1312 75.9573H46.1298Z" fill="#171717"/>
</g>
</g>
</g>
<rect x="0.5" y="14.8345" width="91" height="91" rx="45.5" stroke="white" stroke-opacity="0.25"/>
</g>
<rect x="16.9238" y="10.3345" width="56" height="28" rx="14" transform="rotate(-10.4607 16.9238 10.3345)" fill="#FF5B4A"/>
<path d="M34.2677 25.6073C32.6845 25.8997 31.1281 25.4894 30.0621 24.4192L30.9705 22.7851C31.8016 23.5855 32.8844 23.8981 33.9307 23.7049C34.7705 23.5499 35.3087 22.9949 35.1892 22.3479C35.113 21.9348 34.744 21.6328 34.0711 21.4581C33.9207 21.4147 33.5674 21.3518 32.9924 21.2444C32.4311 21.1345 31.9963 21.0154 31.6929 20.9148C30.5047 20.4936 29.8127 19.7529 29.6145 18.679C29.4569 17.8255 29.6439 17.0649 30.1867 16.3809C30.7296 15.697 31.516 15.2529 32.5348 15.0648C33.8565 14.8207 35.0555 15.0692 36.1344 15.8238L35.3213 17.5115C34.645 17.0099 33.6728 16.8335 32.9156 16.9733C32.1034 17.1233 31.6789 17.6003 31.7882 18.1923C31.8619 18.5915 32.1983 18.8711 32.7998 19.0448L33.8862 19.2998C34.4938 19.4296 34.9399 19.5323 35.2244 19.6079C36.485 19.9589 37.2183 20.6919 37.4267 21.8209C37.5945 22.7295 37.3876 23.5365 36.806 24.2418C36.2244 24.9471 35.3829 25.4015 34.2677 25.6073ZM38.2578 20.8132C38.0545 19.7118 38.2534 18.707 38.8708 17.81C39.4856 16.8992 40.3782 16.3358 41.5484 16.1198C42.7186 15.9037 43.7535 16.1113 44.653 16.7424C45.55 17.3598 46.0946 18.2274 46.298 19.3288C46.5038 20.4439 46.305 21.4487 45.6876 22.3457C45.0702 23.2427 44.1776 23.8062 43.0074 24.0222C41.8372 24.2383 40.8023 24.0307 39.9053 23.4133C39.0083 22.7959 38.4637 21.9284 38.2578 20.8132ZM41.0732 21.8737C41.5487 22.213 42.0824 22.328 42.6744 22.2187C43.2664 22.1094 43.7101 21.8139 44.0331 21.3272C44.3536 20.8267 44.4661 20.2792 44.3568 19.6872C44.2475 19.0952 43.9469 18.6239 43.4714 18.2846C42.9959 17.9453 42.4759 17.8278 41.8839 17.9371C41.2919 18.0464 40.8344 18.3444 40.5114 18.8311C40.1884 19.3178 40.0897 19.8628 40.199 20.4548C40.3083 21.0468 40.5951 21.5206 41.0732 21.8737ZM47.2658 19.1501C47.0624 18.0487 47.2613 17.0439 47.8787 16.1469C48.4935 15.2361 49.3861 14.6727 50.5563 14.4566C51.7265 14.2406 52.7614 14.4481 53.6609 15.0793C54.5579 15.6967 55.1025 16.5643 55.3059 17.6656C55.5118 18.7808 55.3129 19.7856 54.6955 20.6826C54.0781 21.5796 53.1855 22.143 52.0153 22.3591C50.8451 22.5751 49.8102 22.3676 48.9132 21.7502C48.0162 21.1328 47.4716 20.2652 47.2658 19.1501ZM50.0811 20.2106C50.5566 20.5499 51.0903 20.6649 51.6823 20.5556C52.2743 20.4463 52.7181 20.1508 53.0411 19.6641C53.3615 19.1636 53.474 18.616 53.3647 18.024C53.2554 17.432 52.9548 16.9608 52.4793 16.6215C52.0038 16.2822 51.4838 16.1646 50.8918 16.2739C50.2998 16.3832 49.8423 16.6812 49.5193 17.168C49.1963 17.6547 49.0976 18.1997 49.2069 18.7917C49.3162 19.3837 49.603 19.8575 50.0811 20.2106ZM59.308 20.8133L57.3668 21.1717L55.9815 13.6685L57.8814 13.3178L58.0746 14.3641C58.3391 13.5607 59.1374 12.8723 60.1975 12.6766C61.0098 12.5266 61.7627 12.6723 62.4263 13.105C63.0899 13.5377 63.5214 14.2553 63.7069 15.2603L64.5534 19.8449L62.6122 20.2033L61.8623 16.1419C61.6412 14.9442 60.8859 14.4002 59.9359 14.5756C58.9034 14.7663 58.3599 15.6781 58.5658 16.7933L59.308 20.8133Z" fill="white"/>
<defs>
<clipPath id="clip0_5497_229">
<rect y="14.3345" width="92" height="92" rx="46" fill="white"/>
</clipPath>
<clipPath id="clip1_5497_229">
<rect width="34" height="34" fill="white" transform="translate(29 43.3345)"/>
</clipPath>
<clipPath id="clip2_5497_229">
<rect width="34" height="34" fill="white" transform="translate(29 43)"/>
</clipPath>
</defs>
</svg>
