<svg width="93" height="92" viewBox="0 0 93 92" fill="none" xmlns="http://www.w3.org/2000/svg">
<g opacity="0.99">
<g clip-path="url(#clip0_142_212)">
<path d="M81.5476 0H11.4524C5.40355 0 0.5 4.90355 0.5 10.9524V81.0476C0.5 87.0965 5.40355 92 11.4524 92H81.5476C87.5965 92 92.5 87.0965 92.5 81.0476V10.9524C92.5 4.90355 87.5965 0 81.5476 0Z" fill="white" fill-opacity="0.28"/>
<g clip-path="url(#clip1_142_212)">
<path d="M46.2001 61.9573C42.6201 61.9573 39.4284 61.0053 36.6276 59.1028C33.8255 57.1987 31.7416 54.6785 30.3759 51.5406C29.6421 49.8831 29.2185 47.9805 29.1051 45.83C28.9918 43.6795 29.1547 41.5772 29.5981 39.5216C30.0409 37.4648 30.749 35.4742 31.7047 33.5999C32.6652 31.7115 33.7971 30.1758 35.1005 29L34.8922 34.3323C35.0311 34.1552 35.4603 34.0561 36.1814 34.0377C36.9039 34.0192 37.3459 34.117 37.5102 34.3323C38.0415 33.3067 39.0558 32.434 40.5561 31.7129C42.0549 30.9918 43.5381 30.6192 45.0044 30.5938C44.3216 31.1632 43.5665 32.1025 42.7377 33.4115C41.909 34.7205 41.5392 35.7547 41.6271 36.514C41.9444 36.6146 42.3396 36.6996 42.8128 36.769C43.2874 36.8398 43.6855 36.8866 44.0085 36.9121C44.3315 36.9376 44.7607 36.9631 45.2976 36.9886C45.836 37.0127 46.1561 37.0311 46.2567 37.0452C46.4466 37.1076 46.5075 37.3966 46.4381 37.9094C46.3672 38.4194 46.1746 38.8982 45.8586 39.3402C45.7634 39.4652 45.6588 39.5827 45.5456 39.6916C45.3996 39.8375 45.0426 40.0613 44.4731 40.3659C43.8725 40.68 43.2261 40.8975 42.5578 41.0105L42.8411 44.5961L40.2047 43.3253C39.9781 43.8693 39.9299 44.385 40.0631 44.8723C40.1948 45.3582 40.4229 45.779 40.7445 46.1332C41.0675 46.4873 41.4811 46.7508 41.9883 46.9208C42.4941 47.0908 43.0069 47.1333 43.5254 47.0441C44.17 46.9307 44.7905 46.7126 45.3841 46.3896C45.9791 46.0666 46.5075 45.7818 46.9693 45.5353C47.4297 45.2888 47.8958 45.1783 48.3633 45.2038C49.1354 45.2548 49.7006 45.4631 50.0619 45.83C50.4217 46.1969 50.545 46.6092 50.4302 47.0625L50.3835 47.1673C50.266 47.3859 50.0924 47.5693 49.8806 47.6986C49.6939 47.7968 49.4925 47.8638 49.2841 47.8969C48.9927 47.9487 48.695 47.9554 48.4016 47.9167C47.6422 49.1181 46.7285 49.9752 45.6589 50.488C44.5907 51.0008 43.2647 51.1864 41.6837 51.0476C42.5786 51.7983 43.6336 52.3338 44.7678 52.613C45.887 52.885 46.9523 52.9232 47.9652 52.7263C48.9816 52.5289 49.9673 52.1973 50.8963 51.7403C51.786 51.3146 52.605 50.7546 53.3245 50.08C54.0016 49.4354 54.5102 48.7767 54.8516 48.1066C55.3933 46.968 55.6477 45.7141 55.5926 44.4544C55.5543 43.231 55.314 42.0223 54.8814 40.8773C54.4564 39.7766 53.9606 38.9861 53.3911 38.5058C54.4918 38.9875 55.3588 39.489 55.9906 40.0146C56.6239 40.5387 57.1098 41.2513 57.4512 42.1495C57.6411 39.999 57.2784 37.8287 56.3604 35.6413C55.4438 33.4526 54.1192 31.6562 52.3852 30.2523C55.7371 31.2256 58.3437 32.9936 60.2024 35.5549C62.0639 38.1177 63.0173 41.3902 63.0697 45.3738C63.0889 47.0188 62.8288 48.6552 62.3005 50.2132C61.7626 51.8324 60.9718 53.3562 59.9573 54.7281C58.9318 56.1211 57.7261 57.3721 56.3717 58.4482C54.9604 59.5605 53.3731 60.4291 51.6755 61.0181C49.9182 61.643 48.0665 61.9607 46.2015 61.9573H46.2001Z" fill="white"/>
</g>
</g>
</g>
<defs>
<clipPath id="clip0_142_212">
<rect x="0.5" width="92" height="92" rx="46" fill="white"/>
</clipPath>
<clipPath id="clip1_142_212">
<rect width="34" height="34" fill="white" transform="translate(29.0703 29)"/>
</clipPath>
</defs>
</svg>
