<svg width="92" height="107" viewBox="0 0 92 107" fill="none" xmlns="http://www.w3.org/2000/svg">
<g opacity="0.99">
<g clip-path="url(#clip0_1_3152)">
<path d="M81.0476 14.3345H10.9524C4.90355 14.3345 0 19.238 0 25.2869V95.3821C0 101.431 4.90355 106.334 10.9524 106.334H81.0476C87.0965 106.334 92 101.431 92 95.3821V25.2869C92 19.238 87.0965 14.3345 81.0476 14.3345Z" fill="#F0F3F6"/>
<g clip-path="url(#clip1_1_3152)">
<path d="M46 66.0011C44.4971 66.0011 43.0558 65.4041 41.9931 64.3414C40.9304 63.2787 40.3333 61.8374 40.3333 60.3345C40.3333 58.8316 40.9304 57.3902 41.9931 56.3275C43.0558 55.2648 44.4971 54.6678 46 54.6678C47.5029 54.6678 48.9442 55.2648 50.0069 56.3275C51.0696 57.3902 51.6667 58.8316 51.6667 60.3345C51.6667 61.8374 51.0696 63.2787 50.0069 64.3414C48.9442 65.4041 47.5029 66.0011 46 66.0011ZM38.0525 57.5011L33.25 49.1102C36.3015 45.5785 40.781 43.3345 45.779 43.3345C51.9231 43.3345 57.2837 46.7175 60.1667 51.724H45.9532C42.2699 51.724 39.1447 54.1507 38.0525 57.5011ZM47.4167 68.8798L42.6907 77.3345C34.9245 75.9277 29 68.9308 29 60.513C29 57.3439 29.8557 54.3816 31.3162 51.8345L38.5554 64.7871L38.5653 64.7828C39.9976 67.3356 42.6652 69.0611 45.7223 69.0611C46.3032 69.0611 46.8698 68.9974 47.4167 68.8798ZM52.3807 54.6678H61.997C62.6345 56.4443 63 58.3469 63 60.3373C63 69.6533 55.3897 77.2353 46 77.3345L53.4347 64.5887L53.4262 64.5845C54.1853 63.2977 54.5864 61.8313 54.5878 60.3373C54.5848 58.2381 53.7985 56.2159 52.3807 54.6678Z" fill="#171717"/>
</g>
</g>
<rect x="0.5" y="14.8345" width="91" height="91" rx="45.5" stroke="white" stroke-opacity="0.25"/>
</g>
<rect x="16.9238" y="10.3345" width="56" height="28" rx="14" transform="rotate(-10.4607 16.9238 10.3345)" fill="#FF5B4A"/>
<path d="M34.2677 25.6073C32.6845 25.8997 31.1282 25.4894 30.0621 24.4192L30.9705 22.7851C31.8017 23.5855 32.8844 23.8981 33.9307 23.7049C34.7705 23.5499 35.3087 22.9949 35.1893 22.3479C35.113 21.9348 34.744 21.6328 34.0711 21.4581C33.9208 21.4147 33.5675 21.3518 32.9924 21.2444C32.4311 21.1345 31.9963 21.0154 31.693 20.9148C30.5047 20.4936 29.8128 19.7529 29.6145 18.679C29.4569 17.8255 29.6439 17.0649 30.1868 16.3809C30.7296 15.697 31.516 15.2529 32.5348 15.0648C33.8565 14.8207 35.0555 15.0692 36.1345 15.8238L35.3214 17.5115C34.6451 17.0099 33.6729 16.8335 32.9157 16.9733C32.1034 17.1233 31.6789 17.6003 31.7882 18.1923C31.862 18.5915 32.1983 18.8711 32.7998 19.0448L33.8862 19.2998C34.4939 19.4296 34.9399 19.5323 35.2244 19.6079C36.4851 19.9589 37.2183 20.6919 37.4268 21.8209C37.5945 22.7295 37.3876 23.5365 36.806 24.2418C36.2244 24.9471 35.3829 25.4015 34.2677 25.6073ZM38.2579 20.8132C38.0545 19.7118 38.2534 18.707 38.8708 17.81C39.4857 16.8992 40.3782 16.3358 41.5484 16.1198C42.7186 15.9037 43.7535 16.1113 44.6531 16.7424C45.5501 17.3598 46.0946 18.2274 46.298 19.3288C46.5039 20.4439 46.305 21.4487 45.6876 22.3457C45.0702 23.2427 44.1777 23.8062 43.0074 24.0222C41.8372 24.2383 40.8023 24.0307 39.9053 23.4133C39.0083 22.7959 38.4638 21.9284 38.2579 20.8132ZM41.0732 21.8737C41.5487 22.213 42.0825 22.328 42.6745 22.2187C43.2665 22.1094 43.7102 21.8139 44.0332 21.3272C44.3536 20.8267 44.4661 20.2792 44.3568 19.6872C44.2475 19.0952 43.9469 18.6239 43.4714 18.2846C42.9959 17.9453 42.4759 17.8278 41.8839 17.9371C41.2919 18.0464 40.8344 18.3444 40.5115 18.8311C40.1885 19.3178 40.0898 19.8628 40.1991 20.4548C40.3084 21.0468 40.5952 21.5206 41.0732 21.8737ZM47.2658 19.1501C47.0624 18.0487 47.2613 17.0439 47.8787 16.1469C48.4936 15.2361 49.3861 14.6727 50.5563 14.4566C51.7265 14.2406 52.7614 14.4481 53.661 15.0793C54.558 15.6967 55.1025 16.5643 55.3059 17.6656C55.5118 18.7808 55.3129 19.7856 54.6955 20.6826C54.0781 21.5796 53.1856 22.143 52.0154 22.3591C50.8451 22.5751 49.8102 22.3676 48.9132 21.7502C48.0162 21.1328 47.4717 20.2652 47.2658 19.1501ZM50.0811 20.2106C50.5566 20.5499 51.0904 20.6649 51.6824 20.5556C52.2744 20.4463 52.7181 20.1508 53.0411 19.6641C53.3615 19.1636 53.474 18.616 53.3647 18.024C53.2554 17.432 52.9548 16.9608 52.4793 16.6215C52.0038 16.2822 51.4838 16.1646 50.8918 16.2739C50.2999 16.3832 49.8424 16.6812 49.5194 17.168C49.1964 17.6547 49.0977 18.1997 49.207 18.7917C49.3163 19.3837 49.6031 19.8575 50.0811 20.2106ZM59.3081 20.8133L57.3669 21.1717L55.9816 13.6685L57.8814 13.3178L58.0746 14.3641C58.3392 13.5607 59.1374 12.8723 60.1975 12.6766C61.0098 12.5266 61.7628 12.6723 62.4264 13.105C63.09 13.5377 63.5214 14.2553 63.707 15.2603L64.5534 19.8449L62.6122 20.2033L61.8624 16.1419C61.6412 14.9442 60.8859 14.4002 59.936 14.5756C58.9034 14.7663 58.3599 15.6781 58.5658 16.7933L59.3081 20.8133Z" fill="white"/>
<defs>
<clipPath id="clip0_1_3152">
<rect y="14.3345" width="92" height="92" rx="46" fill="white"/>
</clipPath>
<clipPath id="clip1_1_3152">
<rect width="34" height="34" fill="white" transform="translate(29 43.3345)"/>
</clipPath>
</defs>
</svg>
