<svg width="24" height="25" viewBox="0 0 24 25" fill="none" xmlns="http://www.w3.org/2000/svg">
<path d="M7.38899 10.7683C7.2424 10.2959 7.25868 9.9376 7.43785 9.70958C7.61702 9.49783 7.86133 9.40011 8.15451 9.38382C8.65943 9.36753 8.85488 9.72586 9.14806 10.6543C9.32723 11.2406 9.68556 12.0891 9.8973 12.5614C10.1742 13.1315 10.5651 13.897 10.7443 14.1591C10.8909 14.3871 11.0212 14.4523 11.1677 14.4523C11.4283 14.4523 11.6238 14.3057 11.6238 14.0451C11.6238 13.8985 11.4772 13.6542 11.3958 13.5076C11.2492 13.2307 10.9397 12.6769 10.728 12.2046C10.4999 11.6834 10.2393 11.0318 10.0276 10.444C9.8973 10.102 9.75071 9.61333 9.60412 9.1247C9.37609 8.37546 9.26208 7.9194 9.26208 7.57588C9.26208 7.05467 9.65298 6.71263 10.2393 6.71263C10.6628 6.71263 10.9397 6.92437 11.1189 7.68989C11.2655 8.39027 11.5261 9.53189 11.9007 10.4277C12.145 11.0141 12.5033 11.7974 12.7151 12.1883C12.8454 12.4163 12.992 12.6118 12.992 12.6932C12.992 12.8072 12.7802 12.9864 12.6011 13.2307C12.4871 13.3773 12.4382 13.475 12.4382 13.589C12.4382 13.6867 12.5033 13.7845 12.6011 13.9148C12.6988 14.0451 12.7965 14.1754 12.9105 14.1754C12.992 14.1754 13.0408 14.1428 13.0897 14.0777C13.5946 13.4424 14.1484 13.0027 14.7851 12.6429C15.5343 12.2194 16.3013 12.0076 16.904 11.8773C17.1972 11.8122 17.2786 11.747 17.2786 11.5841C17.2786 11.3887 17.132 11.2747 16.9366 11.2584C16.79 11.2421 16.6597 11.2584 16.4317 11.2747C16.2688 11.291 16.1873 11.2095 16.0896 10.9978C15.7964 10.3789 15.2264 9.33496 14.8843 7.99936C14.7377 7.42929 14.6074 6.82664 14.526 6.04335C14.4771 5.68502 14.5423 5.55472 14.7214 5.39184C14.9495 5.19639 15.3567 5.11495 15.6661 5.19639C16.0407 5.29412 16.2362 5.58729 16.4317 6.72892C16.5294 7.26641 16.6923 7.9505 16.8877 8.53834C17.132 9.28757 17.4415 9.90799 17.9138 10.7387C18.1744 11.1947 18.5002 11.6671 18.8422 12.1246C18.7771 12.3201 18.6631 12.4504 18.2885 12.7598C17.9138 13.0693 17.5392 13.395 17.1972 13.9977C16.9529 14.4375 16.8388 14.9261 16.8388 15.2519C16.8388 15.5613 16.904 15.6265 17.0994 15.6265C17.4415 15.6265 17.7184 15.5613 17.7347 15.4147C17.8161 14.8284 17.9138 14.4538 18.2396 14.0125C18.435 13.7682 18.7771 13.4587 19.054 13.2144C19.5752 12.7909 19.7543 12.5466 19.9335 11.944C20.015 11.6671 20.1127 11.4065 20.243 11.1621C20.5525 10.5921 21.1062 9.94057 21.971 9.94057C22.2479 9.94057 22.4759 10.022 22.6225 10.25C22.7039 10.3803 22.7365 10.5595 22.7365 10.6898C22.7365 10.983 22.5247 11.3902 22.427 11.5856C22.0687 12.3512 21.4823 13.5254 21.4823 14.8772C21.4823 17.8268 20.4399 19.2942 19.624 20.0434C18.8259 20.7926 17.5703 21.4456 16.0881 21.4456C15.0294 21.4456 13.9367 21.1362 13.0408 20.5498C11.7867 19.7191 11.0034 18.4146 10.2053 17.1116C9.57006 16.0529 9.1303 15.2208 8.44473 13.6083C8.05827 12.6739 7.69845 11.7618 7.38899 10.7683Z" fill="white"/>
<path d="M11.578 5.30856C11.578 4.68963 12.1481 4.44531 12.6204 4.44531C13.1253 4.44531 13.3045 4.68963 13.4348 5.21084C13.5488 5.63432 13.5977 6.02522 13.6465 6.48128C13.7117 6.93734 13.9397 7.98123 14.0049 8.24184C14.2492 9.13767 14.7378 10.1978 15.3242 11.4683C14.9821 11.5823 14.5261 11.7778 14.2166 11.9406C13.8257 12.1524 13.7443 12.1524 13.5814 11.8429C13.2394 11.2077 12.995 10.7353 12.7833 10.1801C12.6041 9.72402 12.425 9.20282 12.2784 8.59869C12.0341 7.57256 12.0015 7.27938 11.806 6.80556C11.692 6.3184 11.578 5.71576 11.578 5.30856Z" fill="white"/>
<path d="M5.744 16.2188C5.399 16.432 3.57033 17.39 3.15721 17.5425C2.86255 17.6521 2.54272 17.6254 2.35467 17.0687C2.12368 16.3802 2.44796 16.2173 2.90994 16.0381C3.31861 15.8797 5.01402 15.2667 5.40788 15.1601C5.68478 15.086 5.87727 15.1793 6.01053 15.5125C6.15712 15.8782 6.05643 16.0248 5.744 16.2188Z" fill="white"/>
<path d="M4.23671 12.3377C3.74512 12.351 1.70322 12.2637 1.2368 12.2178C0.831088 12.1778 0.66673 11.9986 0.711151 11.4108C0.758534 10.78 1.00433 10.7415 1.40264 10.78C1.86462 10.8244 4.00424 11.1724 4.3448 11.2775C4.69721 11.3871 4.74607 11.547 4.70313 11.855C4.64834 12.2548 4.4677 12.3303 4.23671 12.3377Z" fill="white"/>
<path d="M4.49013 8.20312C3.92746 8.02543 2.25723 7.01411 1.8219 6.75351C1.42803 6.5166 1.37769 6.30338 1.65162 5.78365C1.89446 5.32463 2.16394 5.24467 2.56373 5.45197C3.02719 5.69332 4.66337 6.96673 4.9758 7.21845C5.27787 7.46129 5.23641 7.58715 5.07797 7.89957C4.91953 8.212 4.77146 8.29196 4.49013 8.20312Z" fill="white"/>
</svg>
