<svg width="52" height="52" viewBox="0 0 52 52" fill="none" xmlns="http://www.w3.org/2000/svg">
<rect width="52" height="52" rx="26" fill="white"/>
<path fill-rule="evenodd" clip-rule="evenodd" d="M34.3333 41H23.6667C22.1933 41 21 39.8067 21 38.3333V19.6667C21 18.1933 22.1933 17 23.6667 17H34.3333C35.8067 17 37 18.1933 37 19.6667V38.3333C37 39.8067 35.8067 41 34.3333 41Z" fill="#E6EEF2"/>
<path fill-rule="evenodd" clip-rule="evenodd" d="M31.3333 38H20.6667C19.1933 38 18 36.8067 18 35.3333V16.6667C18 15.1933 19.1933 14 20.6667 14H31.3333C32.8067 14 34 15.1933 34 16.6667V35.3333C34 36.8067 32.8067 38 31.3333 38Z" fill="white" stroke="#171717" stroke-width="1.5" stroke-linecap="round" stroke-linejoin="round"/>
<path d="M25.9987 33C25.8147 33 25.6653 33.1494 25.6667 33.3334C25.6667 33.5174 25.816 33.6667 26 33.6667C26.184 33.6667 26.3333 33.5174 26.3333 33.3334C26.3333 33.1494 26.184 33 25.9987 33" stroke="#171717" stroke-width="1.5" stroke-linecap="round" stroke-linejoin="round"/>
<path d="M24.3333 18H27.6667" stroke="#FF5B4A" stroke-width="1.5" stroke-linecap="round" stroke-linejoin="round"/>
</svg>
