<svg width="24" height="24" viewBox="0 0 24 24" fill="none" xmlns="http://www.w3.org/2000/svg">
<g clip-path="url(#clip0_5492_80)">
<path fill-rule="evenodd" clip-rule="evenodd" d="M11.8083 2.61816C9.31218 2.61816 8.99908 2.62874 8.0189 2.67347C7.04058 2.71813 6.37248 2.87348 5.78786 3.1007C5.17459 3.33149 4.61904 3.69327 4.15995 4.16082C3.69229 4.61988 3.33041 5.17543 3.09954 5.78873C2.8725 6.37339 2.71715 7.04148 2.67268 8.0198C2.62777 8.99998 2.61719 9.31309 2.61719 11.8092C2.61719 14.3054 2.62777 14.6185 2.67268 15.5987C2.71734 16.577 2.87268 17.2451 3.09991 17.8297C3.33069 18.443 3.69247 18.9985 4.16002 19.4576C4.61911 19.9252 5.17466 20.287 5.78794 20.5178C6.37259 20.745 7.04069 20.9003 8.01897 20.945C8.99929 20.9897 9.31229 21.0003 11.8084 21.0003C14.3045 21.0003 14.6177 20.9897 15.5979 20.945C16.5762 20.9003 17.2443 20.745 17.8289 20.5178C18.4394 20.2816 18.9939 19.9205 19.4568 19.4576C19.9197 18.9948 20.2808 18.4403 20.5169 17.8297C20.7441 17.2451 20.8995 16.577 20.9442 15.5987C20.9889 14.6184 20.9995 14.3054 20.9995 11.8092C20.9995 9.31312 20.9889 8.99998 20.9442 8.0198C20.8995 7.04148 20.7441 6.37339 20.5169 5.78877C20.2861 5.17549 19.9244 4.61994 19.4568 4.16085C18.9977 3.69321 18.4421 3.33135 17.8288 3.10052C17.2441 2.87348 16.576 2.71813 15.5977 2.67366C14.6175 2.62874 14.3045 2.61816 11.8083 2.61816ZM12.0088 7.02051C11.0753 7.02051 10.1628 7.29732 9.38666 7.81593C8.6105 8.33454 8.00556 9.07167 7.64833 9.93409C7.29111 10.7965 7.19764 11.7455 7.37975 12.661C7.56187 13.5766 8.01138 14.4176 8.67145 15.0776C9.33152 15.7377 10.1725 16.1872 11.088 16.3693C12.0036 16.5514 12.9526 16.458 13.815 16.1007C14.6774 15.7435 15.4145 15.1386 15.9331 14.3624C16.4518 13.5863 16.7286 12.6737 16.7286 11.7403C16.7286 10.4885 16.2313 9.28802 15.3462 8.40289C14.4611 7.51777 13.2606 7.02051 12.0088 7.02051ZM12.0088 14.8039C11.4029 14.8039 10.8106 14.6242 10.3067 14.2876C9.80293 13.9509 9.41026 13.4725 9.17838 12.9126C8.9465 12.3528 8.88584 11.7368 9.00405 11.1425C9.12227 10.5483 9.41406 10.0024 9.84252 9.5739C10.271 9.14545 10.8169 8.85366 11.4112 8.73545C12.0055 8.61724 12.6215 8.67792 13.1813 8.9098C13.7411 9.14168 14.2196 9.53436 14.5562 10.0382C14.8928 10.542 15.0725 11.1343 15.0725 11.7403C15.0725 12.5528 14.7497 13.3321 14.1752 13.9066C13.6006 14.4811 12.8214 14.8039 12.0088 14.8039ZM18.0183 6.83436C18.0183 7.44348 17.5245 7.93727 16.9154 7.93727C16.3063 7.93727 15.8125 7.44348 15.8125 6.83436C15.8125 6.22524 16.3063 5.73145 16.9154 5.73145C17.5245 5.73145 18.0183 6.22524 18.0183 6.83436Z" fill="white"/>
</g>
<defs>
<clipPath id="clip0_5492_80">
<rect width="24" height="24" fill="white"/>
</clipPath>
</defs>
</svg>
