<svg width="92" height="92" viewBox="0 0 92 92" fill="none" xmlns="http://www.w3.org/2000/svg">
<g opacity="0.99">
<g clip-path="url(#clip0_1_3146)">
<path d="M81.0476 0H10.9524C4.90355 0 0 4.90355 0 10.9524V81.0476C0 87.0965 4.90355 92 10.9524 92H81.0476C87.0965 92 92 87.0965 92 81.0476V10.9524C92 4.90355 87.0965 0 81.0476 0Z" fill="#F0F3F6"/>
<path fill-rule="evenodd" clip-rule="evenodd" d="M54.4211 36.6936C55.7371 36.7461 59.4325 37.1961 61.801 40.4831C61.6107 40.5934 57.3927 42.9213 57.4414 47.7516C57.4914 52.9535 61.7902 55.0341 62.6926 55.413L62.8341 55.4698L62.8571 55.4783C62.8105 55.6137 62.0097 58.2209 60.0648 60.9143C58.3825 63.2395 56.6362 65.558 53.8898 65.6048C51.1828 65.653 50.3153 64.0906 47.2262 64.0906C44.1395 64.0906 43.1759 65.558 40.6166 65.653C37.9635 65.7473 35.9401 63.135 34.2473 60.8193C30.7789 56.0769 28.1314 47.4194 31.688 41.5737C33.4529 38.6713 36.6105 36.8327 40.0384 36.7876C42.6418 36.739 45.1046 38.4467 46.6952 38.4467C48.2902 38.4467 51.2796 36.395 54.4211 36.6936ZM53.1528 27C53.3979 29.4532 52.5035 31.9134 51.1706 33.6864C49.8371 35.4559 47.6508 36.8302 45.5107 36.6476C45.2175 34.2457 46.2986 31.7412 47.5339 30.1729C48.9081 28.4054 51.2343 27.0836 53.1528 27Z" fill="#171717"/>
</g>
<rect x="0.5" y="0.5" width="91" height="91" rx="45.5" stroke="white" stroke-opacity="0.25"/>
</g>
<defs>
<clipPath id="clip0_1_3146">
<rect width="92" height="92" rx="46" fill="white"/>
</clipPath>
</defs>
</svg>
