<svg width="297" height="39" viewBox="0 0 297 39" fill="none" xmlns="http://www.w3.org/2000/svg">
<path fill-rule="evenodd" clip-rule="evenodd" d="M223.914 0.156145C182.158 0.5995 170.22 0.887911 147.052 2.01375C123.043 3.18047 105.861 4.35 78.5983 6.67318C72.2783 7.21174 65.5111 7.72285 57.5778 8.26066C28.4354 10.2362 22.7644 10.7627 13.3434 12.3662C8.6756 13.1609 4.63876 13.7108 2.37623 13.8607C0.364659 13.9938 0 14.0777 0 14.4068C0 14.6976 3.21723 14.9524 4.97692 14.8008C5.60753 14.7467 7.31604 14.614 8.77376 14.5063C10.2315 14.3984 13.4394 14.1088 15.9024 13.8628C21.7024 13.2832 24.4872 13.1004 34.4553 12.6451C51.2126 11.8797 63.8715 11.1442 79.4208 10.0326C85.1512 9.62283 92.7597 9.07887 96.3286 8.82369C123.396 6.88805 156.46 5.16203 176.663 4.6302C201.181 3.98448 277.293 3.41363 276.008 3.8848C275.499 4.07167 266.789 5.46146 261.568 6.18913C256.772 6.85761 248.759 7.82179 238.902 8.91645C234.227 9.43579 227.812 10.1545 224.645 10.5137C212.748 11.8631 208.83 12.2817 202.071 12.9255C170.933 15.8912 150.364 18.4755 121.736 23.0189C104.719 25.7193 90.7719 28.8194 75.2069 33.3611C66.3574 35.9432 65.4952 36.4018 66.3662 38.0642C66.933 39.1458 71.3981 39.286 80.404 38.5047C96.8623 37.0772 112.328 35.97 127.311 35.1468C136.709 34.6305 137.954 34.5439 147.509 33.7423C151.078 33.443 157.247 33.0055 161.218 32.7702L168.438 32.3426L158.842 32.174C144.3 31.9184 128.701 31.9339 123.564 32.2091C106.556 33.1201 97.305 33.8212 82.1946 35.3443C78.593 35.7074 75.5545 35.9732 75.4423 35.9351C74.3602 35.5666 98.5807 29.9988 110.135 27.96C136.218 23.3571 163.078 19.9229 204.356 15.9127C208.126 15.5464 215.693 14.7452 221.172 14.1324C226.651 13.5193 235.288 12.5542 240.365 11.9873C259.905 9.80559 265.727 8.99299 284.508 5.82604C296.536 3.79762 296.6 3.78027 296.927 2.44628C297.288 0.979572 296.324 0.314078 293.564 0.123855C290.941 -0.0570333 241.841 -0.0342638 223.914 0.156145ZM169.217 32.1945C169.444 32.2392 169.773 32.2375 169.948 32.1908C170.123 32.1441 169.937 32.1075 169.535 32.1096C169.133 32.1116 168.99 32.1499 169.217 32.1945Z" fill="#FF5B4A"/>
</svg>
