<svg width="234" height="42" viewBox="0 0 234 42" fill="none" xmlns="http://www.w3.org/2000/svg">
<path fill-rule="evenodd" clip-rule="evenodd" d="M198.667 0.114123C191.806 0.291552 185.43 0.600332 171.988 1.40636C156.226 2.35139 149.592 2.88303 142.719 3.75148C140.218 4.06766 139.561 4.03833 137.021 3.49683C123.485 0.611756 99.1403 2.39786 78.0293 7.82469C56.4597 13.3694 36.4851 20.9588 15.1526 31.715C7.63366 35.5062 0 40.597 0 41.8201C0 42.1344 0.0849576 42.0889 1.04048 41.2626C8.81168 34.5427 40.1525 20.9647 63.2005 14.3325C82.6121 8.74649 94.7065 6.37761 109.63 5.2384C117.619 4.6285 130.577 4.67069 131.251 5.30889C131.328 5.38144 131.317 5.42531 131.222 5.42531C130.307 5.42531 119.689 7.67153 115.587 8.73273C101.862 12.2835 92.2332 16.406 85.0866 21.7919C73.4836 30.5361 81.7399 38.2123 100.37 36.001C113.937 34.3906 127.525 29.9897 138.959 23.5022C149.53 17.5048 152.177 11.0362 145.827 6.71962L144.986 6.14735L145.568 6.05053C147.81 5.67815 158.528 4.84889 170.369 4.13165C192.38 2.79853 200.779 2.51882 216.604 2.59177C225.102 2.63097 226.095 2.61331 227.807 2.39266C228.84 2.25949 230.559 2.11257 231.627 2.0661C233.243 1.99588 233.461 1.96421 232.922 1.87802C232.566 1.82117 230.847 1.4902 229.102 1.14262C224.965 0.31868 224.465 0.251185 221.396 0.103349C218.432 -0.039425 204.35 -0.0328045 198.667 0.114123ZM233.74 2.1393C233.833 2.17681 233.945 2.17214 233.988 2.12905C234.031 2.08596 233.955 2.05532 233.818 2.0609C233.667 2.06713 233.637 2.0979 233.74 2.1393ZM141.554 7.47372C150.234 10.939 147.58 16.3286 133.783 23.2533C124.575 27.8751 115.244 31.0079 105.161 32.8636C86.3657 36.323 76.0699 31.8216 85.2509 24.1588C94.2486 16.6488 111.284 10.9009 135.208 7.30304C139.033 6.72779 139.732 6.74661 141.554 7.47372Z" fill="#FF5B4A"/>
</svg>
