<svg width="92" height="92" viewBox="0 0 92 92" fill="none" xmlns="http://www.w3.org/2000/svg">
<g opacity="0.99">
<g clip-path="url(#clip0_3_83)">
<path d="M81.0475 0H10.9523C4.90343 0 -0.00012207 4.90355 -0.00012207 10.9524V81.0476C-0.00012207 87.0965 4.90343 92 10.9523 92H81.0475C87.0963 92 91.9999 87.0965 91.9999 81.0476V10.9524C91.9999 4.90355 87.0963 0 81.0475 0Z" fill="white" fill-opacity="0.94"/>
<g clip-path="url(#clip1_3_83)">
<path fill-rule="evenodd" clip-rule="evenodd" d="M57.7887 54.8796C57.5284 54.72 57.2841 54.5357 57.0591 54.3292C56.9823 54.2524 57.0079 53.9862 57.0335 53.7366C57.0463 53.6163 57.0591 53.4998 57.0591 53.4089C57.1909 52.8956 57.0975 52.3503 56.8031 51.9113C56.7407 51.8527 56.672 51.8012 56.5983 51.7577V50.9385C56.5496 47.7805 55.316 44.7561 53.1423 42.4649C52.2847 41.6526 51.7028 40.5923 51.4783 39.4326V39.1382C51.4783 37.3718 51.4783 33.6854 49.5583 31.7539C49.1408 31.3334 48.6415 31.0029 48.0914 30.7828C47.5413 30.5626 46.9519 30.4575 46.3596 30.4739C43.6716 30.4739 41.8796 31.7539 41.8796 38.1539C41.7653 39.8243 41.2432 41.4412 40.3589 42.863C40.0133 43.5286 39.6677 44.2198 39.3605 44.9494C38.4977 46.9195 37.8414 48.9738 37.4021 51.0793C37.1272 51.2395 36.8937 51.4619 36.7203 51.7286C36.5469 51.9954 36.4385 52.299 36.4037 52.6153L36.3013 53.0377C36.0775 53.1205 35.8459 53.1805 35.6101 53.2169C34.8421 53.3705 33.5621 53.6265 33.5621 54.7913C33.5672 55.1049 33.6005 55.4185 33.6645 55.7257C33.815 56.4262 33.7797 57.1538 33.5621 57.8364C33.5547 57.8916 33.5547 57.9476 33.5621 58.0028C33.5621 59.4467 35.7125 59.7052 37.1679 59.8806L37.4021 59.91H37.9653C38.3148 60.0137 38.654 60.1507 38.9765 60.3196C39.8751 60.8059 40.8641 61.1022 41.8821 61.19C42.0902 61.1879 42.2956 61.1424 42.4851 61.0564C42.6747 60.9705 42.8442 60.8459 42.9829 60.6908H43.0469C44.0787 60.1832 45.2122 59.9162 46.3621 59.91H50.2776C50.3442 60.1699 50.4709 60.4118 50.6488 60.614C51.0328 61.0108 51.5704 61.2207 52.1208 61.19C52.748 61.1723 53.3627 61.0107 53.9175 60.7178C54.4724 60.4248 54.9525 60.0083 55.3208 59.5004L55.7304 59.078C56.1848 58.7324 56.702 58.4764 57.2524 58.3228C58.174 57.99 59.1212 57.6444 59.1212 56.71C59.1212 55.7859 58.4069 55.2995 57.8092 54.8924L57.79 54.8796H57.7887ZM47.6383 34.3139C48.3807 34.3139 48.9183 35.1075 48.9183 36.2083C48.9183 37.3091 48.4959 37.9235 47.8815 38.0643C48.0072 37.9584 48.1063 37.8244 48.1707 37.6733C48.2352 37.5221 48.2633 37.3579 48.2527 37.1939C48.2527 36.6691 47.9711 36.2339 47.6383 36.2339C47.3055 36.2339 47.0239 36.6563 47.0239 37.1939C47.0133 37.3579 47.0414 37.5221 47.1058 37.6733C47.1703 37.8244 47.2694 37.9584 47.3951 38.0643C46.7807 37.9107 46.3583 37.1683 46.3583 36.2083C46.3583 35.2483 46.8959 34.3139 47.6383 34.3139ZM45.0783 40.7139C46.2169 40.486 47.2864 39.995 48.2015 39.2803C47.494 38.6821 46.6343 38.2922 45.7183 38.1539C44.7344 38.2435 43.8204 38.7005 43.1583 39.4339C43.6856 40.0099 44.3436 40.4489 45.0783 40.7139ZM43.7983 34.3139C44.5407 34.3139 45.0783 35.1075 45.0783 36.2083C45.0783 37.3091 44.6559 37.9107 44.0415 38.0643C44.1672 37.9584 44.2663 37.8244 44.3307 37.6733C44.3952 37.5221 44.4233 37.3579 44.4127 37.1939C44.4127 36.6691 44.1311 36.2339 43.7983 36.2339C43.4655 36.2339 43.1839 36.6563 43.1839 37.1939C43.1733 37.3579 43.2014 37.5221 43.2658 37.6733C43.3303 37.8244 43.4294 37.9584 43.5551 38.0643C42.9407 37.9107 42.5183 37.1811 42.5183 36.2083C42.5183 35.2355 43.0559 34.3139 43.7983 34.3139ZM41.8783 59.91C42.0319 59.91 42.1471 59.782 42.2239 59.5388C42.3108 58.9683 42.2258 58.3849 41.9799 57.8628C41.7339 57.3408 41.338 56.9038 40.8428 56.6076C39.9602 55.8283 39.2832 54.8435 38.8716 53.7404C38.664 53.1882 38.3607 52.6769 37.9756 52.23C37.886 52.23 37.822 52.23 37.6556 52.9084C37.5973 53.2952 37.4334 53.6584 37.182 53.958C36.8088 54.2379 36.3661 54.4106 35.902 54.4572C35.5295 54.4977 35.1686 54.6107 34.8396 54.79C34.8498 55.0307 34.8805 55.2713 34.9292 55.5068C35.1174 56.3525 35.0955 57.2315 34.8652 58.0668C34.9932 58.246 35.582 58.4764 37.4892 58.63H38.206C38.6527 58.7478 39.0815 58.9193 39.486 59.142C40.227 59.5495 41.0397 59.8103 41.8796 59.91H41.8783ZM50.3775 55.6988C48.4959 57.5932 44.7327 57.4652 43.0687 57.2092C42.7177 56.5486 42.2128 55.9823 41.5967 55.558C40.9106 54.894 40.3819 54.0849 40.0492 53.19C39.7863 52.4292 39.3478 51.7412 38.7692 51.1817C39.1891 49.2147 39.8022 47.2939 40.5996 45.4473C40.7724 45.0121 40.9759 44.6089 41.1884 44.1903C41.3061 43.9561 41.4277 43.7167 41.5468 43.4646C42.014 42.6044 42.4159 41.711 42.75 40.7894C43.404 41.3929 44.2088 41.8086 45.0796 41.9926C46.3583 41.67 47.5794 41.1516 48.702 40.4566C50.5704 43.9827 51.525 47.921 51.4783 51.9113C50.793 53.0545 50.4139 54.355 50.3775 55.6873V55.6988ZM54.8703 58.1948C55.4487 57.7045 56.1244 57.3424 56.853 57.1324V57.1196C57.2255 57.0172 57.58 56.8572 57.9026 56.646C57.877 56.5052 57.5698 56.2876 57.0834 55.9676C56.7484 55.761 56.4353 55.5208 56.149 55.2508C55.8898 54.9713 55.7399 54.6078 55.7266 54.2268C55.4665 54.4422 55.1663 54.604 54.8434 54.7028C54.5204 54.8017 54.1811 54.8357 53.845 54.8028H53.397C53.158 54.8074 52.9206 54.7619 52.7002 54.6693C52.4797 54.5767 52.2811 54.4391 52.117 54.2652C52.0562 54.1969 52.0006 54.1242 51.9506 54.0476C51.8354 54.6236 51.477 58.246 51.477 58.63L51.4642 58.8476L51.4616 58.8988C51.4463 59.1254 51.4156 59.5683 51.5935 59.7692C51.6663 59.8285 51.7502 59.8727 51.8404 59.899C51.9305 59.9254 52.025 59.9335 52.1183 59.9228C52.5782 59.9082 53.0281 59.7845 53.4309 59.5619C53.8337 59.3394 54.1779 59.0244 54.4351 58.6428L54.8703 58.1948Z" fill="#FF5B4A" fill-opacity="0.94"/>
</g>
</g>
</g>
<defs>
<clipPath id="clip0_3_83">
<rect width="92" height="92" rx="46" fill="white"/>
</clipPath>
<clipPath id="clip1_3_83">
<rect width="32" height="32" fill="white" transform="translate(29.9999 29.8326)"/>
</clipPath>
</defs>
</svg>
