<svg width="212" height="43" viewBox="0 0 212 43" fill="none" xmlns="http://www.w3.org/2000/svg">
<g clip-path="url(#clip0_5492_78)">
<path d="M21.4364 42.9525C33.2755 42.9525 42.8729 33.3551 42.8729 21.516C42.8729 9.677 33.2755 0.0795898 21.4364 0.0795898C9.59742 0.0795898 0 9.677 0 21.516C0 33.3551 9.59742 42.9525 21.4364 42.9525Z" fill="#FF5B4A"/>
<mask id="mask0_5492_78" style="mask-type:alpha" maskUnits="userSpaceOnUse" x="0" y="0" width="43" height="43">
<path d="M21.4364 42.9525C33.2755 42.9525 42.8729 33.3551 42.8729 21.516C42.8729 9.677 33.2755 0.0795898 21.4364 0.0795898C9.59741 0.0795898 0 9.677 0 21.516C0 33.3551 9.59741 42.9525 21.4364 42.9525Z" fill="#2476F2"/>
</mask>
<g mask="url(#mask0_5492_78)">
<path d="M-11.9255 36.9033L-13.7461 32.8575L5.27296 24.2206C5.65655 24.0465 5.83856 23.604 5.68859 23.2103C5.53626 22.8104 5.72653 22.3616 6.11983 22.1931L32.0552 11.0779C32.7363 10.7859 33.077 10.6399 33.3923 10.7087C33.4942 10.731 33.5919 10.7689 33.6822 10.8212C33.9613 10.9829 34.1144 11.3204 34.4206 11.9954L35.9022 15.2614C36.2152 15.9519 36.3718 16.297 36.3053 16.6184C36.2839 16.7221 36.2462 16.8219 36.1936 16.9139C36.0308 17.1989 35.6851 17.354 34.9934 17.6646L9.02023 29.3258C8.63296 29.4997 8.17835 29.3223 8.01113 28.9322C7.8446 28.5436 7.39279 28.3657 7.0061 28.5366L-11.9255 36.9033Z" fill="white"/>
<path d="M17.2634 26.9714L16.8651 25.7769L20.9328 23.9663L21.9761 26.5035C22.0816 26.76 22.1343 26.8882 22.1075 26.9817C22.0968 27.0185 22.0867 27.0393 22.0638 27.0702C22.0062 27.1485 21.8444 27.1924 21.521 27.2805C20.3836 27.59 20.4319 28.6447 20.6412 29.2158L34.8015 68.6622H30.8231L20.1275 38.8627C19.8034 37.9599 19.6414 37.5085 19.4706 37.4877C19.4161 37.481 19.3607 37.4907 19.3115 37.5154C19.1577 37.5927 19.1577 38.0724 19.1577 39.0315V68.6622H15.8537V38.9122C15.8537 37.9889 15.8537 37.5272 15.7015 37.4494C15.6527 37.4247 15.5977 37.4147 15.5433 37.4207C15.3735 37.4399 15.2112 37.8721 14.8866 38.7367L3.64901 68.6622H0.0078125L14.1444 30.1975C14.2978 29.78 14.3745 29.5714 14.5266 29.4333C14.5795 29.3853 14.6384 29.3442 14.7018 29.311C14.8839 29.2158 15.1063 29.2158 15.5509 29.2158H15.6039C15.705 29.2158 15.7555 29.2158 15.7899 29.1939C15.8029 29.1857 15.8116 29.178 15.8215 29.1663C15.8477 29.135 15.8552 29.0789 15.8701 28.9665C15.9824 28.1178 16.6515 27.5536 17.1267 27.2941C17.2193 27.2437 17.2654 27.2184 17.2851 27.1842C17.2924 27.1715 17.2967 27.1607 17.3 27.1464C17.3089 27.108 17.2937 27.0625 17.2634 26.9714Z" fill="white"/>
</g>
<path d="M64.7127 16.8473V20.368H69.176V22.4458H64.7127V26.1588H69.7532V28.2366H62V14.7695H69.7532V16.8473H64.7127ZM77.5425 22.7921L80.9862 28.2366H77.9465L75.9072 25.0238L73.9449 28.2366H71.213L74.6568 23.0423L71.213 17.5784H74.2527L76.292 20.8105L78.2544 17.5784H81.0055L77.5425 22.7921ZM88.7099 17.4245C89.6205 17.4245 90.4541 17.6553 91.2109 18.1171C91.9676 18.5788 92.5641 19.2265 93.0001 20.0603C93.4363 20.881 93.6543 21.8238 93.6543 22.8883C93.6543 23.9529 93.4363 24.9084 93.0001 25.7548C92.5641 26.5886 91.9676 27.2363 91.2109 27.698C90.4541 28.1598 89.6205 28.3906 88.7099 28.3906C87.9403 28.3906 87.267 28.2175 86.6898 27.8712C86.1255 27.5249 85.6573 27.0503 85.2853 26.4474V33.3157H82.5728V17.5784H85.2853V19.2329C85.6316 18.6686 86.0934 18.2261 86.6705 17.9055C87.2606 17.5849 87.9403 17.4245 88.7099 17.4245ZM88.0942 19.7717C87.6069 19.7717 87.1451 19.8934 86.7091 20.1371C86.2858 20.3809 85.9395 20.74 85.6702 21.2145C85.4136 21.6891 85.2853 22.2534 85.2853 22.9075C85.2853 23.5617 85.4136 24.126 85.6702 24.6006C85.9395 25.0751 86.2858 25.4342 86.7091 25.678C87.1451 25.9217 87.6069 26.0434 88.0942 26.0434C88.5816 26.0434 89.0369 25.9217 89.4602 25.678C89.8962 25.4342 90.2425 25.0751 90.4991 24.6006C90.7684 24.1132 90.9031 23.5424 90.9031 22.8883C90.9031 22.2342 90.7684 21.6699 90.4991 21.1953C90.2425 20.7207 89.8962 20.368 89.4602 20.1371C89.0369 19.8934 88.5816 19.7717 88.0942 19.7717ZM98.4932 14V28.2366H95.7805V14H98.4932ZM106.151 17.4245C107.164 17.4245 108.087 17.649 108.921 18.0979C109.755 18.5468 110.415 19.1881 110.903 20.0217C111.39 20.8426 111.634 21.7981 111.634 22.8883C111.634 23.9785 111.39 24.9405 110.903 25.7741C110.415 26.6078 109.748 27.2555 108.902 27.7172C108.068 28.1662 107.138 28.3906 106.112 28.3906C105.099 28.3906 104.175 28.1662 103.342 27.7172C102.508 27.2555 101.847 26.6078 101.36 25.7741C100.886 24.9405 100.648 23.9785 100.648 22.8883C100.648 21.7981 100.892 20.8426 101.379 20.0217C101.867 19.1881 102.527 18.5468 103.361 18.0979C104.195 17.649 105.124 17.4245 106.151 17.4245ZM106.131 19.714C105.362 19.714 104.714 19.9897 104.188 20.5412C103.662 21.0927 103.399 21.8815 103.399 22.9075C103.399 23.6001 103.521 24.1902 103.765 24.6775C104.022 25.1521 104.355 25.5112 104.765 25.7548C105.176 25.9857 105.625 26.1011 106.112 26.1011C106.587 26.1011 107.036 25.9794 107.459 25.7357C107.882 25.4919 108.222 25.1328 108.478 24.6583C108.748 24.1709 108.882 23.5873 108.882 22.9075C108.882 22.2149 108.754 21.6313 108.498 21.1568C108.241 20.6694 107.901 20.3103 107.478 20.0794C107.068 19.8357 106.619 19.714 106.131 19.714ZM116.492 19.4638C116.825 18.8225 117.255 18.3223 117.781 17.9632C118.32 17.604 118.929 17.4245 119.609 17.4245V20.1949H118.935C118.127 20.1949 117.518 20.4001 117.108 20.8105C116.697 21.2082 116.492 21.9008 116.492 22.8883V28.2366H113.779V17.5784H116.492V19.4638ZM131.408 22.7537C131.408 23.1256 131.382 23.4719 131.331 23.7926H123.559C123.623 24.4852 123.879 25.0431 124.328 25.4662C124.777 25.8895 125.348 26.1011 126.041 26.1011C126.579 26.1011 127.009 25.9985 127.33 25.7934C127.65 25.5881 127.913 25.3059 128.118 24.9469H131.043C130.735 25.9601 130.138 26.7873 129.254 27.4286C128.368 28.0699 127.298 28.3906 126.041 28.3906C125.027 28.3906 124.123 28.1662 123.328 27.7172C122.533 27.2555 121.911 26.6143 121.462 25.7934C121.013 24.9596 120.788 23.9913 120.788 22.8883C120.788 21.7853 121.013 20.8233 121.462 20.0025C121.911 19.1817 122.533 18.5468 123.328 18.0979C124.136 17.649 125.053 17.4245 126.079 17.4245C127.105 17.4245 128.016 17.6426 128.811 18.0786C129.619 18.5146 130.254 19.1368 130.716 19.9448C131.177 20.74 131.408 21.6762 131.408 22.7537ZM128.599 22.0418C128.561 21.3363 128.298 20.772 127.811 20.3488C127.336 19.9255 126.746 19.714 126.041 19.714C125.386 19.714 124.829 19.9255 124.367 20.3488C123.918 20.772 123.649 21.3363 123.559 22.0418H128.599ZM136.257 19.4638C136.59 18.8225 137.02 18.3223 137.546 17.9632C138.085 17.604 138.694 17.4245 139.373 17.4245V20.1949H138.7C137.892 20.1949 137.283 20.4001 136.872 20.8105C136.462 21.2082 136.257 21.9008 136.257 22.8883V28.2366H133.544V17.5784H136.257V19.4638ZM142.996 14.808L146.671 25.524L150.346 14.808H153.232L148.306 28.2366H145.036L140.13 14.808H142.996ZM157.656 22.8883V28.2366H154.943V14.808H159.888C160.927 14.808 161.812 14.994 162.543 15.3659C163.273 15.7251 163.818 16.2125 164.178 16.8281C164.55 17.4309 164.736 18.1043 164.736 18.8482C164.736 19.5023 164.575 20.1371 164.255 20.7527C163.947 21.3556 163.428 21.8622 162.696 22.2727C161.979 22.6831 161.042 22.8883 159.888 22.8883H157.656ZM159.888 20.8105C160.567 20.8105 161.087 20.6374 161.447 20.2911C161.805 19.932 161.985 19.451 161.985 18.8482C161.985 18.2453 161.805 17.7708 161.447 17.4245C161.087 17.0654 160.567 16.8858 159.888 16.8858H157.656V20.8105H159.888ZM178.285 28.2366H175.572L169.493 18.9251V28.2366H166.779V14.7695H169.493L175.572 24.0812V14.7695H178.285V28.2366Z" fill="white"/>
</g>
<defs>
<clipPath id="clip0_5492_78">
<rect width="211.033" height="43" fill="white"/>
</clipPath>
</defs>
</svg>
