<svg width="92" height="92" viewBox="0 0 92 92" fill="none" xmlns="http://www.w3.org/2000/svg">
<g opacity="0.99">
<rect width="92" height="92" rx="46" fill="white" fill-opacity="0.28"/>
<g clip-path="url(#clip0_4_109)">
<path fill-rule="evenodd" clip-rule="evenodd" d="M46 61.8326C37.1637 61.8326 30 54.6688 30 45.8326C30 36.9963 37.1637 29.8326 46 29.8326C54.8363 29.8326 62 36.9963 62 45.8326C62 54.6688 54.8363 61.8326 46 61.8326ZM37.3536 50.4859C37.3536 53.2576 39.4896 55.2736 42.1536 55.2736C44.8053 55.2736 47.0016 53.2219 47.0016 50.4502C47.0016 47.7019 44.8533 45.6379 42.1893 45.6379C41.5522 45.6344 40.9208 45.7574 40.3317 45.9999C39.7425 46.2425 39.2074 46.5996 38.7575 47.0507C38.3075 47.5017 37.9517 48.0377 37.7106 48.6274C37.4695 49.2171 37.348 49.8488 37.3531 50.4859H37.3536ZM38.9013 50.4496C38.9013 48.5419 40.3291 47.0059 42.1771 47.0059C44.0133 47.0059 45.4533 48.5419 45.4533 50.4496C45.4533 52.3579 44.0133 53.9056 42.1771 53.9056C40.3291 53.9056 38.9013 52.3579 38.9013 50.4496ZM50.8107 55.2742C52.888 55.2742 54.064 53.8939 54.064 52.5259C54.064 51.1339 53.176 50.1382 51.496 49.8022L50.3067 49.5739C49.552 49.4176 49.12 48.8539 49.12 48.3259C49.12 47.6059 49.8267 46.9579 50.7403 46.9579C51.736 46.9579 52.3723 47.7019 52.5403 48.3739L53.9067 47.9419C53.7157 46.9216 52.84 45.6379 50.7157 45.6379C49.0224 45.6379 47.6064 46.9099 47.6064 48.4576C47.6064 49.6822 48.4464 50.7019 49.9947 51.0139L51.1467 51.2539C51.9403 51.4219 52.5387 51.8539 52.5387 52.6219C52.5387 53.4139 51.7707 53.9419 50.8363 53.9419C49.7067 53.9419 48.9627 53.2336 48.7589 52.1419L47.3333 52.5259C47.464 53.8582 48.616 55.2742 50.8133 55.2742H50.8107ZM39.952 40.3659V43.1659H41.0533V40.3846C41.0533 39.6283 41.464 39.1243 42.1547 39.1243C42.92 39.1243 43.2187 39.647 43.2187 40.3563V43.1659H44.3291V40.0859C44.3291 38.9568 43.7787 38.0699 42.5184 38.0699C41.7536 38.0699 41.2677 38.3499 40.7824 38.8912C40.5029 38.3872 40.008 38.0699 39.2427 38.0699C38.8507 38.0699 38.2347 38.2192 37.7589 38.8539V38.1819H36.6763V43.1659H37.7867V40.3936C37.7867 39.6379 38.1973 39.1243 38.8789 39.1243C39.6437 39.1243 39.952 39.6656 39.952 40.3659ZM49.696 43.1659V39.9926C49.696 39.6566 49.6496 39.3675 49.528 39.0966C49.2011 38.3776 48.5013 38.079 47.6613 38.079C47.2971 38.079 46.9424 38.1446 46.6533 38.2752C45.9627 38.5739 45.5797 39.2086 45.5333 39.6283L46.5413 39.8523C46.6251 39.3766 47.0267 39.031 47.6331 39.031C48.2869 39.031 48.6133 39.3952 48.6133 39.7872C48.6133 40.0299 48.4827 40.2075 48.1467 40.2075H47.5307C46.6629 40.2075 45.4587 40.5712 45.4587 41.7286V41.7846C45.4587 42.6432 46.168 43.2496 47.1387 43.2496C47.6053 43.2496 48.24 43.0912 48.6043 42.4848V43.1659H49.696ZM48.6043 41.1499C48.6043 41.8966 48.1189 42.3632 47.3627 42.3632C46.896 42.3632 46.5691 42.0923 46.5691 41.6822C46.5691 41.2155 47.1109 40.991 47.5307 40.991H48.6043V41.1499ZM53.392 43.2502C54.7456 43.2502 55.52 42.3819 55.744 41.6166L54.7264 41.2902C54.5771 41.6726 54.2693 42.2416 53.4107 42.2416C52.5611 42.2416 51.936 41.5792 51.936 40.6459C51.936 39.7035 52.5893 39.0875 53.4011 39.0875C54.232 39.0875 54.5957 39.6283 54.7077 40.0208L55.7157 39.6848C55.5013 38.8448 54.6427 38.0795 53.4107 38.0795C51.9264 38.0795 50.7973 39.2459 50.7973 40.6646C50.7973 42.1302 51.9264 43.2502 53.392 43.2502Z" fill="white"/>
</g>
</g>
<defs>
<clipPath id="clip0_4_109">
<rect width="32" height="32" fill="white" transform="translate(30 29.8326)"/>
</clipPath>
</defs>
</svg>
