<svg width="24" height="25" viewBox="0 0 24 25" fill="none" xmlns="http://www.w3.org/2000/svg">
<path d="M9.76943 15.207L9.34724 19.694C9.34724 19.694 9.17051 21.0689 10.5451 19.694C11.9196 18.3192 13.2353 17.259 13.2353 17.259" fill="white"/>
<path d="M6.89395 13.8633L2.36987 12.3893C2.36987 12.3893 1.82919 12.1699 2.00329 11.6725C2.03913 11.5699 2.11143 11.4827 2.3277 11.3327C3.33011 10.634 20.8816 4.32549 20.8816 4.32549C20.8816 4.32549 21.3772 4.15849 21.6694 4.26957C21.7417 4.29195 21.8068 4.33313 21.858 4.38891C21.9091 4.44469 21.9446 4.51306 21.9606 4.58702C21.9922 4.71766 22.0054 4.85206 21.9999 4.98635C21.9985 5.10252 21.9844 5.21019 21.9738 5.37904C21.8669 7.1038 18.6679 19.9762 18.6679 19.9762C18.6679 19.9762 18.4765 20.7295 17.7908 20.7553C17.6223 20.7607 17.4544 20.7322 17.2971 20.6714C17.1399 20.6105 16.9965 20.5187 16.8755 20.4012C15.5298 19.2437 10.8787 16.118 9.851 15.4305C9.82781 15.4147 9.80829 15.3942 9.79374 15.3702C9.77919 15.3462 9.76995 15.3194 9.76665 15.2915C9.75228 15.2191 9.83107 15.1293 9.83107 15.1293C9.83107 15.1293 17.9298 7.93057 18.1453 7.17486C18.162 7.11631 18.099 7.08742 18.0143 7.11307C17.4764 7.31095 8.15172 13.1995 7.12258 13.8494C7.0485 13.8719 6.9702 13.8766 6.89395 13.8633Z" fill="white"/>
</svg>
