<svg width="92" height="92" viewBox="0 0 92 92" fill="none" xmlns="http://www.w3.org/2000/svg">
<g opacity="0.99">
<g clip-path="url(#clip0_3_73)">
<path d="M81.0475 0H10.9523C4.90343 0 -0.00012207 4.90355 -0.00012207 10.9524V81.0476C-0.00012207 87.0965 4.90343 92 10.9523 92H81.0475C87.0963 92 91.9999 87.0965 91.9999 81.0476V10.9524C91.9999 4.90355 87.0963 0 81.0475 0Z" fill="white"/>
<g clip-path="url(#clip1_3_73)">
<path fill-rule="evenodd" clip-rule="evenodd" d="M59.3332 56.6667H32.6665C31.9593 56.6667 31.281 56.3857 30.7809 55.8856C30.2808 55.3855 29.9999 54.7073 29.9999 54V34C29.9999 33.2928 30.2808 32.6145 30.7809 32.1144C31.281 31.6143 31.9593 31.3333 32.6665 31.3333H59.3332C60.0405 31.3333 60.7187 31.6143 61.2188 32.1144C61.7189 32.6145 61.9999 33.2928 61.9999 34V54C61.9999 54.7073 61.7189 55.3855 61.2188 55.8856C60.7187 56.3857 60.0405 56.6667 59.3332 56.6667ZM37.9999 58H53.9999C54.3535 58 54.6926 58.1405 54.9427 58.3905C55.1927 58.6406 55.3332 58.9797 55.3332 59.3333C55.3332 59.687 55.1927 60.0261 54.9427 60.2762C54.6926 60.5262 54.3535 60.6667 53.9999 60.6667H37.9999C37.6463 60.6667 37.3071 60.5262 37.0571 60.2762C36.807 60.0261 36.6665 59.687 36.6665 59.3333C36.6665 58.9797 36.807 58.6406 37.0571 58.3905C37.3071 58.1405 37.6463 58 37.9999 58ZM49.8839 35C50.0465 36.0933 49.5985 37.1653 49.0065 37.924C48.3732 38.7373 47.2839 39.3653 46.2292 39.3333C46.0372 38.2853 46.5319 37.208 47.1292 36.48C47.7892 35.68 48.9185 35.0667 49.8839 35ZM52.0025 50.02C52.4852 49.2867 52.6639 48.916 53.0385 48.0867C50.3185 47.0587 49.8812 43.2133 52.5732 41.7373C51.7519 40.7133 50.5985 40.1213 49.5092 40.1213C48.7225 40.1213 48.1852 40.324 47.6959 40.5093C47.2879 40.664 46.9145 40.804 46.4612 40.804C45.9705 40.804 45.5359 40.6493 45.0812 40.488C44.5812 40.3093 44.0545 40.1213 43.4025 40.1213C42.1785 40.1213 40.8772 40.864 40.0532 42.1347C38.8932 43.9213 39.0905 47.2813 40.9705 50.1453C41.6452 51.172 42.5439 52.3227 43.7172 52.332C44.2052 52.3373 44.5292 52.1933 44.8799 52.0373C45.2825 51.8587 45.7199 51.664 46.4759 51.6587C47.2372 51.6547 47.6665 51.852 48.0625 52.0333C48.4052 52.1907 48.7225 52.336 49.2065 52.3307C50.3812 52.32 51.3292 51.044 52.0025 50.02Z" fill="#FF5B4A"/>
</g>
</g>
</g>
<defs>
<clipPath id="clip0_3_73">
<rect width="92" height="92" rx="46" fill="white"/>
</clipPath>
<clipPath id="clip1_3_73">
<rect width="32" height="32" fill="white" transform="translate(29.9999 30)"/>
</clipPath>
</defs>
</svg>
