<svg width="93" height="92" viewBox="0 0 93 92" fill="none" xmlns="http://www.w3.org/2000/svg">
<g opacity="0.99">
<g clip-path="url(#clip0_142_235)">
<path d="M81.5475 0H11.4523C5.40343 0 0.499878 4.90355 0.499878 10.9524V81.0476C0.499878 87.0965 5.40343 92 11.4523 92H81.5475C87.5963 92 92.4999 87.0965 92.4999 81.0476V10.9524C92.4999 4.90355 87.5963 0 81.5475 0Z" fill="white" fill-opacity="0.28"/>
<g clip-path="url(#clip1_142_235)">
<path fill-rule="evenodd" clip-rule="evenodd" d="M59.8332 56.6666H33.1665C32.4593 56.6666 31.781 56.3857 31.2809 55.8856C30.7808 55.3855 30.4999 54.7072 30.4999 54V34C30.4999 33.2927 30.7808 32.6145 31.2809 32.1144C31.781 31.6143 32.4593 31.3333 33.1665 31.3333H59.8332C60.5405 31.3333 61.2187 31.6143 61.7188 32.1144C62.2189 32.6145 62.4999 33.2927 62.4999 34V54C62.4999 54.7072 62.2189 55.3855 61.7188 55.8856C61.2187 56.3857 60.5405 56.6666 59.8332 56.6666ZM38.4999 58H54.4999C54.8535 58 55.1926 58.1405 55.4427 58.3905C55.6927 58.6406 55.8332 58.9797 55.8332 59.3333C55.8332 59.6869 55.6927 60.0261 55.4427 60.2761C55.1926 60.5262 54.8535 60.6666 54.4999 60.6666H38.4999C38.1463 60.6666 37.8071 60.5262 37.5571 60.2761C37.307 60.0261 37.1665 59.6869 37.1665 59.3333C37.1665 58.9797 37.307 58.6406 37.5571 58.3905C37.8071 58.1405 38.1463 58 38.4999 58ZM50.3839 35C50.5465 36.0933 50.0985 37.1653 49.5065 37.924C48.8732 38.7373 47.7839 39.3653 46.7292 39.3333C46.5372 38.2853 47.0319 37.208 47.6292 36.48C48.2892 35.68 49.4185 35.0666 50.3839 35ZM52.5025 50.02C52.9852 49.2866 53.1639 48.916 53.5385 48.0866C50.8185 47.0586 50.3812 43.2133 53.0732 41.7373C52.2519 40.7133 51.0985 40.1213 50.0092 40.1213C49.2225 40.1213 48.6852 40.324 48.1959 40.5093C47.7879 40.664 47.4145 40.804 46.9612 40.804C46.4705 40.804 46.0359 40.6493 45.5812 40.488C45.0812 40.3093 44.5545 40.1213 43.9025 40.1213C42.6785 40.1213 41.3772 40.864 40.5532 42.1346C39.3932 43.9213 39.5905 47.2813 41.4705 50.1453C42.1452 51.172 43.0439 52.3226 44.2172 52.332C44.7052 52.3373 45.0292 52.1933 45.3799 52.0373C45.7825 51.8586 46.2199 51.664 46.9759 51.6586C47.7372 51.6546 48.1665 51.852 48.5625 52.0333C48.9052 52.1906 49.2225 52.336 49.7065 52.3306C50.8812 52.32 51.8292 51.044 52.5025 50.02Z" fill="white"/>
</g>
</g>
</g>
<defs>
<clipPath id="clip0_142_235">
<rect x="0.5" width="92" height="92" rx="46" fill="white"/>
</clipPath>
<clipPath id="clip1_142_235">
<rect width="32" height="32" fill="white" transform="translate(30.4999 30)"/>
</clipPath>
</defs>
</svg>
