<svg width="179" height="23" viewBox="0 0 179 23" fill="none" xmlns="http://www.w3.org/2000/svg">
<path fill-rule="evenodd" clip-rule="evenodd" d="M47.7096 13.5446C40.0193 15.6231 31.1405 17.6916 22.599 18.2081C15.2984 18.6489 8.24677 17.9642 2.47488 15.051C1.66125 14.6408 0.64236 14.9228 0.202341 15.6819C-0.238348 16.4403 0.0648325 17.3902 0.878465 17.801C7.17489 20.9781 14.8524 21.8091 22.8156 21.3277C31.5107 20.8024 40.5499 18.7202 48.3944 16.6117C49.3047 18.3306 51.1895 19.9332 54.5098 21.1157C59.6096 22.9321 66.5727 22.9096 73.9081 21.886C84.5471 20.4022 95.9916 16.8637 103.35 14.3494C103.652 14.2468 104.101 14.0836 104.651 13.8685C104.819 14.2137 105.007 14.5539 105.215 14.8878C107.019 17.7979 110.212 20.1508 113.465 20.9912C134.097 26.32 158.178 19.9351 177.784 14.7389C178.67 14.5032 179.186 13.6378 178.938 12.808C178.683 11.9783 177.757 11.4962 176.865 11.7319C157.809 16.783 134.413 23.156 114.357 17.9779C111.889 17.3401 109.487 15.5318 108.119 13.3233C107.965 13.0769 107.83 12.8249 107.703 12.5692C110.406 11.3205 113.586 9.57965 115.296 7.71627C117.053 5.806 117.489 3.76692 115.96 1.84102C114.645 0.194622 112.653 0.054553 110.581 0.908079C108.347 1.82226 106.046 3.95948 105.302 4.96245C103.907 6.83583 103.464 8.86806 103.719 10.8496C103.061 11.1085 102.527 11.3011 102.198 11.4136C95.0009 13.8723 83.8146 17.3427 73.4118 18.794C66.7183 19.7282 60.3601 19.8526 55.7064 18.1955C53.7216 17.4883 52.4103 16.663 51.6986 15.705C53.1032 15.3136 54.4575 14.9284 55.7514 14.5607C58.3103 13.8335 63.6381 12.6298 67.4447 10.4844C70.4718 8.77865 72.5244 6.45818 72.405 3.54932C72.3439 2.05487 71.4163 1.05751 69.9399 0.498493C67.7338 -0.336274 63.9185 0.0676573 62.4978 0.349039C58.1889 1.20069 52.4378 4.72611 49.5924 8.6986C48.4568 10.2837 47.7814 11.942 47.7096 13.5446ZM51.2492 12.5679C52.4666 12.2265 53.6431 11.8913 54.7734 11.5699C57.162 10.8909 62.1551 9.81223 65.7094 7.80879C67.5916 6.74829 69.1283 5.47771 69.0538 3.66874C69.0478 3.52804 68.8982 3.48804 68.7661 3.43051C68.5615 3.34234 68.3274 3.28167 68.0779 3.23415C66.3896 2.91275 64.1217 3.22351 63.1934 3.40734C59.578 4.12205 54.7687 7.10159 52.3814 10.435C51.877 11.1391 51.4752 11.8563 51.2492 12.5679ZM107.032 9.41018C108.609 8.6542 110.259 7.74001 111.56 6.74517C112.251 6.2168 112.834 5.67344 113.203 5.10942C113.512 4.64295 113.633 4.1652 113.264 3.70373C113.116 3.51677 112.895 3.51304 112.667 3.54806C112.425 3.58558 112.177 3.66559 111.929 3.76877C110.292 4.44033 108.602 6.0092 108.059 6.74517C107.421 7.59869 107.106 8.50163 107.032 9.41018Z" fill="#FF5B4A"/>
</svg>
