<svg width="310" height="29" viewBox="0 0 310 29" fill="none" xmlns="http://www.w3.org/2000/svg">
<path fill-rule="evenodd" clip-rule="evenodd" d="M273.935 6.18063C273.178 6.08729 268.24 5.76134 262.989 5.34971C257.725 4.99137 248.988 4.25202 243.557 3.67666C177.335 -2.83083 72.832 -0.413917 27.4214 8.66882C17.6987 10.6296 6.9846 14.0323 2.75874 16.5294C-0.608733 18.5193 -1.03382 19.7166 2.26389 17.9932C6.9203 15.557 18.8032 13.446 41.2959 11.1028C48.5792 10.3582 57.384 9.34533 60.8573 8.86974C68.0263 7.92239 101.132 5.11943 113.371 4.41999C128.792 3.50763 156.961 2.72106 172.418 2.73289C192.727 2.76132 212.834 3.13429 213.011 3.52549C213.087 3.66065 206.27 3.90466 197.91 4.06859C182.383 4.32325 147.594 6.09339 133.528 7.37706C116.436 8.91651 96.3696 12.4392 95.5966 14.1124C95.0953 15.1746 99.2137 18.4176 102.13 19.2174C106.556 20.4313 121.186 21.4729 136.209 21.6513C221.969 22.6058 245.611 23.5483 294.163 27.8375C303.108 28.634 310.24 29.1048 309.994 28.9801C309.477 28.6098 276.969 24.4362 267.451 23.4826C238.245 20.5571 201.171 18.9016 152.456 18.2234C116.815 17.7035 99.8444 16.6483 100.319 14.8362C100.947 12.4377 127.663 9.31058 160.486 7.80107C196.804 6.16433 230.292 6.37953 266.351 8.49948C278.723 9.20774 280.686 9.17461 280.364 8.05813C280.229 7.50703 276.494 6.42546 273.935 6.18063ZM215.243 3.73794C215.045 3.855 214.563 3.77975 214.24 3.51989C213.865 3.24574 214.063 3.1287 214.636 3.28579C215.223 3.38959 215.494 3.63517 215.243 3.73794Z" fill="#0F0F0F"/>
<path fill-rule="evenodd" clip-rule="evenodd" d="M273.935 6.18063C273.178 6.08729 268.24 5.76134 262.989 5.34971C257.725 4.99137 248.988 4.25202 243.557 3.67666C177.335 -2.83083 72.832 -0.413917 27.4214 8.66882C17.6987 10.6296 6.9846 14.0323 2.75874 16.5294C-0.608733 18.5193 -1.03382 19.7166 2.26389 17.9932C6.9203 15.557 18.8032 13.446 41.2959 11.1028C48.5792 10.3582 57.384 9.34533 60.8573 8.86974C68.0263 7.92239 101.132 5.11943 113.371 4.41999C128.792 3.50763 156.961 2.72106 172.418 2.73289C192.727 2.76132 212.834 3.13429 213.011 3.52549C213.087 3.66065 206.27 3.90466 197.91 4.06859C182.383 4.32325 147.594 6.09339 133.528 7.37706C116.436 8.91651 96.3696 12.4392 95.5966 14.1124C95.0953 15.1746 99.2137 18.4176 102.13 19.2174C106.556 20.4313 121.186 21.4729 136.209 21.6513C221.969 22.6058 245.611 23.5483 294.163 27.8375C303.108 28.634 310.24 29.1048 309.994 28.9801C309.477 28.6098 276.969 24.4362 267.451 23.4826C238.245 20.5571 201.171 18.9016 152.456 18.2234C116.815 17.7035 99.8444 16.6483 100.319 14.8362C100.947 12.4377 127.663 9.31058 160.486 7.80107C196.804 6.16433 230.292 6.37953 266.351 8.49948C278.723 9.20774 280.686 9.17461 280.364 8.05813C280.229 7.50703 276.494 6.42546 273.935 6.18063ZM215.243 3.73794C215.045 3.855 214.563 3.77975 214.24 3.51989C213.865 3.24574 214.063 3.1287 214.636 3.28579C215.223 3.38959 215.494 3.63517 215.243 3.73794Z" fill="#FF5B4A"/>
</svg>
