<svg width="92" height="92" viewBox="0 0 92 92" fill="none" xmlns="http://www.w3.org/2000/svg">
<g opacity="0.99">
<g clip-path="url(#clip0_1_3133)">
<path d="M81.0476 0H10.9524C4.90355 0 0 4.90355 0 10.9524V81.0476C0 87.0965 4.90355 92 10.9524 92H81.0476C87.0965 92 92 87.0965 92 81.0476V10.9524C92 4.90355 87.0965 0 81.0476 0Z" fill="#F0F3F6"/>
<path fill-rule="evenodd" clip-rule="evenodd" d="M43.1535 31.8242L43.1596 45.4763L29.0129 45.5568L29 33.7517L43.1535 31.8242ZM43.1468 46.8208L43.1576 60.4848L29.011 58.5398L29.0101 46.7292L43.1468 46.8208ZM63.4003 28.833V45.3026L44.6341 45.4514V31.572L63.4003 28.833ZM63.4046 46.9493L63.4001 63.3446L44.6339 60.696L44.6077 46.9186L63.4046 46.9493Z" fill="#171717"/>
</g>
<rect x="0.5" y="0.5" width="91" height="91" rx="45.5" stroke="white" stroke-opacity="0.25"/>
</g>
<defs>
<clipPath id="clip0_1_3133">
<rect width="92" height="92" rx="46" fill="white"/>
</clipPath>
</defs>
</svg>
